<?xml version="1.0" encoding="utf-8"?>
<!-- Generator: Adobe Illustrator 27.9.0, SVG Export Plug-In . SVG Version: 6.00 Build 0)  -->
<svg version="1.1" id="Capa_1" xmlns="http://www.w3.org/2000/svg" xmlns:xlink="http://www.w3.org/1999/xlink" x="0px" y="0px"
	 viewBox="3 210 696 86" style="enable-background:new 0 0 696 528;" xml:space="preserve">
<style type="text/css">
	.st0{display:none;}
	.st1{display:inline;}
	.st2{clip-path:url(#SVGID_00000042011425552555112400000017874137311957126036_);}
	.st3{fill:url(#SVGID_00000062883543315979071780000006095961691663235974_);}
	.st4{fill:url(#SVGID_00000126295983156140231570000002661379593586005392_);}
	.st5{fill:url(#SVGID_00000179628703606130948890000010924778875279961247_);}
	.st6{fill:url(#SVGID_00000024717962503295163170000007570301978393466518_);}
	.st7{fill:url(#SVGID_00000088131591288917483900000018345753715459720583_);}
	.st8{fill:url(#SVGID_00000024705143731914949540000015927715631083124138_);}
	.st9{display:inline;fill:#000B8C;}
	.st10{fill:#6E368C;}
	.st11{fill:#EE7A9D;}
	.st12{fill:#5BC5F2;}
	.st13{fill:#F08159;}
	.st14{fill:#52B374;}
	.st15{fill:#E50056;}
</style>
<g class="st0">
	<g class="st1">
		<g>
			<defs>
				<rect id="SVGID_1_" x="137" y="27" width="407" height="457"/>
			</defs>
			<clipPath id="SVGID_00000068663409080411440100000008565815309099287470_">
				<use xlink:href="#SVGID_1_"  style="overflow:visible;"/>
			</clipPath>
			<g transform="matrix(1 0 0 1 0 0)" style="clip-path:url(#SVGID_00000068663409080411440100000008565815309099287470_);">
				
			</g>
		</g>
	</g>
</g>
<g class="st0">
	<g class="st1">
		<g>
			
				<linearGradient id="SVGID_00000133493943056829453710000018070721795165740986_" gradientUnits="userSpaceOnUse" x1="961.0199" y1="-807.843" x2="1061.0348" y2="-854.4808" gradientTransform="matrix(0.9063 -0.4226 -0.4226 -0.9063 -891.788 -84.642)">
				<stop  offset="0" style="stop-color:#C89211"/>
				<stop  offset="1" style="stop-color:#C89211;stop-opacity:0.3"/>
			</linearGradient>
			<path style="fill:url(#SVGID_00000133493943056829453710000018070721795165740986_);" d="M391.3,264.8c-1.5-0.1-3.6,0.9-4.5,2.1
				l-19.2,25.7c-0.9,1.2-2,1-2.4-0.5L357,261c-0.4-1.5-1.9-3.1-3.4-3.6l-30.4-10.3c-1.5-0.5-1.6-1.6-0.3-2.4l27.1-17.3
				c1.3-0.8,2.4-2.8,2.4-4.3l0.3-32.2c0-1.5,1-2,2.2-1l24.9,20.4c1.2,1,3.4,1.4,4.8,0.9l30.7-9.6c1.5-0.5,2.2,0.3,1.7,1.8l-11.7,30
				c-0.6,1.4-0.3,3.6,0.6,4.9l18.5,26.1c0.9,1.3,0.4,2.2-1.2,2.1L391.3,264.8z"/>
			
				<linearGradient id="SVGID_00000114774672283964122000000008517374148490676391_" gradientUnits="userSpaceOnUse" x1="932.0564" y1="-765.8997" x2="970.6753" y2="-783.908" gradientTransform="matrix(0.9063 -0.4226 -0.4226 -0.9063 -891.788 -84.642)">
				<stop  offset="0" style="stop-color:#C89211"/>
				<stop  offset="1" style="stop-color:#C89211;stop-opacity:0.3"/>
			</linearGradient>
			<path style="fill:url(#SVGID_00000114774672283964122000000008517374148490676391_);" d="M303.9,225c-0.6,0-1.4,0.3-1.7,0.8
				l-7.4,10.2c-0.4,0.5-0.8,0.4-0.9-0.2l-3.2-12.4c-0.2-0.6-0.7-1.2-1.3-1.4l-11.7-4.1c-0.6-0.2-0.6-0.6-0.1-1l10.5-6.9
				c0.5-0.3,0.9-1.1,0.9-1.7l0.1-12.8c0-0.6,0.4-0.8,0.8-0.4l9.6,8.1c0.5,0.4,1.3,0.6,1.9,0.4l11.8-3.8c0.6-0.2,0.9,0.1,0.6,0.7
				l-4.5,11.9c-0.2,0.6-0.1,1.5,0.2,2l7.2,10.4c0.3,0.5,0.1,0.9-0.5,0.8L303.9,225z"/>
			
				<linearGradient id="SVGID_00000078027534408666805650000006320284305792542096_" gradientUnits="userSpaceOnUse" x1="923.3295" y1="-814.7901" x2="945.4984" y2="-825.1276" gradientTransform="matrix(0.9063 -0.4226 -0.4226 -0.9063 -891.788 -84.642)">
				<stop  offset="0" style="stop-color:#C89211"/>
				<stop  offset="1" style="stop-color:#C89211;stop-opacity:0.3"/>
			</linearGradient>
			<path style="fill:url(#SVGID_00000078027534408666805650000006320284305792542096_);" d="M305.1,269c-0.3,0-0.8,0.2-1,0.5
				l-4.3,5.9c-0.2,0.3-0.4,0.2-0.5-0.1l-1.8-7.2c-0.1-0.3-0.4-0.7-0.7-0.8L290,265c-0.3-0.1-0.4-0.4-0.1-0.6l6-4
				c0.3-0.2,0.5-0.6,0.5-1l0.1-7.4c0-0.4,0.2-0.5,0.5-0.2l5.5,4.7c0.3,0.2,0.7,0.3,1.1,0.2l6.8-2.2c0.3-0.1,0.5,0.1,0.4,0.4
				l-2.6,6.9c-0.1,0.3-0.1,0.8,0.1,1.1l4.1,6c0.2,0.3,0.1,0.5-0.3,0.5L305.1,269z"/>
			
				<linearGradient id="SVGID_00000028299833946086970180000016103945095951668876_" gradientUnits="userSpaceOnUse" x1="873.6255" y1="-783.0623" x2="896.5853" y2="-793.7686" gradientTransform="matrix(0.9063 -0.4226 -0.4226 -0.9063 -891.788 -84.642)">
				<stop  offset="0" style="stop-color:#C89211"/>
				<stop  offset="1" style="stop-color:#C89211;stop-opacity:0.3"/>
			</linearGradient>
			<path style="fill:url(#SVGID_00000028299833946086970180000016103945095951668876_);" d="M247.2,261.4c-0.4,0-0.8,0.2-1,0.5
				l-4.4,6.2c-0.2,0.3-0.5,0.2-0.5-0.1l-1.9-7.4c-0.1-0.4-0.4-0.7-0.8-0.9l-7-2.5c-0.3-0.1-0.4-0.4-0.1-0.6l6.2-4.1
				c0.3-0.2,0.5-0.7,0.6-1l0.1-7.7c0-0.4,0.2-0.5,0.5-0.2l5.7,4.9c0.3,0.2,0.8,0.3,1.1,0.2l7-2.3c0.3-0.1,0.5,0.1,0.4,0.4l-2.7,7.2
				c-0.1,0.3-0.1,0.9,0.1,1.2l4.3,6.3c0.2,0.3,0.1,0.5-0.3,0.5L247.2,261.4z"/>
			
				<linearGradient id="SVGID_00000127020213680253812630000009165830080091448710_" gradientUnits="userSpaceOnUse" x1="909.5095" y1="-785.6126" x2="924.8866" y2="-792.783" gradientTransform="matrix(0.9063 -0.4226 -0.4226 -0.9063 -891.788 -84.642)">
				<stop  offset="0" style="stop-color:#C89211"/>
				<stop  offset="1" style="stop-color:#C89211;stop-opacity:0.3"/>
			</linearGradient>
			<path style="fill:url(#SVGID_00000127020213680253812630000009165830080091448710_);" d="M275.4,246.8c-0.2,0-0.5,0.1-0.7,0.3
				l-3,4.2c-0.1,0.2-0.3,0.2-0.4-0.1l-1.3-5c-0.1-0.2-0.3-0.5-0.5-0.6l-4.7-1.7c-0.2-0.1-0.2-0.3,0-0.4l4.2-2.8
				c0.2-0.1,0.4-0.4,0.4-0.7l0.1-5.2c0-0.2,0.2-0.3,0.3-0.2l3.8,3.3c0.2,0.2,0.5,0.2,0.7,0.2l4.7-1.6c0.2-0.1,0.3,0.1,0.3,0.3
				l-1.8,4.9c-0.1,0.2,0,0.6,0.1,0.8l2.9,4.2c0.1,0.2,0.1,0.4-0.2,0.3L275.4,246.8z"/>
			
				<linearGradient id="SVGID_00000165198943088316297510000005790132093564918458_" gradientUnits="userSpaceOnUse" x1="858.6148" y1="-757.9086" x2="872.5621" y2="-764.4124" gradientTransform="matrix(0.9063 -0.4226 -0.4226 -0.9063 -891.788 -84.642)">
				<stop  offset="0" style="stop-color:#C89211"/>
				<stop  offset="1" style="stop-color:#C89211;stop-opacity:0.3"/>
			</linearGradient>
			<path style="fill:url(#SVGID_00000165198943088316297510000005790132093564918458_);" d="M216.6,242.8c-0.2,0-0.5,0.1-0.6,0.3
				l-2.7,3.8c-0.1,0.2-0.3,0.2-0.3-0.1l-1.1-4.6c-0.1-0.2-0.3-0.5-0.5-0.5l-4.2-1.5c-0.2-0.1-0.2-0.2,0-0.4l3.8-2.5
				c0.2-0.1,0.3-0.4,0.3-0.6V232c0-0.2,0.1-0.3,0.3-0.2l3.5,3c0.2,0.1,0.5,0.2,0.7,0.1l4.3-1.4c0.2-0.1,0.3,0,0.2,0.3l-1.6,4.4
				c-0.1,0.2,0,0.5,0.1,0.7l2.6,3.8c0.1,0.2,0.1,0.3-0.2,0.3L216.6,242.8z"/>
		</g>
	</g>
	<path class="st9" d="M667,299c0-2.2,1.6-3.2,4.8-3.2c3.7,0,9.2,2.2,12.4,4.5l7-9.2c-5.1-4-11.7-6.1-18.6-6.1
		c-14.3,0-19.8,8-19.8,15.6c0,15.9,24.3,15.6,24.3,22.2c0,2.7-2.9,4.1-5.9,4.1c-4.8,0-9.9-2.4-13.1-5.7l-7.8,9.9
		c4.7,4.5,11.8,7.5,21.2,7.5c11.8,0,20.7-8.1,20.7-16.9C692,305.1,667,306.2,667,299z M158.3,316.9h19v-11h-19V298h23.2v-11.7h-36.7
		v51h38.3v-11.7h-24.8V316.9z M217.2,316.2c0,5.8-2.5,9.6-8.3,9.6c-6,0-8.4-3.9-8.4-9.6v-29.9H187v31.1c0,11.2,6.9,21.2,22,21.2
		c16,0,21.9-11.5,21.9-21.2v-31.1h-13.7V316.2z M278.5,303.1c0-9.2-5.5-16.7-18.1-16.7h-23.3v51h13.2V320h7.8l8.6,17.4h14.5
		l-10.9-19.6C275.3,314.8,278.5,310,278.5,303.1z M259,309.4h-8.7v-12.3h8.7c3.9,0,6.1,2.1,6.1,6.3
		C265.1,306.8,262.9,309.4,259,309.4z M308.4,285c-16.2,0-26.5,11.9-26.5,26.8c0,14.4,9.6,26.8,26.5,26.8
		c16.4,0,26.5-12.9,26.5-26.8C334.9,297.1,324.3,285,308.4,285z M308.4,325.9c-7.2,0-12.5-5.4-12.5-14.1c0-8.5,5.2-14.1,12.5-14.1
		c8.2,0,12.5,6.7,12.5,14.1C320.9,320.4,315.7,325.9,308.4,325.9z M525.2,285c-16.2,0-26.5,11.9-26.5,26.8
		c0,14.4,9.6,26.8,26.5,26.8c16.4,0,26.5-12.9,26.5-26.8C551.8,297.1,541.2,285,525.2,285z M525.2,325.9c-7.2,0-12.5-5.4-12.5-14.1
		c0-8.5,5.2-14.1,12.5-14.1c8.2,0,12.5,6.7,12.5,14.1C537.8,320.4,532.5,325.9,525.2,325.9z M379.1,286.4l-12.2,22.2l-12.4-22.2
		h-12.9l-2.4,51h13l1-29.9l9.9,17.4h7.4l8.9-17.4l1.2,29.9h13.7l-2.4-51H379.1z M400.3,337.3h13.5v-51h-13.5V337.3z M434.3,286.4
		h-13.5v51h35.9v-11.9h-22.4V286.4z M475.2,286.4h-13.5v51h35.9v-11.9h-22.4V286.4z M588.6,314.8L569,286.4h-12.3v51h13.4v-29.3
		l20.3,29.3H602v-51h-13.4V314.8z M623.1,316.9h19v-11h-19V298h23.2v-11.7h-36.7v51h38.3v-11.7h-24.8V316.9z M4,337.4h16.3v-8.9H13
		V223.9h104.5v104.5h-7.8v8.9h16.8V215H4V337.4z M65.2,258.2c-21,0-38,17-38,38s17,38,38,38s38-17,38-38S86.2,258.2,65.2,258.2z
		 M63.1,267.4C63.1,267.4,63.2,267.3,63.1,267.4c0.2-0.1,0.2-0.1,0.3-0.1s0.1,0,0.2-0.1c0.1,0,0.1-0.1,0.2-0.1c0.1,0,0.1,0,0.2,0
		c1.6-0.4,3.2-0.7,4.9-0.7c10,0,18.2,8.1,18.2,18.2c0,10-8.1,18.2-18.2,18.2c-10,0-18.2-8.1-18.2-18.2
		C50.7,276.6,55.9,269.8,63.1,267.4z M93.8,297.6l0.1-0.2v-0.1l0.1-0.2l0.2-0.4l0.3-0.5l0.1-0.3c0-0.1,0.1-0.2,0.1-0.2l0.2-0.4
		c0.1,1.8,0,3.6-0.3,5.5c-0.2,1.6-0.6,3.1-1.1,4.7c-0.2,0.8-0.5,1.6-0.8,2.3c-0.3,0.8-0.7,1.5-1.1,2.3s-0.8,1.5-1.3,2.2
		c-0.1,0.2-0.2,0.4-0.4,0.5l-0.2,0.3l-0.2,0.3l-0.2,0.3l-0.1,0.1l-0.1,0.1c-0.1,0.2-0.2,0.3-0.4,0.5c-0.2,0.2-0.3,0.4-0.5,0.6
		l-0.1,0.1l0,0l-0.1,0.1l-0.2,0.3c-0.1,0.2-0.3,0.3-0.4,0.5s-0.3,0.3-0.5,0.5c-0.6,0.7-1.3,1.3-2,1.9c-1.4,1.2-2.9,2.3-4.6,3.2
		c-1.6,0.9-3.4,1.7-5.2,2.3c-3.7,1.2-7.6,1.7-11.6,1.4c-3.9-0.3-7.8-1.3-11.4-3c-0.9-0.4-1.8-0.9-2.6-1.4l-0.6-0.4l-0.3-0.2
		l-0.1-0.1c0,0,0,0-0.1-0.1l-0.1-0.1l-0.4-0.3l-0.2-0.1c0.1,0.1,0,0,0,0l-0.1-0.1c-0.2-0.2-0.4-0.3-0.6-0.5
		c-1.6-1.2-3.1-2.6-4.4-4.2c-1.3-1.6-2.5-3.3-3.6-5.1c-0.5-0.9-1-1.9-1.4-2.8c-0.4-1-0.8-2-1.1-3c-0.7-2.1-1.1-4.2-1.3-6.4
		c-0.1-1.1-0.1-2.2-0.1-3.3c0-1.1,0.1-2.2,0.3-3.3c0.3-2.2,0.9-4.3,1.8-6.3c0.1-0.3,0.2-0.5,0.3-0.7s0.2-0.5,0.4-0.7l0.2-0.4
		l0.1-0.2l0.1-0.2l0.2-0.3l0.2-0.4l0.1-0.2c0,0,0.1-0.1,0-0.1v-0.1l0.2-0.4c0.2-0.2,0.3-0.5,0.5-0.7c0.3-0.5,0.7-0.9,1-1.4
		c2.5-3.2,5.6-6,9-8.1c-0.1,0.1-0.2,0.2-0.3,0.4c-0.2,0.3-0.4,0.5-0.6,0.8c-0.2,0.3-0.4,0.5-0.6,0.8c-0.4,0.6-0.8,1.2-1.1,1.8
		c-0.4,0.6-0.7,1.3-1,2s-0.6,1.5-0.8,2.2c-0.9,3.1-1.3,6.7-0.8,10.4c0.5,3.7,1.8,7.7,4.1,11.3c0.3,0.5,0.6,0.9,0.9,1.3
		c0.2,0.2,0.3,0.4,0.5,0.7l0.3,0.3l0.1,0.2l0.1,0.1c0,0,0.1,0.2,0.1,0.1l0.2,0.3l0.1,0.1c0,0,0,0,0.1,0.1l0.1,0.1l0.3,0.3l0.2,0.2
		l0.1,0.2c0.2,0.2,0.4,0.4,0.6,0.6c0.2,0.2,0.4,0.4,0.6,0.6c0.9,0.8,1.8,1.6,2.8,2.3c1,0.7,2,1.4,3.2,1.9c2.2,1.2,4.7,2,7.3,2.4
		c1.3,0.2,2.7,0.3,4,0.3c0.3,0,0.7,0,1,0c0.2,0,0.3,0,0.5,0h0.3h0.1c0.1,0,0,0,0.2,0l0.4-0.1h0.2h0.1h0.1l0.5-0.1h0.3h0.2
		c1.3-0.3,2.6-0.6,3.8-1.1c0.6-0.2,1.2-0.5,1.9-0.8c0.6-0.3,1.2-0.6,1.8-0.9c2.4-1.3,4.6-2.9,6.5-4.9c2-1.9,3.7-4.2,5.2-6.7
		L93.8,297.6z"/>
</g>
<g>
	<g>
		<g>
			<g>
				<g>
					<path class="st10" d="M48.4,273.9v12H4.3v-55h43.1v12H19.7v9.3h24.4v11.6H19.7v10.1H48.4z"/>
					<path class="st10" d="M56.6,261.4v-30.5h15.5v30c0,9.4,3.9,13.2,10.4,13.2c6.4,0,10.4-3.8,10.4-13.2v-30h15.3v30.5
						c0,16.4-9.6,25.6-25.8,25.6C66.1,287,56.6,277.8,56.6,261.4z"/>
					<path class="st10" d="M142.8,271.3h-8.5v14.6h-15.5v-55h25.1c15,0,24.4,7.8,24.4,20.3c0,8.1-3.9,14.1-10.8,17.4l11.9,17.3
						h-16.6L142.8,271.3z M142.9,243.2h-8.6v16.1h8.6c6.4,0,9.7-3,9.7-8C152.6,246.2,149.4,243.2,142.9,243.2z"/>
					<path class="st10" d="M174,258.4c0-16.5,13-28.6,30.5-28.6s30.5,12.1,30.5,28.6s-13,28.6-30.5,28.6S174,274.9,174,258.4z
						 M219.4,258.4c0-9.5-6.5-15.7-14.8-15.7c-8.3,0-14.8,6.2-14.8,15.7c0,9.5,6.5,15.7,14.8,15.7
						C212.9,274.1,219.4,267.9,219.4,258.4z"/>
				</g>
			</g>
			<g>
				<path class="st10" d="M338,230.9h26c18.2,0,30.7,10.6,30.7,27.5c0,16.9-12.5,27.5-30.7,27.5h-26V230.9z M363.4,273.5
					c9.3,0,15.6-5.6,15.6-15.1c0-9.5-6.3-15.1-15.6-15.1h-9.8v30.2H363.4z"/>
				<path class="st10" d="M426.9,271.3h-8.5v14.6h-15.5v-55H428c15,0,24.4,7.8,24.4,20.3c0,8.1-3.9,14.1-10.8,17.4l11.9,17.3h-16.6
					L426.9,271.3z M427,243.2h-8.6v16.1h8.6c6.4,0,9.7-3,9.7-8C436.7,246.2,433.5,243.2,427,243.2z"/>
				<path class="st10" d="M505.1,273.9v12H461v-55h43.1v12h-27.7v9.3h24.4v11.6h-24.4v10.1H505.1z"/>
				<path class="st10" d="M550.5,275.2h-23.2l-4.3,10.7h-15.9l24.3-55h15.3l24.3,55h-16.2L550.5,275.2z M546,263.8l-7.1-17.6
					l-7.1,17.6H546z"/>
				<path class="st10" d="M625.1,285.9l-0.2-29.1l-14.1,23.7h-6.9l-14.1-22.9v28.3h-14.4v-55h12.8l19.3,31.7l18.8-31.7h12.8l0.2,55
					H625.1z"/>
				<path class="st10" d="M646.5,280.9l5.1-11.5c4.9,3.2,11.8,5.4,18.1,5.4c6.4,0,9-1.8,9-4.5c0-8.7-31.3-2.4-31.3-22.8
					c0-9.8,8-17.8,24.3-17.8c7.1,0,14.5,1.6,19.9,4.8l-4.8,11.5c-5.3-2.8-10.4-4.2-15.2-4.2c-6.5,0-8.9,2.2-8.9,4.9
					c0,8.4,31.2,2.1,31.2,22.4c0,9.6-8,17.7-24.3,17.7C660.6,287,651.7,284.6,646.5,280.9z"/>
			</g>
		</g>
	</g>
	<g>
		<path class="st10" d="M285.1,242.6l-6,4.1c-0.2,0.1-0.4,0-0.4-0.2l-0.2-7.3c-0.1-2.3,1.8-4.2,4.1-4.3
			C286.7,234.8,288.4,240.2,285.1,242.6L285.1,242.6z"/>
		<path class="st11" d="M288.2,259.2l-7.3,0.4c-0.2,0-0.3-0.2-0.2-0.4l3.6-6.3c1.1-2,3.7-2.7,5.7-1.6
			C293.6,253.5,292.3,259,288.2,259.2L288.2,259.2z"/>
		<path class="st11" d="M281.1,270.9l-4-6.1c-0.1-0.2,0-0.4,0.2-0.4l7.3-0.1c2.3,0,4.2,1.8,4.2,4.2
			C288.8,272.8,283.4,274.4,281.1,270.9L281.1,270.9z"/>
		<path class="st11" d="M267.4,270.8l3.2-6.5c0.1-0.2,0.3-0.2,0.4,0l3.7,6.3c1.2,2,0.5,4.6-1.5,5.7
			C269.6,278.4,265.5,274.4,267.4,270.8L267.4,270.8z"/>
		<path class="st12" d="M260.8,258.6l7.3-0.4c0.2,0,0.3,0.2,0.2,0.4l-3.6,6.3c-1.1,2-3.7,2.7-5.7,1.6
			C255.4,264.4,256.8,258.8,260.8,258.6L260.8,258.6z"/>
		<path class="st11" d="M268.2,246.9l4,6.1c0.1,0.2,0,0.4-0.2,0.4l-7.3,0.1c-2.3,0-4.2-1.8-4.2-4.2
			C260.5,245.1,265.9,243.5,268.2,246.9L268.2,246.9z"/>
		<path class="st13" d="M250.9,240.2l3.8,6.2c0.1,0.2,0,0.4-0.2,0.4l-7.3-0.2c-2.3-0.1-4.1-2-4.1-4.3
			C243.3,238.2,248.8,236.7,250.9,240.2L250.9,240.2z"/>
		<path class="st10" d="M270.1,288.9l3.5-6.4c0.1-0.2,0.4-0.2,0.4,0l3.5,6.4c1.1,2,0.3,4.6-1.7,5.7
			C272.2,296.6,268.2,292.5,270.1,288.9L270.1,288.9z"/>
		<path class="st13" d="M299.9,278.5l-3.8-6.2c-0.1-0.2,0-0.4,0.2-0.4l7.3,0.2c2.3,0.1,4.1,2,4.1,4.3
			C307.6,280.6,302.1,282,299.9,278.5L299.9,278.5z"/>
		<path class="st14" d="M245.8,270.2l7.3-0.2c0.2,0,0.3,0.2,0.2,0.4l-3.8,6.2c-1.2,2-3.8,2.6-5.8,1.4
			C240.1,275.8,241.7,270.3,245.8,270.2L245.8,270.2z"/>
		<path class="st12" d="M299.3,218.1l-6.4,3.4c-0.2,0.1-0.4,0-0.4-0.3l0.7-7.2c0.2-2.3,2.3-4,4.6-3.8
			C301.9,210.6,303,216.2,299.3,218.1L299.3,218.1z"/>
		<path class="st14" d="M325,247.9l-6.8-2.5c-0.2-0.1-0.2-0.3-0.1-0.4l5.8-4.3c1.9-1.4,4.5-1,5.9,0.9
			C332.4,244.8,328.9,249.3,325,247.9L325,247.9z"/>
		<path class="st15" d="M272,227.8l-1.1,8.6c0,0.2-0.3,0.3-0.5,0.2l-6.6-5.6c-2.1-1.8-2.4-5-0.6-7.1
			C266.5,220.1,272.7,223,272,227.8L272,227.8z"/>
		<path class="st15" d="M305.9,242.3l-8.7-0.4c-0.2,0-0.4-0.3-0.2-0.5l5.1-7.1c1.6-2.3,4.7-2.8,7-1.2
			C313.1,236.1,310.8,242.5,305.9,242.3L305.9,242.3z"/>
		<path class="st15" d="M307.8,264.5l-7.6-4.1c-0.2-0.1-0.2-0.4,0-0.5l7.6-4.1c2.4-1.3,5.5-0.4,6.8,2
			C317,262.1,312.1,266.9,307.8,264.5L307.8,264.5z"/>
		<path class="st15" d="M282.5,283.2l-2.2-8.4c-0.1-0.2,0.2-0.4,0.4-0.4l8.2,2.8c2.6,0.9,4,3.7,3.2,6.4
			C290.6,288.2,283.8,287.9,282.5,283.2L282.5,283.2z"/>
		<path class="st15" d="M257.7,278l6.2-6.1c0.2-0.2,0.5-0.1,0.5,0.2l1.7,8.5c0.6,2.7-1.2,5.4-3.9,5.9
			C257.3,287.5,254.2,281.4,257.7,278L257.7,278z"/>
		<path class="st15" d="M249.8,253.8l8.4,2.3c0.2,0.1,0.3,0.4,0.1,0.5l-6.5,5.8c-2.1,1.8-5.3,1.6-7.1-0.4
			C241.4,258.3,245.1,252.5,249.8,253.8L249.8,253.8z"/>
	</g>
</g>
</svg>
