<?xml version="1.0" encoding="utf-8"?>
<!-- Generator: Adobe Illustrator 25.4.2, SVG Export Plug-In . SVG Version: 6.00 Build 0)  -->
<svg version="1.1" id="Capa_1" xmlns="http://www.w3.org/2000/svg" xmlns:xlink="http://www.w3.org/1999/xlink" x="0px" y="0px"
	 viewBox="3 189 696 150" style="enable-background:new 0 0 696 528;" xml:space="preserve">
<style type="text/css">
	.st0{display:none;}
	.st1{display:inline;}
	.st2{clip-path:url(#SVGID_00000016057022811236122120000003861580735659711395_);}
	.st3{fill:url(#SVGID_00000103231253236744135270000018128136708725799320_);}
	.st4{fill:url(#SVGID_00000077291782273770894900000003807868087811972279_);}
	.st5{fill:url(#SVGID_00000059274214959099106300000000940758760717994119_);}
	.st6{fill:url(#SVGID_00000062886720527297343830000015077163771988822157_);}
	.st7{fill:url(#SVGID_00000147932390720430937460000005757130705009544884_);}
	.st8{fill:url(#SVGID_00000119104572907774724210000008674871617362742690_);}
	.st9{fill:#000B8C;}
</style>
<g class="st0">
	<g class="st1">
		<defs>
			<rect id="SVGID_1_" x="137" y="27" width="407" height="457"/>
		</defs>
		<clipPath id="SVGID_00000154401630921492732450000002243665974979237560_">
			<use xlink:href="#SVGID_1_"  style="overflow:visible;"/>
		</clipPath>
		<g transform="matrix(1 0 0 1 0 0)" style="clip-path:url(#SVGID_00000154401630921492732450000002243665974979237560_);">
		</g>
	</g>
</g>
<g>
	<g>
		<g>
			
				<linearGradient id="SVGID_00000123432720075281626370000000297935977090886803_" gradientUnits="userSpaceOnUse" x1="910.116" y1="1227.4531" x2="1010.131" y2="1274.0909" gradientTransform="matrix(0.9063 -0.4226 0.4226 0.9063 -1022.9811 -486.4543)">
				<stop  offset="0" style="stop-color:#C89211"/>
				<stop  offset="1" style="stop-color:#C89211;stop-opacity:0.3"/>
			</linearGradient>
			<path style="fill:url(#SVGID_00000123432720075281626370000000297935977090886803_);" d="M391.3,264.8c-1.5-0.1-3.6,0.9-4.5,2.1
				l-19.2,25.7c-0.9,1.2-2,1-2.4-0.5l-8.2-31.1c-0.4-1.5-1.9-3.1-3.4-3.6l-30.4-10.3c-1.5-0.5-1.6-1.6-0.3-2.4l27.1-17.3
				c1.3-0.8,2.4-2.8,2.4-4.3l0.3-32.2c0-1.5,1-2,2.2-1l24.9,20.4c1.2,1,3.4,1.4,4.8,0.9l30.7-9.6c1.5-0.5,2.2,0.3,1.7,1.8l-11.7,30
				c-0.6,1.4-0.3,3.6,0.6,4.9l18.5,26.1c0.9,1.3,0.4,2.2-1.2,2.1L391.3,264.8z"/>
			
				<linearGradient id="SVGID_00000039122604453993938680000005281474972935893385_" gradientUnits="userSpaceOnUse" x1="881.0945" y1="1185.6344" x2="919.7134" y2="1203.6427" gradientTransform="matrix(0.9063 -0.4226 0.4226 0.9063 -1022.9811 -486.4543)">
				<stop  offset="0" style="stop-color:#C89211"/>
				<stop  offset="1" style="stop-color:#C89211;stop-opacity:0.3"/>
			</linearGradient>
			<path style="fill:url(#SVGID_00000039122604453993938680000005281474972935893385_);" d="M303.9,225c-0.6,0-1.4,0.3-1.7,0.8
				l-7.4,10.2c-0.4,0.5-0.8,0.4-0.9-0.2l-3.2-12.4c-0.2-0.6-0.7-1.2-1.3-1.4l-11.7-4.1c-0.6-0.2-0.6-0.6-0.1-1l10.5-6.9
				c0.5-0.3,0.9-1.1,0.9-1.7l0.1-12.8c0-0.6,0.4-0.8,0.8-0.4l9.6,8.1c0.5,0.4,1.3,0.6,1.9,0.4l11.8-3.8c0.6-0.2,0.9,0.1,0.6,0.7
				l-4.5,11.9c-0.2,0.6-0.1,1.5,0.2,2l7.2,10.4c0.3,0.5,0.1,0.9-0.5,0.8L303.9,225z"/>
			
				<linearGradient id="SVGID_00000030455827546463096080000000235885313413375654_" gradientUnits="userSpaceOnUse" x1="872.4108" y1="1234.4321" x2="894.5797" y2="1244.7697" gradientTransform="matrix(0.9063 -0.4226 0.4226 0.9063 -1022.9811 -486.4543)">
				<stop  offset="0" style="stop-color:#C89211"/>
				<stop  offset="1" style="stop-color:#C89211;stop-opacity:0.3"/>
			</linearGradient>
			<path style="fill:url(#SVGID_00000030455827546463096080000000235885313413375654_);" d="M305.1,269c-0.3,0-0.8,0.2-1,0.5
				l-4.3,5.9c-0.2,0.3-0.4,0.2-0.5-0.1l-1.8-7.2c-0.1-0.3-0.4-0.7-0.7-0.8L290,265c-0.3-0.1-0.4-0.4-0.1-0.6l6-4
				c0.3-0.2,0.5-0.6,0.5-1l0.1-7.4c0-0.4,0.2-0.5,0.5-0.2l5.5,4.7c0.3,0.2,0.7,0.3,1.1,0.2l6.8-2.2c0.3-0.1,0.5,0.1,0.4,0.4
				l-2.6,6.9c-0.1,0.3-0.1,0.8,0.1,1.1l4.1,6c0.2,0.3,0.1,0.5-0.3,0.5L305.1,269z"/>
			
				<linearGradient id="SVGID_00000088121190796712135920000004695018780533892770_" gradientUnits="userSpaceOnUse" x1="822.7566" y1="1202.5977" x2="845.7164" y2="1213.304" gradientTransform="matrix(0.9063 -0.4226 0.4226 0.9063 -1022.9811 -486.4543)">
				<stop  offset="0" style="stop-color:#C89211"/>
				<stop  offset="1" style="stop-color:#C89211;stop-opacity:0.3"/>
			</linearGradient>
			<path style="fill:url(#SVGID_00000088121190796712135920000004695018780533892770_);" d="M247.2,261.4c-0.4,0-0.8,0.2-1,0.5
				l-4.4,6.2c-0.2,0.3-0.5,0.2-0.5-0.1l-1.9-7.4c-0.1-0.4-0.4-0.7-0.8-0.9l-7-2.5c-0.3-0.1-0.4-0.4-0.1-0.6l6.2-4.1
				c0.3-0.2,0.5-0.7,0.6-1l0.1-7.7c0-0.4,0.2-0.5,0.5-0.2l5.7,4.9c0.3,0.2,0.8,0.3,1.1,0.2l7-2.3c0.3-0.1,0.5,0.1,0.4,0.4l-2.7,7.2
				c-0.1,0.3-0.1,0.9,0.1,1.2l4.3,6.3c0.2,0.3,0.1,0.5-0.3,0.5L247.2,261.4z"/>
			
				<linearGradient id="SVGID_00000166666466014278263400000002242757865774844855_" gradientUnits="userSpaceOnUse" x1="858.587" y1="1205.2627" x2="873.9641" y2="1212.4331" gradientTransform="matrix(0.9063 -0.4226 0.4226 0.9063 -1022.9811 -486.4543)">
				<stop  offset="0" style="stop-color:#C89211"/>
				<stop  offset="1" style="stop-color:#C89211;stop-opacity:0.3"/>
			</linearGradient>
			<path style="fill:url(#SVGID_00000166666466014278263400000002242757865774844855_);" d="M275.4,246.8c-0.2,0-0.5,0.1-0.7,0.3
				l-3,4.2c-0.1,0.2-0.3,0.2-0.4-0.1l-1.3-5c-0.1-0.2-0.3-0.5-0.5-0.6l-4.7-1.7c-0.2-0.1-0.2-0.3,0-0.4l4.2-2.8
				c0.2-0.1,0.4-0.4,0.4-0.7l0.1-5.2c0-0.2,0.2-0.3,0.3-0.2l3.8,3.3c0.2,0.2,0.5,0.2,0.7,0.2l4.7-1.6c0.2-0.1,0.3,0.1,0.3,0.3
				l-1.8,4.9c-0.1,0.2,0,0.6,0.1,0.8l2.9,4.2c0.1,0.2,0.1,0.4-0.2,0.3L275.4,246.8z"/>
			
				<linearGradient id="SVGID_00000168818309930925010200000015250118509753023108_" gradientUnits="userSpaceOnUse" x1="807.7354" y1="1177.4664" x2="821.6827" y2="1183.9702" gradientTransform="matrix(0.9063 -0.4226 0.4226 0.9063 -1022.9811 -486.4543)">
				<stop  offset="0" style="stop-color:#C89211"/>
				<stop  offset="1" style="stop-color:#C89211;stop-opacity:0.3"/>
			</linearGradient>
			<path style="fill:url(#SVGID_00000168818309930925010200000015250118509753023108_);" d="M216.6,242.8c-0.2,0-0.5,0.1-0.6,0.3
				l-2.7,3.8c-0.1,0.2-0.3,0.2-0.3-0.1l-1.1-4.6c-0.1-0.2-0.3-0.5-0.5-0.5l-4.2-1.5c-0.2-0.1-0.2-0.2,0-0.4l3.8-2.5
				c0.2-0.1,0.3-0.4,0.3-0.6l0-4.7c0-0.2,0.1-0.3,0.3-0.2l3.5,3c0.2,0.1,0.5,0.2,0.7,0.1l4.3-1.4c0.2-0.1,0.3,0,0.2,0.3l-1.6,4.4
				c-0.1,0.2,0,0.5,0.1,0.7l2.6,3.8c0.1,0.2,0.1,0.3-0.2,0.3L216.6,242.8z"/>
		</g>
	</g>
	<path class="st9" d="M667,299c0-2.2,1.6-3.2,4.8-3.2c3.7,0,9.2,2.2,12.4,4.5l7-9.2c-5.1-4-11.7-6.1-18.6-6.1
		c-14.3,0-19.8,8-19.8,15.6c0,15.9,24.3,15.6,24.3,22.2c0,2.7-2.9,4.1-5.9,4.1c-4.8,0-9.9-2.4-13.1-5.7l-7.8,9.9
		c4.7,4.5,11.8,7.5,21.2,7.5c11.8,0,20.7-8.1,20.7-16.9C692,305.1,667,306.2,667,299z M158.3,316.9h19v-11h-19v-7.9h23.2v-11.7
		h-36.7v51h38.3v-11.7h-24.8V316.9z M217.2,316.2c0,5.8-2.5,9.6-8.3,9.6c-6,0-8.4-3.9-8.4-9.6v-29.9h-13.5v31.1
		c0,11.2,6.9,21.2,22,21.2c16,0,21.9-11.5,21.9-21.2v-31.1h-13.7V316.2z M278.5,303.1c0-9.2-5.5-16.7-18.1-16.7h-23.3v51h13.2V320
		h7.8l8.6,17.4h14.5l-10.9-19.6C275.3,314.8,278.5,310,278.5,303.1z M259,309.4h-8.7v-12.3h8.7c3.9,0,6.1,2.1,6.1,6.3
		C265.1,306.8,262.9,309.4,259,309.4z M308.4,285c-16.2,0-26.5,11.9-26.5,26.8c0,14.4,9.6,26.8,26.5,26.8
		c16.4,0,26.5-12.9,26.5-26.8C334.9,297.1,324.3,285,308.4,285z M308.4,325.9c-7.2,0-12.5-5.4-12.5-14.1c0-8.5,5.2-14.1,12.5-14.1
		c8.2,0,12.5,6.7,12.5,14.1C320.9,320.4,315.7,325.9,308.4,325.9z M525.2,285c-16.2,0-26.5,11.9-26.5,26.8
		c0,14.4,9.6,26.8,26.5,26.8c16.4,0,26.5-12.9,26.5-26.8C551.8,297.1,541.2,285,525.2,285z M525.2,325.9c-7.2,0-12.5-5.4-12.5-14.1
		c0-8.5,5.2-14.1,12.5-14.1c8.2,0,12.5,6.7,12.5,14.1C537.8,320.4,532.5,325.9,525.2,325.9z M379.1,286.4l-12.2,22.2l-12.4-22.2
		h-12.9l-2.4,51h13l1-29.9l9.9,17.4h7.4l8.9-17.4l1.2,29.9h13.7l-2.4-51H379.1z M400.3,337.3h13.5v-51h-13.5V337.3z M434.3,286.4
		h-13.5v51h35.9v-11.9h-22.4V286.4z M475.2,286.4h-13.5v51h35.9v-11.9h-22.4V286.4z M588.6,314.8L569,286.4h-12.3v51h13.4v-29.3
		l20.3,29.3H602v-51h-13.4V314.8z M623.1,316.9h19v-11h-19v-7.9h23.2v-11.7h-36.7v51h38.3v-11.7h-24.8V316.9z M4,337.4h16.3v-8.9
		h-7.3V223.9h104.5v104.5h-7.8v8.9h16.8V215H4V337.4z M65.2,258.2c-21,0-38,17-38,38c0,21,17,38,38,38c21,0,38-17,38-38
		C103.2,275.2,86.2,258.2,65.2,258.2z M63.1,267.4C63.1,267.4,63.2,267.3,63.1,267.4c0.2-0.1,0.2-0.1,0.3-0.1c0.1,0,0.1,0,0.2-0.1
		c0.1,0,0.1-0.1,0.2-0.1c0.1,0,0.1,0,0.2,0c1.6-0.4,3.2-0.7,4.9-0.7c10,0,18.2,8.1,18.2,18.2c0,10-8.1,18.2-18.2,18.2
		c-10,0-18.2-8.1-18.2-18.2C50.7,276.6,55.9,269.8,63.1,267.4z M93.8,297.6l0.1-0.2l0-0.1l0.1-0.2l0.2-0.4l0.3-0.5l0.1-0.3
		c0-0.1,0.1-0.2,0.1-0.2l0.2-0.4c0.1,1.8,0,3.6-0.3,5.5c-0.2,1.6-0.6,3.1-1.1,4.7c-0.2,0.8-0.5,1.6-0.8,2.3
		c-0.3,0.8-0.7,1.5-1.1,2.3c-0.4,0.8-0.8,1.5-1.3,2.2c-0.1,0.2-0.2,0.4-0.4,0.5l-0.2,0.3l-0.2,0.3l-0.2,0.3l-0.1,0.1l-0.1,0.1
		c-0.1,0.2-0.2,0.3-0.4,0.5c-0.2,0.2-0.3,0.4-0.5,0.6l-0.1,0.1c0,0,0,0,0,0l-0.1,0.1l-0.2,0.3c-0.1,0.2-0.3,0.3-0.4,0.5
		c-0.1,0.2-0.3,0.3-0.5,0.5c-0.6,0.7-1.3,1.3-2,1.9c-1.4,1.2-2.9,2.3-4.6,3.2c-1.6,0.9-3.4,1.7-5.2,2.3c-3.7,1.2-7.6,1.7-11.6,1.4
		c-3.9-0.3-7.8-1.3-11.4-3c-0.9-0.4-1.8-0.9-2.6-1.4l-0.6-0.4l-0.3-0.2l-0.1-0.1c0,0,0,0-0.1-0.1l-0.1-0.1l-0.4-0.3l-0.2-0.1
		c0.1,0.1,0,0,0,0l-0.1-0.1c-0.2-0.2-0.4-0.3-0.6-0.5c-1.6-1.2-3.1-2.6-4.4-4.2c-1.3-1.6-2.5-3.3-3.6-5.1c-0.5-0.9-1-1.9-1.4-2.8
		c-0.4-1-0.8-2-1.1-3c-0.7-2.1-1.1-4.2-1.3-6.4c-0.1-1.1-0.1-2.2-0.1-3.3c0-1.1,0.1-2.2,0.3-3.3c0.3-2.2,0.9-4.3,1.8-6.3
		c0.1-0.3,0.2-0.5,0.3-0.7c0.1-0.2,0.2-0.5,0.4-0.7l0.2-0.4l0.1-0.2l0.1-0.2l0.2-0.3l0.2-0.4l0.1-0.2c0,0,0.1-0.1,0-0.1l0-0.1
		l0.2-0.4c0.2-0.2,0.3-0.5,0.5-0.7c0.3-0.5,0.7-0.9,1-1.4c2.5-3.2,5.6-6,9-8.1c-0.1,0.1-0.2,0.2-0.3,0.4c-0.2,0.3-0.4,0.5-0.6,0.8
		c-0.2,0.3-0.4,0.5-0.6,0.8c-0.4,0.6-0.8,1.2-1.1,1.8c-0.4,0.6-0.7,1.3-1,2c-0.3,0.7-0.6,1.5-0.8,2.2c-0.9,3.1-1.3,6.7-0.8,10.4
		c0.5,3.7,1.8,7.7,4.1,11.3c0.3,0.5,0.6,0.9,0.9,1.3c0.2,0.2,0.3,0.4,0.5,0.7l0.3,0.3l0.1,0.2l0.1,0.1c0,0,0.1,0.2,0.1,0.1l0.2,0.3
		l0.1,0.1c0,0,0,0,0.1,0.1l0.1,0.1l0.3,0.3l0.2,0.2l0.1,0.2c0.2,0.2,0.4,0.4,0.6,0.6c0.2,0.2,0.4,0.4,0.6,0.6
		c0.9,0.8,1.8,1.6,2.8,2.3c1,0.7,2,1.4,3.2,1.9c2.2,1.2,4.7,2,7.3,2.4c1.3,0.2,2.7,0.3,4,0.3c0.3,0,0.7,0,1,0c0.2,0,0.3,0,0.5,0
		l0.3,0l0.1,0c0.1,0,0,0,0.2,0l0.4-0.1l0.2,0l0.1,0l0.1,0l0.5-0.1l0.3,0l0.2,0c1.3-0.3,2.6-0.6,3.8-1.1c0.6-0.2,1.2-0.5,1.9-0.8
		c0.6-0.3,1.2-0.6,1.8-0.9c2.4-1.3,4.6-2.9,6.5-4.9c2-1.9,3.7-4.2,5.2-6.7L93.8,297.6z"/>
</g>
</svg>
