<?xml version="1.0" standalone="no"?>
<!DOCTYPE svg PUBLIC "-//W3C//DTD SVG 20010904//EN"
 "http://www.w3.org/TR/2001/REC-SVG-20010904/DTD/svg10.dtd">
<svg version="1.0" xmlns="http://www.w3.org/2000/svg"
 width="696.000000pt" height="528.000000pt" viewBox="0 0 696.000000 528.000000"
 preserveAspectRatio="xMidYMid meet">

<g transform="translate(0.000000,528.000000) scale(0.100000,-0.100000)"
fill="#21267b" stroke="none">
<path d="M1170 2675 l0 -2365 315 0 315 0 0 175 0 175 -140 0 -140 0 0 2015 0
2015 2015 0 2015 0 0 -2015 0 -2015 -150 0 -150 0 0 -175 0 -175 325 0 325 0
0 2365 0 2365 -2365 0 -2365 0 0 -2365z"/>
<path d="M3345 3359 c-185 -25 -395 -96 -539 -180 -128 -76 -199 -132 -312
-244 -205 -204 -337 -447 -400 -736 -16 -69 -19 -125 -18 -309 0 -218 1 -229
31 -341 117 -440 390 -777 788 -969 207 -100 401 -143 640 -143 249 0 427 42
650 153 167 83 276 162 405 296 198 205 329 456 387 740 27 135 25 434 -5 571
-126 581 -565 1022 -1140 1143 -113 24 -376 34 -487 19z m540 -343 c107 -34
195 -87 276 -166 118 -116 187 -254 209 -422 42 -316 -157 -631 -469 -742 -80
-28 -96 -31 -221 -31 -122 0 -143 3 -224 29 -316 104 -526 437 -477 756 47
303 256 526 556 596 92 21 251 12 350 -20z m-1003 -213 c-108 -159 -152 -310
-152 -517 1 -460 316 -880 748 -998 113 -31 332 -31 457 0 286 71 557 291 712
577 l33 60 0 -47 c0 -122 -40 -308 -96 -441 -107 -257 -328 -473 -589 -577
-311 -125 -645 -113 -950 34 -416 200 -682 640 -662 1096 7 154 31 250 97 385
57 117 125 211 229 316 64 64 193 169 207 169 3 0 -13 -26 -34 -57z"/>
</g>
</svg>
