<?xml version="1.0" encoding="utf-8"?>
<!-- Generator: Adobe Illustrator 25.4.2, SVG Export Plug-In . SVG Version: 6.00 Build 0)  -->
<svg version="1.1" id="Capa_1" xmlns="http://www.w3.org/2000/svg" xmlns:xlink="http://www.w3.org/1999/xlink" x="0px" y="0px"
	 viewBox="8 177 696 175" style="enable-background:new 0 0 696 528;" xml:space="preserve">
<style type="text/css">
	.st0{display:none;}
	.st1{display:inline;}
	.st2{fill:#768828;}
	.st3{fill:#008547;}
	.st4{fill:#007AC0;}
</style>
<g id="BONOLOTO_x5F_H_x5F_VERDE" class="st0">
	<g class="st1">
		<path class="st2" d="M252.4,309.8c4.1-2.1,6.4-6.2,6.4-11.3c0-4.3-1.5-7.9-4.5-10.6c-3-2.8-6.7-4.3-11.1-4.3h-26.8v57.6h28.9
			c5.1,0,9.2-1.6,12.6-4.8c3.4-3.2,5.1-7.4,5.1-12.3C263,316.8,259.1,311.7,252.4,309.8z M239.8,306.3h-7.1v-9.2h7.1
			c2.5,0,4.4,1.9,4.4,4.5C244.1,304.4,242.4,306.3,239.8,306.3z M232.7,317.7h9.1c3.2,0,5.4,2,5.4,4.9c0,3-2.3,5.1-5.4,5.1h-9.2
			L232.7,317.7L232.7,317.7z"/>
		<path class="st2" d="M300.4,282.9c-8.9,0-16.2,2.9-22.4,8.7c-6.1,5.8-9.2,12.9-9.2,21.1s3.1,15.2,9.2,21.1
			c6.2,5.8,13.6,8.7,22.4,8.7s16.2-2.8,22.4-8.7l0,0c6.2-5.9,9.3-12.9,9.3-21.1s-3.1-15.3-9.3-21.1
			C316.6,285.7,309.2,282.9,300.4,282.9z M311,323.3c-2.9,2.9-6.5,4.4-10.6,4.4c-4.3,0-7.8-1.4-10.7-4.4l0,0
			c-2.9-2.9-4.4-6.4-4.4-10.7c0-4.1,1.5-7.7,4.4-10.6c2.9-3,6.5-4.5,10.6-4.5s7.7,1.5,10.6,4.5c3,3,4.5,6.6,4.5,10.6
			C315.5,316.7,314,320.3,311,323.3z"/>
		<polygon class="st2" points="378,313.3 354.8,283.7 340.4,283.7 340.4,341.2 356,341.2 356,310.4 380.2,341.1 380.4,341.2 
			393.6,341.2 393.6,283.7 378,283.7 		"/>
		<path class="st2" d="M433.5,282.9c-8.9,0-16.2,2.9-22.4,8.7c-6.1,5.8-9.2,12.9-9.2,21.1s3.1,15.2,9.2,21.1
			c6.2,5.8,13.6,8.7,22.4,8.7s16.2-2.8,22.4-8.7l0,0c6.2-5.9,9.3-12.9,9.3-21.1s-3.1-15.3-9.3-21.1
			C449.7,285.7,442.4,282.9,433.5,282.9z M444.1,323.3c-2.9,2.9-6.5,4.4-10.6,4.4c-4.3,0-7.8-1.4-10.7-4.4l0,0
			c-2.9-2.9-4.4-6.4-4.4-10.7c0-4.1,1.5-7.7,4.4-10.6c2.9-3,6.5-4.5,10.6-4.5s7.7,1.5,10.6,4.5c3,3,4.5,6.6,4.5,10.6
			C448.7,316.7,447.1,320.3,444.1,323.3z"/>
		<polygon class="st2" points="489.9,283.7 473.5,283.7 473.5,341.2 511.4,341.2 511.4,326.4 489.9,326.4 		"/>
		<path class="st2" d="M546.7,282.9c-8.9,0-16.2,2.9-22.4,8.7c-6.1,5.8-9.2,12.9-9.2,21.1s3.1,15.2,9.2,21.1
			c6.2,5.8,13.6,8.7,22.4,8.7c8.8,0,16.2-2.8,22.4-8.7l0,0c6.2-5.9,9.3-12.9,9.3-21.1s-3.1-15.3-9.3-21.1
			C562.9,285.7,555.6,282.9,546.7,282.9z M557.3,323.3c-2.9,2.9-6.5,4.4-10.6,4.4c-4.3,0-7.8-1.4-10.7-4.4l0,0
			c-2.9-2.9-4.4-6.4-4.4-10.7c0-4.1,1.5-7.7,4.4-10.6c2.9-3,6.5-4.5,10.6-4.5s7.7,1.5,10.6,4.5c3,3,4.5,6.6,4.5,10.6
			C561.8,316.7,560.3,320.3,557.3,323.3z"/>
		<polygon class="st2" points="581.3,298.5 596.5,298.5 596.5,341.2 612.9,341.2 612.9,298.5 627.8,298.5 627.8,283.7 581.3,283.7 
					"/>
		<path class="st2" d="M684.7,291.6c-6.2-5.9-13.5-8.7-22.4-8.7s-16.2,2.9-22.4,8.7c-6.1,5.8-9.2,12.9-9.2,21.1s3.1,15.2,9.2,21.1
			c6.2,5.8,13.6,8.7,22.4,8.7c8.8,0,16.2-2.8,22.4-8.7l0,0c6.2-5.9,9.3-12.9,9.3-21.1C694.1,304.5,690.9,297.4,684.7,291.6z
			 M672.9,323.3c-2.9,2.9-6.5,4.4-10.6,4.4c-4.3,0-7.8-1.4-10.7-4.4l0,0c-2.9-2.9-4.4-6.4-4.4-10.7c0-4.1,1.5-7.7,4.4-10.6
			c2.9-3,6.5-4.5,10.6-4.5s7.7,1.5,10.6,4.5c3,3,4.5,6.6,4.5,10.6C677.4,316.7,675.9,320.3,672.9,323.3z"/>
	</g>
	<g class="st1">
		<g>
			<g>
				<polygon class="st2" points="173.2,341.1 149.7,341.1 149.7,328.6 160.7,328.6 160.7,182.3 14.5,182.3 14.5,328.6 24.7,328.6 
					24.7,341.1 1.9,341.1 1.9,169.8 173.2,169.8 				"/>
			</g>
		</g>
		<g>
			<g>
				<path class="st2" d="M47.9,273.3c-9.5-9.5-11.6-22.8-2.1-32.3s23-7.6,32.5,2c11.3,11.3,0.2,30.3,5.2,35.2
					c0.2,0.2-0.3,0.6-0.5,0.5C78.1,273.7,59.7,285.1,47.9,273.3z"/>
				<path class="st2" d="M126.7,273.3c9.5-9.5,11.6-22.8,2.1-32.3s-23-7.6-32.5,2c-11.3,11.3-0.2,30.3-5.2,35.2
					c-0.2,0.2,0.3,0.6,0.5,0.5C96.5,273.7,115,285.1,126.7,273.3z"/>
				<path class="st2" d="M47.9,289.3c-9.5,9.5-11.6,22.8-2.1,32.3s23,7.6,32.5-2c11.3-11.3,0.2-30.3,5.2-35.2
					c0.2-0.2-0.3-0.6-0.5-0.5C78.1,289,59.7,277.6,47.9,289.3z"/>
				<path class="st2" d="M126.7,289.3c9.5,9.5,11.6,22.8,2.1,32.3s-23,7.6-32.5-2c-11.3-11.3-0.2-30.3-5.2-35.2
					c-0.2-0.2,0.3-0.6,0.5-0.5C96.5,289,115,277.6,126.7,289.3z"/>
			</g>
			<path class="st2" d="M79.4,358.2c-1.2,0-2.5-0.4-3.5-1.2c-2.5-2-2.9-5.6-1-8.1c6.1-7.8,7-17.4,6.8-24c-0.1-3.2,2.3-5.9,5.5-6
				c3.2,0,5.9,2.3,6,5.5c0.5,12.3-2.6,23.2-9.2,31.6C82.8,357.4,81.1,358.2,79.4,358.2z"/>
		</g>
	</g>
</g>
<g id="VERDE_x5F_H" class="st0">
	<g class="st1">
		<g>
			<g>
				<g>
					<polygon class="st3" points="156.5,339.5 135.8,339.5 135.8,328.5 145.4,328.5 145.4,199.5 16.5,199.5 16.5,328.5 25.6,328.5 
						25.6,339.5 5.5,339.5 5.5,188.5 156.5,188.5 					"/>
				</g>
			</g>
		</g>
		<g>
			<g>
				<path class="st3" d="M127.7,295.5c0.3-2.2,0.5-4.5,0.5-6.8c0-2.2-0.2-4.4-0.5-6.5c-14.1-1.1-29.5-2.1-46-2.1
					c-18.8,0-35.8,1.2-47.1,2.1c-0.3,2.1-0.5,4.3-0.5,6.5c0,2.3,0.2,4.6,0.5,6.8c10.2,0.9,26.5,1.9,47.1,1.9
					C96.7,297.3,112.6,296.7,127.7,295.5z"/>
				<path class="st3" d="M117.8,318.1c3.6-4.5,6.4-9.6,8.2-15.2c-14.6,1.1-29.9,1.7-44.3,1.7c-19.3,0-35-0.9-45.4-1.7
					c1.8,5.6,4.6,10.8,8.2,15.3c10,2,22.9,3.7,37.2,3.7C93.3,321.9,105.2,320.6,117.8,318.1z"/>
				<path class="st3" d="M44.3,259.5c-3.6,4.5-6.3,9.6-8.1,15.2c11.4-0.9,27.6-1.9,45.5-1.9c15.9,0,30.7,0.9,44.4,2
					c-1.7-5.6-4.5-10.7-8.1-15.2c-10.2-2.1-22.9-4-36.3-4C69.9,255.5,57.3,256.9,44.3,259.5z"/>
				<path class="st3" d="M81.7,248.3c9.5,0,18.5,0.9,26.7,2.2c-7.7-5.5-17.1-8.7-27.2-8.7c-10.2,0-19.6,3.3-27.3,8.8
					C63.5,249,72.8,248.3,81.7,248.3z"/>
				<path class="st3" d="M81.7,329.2c-10,0-19.3-0.8-27.6-2c7.6,5.4,16.9,8.5,27,8.5s19.4-3.2,27-8.6
					C99.1,328.5,90.3,329.2,81.7,329.2z"/>
			</g>
		</g>
	</g>
	<g class="st1">
		<polygon class="st3" points="209.1,288.8 194.7,288.8 194.7,339.5 228.1,339.5 228.1,326.4 209.1,326.4 		"/>
		<path class="st3" d="M251.5,288.8l-20.7,50.7h15.1l2.7-6.5h18.7l2.6,6.5h15.2l-20.7-50.7H251.5z M263.4,321.7h-10.9l5.5-14.1
			L263.4,321.7z"/>
		<path class="st3" d="M350.7,293.2c-3.5-2.8-7.7-4.5-11.7-4.5h-23.8v50.7h14.4V325h9.4c4.5,0,8.6-1.7,12.3-5.1
			c3.7-3.5,5.6-7.8,5.6-13C356.9,301.5,354.6,296.3,350.7,293.2z M329.6,301.9h8.8c0.6,0,1.1,0,2.4,0.6c1.2,0.5,2,2.2,2,4.5
			c0,2.2-0.7,3.8-2,4.3c-1.2,0.6-1.8,0.7-2.3,0.7h-8.9V301.9z"/>
		<path class="st3" d="M405,306.4c0-4.9-1.8-9-5.3-12.5c-3.5-3.4-7.9-5.1-12.9-5.1h-23.1v50.7H378v-15.6h4.6l10.2,15.6h16.5
			l-12.6-18.7C401.8,318.2,405,312.6,405,306.4z M378,301.9h8.4c2.5,0,4.4,2.1,4.4,4.9c0,3.5-2,5.5-5.5,5.5H378V301.9z"/>
		<rect x="414.4" y="288.8" class="st3" width="14.4" height="50.7"/>
		<polygon class="st3" points="466.1,311.2 450.1,288.8 438.3,288.8 438.3,339.5 451.7,339.5 451.7,313.8 466.1,333.7 480.5,313.8 
			480.5,339.5 493.8,339.5 493.8,288.8 482.1,288.8 		"/>
		<rect x="503.3" y="288.8" class="st3" width="14.4" height="50.7"/>
		<polygon class="st3" points="523.5,301.9 536.9,301.9 536.9,339.5 551.3,339.5 551.3,301.9 564.5,301.9 564.5,288.8 523.5,288.8 
					"/>
		<rect x="570.2" y="288.8" class="st3" width="14.4" height="50.7"/>
		<polygon class="st3" points="629.1,288.8 617.4,318.7 605.5,288.8 590.3,288.8 610.8,339.5 623.8,339.5 644.4,288.8 		"/>
		<path class="st3" d="M669.9,288.8h-13l-20.7,50.7h15.1l2.7-6.5h18.7l2.6,6.5h15.2L669.9,288.8z M668.8,321.7h-10.9l5.5-14.1
			L668.8,321.7z"/>
	</g>
</g>
<g id="AZUL" class="st0">
	<g class="st1">
		<path class="st4" d="M2.9,384.2l0-47h12.8l0,35.4h17.9l0,11.6H2.9z"/>
		<path class="st4" d="M81.5,378c-5.1,4.7-11.1,7.1-18.3,7.1s-13.3-2.4-18.3-7.1c-5.1-4.8-7.5-10.5-7.5-17.2
			c0-6.7,2.5-12.4,7.5-17.2c5.1-4.8,11.1-7.1,18.3-7.1s13.3,2.4,18.3,7.1c5.1,4.7,7.6,10.4,7.6,17.2C89.1,367.5,86.5,373.3,81.5,378
			z M54.1,370c2.5,2.5,5.5,3.7,9.1,3.7c3.5,0,6.5-1.3,9-3.8c2.6-2.6,3.8-5.6,3.8-9c0-3.4-1.3-6.5-3.8-9c-2.5-2.6-5.5-3.8-9-3.8
			c-3.5,0-6.5,1.3-9,3.8c-2.5,2.5-3.8,5.5-3.8,9C50.4,364.4,51.6,367.5,54.1,370z"/>
		<path class="st4" d="M104.8,384.2l0-35.4H92.1l0-11.6H130v11.6h-12.4l0,35.4H104.8z"/>
		<path class="st4" d="M135.8,384.2l0-47h34.6l0,11.5h-21.8v6.5H169l0,10.5h-20.3l0,7.1H171l0,11.3H135.8z"/>
		<path class="st4" d="M179.2,384.2l0-47h21.4c4.6,0,8.6,1.5,11.9,4.7c3.3,3.2,4.9,6.9,4.9,11.5c0,6-3.2,11.2-8,13.4l11.7,17.4
			h-14.7l-9.6-14.6h-0.1H192v14.6H179.2z M192,359.3h7.1c3.4,0,5.5-2,5.5-5.5c0-3-2-5-4.4-5H192L192,359.3z"/>
		<path class="st4" d="M227,384.2l0-47h12.8l0,47H227z M227.3,334l3.3-9.8h12.8l-6.9,9.8H227.3z"/>
		<path class="st4" d="M246,384.2l19.1-47h11.7l19.1,47h-13.5L280,378h-18.1l-2.5,6.1H246z M265.3,368.1h11.3l-5.7-14.6L265.3,368.1
			z"/>
		<path class="st4" d="M325.1,384.2l0-47h11.5l19.7,25.2l0-25.2h12.3l0,47h-10.4L337.4,358l0,26.2H325.1z"/>
		<path class="st4" d="M374.4,384.2l19.1-47h11.7l19.1,47h-13.5l-2.4-6.1h-18.1l-2.5,6.1H374.4z M393.8,368.1h11.3l-5.7-14.6
			L393.8,368.1z"/>
		<path class="st4" d="M470.6,345.7l-8.7,7.3c-3-3.3-6.5-5-10.8-5c-3.6,0-6.6,1.2-9.1,3.6c-2.5,2.4-3.7,5.5-3.7,9.1
			c0,3.6,1.2,6.7,3.7,9.1c2.5,2.4,5.5,3.6,9.1,3.6c4.2,0,7.8-1.7,10.8-5l8.7,7.3c-4.9,5.7-11.9,9.2-19.5,9.2
			c-7.1,0-13.2-2.3-18.2-6.9c-4.9-4.6-7.4-10.3-7.4-17.2c0-6.9,2.5-12.7,7.4-17.2c5-4.6,11-6.9,18.2-6.9
			C458.7,336.6,465.7,340,470.6,345.7z"/>
		<path class="st4" d="M477.2,384.2l0-47H490l0,47H477.2z"/>
		<path class="st4" d="M542,378c-5.1,4.7-11.1,7.1-18.3,7.1c-7.2,0-13.3-2.4-18.3-7.1c-5.1-4.8-7.5-10.5-7.5-17.2
			c0-6.7,2.5-12.4,7.5-17.2c5.1-4.8,11.1-7.1,18.3-7.1c7.2,0,13.3,2.4,18.3,7.1c5.1,4.7,7.6,10.4,7.6,17.2
			C549.7,367.5,547.1,373.3,542,378z M514.6,370c2.5,2.5,5.5,3.7,9.1,3.7c3.5,0,6.5-1.3,9-3.8c2.6-2.6,3.8-5.6,3.8-9
			c0-3.4-1.3-6.5-3.8-9c-2.5-2.6-5.5-3.8-9-3.8s-6.5,1.3-9,3.8c-2.5,2.5-3.8,5.5-3.8,9C510.9,364.4,512.1,367.5,514.6,370z"/>
		<path class="st4" d="M557.2,384.2l0-47h11.5l19.7,25.2l0-25.2h12.3l0,47h-10.4L569.5,358l0,26.2H557.2z"/>
		<path class="st4" d="M606.5,384.2l19.1-47h11.7l19.1,47H643l-2.4-6.1h-18.1l-2.5,6.1H606.5z M625.8,368.1h11.3l-5.7-14.6
			L625.8,368.1z"/>
		<path class="st4" d="M662.4,384.2l0-47h12.8l0,35.4h17.9v11.6H662.4z"/>
	</g>
	<g class="st1">
		<g>
			<polygon class="st4" points="414.7,280.1 395.9,280.1 395.9,270.1 404.7,270.1 404.7,152.9 287.5,152.9 287.5,270.1 295.7,270.1 
				295.7,280.1 277.5,280.1 277.5,142.9 414.7,142.9 			"/>
		</g>
		<g>
			<g>
				<path class="st4" d="M337.1,263.1c-1.7-8.3-2.6-18-2.6-29.1c0-13.2,1.5-26,3.9-34.9h-1.9c-7.9,7.9-13.1,21.3-13.1,34.9
					c0,11.3,2.9,21,8.5,29.1H337.1z"/>
				<path class="st4" d="M320.9,263.1h3.9c-4.9-8.4-7.5-18.2-7.4-29.1c0-12.9,4.1-25.4,10.8-34.4c-0.1,0-0.2,0.1-0.2,0.1
					c-5.9,3.6-10.9,8.3-14.6,13.5c-3.8,6-6.1,13.1-6.1,20.8c0,9.1,3.2,17.5,8.5,24.2C317.3,259.8,319,261.5,320.9,263.1z"/>
				<path class="st4" d="M355.1,263.1h5.2c5.7-8.1,8.6-17.8,8.5-29.1c0-13.6-5.2-27-13.1-34.9h-1.9c2.4,8.9,3.9,21.6,3.9,34.9
					C357.7,245,356.8,254.7,355.1,263.1z"/>
				<path class="st4" d="M348.9,263.1c1.8-8.2,2.7-18,2.7-29.1c0-13.5-1.6-26.7-4.1-34.9h-2.9c-2.5,8.2-4.1,21.4-4.1,34.9
					c0,11.1,0.9,20.9,2.7,29.1H348.9z"/>
				<path class="st4" d="M367.3,263.1h3.9c1.9-1.6,3.7-3.2,5.2-4.9c5.3-6.6,8.5-15,8.5-24.2c0-7.7-2.2-14.8-6.1-20.8
					c-3.7-5.3-8.7-9.9-14.6-13.5c-0.1,0-0.2-0.1-0.3-0.1c6.7,9,10.8,21.5,10.8,34.4C374.8,244.8,372.3,254.6,367.3,263.1z"/>
			</g>
			<path class="st4" d="M356.5,196c-3.1-1.8-6.8-2.8-10.8-2.8c-4,0-7.6,1-10.8,2.8H356.5z"/>
			<path class="st4" d="M367.3,267.2h-42.5c5.1,3.2,10.9,5.2,17.2,5.8v7.1h8v-7.1C356.4,272.4,362.2,270.4,367.3,267.2z"/>
		</g>
	</g>
</g>
<g id="AZUL_x5F_V">
	<g>
		<g>
			<path class="st4" d="M224.2,269.7l0-59.1h16.1l0,44.5h22.5l0,14.6H224.2z"/>
			<path class="st4" d="M323.1,262c-6.4,5.9-14,8.9-23.1,8.9s-16.7-3-23.1-8.9c-6.4-6-9.5-13.2-9.5-21.6c0-8.4,3.1-15.6,9.5-21.6
				c6.4-6,14-9,23.1-9s16.7,3,23.1,9c6.4,5.9,9.6,13.1,9.6,21.6C332.7,248.8,329.5,256,323.1,262z M288.6,251.8
				c3.1,3.1,7,4.7,11.5,4.7c4.4,0,8.2-1.6,11.4-4.8c3.2-3.2,4.8-7,4.8-11.4s-1.6-8.1-4.8-11.4c-3.1-3.2-7-4.8-11.4-4.8
				c-4.4,0-8.2,1.6-11.4,4.8c-3.1,3.1-4.7,7-4.7,11.4C283.9,244.9,285.5,248.7,288.6,251.8z"/>
			<path class="st4" d="M352.5,269.7l0-44.5h-15.9l0-14.6h47.7v14.6h-15.6l0,44.5H352.5z"/>
			<path class="st4" d="M391.6,269.7l0-59.1h43.6l0,14.5h-27.5v8.1h25.6l0,13.2h-25.6l0,9h28.2l0,14.2H391.6z"/>
			<path class="st4" d="M446.2,269.7l0-59.1h26.9c5.9,0,10.9,1.9,15,5.9c4.2,4,6.2,8.7,6.2,14.4c0,7.5-4,14.1-10.1,16.9l14.8,21.9
				h-18.5l-12-18.4h-0.2h-5.9v18.4H446.2z M462.3,238.4h9c4.3,0,7-2.5,7-7c0-3.7-2.5-6.3-5.6-6.3h-10.3L462.3,238.4z"/>
			<path class="st4" d="M506.3,269.7l0-59.1h16.1l0,59.1H506.3z M506.7,206.5l4.2-12.3h16.1l-8.7,12.3H506.7z"/>
			<path class="st4" d="M530.2,269.7l24.1-59.1h14.8l24.1,59.1h-17l-3.1-7.7h-22.7l-3.1,7.7H530.2z M554.6,249.5h14.2l-7.1-18.3
				L554.6,249.5z"/>
		</g>
		<g>
			<path class="st4" d="M224.2,349.2l0-59.1h14.4l24.8,31.7l0-31.7h15.4l0,59.1h-13.1l-26-33l0,33H224.2z"/>
			<path class="st4" d="M286.3,349.2l24.1-59.1h14.8l24.1,59.1h-17l-3.1-7.7h-22.7l-3.1,7.7H286.3z M310.7,329h14.2l-7.1-18.3
				L310.7,329z"/>
			<path class="st4" d="M407.4,300.8l-10.9,9.2c-3.7-4.2-8.2-6.3-13.6-6.3c-4.5,0-8.3,1.5-11.5,4.6c-3.1,3.1-4.7,6.9-4.7,11.5
				c0,4.6,1.5,8.4,4.7,11.4c3.1,3,7,4.5,11.5,4.5c5.3,0,9.8-2.1,13.6-6.3l10.9,9.2c-6.1,7.2-14.9,11.5-24.5,11.5
				c-9,0-16.6-2.9-22.9-8.7c-6.2-5.8-9.3-13-9.3-21.7c0-8.7,3.1-15.9,9.3-21.7c6.3-5.9,13.9-8.7,22.9-8.7
				C392.4,289.3,401.2,293.6,407.4,300.8z"/>
			<path class="st4" d="M415.7,349.2l0-59.1h16.1l0,59.1H415.7z"/>
			<path class="st4" d="M497.3,341.5c-6.4,5.9-14,8.9-23.1,8.9c-9.1,0-16.7-3-23.1-8.9c-6.4-6-9.5-13.2-9.5-21.6s3.1-15.6,9.5-21.6
				c6.4-6,14-9,23.1-9c9.1,0,16.7,3,23.1,9c6.4,5.9,9.6,13.1,9.6,21.6C506.9,328.3,503.7,335.5,497.3,341.5z M462.8,331.3
				c3.1,3.1,7,4.7,11.5,4.7c4.4,0,8.2-1.6,11.4-4.8c3.2-3.2,4.8-7,4.8-11.4c0-4.3-1.6-8.1-4.8-11.4c-3.1-3.2-7-4.8-11.4-4.8
				s-8.2,1.6-11.4,4.8c-3.1,3.1-4.8,7-4.8,11.4C458.2,324.4,459.7,328.2,462.8,331.3z"/>
			<path class="st4" d="M516.4,349.2l0-59.1h14.4l24.8,31.7l0-31.7h15.4l0,59.1h-13.1l-26-33l0,33H516.4z"/>
			<path class="st4" d="M578.5,349.2l24.1-59.1h14.8l24.1,59.1h-17l-3.1-7.7h-22.7l-3.1,7.7H578.5z M602.9,329h14.2l-7.1-18.3
				L602.9,329z"/>
			<path class="st4" d="M648.9,349.2l0-59.1H665l0,44.5h22.5v14.6H648.9z"/>
		</g>
	</g>
	<g>
		<g>
			<polygon class="st4" points="181.3,350.4 157.6,350.4 157.6,337.8 168.7,337.8 168.7,190.2 21.1,190.2 21.1,337.8 31.5,337.8 
				31.5,350.4 8.5,350.4 8.5,177.6 181.3,177.6 			"/>
		</g>
		<g>
			<g>
				<path class="st4" d="M83.6,328.9c-2.2-10.5-3.3-22.7-3.3-36.7c0-16.6,1.9-32.7,4.9-43.9h-2.4c-9.9,9.9-16.5,26.8-16.5,43.9
					c0,14.2,3.6,26.4,10.7,36.6H83.6z"/>
				<path class="st4" d="M63.2,328.9h4.9c-6.2-10.6-9.4-23-9.4-36.7c0-16.3,5.2-32,13.6-43.3c-0.1,0.1-0.2,0.1-0.3,0.1
					c-7.5,4.5-13.7,10.4-18.4,17.1c-4.8,7.6-7.6,16.5-7.6,26.1c0,11.5,4,22.1,10.7,30.4C58.6,324.9,60.8,326.9,63.2,328.9z"/>
				<path class="st4" d="M106.2,328.9h6.5c7.1-10.2,10.8-22.5,10.7-36.6c0-17.1-6.6-34-16.5-43.9h-2.4c3,11.2,4.9,27.3,4.9,43.9
					C109.5,306.2,108.4,318.4,106.2,328.9z"/>
				<path class="st4" d="M98.5,328.9c2.3-10.3,3.5-22.7,3.4-36.7c0-17-2.1-33.6-5.2-43.9h-3.6c-3.1,10.3-5.2,26.9-5.2,43.9
					c0,13.9,1.2,26.3,3.4,36.7H98.5z"/>
				<path class="st4" d="M121.7,328.9h4.9c2.4-2,4.6-4.1,6.5-6.2c6.7-8.4,10.7-18.9,10.7-30.4c0-9.6-2.8-18.6-7.6-26.2
					c-4.7-6.6-10.9-12.5-18.4-17c-0.1-0.1-0.2-0.1-0.3-0.2c8.4,11.3,13.6,27.1,13.6,43.3C131.1,306,127.9,318.3,121.7,328.9z"/>
			</g>
			<path class="st4" d="M108,244.5c-3.9-2.2-8.6-3.5-13.5-3.5c-5,0-9.6,1.3-13.5,3.5H108z"/>
			<path class="st4" d="M121.6,334.1H68.2c6.4,4,13.8,6.6,21.7,7.3v8.9H100v-8.9C107.9,340.7,115.2,338.1,121.6,334.1z"/>
		</g>
	</g>
</g>
</svg>
