<?xml version="1.0" encoding="utf-8"?>
<!-- Generator: Adobe Illustrator 25.4.2, SVG Export Plug-In . SVG Version: 6.00 Build 0)  -->
<svg version="1.1" id="Capa_1" xmlns="http://www.w3.org/2000/svg" xmlns:xlink="http://www.w3.org/1999/xlink" x="0px" y="0px"
	 viewBox="5 187 696 154" style="enable-background:new 0 0 696 528;" xml:space="preserve">
<style type="text/css">
	.st0{display:none;}
	.st1{display:inline;}
	.st2{fill:#768828;}
	.st3{fill:#008547;}
</style>
<g id="BONOLOTO_x5F_H_x5F_VERDE" class="st0">
	<g class="st1">
		<path class="st2" d="M252.4,309.8c4.1-2.1,6.4-6.2,6.4-11.3c0-4.3-1.5-7.9-4.5-10.6c-3-2.8-6.7-4.3-11.1-4.3h-26.8v57.6h28.9
			c5.1,0,9.2-1.6,12.6-4.8c3.4-3.2,5.1-7.4,5.1-12.3C263,316.8,259.1,311.7,252.4,309.8z M239.8,306.3h-7.1v-9.2h7.1
			c2.5,0,4.4,1.9,4.4,4.5C244.1,304.4,242.4,306.3,239.8,306.3z M232.7,317.7h9.1c3.2,0,5.4,2,5.4,4.9c0,3-2.3,5.1-5.4,5.1h-9.2
			L232.7,317.7L232.7,317.7z"/>
		<path class="st2" d="M300.4,282.9c-8.9,0-16.2,2.9-22.4,8.7c-6.1,5.8-9.2,12.9-9.2,21.1s3.1,15.2,9.2,21.1
			c6.2,5.8,13.6,8.7,22.4,8.7s16.2-2.8,22.4-8.7l0,0c6.2-5.9,9.3-12.9,9.3-21.1s-3.1-15.3-9.3-21.1
			C316.6,285.7,309.2,282.9,300.4,282.9z M311,323.3c-2.9,2.9-6.5,4.4-10.6,4.4c-4.3,0-7.8-1.4-10.7-4.4l0,0
			c-2.9-2.9-4.4-6.4-4.4-10.7c0-4.1,1.5-7.7,4.4-10.6c2.9-3,6.5-4.5,10.6-4.5s7.7,1.5,10.6,4.5c3,3,4.5,6.6,4.5,10.6
			C315.5,316.7,314,320.3,311,323.3z"/>
		<polygon class="st2" points="378,313.3 354.8,283.7 340.4,283.7 340.4,341.2 356,341.2 356,310.4 380.2,341.1 380.4,341.2 
			393.6,341.2 393.6,283.7 378,283.7 		"/>
		<path class="st2" d="M433.5,282.9c-8.9,0-16.2,2.9-22.4,8.7c-6.1,5.8-9.2,12.9-9.2,21.1s3.1,15.2,9.2,21.1
			c6.2,5.8,13.6,8.7,22.4,8.7s16.2-2.8,22.4-8.7l0,0c6.2-5.9,9.3-12.9,9.3-21.1s-3.1-15.3-9.3-21.1
			C449.7,285.7,442.4,282.9,433.5,282.9z M444.1,323.3c-2.9,2.9-6.5,4.4-10.6,4.4c-4.3,0-7.8-1.4-10.7-4.4l0,0
			c-2.9-2.9-4.4-6.4-4.4-10.7c0-4.1,1.5-7.7,4.4-10.6c2.9-3,6.5-4.5,10.6-4.5s7.7,1.5,10.6,4.5c3,3,4.5,6.6,4.5,10.6
			C448.7,316.7,447.1,320.3,444.1,323.3z"/>
		<polygon class="st2" points="489.9,283.7 473.5,283.7 473.5,341.2 511.4,341.2 511.4,326.4 489.9,326.4 		"/>
		<path class="st2" d="M546.7,282.9c-8.9,0-16.2,2.9-22.4,8.7c-6.1,5.8-9.2,12.9-9.2,21.1s3.1,15.2,9.2,21.1
			c6.2,5.8,13.6,8.7,22.4,8.7c8.8,0,16.2-2.8,22.4-8.7l0,0c6.2-5.9,9.3-12.9,9.3-21.1s-3.1-15.3-9.3-21.1
			C562.9,285.7,555.6,282.9,546.7,282.9z M557.3,323.3c-2.9,2.9-6.5,4.4-10.6,4.4c-4.3,0-7.8-1.4-10.7-4.4l0,0
			c-2.9-2.9-4.4-6.4-4.4-10.7c0-4.1,1.5-7.7,4.4-10.6c2.9-3,6.5-4.5,10.6-4.5s7.7,1.5,10.6,4.5c3,3,4.5,6.6,4.5,10.6
			C561.8,316.7,560.3,320.3,557.3,323.3z"/>
		<polygon class="st2" points="581.3,298.5 596.5,298.5 596.5,341.2 612.9,341.2 612.9,298.5 627.8,298.5 627.8,283.7 581.3,283.7 
					"/>
		<path class="st2" d="M684.7,291.6c-6.2-5.9-13.5-8.7-22.4-8.7s-16.2,2.9-22.4,8.7c-6.1,5.8-9.2,12.9-9.2,21.1s3.1,15.2,9.2,21.1
			c6.2,5.8,13.6,8.7,22.4,8.7c8.8,0,16.2-2.8,22.4-8.7l0,0c6.2-5.9,9.3-12.9,9.3-21.1C694.1,304.5,690.9,297.4,684.7,291.6z
			 M672.9,323.3c-2.9,2.9-6.5,4.4-10.6,4.4c-4.3,0-7.8-1.4-10.7-4.4l0,0c-2.9-2.9-4.4-6.4-4.4-10.7c0-4.1,1.5-7.7,4.4-10.6
			c2.9-3,6.5-4.5,10.6-4.5s7.7,1.5,10.6,4.5c3,3,4.5,6.6,4.5,10.6C677.4,316.7,675.9,320.3,672.9,323.3z"/>
	</g>
	<g class="st1">
		<g>
			<g>
				<polygon class="st2" points="173.2,341.1 149.7,341.1 149.7,328.6 160.7,328.6 160.7,182.3 14.5,182.3 14.5,328.6 24.7,328.6 
					24.7,341.1 1.9,341.1 1.9,169.8 173.2,169.8 				"/>
			</g>
		</g>
		<g>
			<g>
				<path class="st2" d="M47.9,273.3c-9.5-9.5-11.6-22.8-2.1-32.3s23-7.6,32.5,2c11.3,11.3,0.2,30.3,5.2,35.2
					c0.2,0.2-0.3,0.6-0.5,0.5C78.1,273.7,59.7,285.1,47.9,273.3z"/>
				<path class="st2" d="M126.7,273.3c9.5-9.5,11.6-22.8,2.1-32.3s-23-7.6-32.5,2c-11.3,11.3-0.2,30.3-5.2,35.2
					c-0.2,0.2,0.3,0.6,0.5,0.5C96.5,273.7,115,285.1,126.7,273.3z"/>
				<path class="st2" d="M47.9,289.3c-9.5,9.5-11.6,22.8-2.1,32.3s23,7.6,32.5-2c11.3-11.3,0.2-30.3,5.2-35.2
					c0.2-0.2-0.3-0.6-0.5-0.5C78.1,289,59.7,277.6,47.9,289.3z"/>
				<path class="st2" d="M126.7,289.3c9.5,9.5,11.6,22.8,2.1,32.3s-23,7.6-32.5-2c-11.3-11.3-0.2-30.3-5.2-35.2
					c-0.2-0.2,0.3-0.6,0.5-0.5C96.5,289,115,277.6,126.7,289.3z"/>
			</g>
			<path class="st2" d="M79.4,358.2c-1.2,0-2.5-0.4-3.5-1.2c-2.5-2-2.9-5.6-1-8.1c6.1-7.8,7-17.4,6.8-24c-0.1-3.2,2.3-5.9,5.5-6
				c3.2,0,5.9,2.3,6,5.5c0.5,12.3-2.6,23.2-9.2,31.6C82.8,357.4,81.1,358.2,79.4,358.2z"/>
		</g>
	</g>
</g>
<g id="VERDE_x5F_H">
	<g>
		<g>
			<g>
				<g>
					<polygon class="st3" points="156.5,339.5 135.8,339.5 135.8,328.5 145.4,328.5 145.4,199.5 16.5,199.5 16.5,328.5 25.6,328.5 
						25.6,339.5 5.5,339.5 5.5,188.5 156.5,188.5 					"/>
				</g>
			</g>
			<g>
				<g>
					<defs>
						<circle id="SVGID_1_" cx="81" cy="288.7" r="46.9"/>
					</defs>
					<clipPath id="SVGID_00000165196289609520935080000004437940704715361927_">
						<use xlink:href="#SVGID_1_"  style="overflow:visible;"/>
					</clipPath>
				</g>
			</g>
		</g>
		<g>
			<g>
				<path class="st3" d="M127.7,295.5c0.3-2.2,0.5-4.5,0.5-6.8c0-2.2-0.2-4.4-0.5-6.5c-14.1-1.1-29.5-2.1-46-2.1
					c-18.8,0-35.8,1.2-47.1,2.1c-0.3,2.1-0.5,4.3-0.5,6.5c0,2.3,0.2,4.6,0.5,6.8c10.2,0.9,26.5,1.9,47.1,1.9
					C96.7,297.3,112.6,296.7,127.7,295.5z"/>
				<path class="st3" d="M117.8,318.1c3.6-4.5,6.4-9.6,8.2-15.2c-14.6,1.1-29.9,1.7-44.3,1.7c-19.3,0-35-0.9-45.4-1.7
					c1.8,5.6,4.6,10.8,8.2,15.3c10,2,22.9,3.7,37.2,3.7C93.3,321.9,105.2,320.6,117.8,318.1z"/>
				<path class="st3" d="M44.3,259.5c-3.6,4.5-6.3,9.6-8.1,15.2c11.4-0.9,27.6-1.9,45.5-1.9c15.9,0,30.7,0.9,44.4,2
					c-1.7-5.6-4.5-10.7-8.1-15.2c-10.2-2.1-22.9-4-36.3-4C69.9,255.5,57.3,256.9,44.3,259.5z"/>
				<path class="st3" d="M81.7,248.3c9.5,0,18.5,0.9,26.7,2.2c-7.7-5.5-17.1-8.7-27.2-8.7c-10.2,0-19.6,3.3-27.3,8.8
					C63.5,249,72.8,248.3,81.7,248.3z"/>
				<path class="st3" d="M81.7,329.2c-10,0-19.3-0.8-27.6-2c7.6,5.4,16.9,8.5,27,8.5c10.1,0,19.4-3.2,27-8.6
					C99.1,328.5,90.3,329.2,81.7,329.2z"/>
			</g>
		</g>
	</g>
	<g>
		<polygon class="st3" points="209.1,288.8 194.7,288.8 194.7,339.5 228.1,339.5 228.1,326.4 209.1,326.4 		"/>
		<path class="st3" d="M251.5,288.8l-20.7,50.7h15.1l2.7-6.5h18.7l2.6,6.5h15.2l-20.7-50.7H251.5z M263.4,321.7h-10.9l5.5-14.1
			L263.4,321.7z"/>
		<path class="st3" d="M350.7,293.2c-3.5-2.8-7.7-4.5-11.7-4.5h-23.8l0,50.7h14.4V325h9.4c4.5,0,8.6-1.7,12.3-5.1
			c3.7-3.5,5.6-7.8,5.6-13C356.9,301.5,354.6,296.3,350.7,293.2z M329.6,301.9h8.8c0.6,0,1.1,0,2.4,0.6c1.2,0.5,2,2.2,2,4.5
			c0,2.2-0.7,3.8-2,4.3c-1.2,0.6-1.8,0.7-2.3,0.7h-8.9V301.9z"/>
		<path class="st3" d="M405,306.4c0-4.9-1.8-9-5.3-12.5c-3.5-3.4-7.9-5.1-12.9-5.1h-23.1l0,50.7H378v-15.6h4.6l10.2,15.6h16.5
			l-12.6-18.7C401.8,318.2,405,312.6,405,306.4z M378,301.9h8.4c2.5,0,4.4,2.1,4.4,4.9c0,3.5-2,5.5-5.5,5.5H378V301.9z"/>
		<rect x="414.4" y="288.8" class="st3" width="14.4" height="50.7"/>
		<polygon class="st3" points="466.1,311.2 450.1,288.8 438.3,288.8 438.3,339.5 451.7,339.5 451.7,313.8 466.1,333.7 480.5,313.8 
			480.5,339.5 493.8,339.5 493.8,288.8 482.1,288.8 		"/>
		<rect x="503.3" y="288.8" class="st3" width="14.4" height="50.7"/>
		<polygon class="st3" points="523.5,301.9 536.9,301.9 536.9,339.5 551.3,339.5 551.3,301.9 564.5,301.9 564.5,288.8 523.5,288.8 
					"/>
		<rect x="570.2" y="288.8" class="st3" width="14.4" height="50.7"/>
		<polygon class="st3" points="629.1,288.8 617.4,318.7 605.5,288.8 590.3,288.8 610.8,339.5 623.8,339.5 644.4,288.8 		"/>
		<path class="st3" d="M669.9,288.8h-13l-20.7,50.7h15.1l2.7-6.5h18.7l2.6,6.5h15.2L669.9,288.8z M668.8,321.7h-10.9l5.5-14.1
			L668.8,321.7z"/>
	</g>
</g>
</svg>
