<?xml version="1.0" standalone="no"?>
<!DOCTYPE svg PUBLIC "-//W3C//DTD SVG 1.1//EN" "http://www.w3.org/Graphics/SVG/1.1/DTD/svg11.dtd">
<svg xmlns="http://www.w3.org/2000/svg">
<metadata>Copyright (C) 2020 by original authors @ fontello.com</metadata>
<defs>
<font id="fontello" horiz-adv-x="1000" >
<font-face font-family="fontello" font-weight="400" font-stretch="normal" units-per-em="1000" ascent="850" descent="-150" />
<missing-glyph horiz-adv-x="1000" />
<glyph glyph-name="icons-cf-07" unicode="&#xe800;" d="M438-145c-97 0-176 140-179 293h357c-3-153-82-293-178-293z m-60 388h120v600h-120v-600z m-128-80h375v82h-375v-82z m-2-3h375v83h-128v597h-120v-600h-127v-80z" horiz-adv-x="863" />

<glyph glyph-name="icons-cf-01" unicode="&#xe810;" d="M578 223c0 0-51-59-146-59-95 0-146 59-146 59-118-76-123-227-123-227v-55c73-56 169-90 270-90 101 0 198 34 270 91v54c0 0-7 151-125 227z m-319 137c1-85 78-169 171-169s170 84 172 169h-343z m343 45c-2 85-78 168-172 168s-170-83-171-168h343z m-168 199c14 14 27 28 41 42 8 8 16 15 24 23 5 5 6 10 8 17 10 30 3 68-8 98-5 15-13 29-24 41-10 10-26 21-41 20m-3-241c-14 14-28 28-42 42-8 8-16 15-24 23-4 5-5 10-8 17-10 30-3 68 8 98 5 15 14 29 25 41 9 10 25 21 40 20" horiz-adv-x="863" />

<glyph glyph-name="icons-cf-04" unicode="&#xe811;" d="M333-138h168c0 0-27 116-27 126 0 9 12 109 12 109l58 61 35 68-62-53c0 0-41-37-61-21-19 15 10 91 10 91l8 78-37-13v-76c0 0-14-53-22-55 0 0-14-37-66 82s-64 31-64 31l50-47 28-56c0 0-10-20-96 49s-68 15-68 15l72-62c0 0 66-47 86-45l8-131-32-151z m147 430c0 0 17-121 136-125s137 125 137 125 74 20 87 109c14 90-35 113-35 113s39 67-19 139c0 0-39 39-96 47 0 0-13 60-83 85s-110-19-110-19-41 93-158 73-99-112-99-112-86 2-133-49-21-101-21-101-76-41-68-119 54-105 54-105-15-86 68-129 141 2 190 56c0 0 109-27 150 12z" horiz-adv-x="863" />

<glyph glyph-name="farmer" unicode="&#xe812;" d="M350 250c193 0 350-157 350-350 0-28-22-50-50-50-28 0-50 22-50 50 0 138-112 250-250 250-138 0-250-112-250-250 0-28-22-50-50-50-28 0-50 22-50 50 0 193 157 350 350 350z m300 400c28 0 50-22 50-50 0-28-22-50-50-50h-100c0-110-89-200-200-200-110 0-200 90-200 200h-100c-28 0-50 22-50 50 0 28 22 50 50 50h100c0 111 90 200 200 200 107 0 195-84 200-190l0-10h100z m-200-100h-200c0-55 45-100 100-100 55 0 100 45 100 100z m-92 200l-8 0c-55 0-100-45-100-100h200c0 53-41 96-92 100z" horiz-adv-x="700" />

<glyph glyph-name="icons-cf-05" unicode="&#xe813;" d="M420 332h-413v84h413v-84z m436 84h-413v-84h413v84z m-564-320c0 74 56 134 131 139v70h-390v-448h390v100c-75 4-131 65-131 139z m151 209v-71c72-6 126-66 126-138 0-73-54-132-126-139v-100h387v448h-387z m-13-70c-2 0-5 0-7 0v-278c2-1 4-1 7-1 5 0 8 1 13 1v277c-5 1-8 1-13 1z m4-213c11 11 21 22 32 33 7 7 13 13 19 19 4 4 4 7 6 13 8 24 3 54-6 77-4 12-11 23-19 32-8 8-21 17-32 16m-5 0c-12 1-25-8-32-16-9-9-15-20-20-32-8-24-13-54-6-78 2-5 3-9 7-12 6-7 12-13 18-19 11-11 22-22 33-33m4 190h-4v-232h4v232z" horiz-adv-x="863" />

<glyph glyph-name="icons-cf-03" unicode="&#xe814;" d="M431-142l-293 479c0 0-120 133-9 354 0 0 87 154 301 154h-1c214 0 301-154 301-154 112-222-9-349-9-349l-293-481m6 501c21 21 42 42 63 63 12 12 23 24 35 36 8 7 9 14 12 24 16 46 6 104-11 148-8 23-20 45-37 62-15 16-39 33-62 30m-9 0c-23 2-47-14-62-30-16-17-28-39-37-62-16-44-26-102-11-148 3-10 5-17 12-24 12-12 23-24 35-36 21-21 42-42 63-63m8 363h-8v-445h8v445z" horiz-adv-x="863" />

<glyph glyph-name="icons-cf-06" unicode="&#xe815;" d="M723 615v-127h-183v127h-212v-127h-185v127h-133v-760h848v760h-135z m72-700h-725v488h725v-488z m-237 320h-85v85h85v-85z m165 0h-85v85h85v-85z m-493-120h-87v88h87v-88z m163 0h-85v88h85v-88z m165 0h-85v88h85v-88z m165 0h-85v88h85v-88z m-493-118h-87v86h87v-86z m163 0h-85v86h85v-86z m165 0h-85v86h85v-86z m165 0h-85v86h85v-86z m-435 511h-105v185h105v-185z m397 0h-107v185h107v-185z" horiz-adv-x="863" />

<glyph glyph-name="icons-cf-08" unicode="&#xe816;" d="M454 808c0 0-7 23-22 23-15 0-23-23-23-23s-324-391-324-610c0-219 173-336 335-336h22c163 0 335 117 335 336 0 219-323 610-323 610s-8 23-23 23c-15 0-22-23-22-23" horiz-adv-x="863" />

<glyph glyph-name="logo" unicode="&#xe818;" d="M436-116a559 559 0 0 0-189 255l31 12a527 527 0 0 1 178-241z m16 2l-12 23a4 4 0 0 0 2 4 388 388 0 0 1 99 605l-58 62a3 3 0 0 0 5 5l23-13a3 3 0 0 1 4 4 332 332 0 0 0-23 124 336 336 0 0 0 9 77 3 3 0 0 1-6 4 534 534 0 0 1-149-140 524 524 0 0 1-100-309c0-6 0-11 0-17 0-2 0-4 0-7v-4c0-3-2 0-4 1l-21 4a2 2 0 0 0-1 1l-3 2c0 2-3 0-3 3-1 6-1 11-1 17a558 558 0 0 0 106 329 565 565 0 0 0 205 173l31 16a3 3 0 0 0 4-5l-12-31a300 300 0 0 1 28-281l19-28a418 418 0 0 0 83-251c0-154-81-295-217-368-1-1-7-2-8 0z m-248 435l2-1c2-1 4-2 7-4a230 230 0 0 1 28-10 200 200 0 0 1 44-7 156 156 0 0 1 27 1c3 0 5 1 7 1s5 0 8 1l7 1a44 44 0 0 1 8 2 194 194 0 0 1 60 28 182 182 0 0 1 28 23c4 4 9 8 13 13a181 181 0 0 1 11 15c4 5 7 11 11 16 1 3 3 6 4 9 1 1 2 2 2 4l1 2a17 17 0 0 0 11 9 15 15 0 0 0 18-10c1-4 0-1 0-2v0l1-2a222 222 0 0 0 7-45c0-4 0-7 0-11v-6l0-6a194 194 0 0 0-3-23 235 235 0 0 0-11-45c-2-4-3-8-5-11l-5-11-1-2-1-1 0-2-3-5-3-5a26 26 0 0 0-2-3l-2-2-6-10c-2-3-5-6-7-10-1-1-2-3-4-4l-4-4-4-5c-1-1-2-2-4-4a231 231 0 0 0-35-29 228 228 0 0 0-40-20c-3-1-7-3-10-4-2 0-4-1-5-1l-5-2c-4-1-7-1-11-2-3-1-7-2-10-2a40 40 0 0 1-5-1c-2 0-4 0-6 0-3-1-6-1-10-1s-7 0-10-1h-8l-2 1-10 0c-1 0-3 1-5 1l-5 1c-6 0-12 2-19 3a56 56 0 0 0-8 3c-3 1-6 1-9 2s-6 2-9 3a20 20 0 0 0-3 2c-2 1-3 1-4 2a202 202 0 0 0-52 33 211 211 0 0 0-31 36 160 160 0 0 0-9 14c-3 5-5 8-6 12-3 6-5 9-5 9s2-3 6-8a293 293 0 0 1 19-23 213 213 0 0 1 34-30 206 206 0 0 1 51-26c1 0 2-1 3-1s3-1 4-1l8-2c2-1 5-2 8-2s5-1 8-2c6 0 11-1 17-2 1 0 2 0 4 0s3 0 4 0h13c2 0 4 0 5 0l9 1 9 1 4 1c2 0 3 1 5 1 3 1 6 1 8 2s6 2 9 3l5 1 4 2c3 1 6 2 9 3 6 3 12 5 17 9l4 2 3 1 2 2c2 2 5 3 8 5s5 4 8 6l4 3 3 3c3 2 5 4 8 7l7 7a25 25 0 0 1 3 4l3 3 3 4a26 26 0 0 1 3 4c2 3 4 5 6 8l6 8 1 2c1 1 1 2 1 3l3 4 2 4 1 1 0 1 1 3 5 9c1 3 2 6 3 9a207 207 0 0 1 13 79 196 196 0 0 1-5 39l0 1v1c0-1-1 2 1-2a15 15 0 0 1 17-9c8 2 12 12 10 8l-1-2c-1-2-2-4-3-5-2-4-4-7-6-10q-6-9-12-18a209 209 0 0 0-30-32 227 227 0 0 0-33-23 201 201 0 0 0-70-25c-2-1-5-1-8-1s-6-1-8-1-6-1-8-1h-8a188 188 0 0 0-29 3 181 181 0 0 0-46 14 162 162 0 0 0-26 14c-3 2-5 4-6 5a4 4 0 0 1-1 2z m20 121c-34 26-60 68-72 115-12 48-9 96 10 131 22 39 79 96 229 43l-11-31c-94 33-161 24-189-27-31-58-5-159 53-205z m-221-324c0 3 0 7 0 10-2 54-5 145 75 240 2 3 4 5 6 8 3 3 6 6 9 10 71 87 74 100 77 116a136 136 0 0 0 3 14l32-9a107 107 0 0 1-3-11c-4-24-11-42-84-131l0-1c-3-3-6-6-8-9-2-3-5-5-7-8-72-86-69-165-68-218 0-3 1-7 1-10z m311-268c-173 0-314 141-314 314 0 60 19 120 54 174l28-19c-32-48-49-101-49-155a282 282 0 0 1 391-259c8 3 15 6 21 10l15-29c-7-4-15-8-23-11a314 314 0 0 0-123-25z" horiz-adv-x="677" />

<glyph glyph-name="icons-cf-10" unicode="&#xe820;" d="M49 453h747v-495h-747z m-39 220h825v-199h-825z m419-4l-9 0c-2 0-54 3-87 37-23 25-38 53-37 73 1 9 4 16 9 21 5 4 12 7 20 7 21 0 49-16 73-42 33-34 32-85 32-87l-1-9z m-104 120c-4 0-6-1-8-2s-3-5-3-8c0-13 9-36 32-61 20-20 50-27 65-30-1 16-6 45-26 65-23 25-47 36-60 36z m88-120l0 9c0 2-1 54 31 88 24 25 52 41 74 41 8 0 15-2 20-7 5-5 8-12 8-21 1-20-13-48-37-73-32-34-84-36-87-36l-9-1z m105 120c-13 0-37-11-61-36-20-20-24-49-26-64 16 2 46 9 65 30 23 24 33 47 32 60 0 4-1 6-3 8-1 1-4 2-7 2z" horiz-adv-x="843" />

<glyph glyph-name="papelera" unicode="&#xe821;" d="M731 743h-126a19 19 0 0 0-19 15 113 113 0 0 1-110 92h-157a113 113 0 0 1-110-92 19 19 0 0 0-19-15h-126a64 64 0 0 1-64-64v-22a64 64 0 0 1 31-55 19 19 0 0 0 10-16v-606a130 130 0 0 1 130-130h453a130 130 0 0 1 130 130v606a19 19 0 0 0 10 16 64 64 0 0 1 31 55v22a64 64 0 0 1-64 64z m-430-169v-611a19 19 0 0 0-19-19h-14a19 19 0 0 0-18 19v611a19 19 0 0 0 18 19h14a19 19 0 0 0 19-19z m89 19h13a19 19 0 0 0 19-19v-611a19 19 0 0 0-19-19h-13a19 19 0 0 0-19 19v611a19 19 0 0 0 19 19z m121 0h13a19 19 0 0 0 19-19v-611a19 19 0 0 0-19-19h-13a19 19 0 0 0-19 19v611a19 19 0 0 0 19 19z m-192 187h157c1 0 2 0 3 0 23-2 21-37-2-37h-159c-23 0-25 35-2 37 1 0 2 0 3 0z m-168-836a19 19 0 0 0-19 18v612a19 19 0 0 0 18 19h11a19 19 0 0 0 19-19v-611a19 19 0 0 0-19-19z m512 18a19 19 0 0 0-19-18h-12a19 19 0 0 0-19 18v612a19 19 0 0 0 19 19h13a19 19 0 0 0 18-19z" horiz-adv-x="795" />

<glyph glyph-name="trazabilidad" unicode="&#xe822;" d="M482 544a203 203 0 1 1 203-203 203 203 0 0 1-203 203z m140-402a22 22 0 1 1-37-22l36-63a22 22 0 0 1 37 22z m-118-44a22 22 0 0 1-43 0l0-72a22 22 0 0 1 43 0z m0 557a22 22 0 0 1-44 0l0-72a22 22 0 1 1 43 0z m293-336a22 22 0 0 1 0 44l-73-1a22 22 0 0 1-18-11 21 21 0 0 1-3-10 22 22 0 0 1 22-22z m-557 0a22 22 0 0 1 0 43l-72 0a22 22 0 1 1 0-43z m452 121a21 21 0 0 1 11 3l62 36a22 22 0 0 1-21 38l-63-36a22 22 0 0 1 11-41z m-350 99a22 22 0 0 1 19-10 21 21 0 0 1 11 3 22 22 0 0 1 7 29l-36 63a22 22 0 0 1-37-22z m-80-301l-63-36a22 22 0 1 1 22-38l62 36a22 22 0 0 1-21 38z m504-36l-63 36a22 22 0 1 1-22-37l63-36a22 22 0 1 1 22 37z m-174 330a22 22 0 0 1 30 8l36 62a22 22 0 0 1-37 22l-37-63a22 22 0 0 1 8-29z m-393-53l62-36a21 21 0 0 1 11-3 22 22 0 0 1 11 40l-63 36a22 22 0 1 1-21-37z m173-330a22 22 0 0 1-29-8l-37-62a22 22 0 0 1 38-22l36 63a22 22 0 0 1-8 29z m-361 55c4-41 83-29 76 17-10 62-22 118-12 182a415 415 0 0 0 360 347 15 15 0 0 0 18-15v-2a15 15 0 0 1 25-12l58 50a15 15 0 0 1 0 23l-58 52a15 15 0 0 1-25-11h0a15 15 0 0 0-14-15 484 484 0 0 1-432-407c-15-90-3-158 4-209m609 619c-37 17-67-58-23-75 58-22 113-40 163-81a415 415 0 0 0 118-486 15 15 0 0 0-22-8l-2 2a15 15 0 0 1-22-16l14-76a15 15 0 0 1 19-11l75 23a15 15 0 0 1 3 28h0a15 15 0 0 0-6 20 484 484 0 0 1-134 577c-70 58-136 83-183 103m207-822c32 25-20 86-55 56-48-41-89-81-149-106a415 415 0 0 0-484 125 15 15 0 0 0 4 22l2 2a15 15 0 0 1-4 27l-73 23a15 15 0 0 1-20-12l-14-76a15 15 0 0 1 23-16h0a15 15 0 0 0 21-4 484 484 0 0 1 572-154c85 35 137 81 177 113" horiz-adv-x="981" />

<glyph glyph-name="unidad-productiva-(2)" unicode="&#xe823;" d="M182 30c6 9 15 19 24 30 19 23 41 50 43 71a35 35 0 0 1 0 12c1-1-2 0-4 1a119 119 0 0 0-23 13 258 258 0 0 0-30 27 186 186 0 0 1-27 25c-18 12-32 17-40 14-11-3-21-21-28-39a38 38 0 0 1 2-34l5-8c14-22 27-42 31-68 0-3 0-9 1-18 1-52 6-84 10-103 5 32 15 46 34 73z m442 118c-8-8-18-19-20-24-3-9-6-19-9-29-9-30-18-62-46-89-7-7-27-27-49-26a35 35 0 0 0-9 2c-31 11-36 58-43 112-3 27-9 78-19 83-9 5-20 5-31 5-25 1-59 2-64 63-4 46 43 104 81 113 29 7 59-6 85-17a241 241 0 0 1 30-12c45-13 58-42 72-72 4-9 8-18 13-27a59 59 0 0 0 24-6 320 320 0 0 1-43 115 283 283 0 0 0-38 8c-6 2-14 5-22 7a629 629 0 0 1-63 18c-29 6-61 15-72 44-9 23 9 43 27 60a321 321 0 0 1-84 17 130 130 0 0 0-2 13c0 4 4 42 4 44l24 24 5 10a57 57 0 0 1 24-6h2a49 49 0 0 1 44 25 76 76 0 0 1 9 25 48 48 0 0 1 16 9 55 55 0 0 1 20 35c1 11 1 25-6 37a26 26 0 0 1-9 9 47 47 0 0 1 5 17 53 53 0 0 1-13 39 75 75 0 0 1-38 19 53 53 0 0 1-34 34 50 50 0 0 1-17 4 39 39 0 0 1-27-11 56 56 0 0 1-51 30 78 78 0 0 1-13-1c-16-3-27-9-34-19a39 39 0 0 1-6-26h0c-4 0-36-1-53-20s-10-38-9-41c-3-2-31-18-28-48s20-41 22-43a53 53 0 0 1 2-19 49 49 0 0 1 26-32 57 57 0 0 1 26-7 45 45 0 0 1 15 2l11-10c2 0 26-18 35-18h0l3-52-5-24a320 320 0 0 1-79-18c14-8 26-20 31-34 6-18 0-35-17-48-12-9-26-12-40-16s-27-6-37-14c-6-5-12-10-17-15-13-11-25-22-46-31a120 120 0 0 0-29-7c-3-1-8-2-11-3a62 62 0 0 1 6-14c1-4 8-8 15-12 10-7 22-14 29-27a17 17 0 0 0 1-6 51 51 0 0 0 17 9c20 6 41 0 68-19a217 217 0 0 0 33-29 225 225 0 0 1 26-23 85 85 0 0 1 17-10c18-9 27-18 24-48-3-31-29-62-51-89-8-10-16-19-22-28l-3-3c-19-28-25-37-29-68l1-1c8-12 14-22 11-32a20 20 0 0 0-9-11 45 45 0 0 0-15-5 322 322 0 0 1 477 262q0 9 0 18c-5-7-12-14-19-22z m-285 461l1 16a26 26 0 0 1 4 3 72 72 0 0 1 9-24 56 56 0 0 1 14-16l-9-7s-11-10-19-10a7 7 0 0 0-4 1c-8 6 3 36 4 37z m-45-24c-8 0-22 11-32 18a103 103 0 0 1 15 14l8-8 11-23a3 3 0 0 0-2-1z m-3 30c-1 3-2 5-3 7a144 144 0 0 1 26-2h0a77 77 0 0 1 12 1v-17c-2-8-6-21-8-22h0l0 0a3 3 0 0 0-3-2h0c-7 0-18 22-24 35z m-190-547c-3 19-14 36-26 56l-5 8a72 72 0 0 0-4 66h0a205 205 0 0 0 15 30 34 34 0 0 0-4 0c-19 1-48 13-67 22a321 321 0 0 1 112-330c-14 31-18 82-20 134-1 7-1 12-1 14z m505 128a18 18 0 0 0-15 8 342 342 0 0 0-20 39c-13 28-20 45-51 53a260 260 0 0 0-34 13c-22 10-45 20-63 16-23-6-57-49-55-77 3-31 9-31 32-32 3 0 6 0 9 0a88 88 0 0 0 35-8c27-14 32-59 38-110 3-26 10-80 20-84 0 0 7-1 24 16 21 21 29 47 36 75 3 10 6 20 10 31 4 11 15 22 27 35a239 239 0 0 1 21 24 91 91 0 0 1-14 1z m-147 262c-8-7-26-23-26-30 4-10 17-16 47-22a658 658 0 0 0 66-19c8-3 15-5 21-7a323 323 0 0 1-104 81z m-385-111c15 7 24 15 36 25 6 6 12 11 20 17 15 13 33 17 49 21 11 2 22 5 28 10s6 7 5 9c-4 10-25 24-43 26a324 324 0 0 1-120-113l4 0a90 90 0 0 1 21 5z" horiz-adv-x="644" />

<glyph glyph-name="adopta-(1)" unicode="&#xe824;" d="M1343-150c-82 0-152 6-223 12-122 10-248 21-459 7a10 10 0 1 0-1 19c212 15 339 4 461-7 106-9 205-17 349-7a10 10 0 1 0 1-19c-47-4-89-5-128-5z m-899 238h-179a10 10 0 1 0 0 20h179a15 15 0 0 1 15 14v12a15 15 0 0 1-15 15 10 10 0 1 0 0 19 35 35 0 0 0 35-34v-12a35 35 0 0 0-35-34z m38 61h-204a10 10 0 1 0 0 19h204a15 15 0 0 1 16 15v12a15 15 0 0 1-16 14h-217a10 10 0 1 0 0 20h217a35 35 0 0 0 36-34v-12a35 35 0 0 0-36-34z m-446 121h-26a10 10 0 1 0 0 20h26c15 0 30 13 43 24l4 4c4 3 7 7 10 10 11 11 22 22 45 22h191c20 0 33-3 40-12 7-7 10-16 8-29-2-30-64-39-86-39a10 10 0 1 0 0 20c28 0 66 12 67 21 0 10-2 13-3 14-4 4-12 6-26 6h-191c-15 0-20-6-30-16-3-4-7-7-11-11l-4-4c-15-13-34-30-57-30z m325-242h-268c-15 0-28 10-41 20-11 8-21 16-29 16h-13a10 10 0 1 0 0 19h13c14 0 28-10 41-20 10-8 21-16 29-16h268c13 0 22 6 22 15v12a15 15 0 0 1-16 14 10 10 0 1 0 0 20 35 35 0 0 0 36-34v-12c0-20-17-34-42-34z m83 182a10 10 0 1 0 0 19 15 15 0 0 1 15 14v13a15 15 0 0 1-15 14h-230a10 10 0 1 0 0 20h230a35 35 0 0 0 35-34v-13a35 35 0 0 0-35-33z m259 48a34 34 0 0 0-9 1l-154 41a10 10 0 0 0-7 12 10 10 0 0 0 12 7l155-41c8-2 23 5 26 15a19 19 0 0 1-2 15 22 22 0 0 1-12 10 10 10 0 0 0-7 12 10 10 0 0 0 12 7 42 42 0 0 0 24-20 38 38 0 0 0 4-29c-5-19-25-30-42-30z m51 50a43 43 0 0 0-12 2l-175 46a10 10 0 0 0-7 12 10 10 0 0 0 12 7l176-46c7-2 22-1 27 14a19 19 0 0 1-2 15 24 24 0 0 1-13 10l-165 44a10 10 0 0 0-7 12 10 10 0 0 0 12 7l165-44a44 44 0 0 0 26-19 37 37 0 0 0 3-30 41 41 0 0 0-40-30z m-9 65a27 27 0 0 0-6 1 10 10 0 0 0-7 12 10 10 0 0 0 12 7c6-2 15 8 17 17a21 21 0 0 1-3 15 21 21 0 0 1-12 10l-206 55a10 10 0 0 0-7 12 10 10 0 0 0 12 7l206-55a40 40 0 0 0 25-19 40 40 0 0 0 4-30c-5-17-19-32-35-32z m-94 93a168 168 0 0 0-39 4l6 19c16-4 53-7 69 3a13 13 0 0 1 7 9c2 10-15 15-31 19l-4 1c-47 13-156 41-174 46-16 5-28-2-43-11-3-2-6-3-9-5-19-10-51-16-76-10l-70 19 6 18 69-18c19-5 46 0 61 8 3 1 6 3 9 5 16 9 34 19 58 13 19-5 127-34 174-46l4-1c15-4 52-13 46-42a33 33 0 0 0-16-21c-13-8-30-10-47-10z m-360-129a10 10 0 0 0-8 3l-2 2c-7 7-20 22-24 39l-116 30a10 10 0 0 0-7 12 10 10 0 0 0 12 7l129-34 0-7c1-13 15-27 21-34l2-2a10 10 0 0 0-1-14 10 10 0 0 0-6-2z m330-122a50 50 0 0 0-13 2l-139 36a10 10 0 0 0-6 12 10 10 0 0 0 12 7l139-37c12-3 30 3 33 15a19 19 0 0 1-1 16 23 23 0 0 1-13 10 10 10 0 0 0-7 12 10 10 0 0 0 12 7 42 42 0 0 0 25-20 38 38 0 0 0 4-30c-6-20-27-30-46-30z m610 89a194 194 0 0 0-99 27 201 201 0 0 0-82-17c-158 0-192 79-192 145 0 64 27 107 91 142 0 8 0 22-1 44 0 14 0 26 0 27-1 43 18 87 52 121a192 192 0 0 0 132 57 180 180 0 0 0 128-50 175 175 0 0 0 55-128 152 152 0 0 0-1-17c66-31 108-95 108-167 0-101-86-184-191-184z m-98 51a12 12 0 0 0 7-2 170 170 0 0 1 91-26c92 0 167 72 167 161 0 65-39 124-101 149a11 11 0 0 0-7 12 150 150 0 0 1 2 23 153 153 0 0 1-48 112 158 158 0 0 1-112 43 169 169 0 0 1-115-50c-30-29-46-68-45-105 0-1 0-13 0-27 0-19 0-47 0-50a11 11 0 0 0-6-10c-61-32-85-68-85-126 0-81 57-123 169-123a177 177 0 0 1 78 18 12 12 0 0 0 5 1z m-1-480a12 12 0 0 0-11 11l-1 768a12 12 0 0 0 12 11h0a12 12 0 0 0 11-11l1-768a12 12 0 0 0-12-11z m-7 612a12 12 0 0 0-7 2l-66 46a11 11 0 0 0-3 16 12 12 0 0 0 17 2l66-45a11 11 0 0 0 2-16 12 12 0 0 0-9-5z m12-78a12 12 0 0 0-8 4 11 11 0 0 0 1 16l45 40a12 12 0 0 0 16-1 11 11 0 0 0-1-16l-45-40a12 12 0 0 0-8-3z m0 156a12 12 0 0 0-9 3 11 11 0 0 0 1 16l45 40a12 12 0 0 0 17-1 11 11 0 0 0-1-16l-45-39a12 12 0 0 0-8-3z m-528-554a10 10 0 0 0-5 2l-3 2c-10 5-10 19-9 26a472 472 0 0 0 35 88l0 0a10 10 0 0 0 1 1 11 11 0 0 0 13 4c2-1 8-5 4-14a454 454 0 0 1-34-84 14 14 0 0 1 1-5l2-2a10 10 0 0 0 3-13 10 10 0 0 0-8-5z m27-9a51 51 0 0 0-34 12c-1 0-1 1-1 1a10 10 0 0 0 0 14 10 10 0 0 0 14 0 33 33 0 0 1 33-6l37 15 2 1 15 3a23 23 0 0 1 18 17 10 10 0 0 0 11 8 10 10 0 0 0 9-11 42 42 0 0 0-34-33l-14-3-36-15a55 55 0 0 0-20-3z m106-120c-11 0-19 3-23 9a17 17 0 0 0-2 16 75 75 0 0 1 5 24l2 38a10 10 0 0 0 20-2l-2-37a94 94 0 0 0-6-28 24 24 0 0 1 6 0 27 27 0 0 1 8 1v4a67 67 0 0 0 7 31c5 14 14 22 24 25a10 10 0 0 0 12-7 10 10 0 0 0-7-12c-4-1-8-6-11-13a48 48 0 0 1-5-24l0-4a15 15 0 0 0-3-12c-5-6-13-9-25-9z m237-6c-20 0-27 11-27 18a9 9 0 0 0 0 1 214 214 0 0 1 1 24 41 41 0 0 0 0 7c0 1 0 2 0 3l1 3c0 5 0 6-9 24a10 10 0 0 0 4 13 10 10 0 0 0 13-4c11-21 12-25 12-35l-1-2c0-1 0-2 0-3a26 26 0 0 1 0-4 212 212 0 0 0-1-25 19 19 0 0 1 7-1c5 0 6 1 6 1a4 4 0 0 1 1 2l-5 30a51 51 0 0 0 6 34l0 1a62 62 0 0 0 7 9c4 5 4 6 3 8a9 9 0 0 0 0 3v3a10 10 0 0 0 10 10h0a10 10 0 0 0 10-10v-2c3-11-3-18-7-24a44 44 0 0 1-5-6l-1-1a32 32 0 0 1-3-21l5-31a22 22 0 0 0-6-17 27 27 0 0 0-20-8z m-162 57c-16 0-36 7-46 20a50 50 0 0 0-14-2h0c-23 0-42 15-47 35a39 39 0 0 0-15 1 34 34 0 0 0-25 24 31 31 0 0 0 0 15 10 10 0 0 0 12 7 10 10 0 0 0 8-11 13 13 0 0 1 0-7 15 15 0 0 1 10-9 18 18 0 0 1 14 1 10 10 0 0 0 11 0 10 10 0 0 0 4-9l0-2a9 9 0 0 1 0-1c0-13 13-24 28-24a31 31 0 0 1 14 3 10 10 0 0 0 8 0 10 10 0 0 0 5-5c4-9 20-17 33-17h1c10 0 23 5 28 10a10 10 0 0 0 7 4 10 10 0 0 0 7-3c5-4 17-8 26-8a27 27 0 0 1 24 14 10 10 0 0 0 7 5 10 10 0 0 0 8-2 22 22 0 0 1 14-5 20 20 0 0 1 20 15 10 10 0 0 0 5 7 10 10 0 0 0 9 0 31 31 0 0 1 20-1 28 28 0 0 1 20 17c1 1 1 2 1 2a10 10 0 0 0 8 8 14 14 0 0 1 13 12 12 12 0 0 1 0 2 10 10 0 0 0 5 11 46 46 0 0 1 11 7 20 20 0 0 1 6 14 23 23 0 0 1-9 18 10 10 0 0 0-4 7 9 9 0 0 0 3 8 17 17 0 0 1-2 26c-10 8-17 8-23 6a10 10 0 0 0-9 3 10 10 0 0 0-3 9c1 3 2 5-3 10a14 14 0 0 1-11 4 15 15 0 0 1-7-2 10 10 0 0 0-9-1 10 10 0 0 0-6 7c-3 11-14 19-27 19a29 29 0 0 1-16-5 10 10 0 0 0-10-2 10 10 0 0 0-6 7 14 14 0 0 1-14 10h0a15 15 0 0 1-10-4 10 10 0 0 0-15 2 52 52 0 0 0-3 6c-4 6-6 10-21 10h-1c-14 0-17-6-21-14-1-1-2-2-3-4a10 10 0 0 0-16-1c-4 5-15 9-24 9h0a23 23 0 0 1-20-12 10 10 0 0 0-7-5 10 10 0 0 0-8 2 16 16 0 0 1-10 3 14 14 0 0 1-14-11 10 10 0 0 0-5-8 10 10 0 0 0-8 0 20 20 0 0 1-7 1 17 17 0 0 1-16-9 10 10 0 0 0-9-6 10 10 0 0 0-9 6 7 7 0 0 1-7 4h0a8 8 0 0 1-7-3 10 10 0 0 0-12-5 6 6 0 0 1-2 0c-2 0-4-1-4-3s2-2 3-2a10 10 0 0 0 5-12 10 10 0 0 0-8-7 10 10 0 0 0-10-6 10 10 0 0 0-9 10 21 21 0 0 0 2 8 21 21 0 0 0-3 9 23 23 0 0 0 24 23h1a28 28 0 0 0 20 8 29 29 0 0 0 16-5 38 38 0 0 0 25 9 40 40 0 0 0 4 0 34 34 0 0 0 30 19 37 37 0 0 0 13-3 43 43 0 0 0 32 14 65 65 0 0 0 29-7c5 9 15 18 35 18h0c23 0 32-8 37-17a37 37 0 0 0 13 3 35 35 0 0 0 28-14 49 49 0 0 0 18 4 47 47 0 0 0 42-24 37 37 0 0 0 7 1 34 34 0 0 0 25-11 31 31 0 0 0 9-14 44 44 0 0 0 28-12 35 35 0 0 0 9-47 41 41 0 0 0 11-26 39 39 0 0 0-13-28 75 75 0 0 0-10-8 33 33 0 0 0-23-29 48 48 0 0 0-35-28 52 52 0 0 0-22-1 40 40 0 0 0-36-21 44 44 0 0 0-17 4 48 48 0 0 0-36-16 69 69 0 0 0-33 8 71 71 0 0 0-35-10z m-127 164a17 17 0 0 0-6 2c-8 3-12 12-14 17l-1 1a6 6 0 0 0 4 8 7 7 0 0 0 8-3l1-1c1-3 4-9 7-10a7 7 0 0 1 5 0c4 2 5 4 5 4a24 24 0 0 1-3 3 25 25 0 0 0-3 6 6 6 0 0 0 3 8 7 7 0 0 0 9-4 20 20 0 0 1 2-2c2-3 6-8 4-15-1-4-5-8-11-11a23 23 0 0 0-10-3z" horiz-adv-x="1480" />

<glyph glyph-name="conoce-(1)" unicode="&#xe825;" d="M349 204c-93 0-176 81-177 174l0 9h354l0-9c-2-93-85-174-177-174z m-158 164a162 162 0 0 1 47-97c31-31 70-48 111-48s80 17 110 48a162 162 0 0 1 47 97z m506 44h-697v83h164a430 430 0 0 0 4 42 381 381 0 0 0 19 76c2 5 4 11 6 15 31 72 83 110 152 110h2a152 152 0 0 0 83-23c32-20 58-54 75-101a396 396 0 0 0 23-120h169z m-678 19h659v45h-169v9a409 409 0 0 1-21 119c-16 45-39 76-69 95a138 138 0 0 1-73 20c-63 0-108-34-136-100-2-5-4-10-6-15a392 392 0 0 1-21-113h0c0-4 0-6 0-6v-9h-164z m332-576c-99 0-195 32-269 90l-4 3v58c0 7 7 154 125 229l7 5 5-7c0 0 48-54 135-54s135 54 136 54l5 7 7-5c118-75 126-222 126-228v-59l-3-2c-75-59-171-91-270-91z m-254 102c70-53 160-82 254-82s183 29 254 83v48c0 6-10 139-111 209-16-16-65-55-144-55s-127 39-144 55c-103-72-109-208-109-209z m1098-107c-98 0-194 32-268 89l-3 3v58c0 7 6 152 124 227l7 5 5-6c0-1 48-54 134-54s134 53 135 54l5 6 7-5c118-75 126-226 126-227v-58l-4-3c-74-57-169-89-268-89z m-252 101c70-53 159-82 252-82s183 29 253 83v48c-1 5-10 137-111 207-16-15-65-54-143-54s-127 39-143 54c-102-71-108-206-108-208z m250 245c-92 0-174 81-176 172v12l352-1-1-10c-1-92-83-173-175-173z m-156 165c6-79 77-146 156-146 40 0 79 17 109 48a161 161 0 0 1 47 97z m332 43h-353l0 9c2 93 84 173 176 173s175-80 176-173z m-333 19h313a161 161 0 0 1-47 96c-30 31-69 48-109 48s-80-17-110-48a161 161 0 0 1-47-96z m166 176l-13 14c7 7 13 13 20 20s14 14 20 21c4 3 8 7 12 11s7 8 11 11a20 20 0 0 1 5 10l1 3c10 33-2 73-7 89a109 109 0 0 1-23 36c-7 8-20 18-31 17l-2 19c22 2 42-17 47-22a128 128 0 0 0 26-43c7-18 21-63 8-102l-1-3a38 38 0 0 0-9-17c-4-4-8-8-12-11s-7-8-11-12c-7-7-14-13-20-20s-14-14-21-21z m-16 0q-10 11-20 21c-7 7-14 13-20 20-4 4-8 8-12 12s-8 7-11 11a38 38 0 0 0-9 17l-1 3c-13 39 1 84 7 101a128 128 0 0 0 26 43c6 6 25 25 47 23l-1-19c-11 1-24-8-32-17a108 108 0 0 1-22-36c-6-16-18-56-7-89l1-3a20 20 0 0 1 4-9c4-4 8-8 12-12s7-8 11-11c7-7 13-14 20-21s14-13 20-20z m-323-386a55 55 0 0 1-56 7 58 58 0 0 1-12-7 62 62 0 0 1-13-13 63 63 0 0 1-12 13 58 58 0 0 1-12 7 55 55 0 0 1-56-7c-14-11-23-30-23-55a74 74 0 0 1 5-27l4-8c20-38 69-65 94-89h0c7 6 14 12 22 18l11 8c33 25 71 56 71 98 0 25-9 44-23 55z m-506-272l-7 8 0 0c10 10 20 20 30 30l17 18a18 18 0 0 1 4 8l1 2c8 26-1 56-6 68a85 85 0 0 1-16 29c-4 3-15 14-26 13l-1 11c15 1 29-11 34-17a96 96 0 0 0 20-32c4-13 15-46 5-76l-1-2a29 29 0 0 0-6-12l-17-17c-10-10-21-21-31-31z m-12 0c-10 10-20 21-30 31l-18 17a27 27 0 0 0-6 13l-1 2c-9 28 1 62 6 75a91 91 0 0 0 19 32c4 5 19 18 35 17l-1-11c-9 1-19-6-26-13a81 81 0 0 1-17-29c-4-12-14-42-6-68l1-2a16 16 0 0 1 4-8l17-18c11-10 21-20 31-30z" horiz-adv-x="1467" />

<glyph glyph-name="envio3" unicode="&#xe826;" d="M219 344h66s-11 46-11 50 5 42 5 42l23 24 14 27-25-21s-16-14-23-8 3 36 3 36l4 30-15-5v-30s-5-21-8-22c0 0-6-14-26 33s-25 12-25 12l20-18 10-22s-4-8-37 19-27 6-27 6l28-25s26-18 34-17l3-52z m58 169s7-48 53-49 54 49 54 49a51 51 0 0 1 34 43c6 35-13 44-13 44s15 26-8 54a72 72 0 0 1-37 18 51 51 0 0 1-33 34c-28 10-43-8-43-8s-16 37-62 29-39-44-39-44-33 1-52-19-8-40-8-40-30-16-27-46 21-42 21-42a49 49 0 0 1 27-50c32-17 55 1 74 22 0 0 43-11 59 5z m791-663h-145c-14 0-18 16-22 31-1 3-2 7-3 8-29 53-101 125-150 150a45 45 0 1 0 37 81l44-22 2-1a47 47 0 0 1 5-2h0a47 47 0 0 1 0 7c0 1 0 3 0 4v188a45 45 0 0 0 50 44 45 45 0 0 0 39-45l-1-67c8 6 20 10 35 6a39 39 0 0 0 29-28 46 46 0 0 0 39 7 40 40 0 0 0 25-19 34 34 0 0 0 21 7c29 0 35-24 39-38 0-2 1-4 1-6v0a273 273 0 0 0 9-71c0-51 0-137-24-192 0-1 0-2-1-3-9-26-16-39-29-39z m-140 23h137a118 118 0 0 1 10 24l2 4c22 51 22 134 22 183a251 251 0 0 1-8 65c-1 2-1 4-2 6-4 17-6 21-16 21-6 0-9-4-14-10a20 20 0 0 0-12-9l-1 0a9 9 0 0 0-8 2l-1 0a12 12 0 0 0-4 10v5a16 16 0 0 1-12 15c-9 2-21 0-30-15a13 13 0 0 0-19-3 13 13 0 0 0-5 11v3c0 20-10 23-14 24-14 4-20-2-28-27a12 12 0 0 0-14-8 13 13 0 0 0-11 13l1 106a22 22 0 0 1-18 22 21 21 0 0 1-19-7 22 22 0 0 1-5-15v-187c0-1 0-2 0-3 0-8 0-17-7-25a23 23 0 0 0-17-7 35 35 0 0 0-14 4l-1 1-2 1-43 22a21 21 0 0 1-14 2 21 21 0 0 1-4-41l1 0c54-28 129-103 161-160a64 64 0 0 0 4-13 118 118 0 0 1 5-14z m-107 203z m82 114h0z m277-161h-65v23h65a9 9 0 0 1 10 10v755a9 9 0 0 1-10 10h-1147a9 9 0 0 1-10-10v-755a9 9 0 0 1 10-10h737v-23h-737a33 33 0 0 0-33 33v755a33 33 0 0 0 33 33h1147a33 33 0 0 0 33-33v-755a33 33 0 0 0-33-33z m-86 618h-589a12 12 0 0 0 0 23h589a12 12 0 0 0 0-23z m0-80h-589a12 12 0 0 0 0 24h589a12 12 0 0 0 0-24z m0-84h-589a12 12 0 0 0 0 24h589a12 12 0 0 0 0-24z m0-84h-589a12 12 0 0 0 0 24h589a12 12 0 0 0 0-24z" horiz-adv-x="1213" />

<glyph glyph-name="envio_nuevo_icono" unicode="&#xe827;" d="M470 274c-129 0-234 104-234 232s105 231 234 231 233-104 233-231-105-232-233-232z m0 443c-119 0-215-95-215-211s96-212 215-212 214 95 214 212-96 211-214 211z m-6-323l-46 46-26 26a39 39 0 0 0-9 17c-11 34-4 76 8 108a132 132 0 0 0 28 45c11 12 29 24 45 22m16-264l46 46 26 26a38 38 0 0 1 8 17c12 34 4 76-8 108a132 132 0 0 1-27 45c-11 12-29 23-45 22m704-808a157 157 0 0 0-112 47 162 162 0 0 0-45 128 159 159 0 0 0 143 146 157 157 0 0 0 126-47 162 162 0 0 0 46-128 159 159 0 0 0-143-146c-5 0-10 0-15 0z m0 298c-4 0-8 0-12-1a137 137 0 0 1-83-233 133 133 0 0 1 108-39h0a137 137 0 0 1 82 233 133 133 0 0 1-95 40z m0-234c-2 0-5 0-8 0a97 97 0 0 0-87 89 98 98 0 0 0 28 76 95 95 0 0 0 75 28h0a97 97 0 0 0 87-88 98 98 0 0 0-27-77 94 94 0 0 0-68-28z m0 170a71 71 0 0 1-51-22 74 74 0 0 1-20-57 73 73 0 0 1 65-67 71 71 0 0 1 57 21 74 74 0 0 1 20 58 73 73 0 0 1-65 67c-2 0-4 0-6 0z m257 91a52 52 0 1 0 52 52 52 52 0 0 0-52-52z m0 85a33 33 0 1 1 33-33 33 33 0 0 1-33 33z m-503-181h0l-324 1a13 13 0 0 0 0 26h0l311-1v719h-899v-719l217 1h0a13 13 0 0 0 0-26l-230-1h0a13 13 0 0 0-13 13v745a13 13 0 0 0 13 13h925a13 13 0 0 0 13-13v-745a13 13 0 0 0-13-13z m-511-229a157 157 0 0 0-112 47 163 163 0 0 0-46 128 159 159 0 0 0 144 146 157 157 0 0 0 126-47 163 163 0 0 0 45-128 159 159 0 0 0-143-146c-5 0-9 0-14 0z m0 298c-4 0-8 0-12-1a137 137 0 0 1-83-233 133 133 0 0 1 107-39h0a137 137 0 0 1 83 233 133 133 0 0 1-95 40z m0-234c-3 0-5 0-8 0a97 97 0 0 0-87 89 98 98 0 0 0 28 76 94 94 0 0 0 75 28h0a97 97 0 0 0 87-88 98 98 0 0 0-27-77 94 94 0 0 0-68-28z m0 170a71 71 0 0 1-51-22 74 74 0 0 1-21-57 73 73 0 0 1 66-67 71 71 0 0 1 56 21 74 74 0 0 1 21 58 73 73 0 0 1-65 67c-2 0-4 0-6 0z m1035-117l-22 0c-9 0-19 0-30 0a15 15 0 0 0 0 29c11 0 21 0 30 0 42-1 67-1 77 9s12 37 12 75c0 12 0 24 0 35 0 72 0 153-6 273-14 263-181 381-240 394-19 4-132 4-206 4-28 0-53 0-71 0h0a10 10 0 0 1-7-4 18 18 0 0 1-5-13v-671a15 15 0 0 0-29 0v672a47 47 0 0 0 13 34 40 40 0 0 0 28 11c18 0 43 0 71 0 107 0 192 0 212-5 76-16 249-146 263-420 7-121 6-202 6-274 0-12 0-24 0-35 0-49-3-79-21-96-15-16-38-18-75-18z m-244 535c-9 0-19 0-29 0s-21 0-31 0a52 52 0 0 0-37 16 59 59 0 0 0-17 42v117c0 19 3 32 12 41 11 11 26 11 41 11h44c60 0 124-17 136-142a57 57 0 0 0 0-7v-2c0-22-6-40-19-52-21-21-57-24-100-24z m-65 204c-9 0-17 0-21-4s-5-12-5-25v-116a36 36 0 0 1 10-27 29 29 0 0 1 21-8c11 0 21 0 32-1 50-1 93-1 112 18 8 8 12 19 12 35v2a39 39 0 0 1 0 5c-10 101-51 121-113 121h-48z" horiz-adv-x="1558" />

<glyph glyph-name="carrito" unicode="&#xe828;" d="M1142 699a36 36 0 0 1-28 15l-692 30a36 36 0 1 1-3-72l597-25a36 36 0 0 0 33-47l-112-351h-564l-102 555a36 36 0 0 1-22 27l-201 18c-64 8-57-56-21-63l177-14 104-565a36 36 0 0 1 35-29h18l-41-114a31 31 0 0 1 30-35h27c-30-34-40-85-7-137a67 67 0 0 1 21-22c84-53 173 7 173 87a107 107 0 0 1-27 72h234c-31-34-40-85-8-137a68 68 0 0 1 21-22c85-53 174 8 174 88a107 107 0 0 1-28 71h48c30 27 12 60-14 60h-572l32 89h539a36 36 0 0 1 34 25l150 465a36 36 0 0 1-5 31z m-652-778c-50-36-106 20-70 69a12 12 0 0 0 3 3c50 37 106-19 70-69a16 16 0 0 0-3-3z m393 0c-50-36-105 20-69 69a14 14 0 0 0 3 3c50 37 105-19 69-69a14 14 0 0 0-3-3z" horiz-adv-x="1148" />

<glyph glyph-name="avion_papel" unicode="&#xe829;" d="M289-150l-6 0c-16 5-15 22-15 34v7c0 14 6 273 6 284a18 18 0 0 0 6 13l584 563c-244-133-781-428-817-449l196-89-15-33s-169 77-197 90c-14 6-30 14-31 30s11 22 25 31c36 22 900 495 938 517l2 0a18 18 0 0 0 10 2h0a17 17 0 0 0 12-5h0l3-3a16 16 0 0 0 2-7 16 16 0 0 0 0-6v0c-7-32-159-761-170-803a18 18 0 0 0-9-12c-19-12-321 67-325 68a18 18 0 1 0 11 36c32-9 236-58 291-68 19 90 113 529 149 709l-506-656h0s-79-161-115-225c-7-13-15-28-29-28z m22 318c0-33-4-170-6-238 39 72 98 191 98 193l406 526z m-22-318a18 18 0 0 0-13 6 18 18 0 0 0 0 25l181 181a18 18 0 1 0 25-26l-180-180a18 18 0 0 0-13-6z" horiz-adv-x="991" />

<glyph glyph-name="icons-cf-09" unicode="&#xe83a;" d="M443 834c49 4 102-32 134-66 37-38 64-87 82-136 36-97 58-223 25-324-7-22-11-38-26-53-26-26-52-52-78-78-46-46-91-93-137-139m-23 796c-50 4-102-32-135-66-36-38-63-87-81-136-36-97-58-223-25-324 7-22 10-38 26-53 26-26 52-52 78-78 45-46 91-93 137-139m20 797h-17v-975h17v975z" horiz-adv-x="863" />

<glyph glyph-name="texto" unicode="&#xe83b;" d="M0 450c0 215 157 371 379 371a403 403 0 0 0 268-93l-90-133a264 264 0 0 1-171 57c-117 0-195-79-195-202 0-120 75-202 185-202a226 226 0 0 1 181 77l107-127a393 393 0 0 0-293-118c-227 0-371 166-371 370z m1095 103l-40-142a166 166 0 0 1-61 10c-57 0-92-35-92-93v-233h-172v469h109l33-74a149 149 0 0 0 139 86 154 154 0 0 0 84-23z m6-223c0 147 109 251 263 251s263-105 263-251-108-250-263-250-263 102-263 250z m353 0c0 63-35 105-89 105s-89-42-89-105 34-104 89-104 89 42 89 104z m892 234v-2l-192-470h-54l-113 198-112-198h-53l-192 470v2h186l51-142a346 346 0 0 0 13-44c8 18 17 33 26 48l65 113h35l63-111a437 437 0 0 0 28-53l15 49 51 139z m525 286v-755h-113l-30 63a191 191 0 0 0-158-75c-129 0-214 99-214 250 0 143 89 244 214 244a192 192 0 0 0 132-49c-3 46-4 79-4 137v185z m-166-520c0 63-35 104-87 104s-87-41-87-104 33-104 87-104 87 39 87 104z m283 475h463v-172h-277v-130h246v-168h-246v-240h-186z m934-416v-294h-110l-30 62a193 193 0 0 0-159-73c-79 1-143 46-143 131 0 111 93 165 241 165h27v14c0 33-25 47-71 47a348 348 0 0 1-136-37l-44 120a500 500 0 0 0 212 54c136 0 213-62 213-189z m-165-99c-13 1-21 2-35 2-48 0-80-19-80-57a38 38 0 0 1 42-40c35 0 72 27 73 95z m624 263l-40-142a166 166 0 0 1-61 10c-57 0-92-35-92-93v-233h-172v469h109l33-74a149 149 0 0 0 139 86 154 154 0 0 0 84-23z m774-146v-312h-173v280c0 34-17 54-46 54-39 0-58-31-58-71v-263h-171v281c0 31-18 53-47 53-39 0-59-31-59-71v-263h-172v469h110l32-72a171 171 0 0 0 149 87c66 0 114-28 139-75a168 168 0 0 0 143 75c95 1 153-67 153-172z m86 318a89 89 0 0 0 95 90c61 0 95-40 95-90s-35-89-95-89-95 39-95 89z m9-161h172v-469h-172z m733-165v-304h-172v276c0 38-18 58-50 58-42 0-66-29-66-71v-263h-172v469h109l33-74a176 176 0 0 0 156 90c106 0 162-69 162-181z m590 165v-471c0-157-96-243-267-243a414 414 0 0 0-212 55l44 134a294 294 0 0 1 150-38c73 0 111 29 111 86a394 394 0 0 0 2 49 189 189 0 0 0-132-48c-121 0-210 94-210 243s92 248 211 248a193 193 0 0 0 164-82l31 67z m-166-233c0 66-35 104-87 104s-87-38-87-104 34-103 87-103 87 39 87 103z" horiz-adv-x="6573" />

<glyph glyph-name="texto_barra_menu" unicode="&#xe83c;" d="M0 451c0 215 156 371 375 371a388 388 0 0 0 270-99l-78-109a269 269 0 0 1-185 67c-132 0-223-93-223-230 0-133 88-231 215-231a240 240 0 0 1 194 88l93-103a378 378 0 0 0-291-126c-224 1-370 167-370 372z m1081 102l-35-118a160 160 0 0 1-63 11c-61 0-101-40-101-107v-244h-142v469h92l29-73a145 145 0 0 0 137 83 153 153 0 0 0 83-21z m14-224c0 147 107 249 258 249s258-103 258-249-107-249-258-249-258 102-258 249z m372 0c0 75-47 126-114 126s-113-51-113-126 46-125 113-125 114 50 114 125z m860 235v-3l-184-470h-44l-123 231-122-231h-44l-183 470v3h152l63-178a439 439 0 0 0 14-50c9 18 18 34 27 52l79 151h30l78-150a545 545 0 0 0 28-56 562 562 0 0 0 17 55l62 176z m526 286v-756h-96l-25 65a198 198 0 0 0-164-78c-132 0-220 101-220 251 0 142 91 243 220 243a198 198 0 0 0 145-59c-2 48-3 82-3 138v196z m-138-521c0 76-44 125-112 125s-111-49-111-125 44-125 111-125 112 49 112 125z m275 478h456v-144h-301v-167h267v-140h-267v-262h-155z m917-414v-299h-94l-26 66a196 196 0 0 0-163-76c-83 0-145 47-145 131 0 108 93 165 239 165 18 0 33-1 44-2v19c0 42-31 61-84 61a357 357 0 0 1-141-38l-39 103a475 475 0 0 0 206 51c127 0 203-59 203-181z m-139-96a313 313 0 0 1-47 3c-65 0-106-24-106-70 0-33 22-49 56-49 52 0 95 40 97 116z m591 256l-35-118a160 160 0 0 1-63 11c-61 0-101-40-101-107v-244h-142v469h92l29-73a145 145 0 0 0 137 83 153 153 0 0 0 83-21z m776-153v-306h-142v285c0 45-24 72-62 72-56 0-82-49-82-100v-257h-142v285c0 40-21 72-62 72-56 0-82-49-82-100v-257h-143v470h92l29-75a168 168 0 0 0 148 88c66 0 116-30 140-81a167 167 0 0 0 150 82c100 0 156-69 156-178z m102 325a83 83 0 0 0 166 0 83 83 0 0 0-166 0z m11-161h143v-470h-143z m703-171v-299h-143v280c0 49-21 77-66 77-56 0-90-39-90-97v-260h-143v470h93l28-76a177 177 0 0 0 157 90c107 0 164-69 164-185z m594 171v-480c0-153-98-234-258-234a369 369 0 0 0-213 63l44 110a273 273 0 0 1 157-47c79 0 125 35 125 104 0 21 0 42 2 63a200 200 0 0 0-144-57c-128 0-218 98-218 244s92 247 218 247a198 198 0 0 0 168-82l26 70z m-138-234c0 76-42 125-112 125s-110-49-110-125 41-125 110-125 112 51 112 125z" horiz-adv-x="6545" />

<glyph glyph-name="logo_barrra_menu_final" unicode="&#xe841;" d="M433-116a573 573 0 0 0-190 256l41 15a526 526 0 0 1 175-236l-26-35z m21-1a6 6 0 0 0-2 1 7 7 0 0 0-5 3l-12 23a8 8 0 0 0-1 7 11 11 0 0 0 5 5 378 378 0 0 1 97 589l-57 61c-5 5-6 10-3 14 1 1 5 6 14 1l17-10a332 332 0 0 0-22 119 340 340 0 0 0 8 71 528 528 0 0 1-141-133 512 512 0 0 1-98-303c0-5 0-11 0-16v0c0-1 0-3 0-7l1-4a6 6 0 0 0-4-6 7 7 0 0 0-8 2l0 1-14 6v-1l-14 8v1a9 9 0 0 0-2 1l-3 2 0 6v8a561 561 0 0 0 311 502l30 15a9 9 0 0 0 11-2 9 9 0 0 0 2-10l-13-31a292 292 0 0 1 28-272l19-28a418 418 0 0 0 83-251 424 424 0 0 0-58-215 415 415 0 0 0-160-154 18 18 0 0 0-9-3z m-231 554c-33 26-60 68-72 116-13 49-9 97 10 133 18 32 47 53 84 61 40 9 90 4 148-16l-14-40c-91 32-155 23-181-25-30-56-5-153 51-196z m-220-317c0 3 0 6 0 10-2 54-5 145 75 240 2 3 4 5 6 8 3 3 6 6 9 9 70 86 73 103 77 120 1 4 2 9 3 15l40-12c-1-4-1-7-2-11-5-23-9-44-86-138l-1-1c-2-3-5-6-8-9l-6-8c-70-83-67-161-66-212 0-4 0-7 0-11l-41 0z m313-270c-174 0-316 142-316 316 0 59 19 119 55 174l35-23c-22-33-48-87-48-151a274 274 0 0 1 380-253c8 3 15 6 21 10l19-37c-7-4-15-8-23-11h0a313 313 0 0 0-123-25z m-119 475a262 262 0 0 1 55-19 181 181 0 0 1 55-5 194 194 0 0 1 139 76 229 229 0 0 1 15 22c2 4 4 8 6 12l2 3 0 0v1c-1-3 4 7 9 9a18 18 0 0 0 17-1c6-2 10-14 9-12l0-2c1-2 2-5 2-7a227 227 0 0 0-7-125 220 220 0 0 0-29-56 216 216 0 0 0-44-46 206 206 0 0 0-117-43 235 235 0 0 0-31 1 192 192 0 0 0-31 5 219 219 0 0 0-29 11 202 202 0 0 0-27 15 194 194 0 0 0-74 91 220 220 0 0 1 38-43 199 199 0 0 1 46-31 192 192 0 0 1 52-17 211 211 0 0 1 27-2 172 172 0 0 1 27 1 201 201 0 0 1 26 5 184 184 0 0 1 70 37 183 183 0 0 1 35 38 187 187 0 0 1 24 47 207 207 0 0 1 11 52 202 202 0 0 1-3 53c-1 2-1 4-2 6l0 2c-1 2 3-9 8-11a18 18 0 0 1 17-1c5 1 10 11 9 8v0l-1-1-1-3c-3-5-6-9-8-14a225 225 0 0 0-19-25 205 205 0 0 0-165-72 145 145 0 0 0-31 4 197 197 0 0 0-28 9 206 206 0 0 0-52 28z" horiz-adv-x="681" />

<glyph glyph-name="sheep" unicode="&#xe842;" d="M140 591l-54-57c-33-34-33-88 0-122 13-14 32-23 51-25l13 0c19 1 43 14 70 39l126 130c-10 2-19 6-29 10l-8 6-2 0c-17-10-35-16-54-18l-10 0-8 0c-35 0-69 13-95 37z m191 56c13-12 30-19 48-19l8 0c8 1 16 3 23 6l0-1c24-26 26-65 4-93l-4-4-162-167c-16-17-36-30-58-37-25-57-20-122 14-174 33-52 90-84 151-86 30 0 59 8 85 22l8 5 29 18 20-29c32-51 87-84 147-89 60-6 120 18 160 63l7 7 16 18 23-7c14-5 30-8 45-8 80 2 144 68 144 148 0 43-19 84-51 112l-6 5-38 30 38 29c37 29 58 74 57 121 0 80-64 146-144 148-25 0-50-7-71-20l-9-5-34-23-18 37c-46 95-154 143-255 112-23-9-44-21-63-37-10 27-36 46-66 47-15 0-30-5-43-14l-5-5-24-22-24 22-4 4c-13 10-28 15-44 15-38-1-69-31-72-69 3-25 10-44 22-57 0 1 1-1 4-3l5-5-4 4c25-24 64-26 91-5l5 5 17 15 7 7 21-21z m240 203c91 0 177-44 230-118l6-9 2-3 4 0c19 10 40 16 61 19l10 0 11 0c121-2 218-101 216-222 0-50-16-99-47-138l-6-8-2-2 2-3c30-35 49-79 53-125l0-21c1-94-59-179-148-211l0-122c0-20-17-37-37-37-20 0-37 17-37 37l0 111-19 0-10 0-10 2-6-2c-9-9-20-18-31-26 1-3 2-7 2-11l0-74c0-20-17-37-37-37-21 0-37 17-37 37l0 49c-18-5-37-9-55-11l-14 0-11 0c-50 0-100 14-142 41l0-79c0-20-17-37-37-37-21 0-38 17-38 37l0 128c-24-10-51-16-77-17l3 0 0-111c0-20-16-37-37-37-20 0-37 17-37 37l0 118c-114 30-194 134-193 252 0 24 2 48 8 71-26 6-50 21-68 41-55 56-57 144-6 204l6 6 61 63c-9 19-13 39-13 60 0 39 14 76 41 104 27 28 64 44 103 44 21 0 42-5 61-14l9-4 2 0c17 9 35 16 55 18l8 0 9 0c27 0 54-8 77-23 30 13 62 21 94 23l11 0 10 0z" horiz-adv-x="1148" />

<glyph glyph-name="farm" unicode="&#xe843;" d="M250 725c-72 0-106-28-125-94v-656h84v375l13 22c0 3 6 12 16 28l56 97c9 19 19 34 28 47l9 15 19 10c9 6 19 12 25 19v43c-19 66-56 94-125 94z m522-225l-188 125-187-125-34-59c-19-28-38-57-50-82l-19-34v-350l125 0v166c0 22 19 40 40 40h250c22 0 41-18 41-40l0-166 125 0v353l-103 172z m-63-609c-21 0-40 18-40 40v169h-169l0-166c0-22-19-40-41-40h-418v744c0 3 0 6 0 9 31 106 100 162 209 162 113 0 181-56 209-165l104 69c12 9 31 9 46 0l219-147c6-3 10-10 13-13l115-190c3-7 7-13 7-22v-407c0-22-19-40-41-40h-213z" horiz-adv-x="1000" />

<glyph glyph-name="height" unicode="&#xe844;" d="M416 684c22 0 40-18 40-40 0-22-18-41-40-41h-291c-22-3-41 16-41 38 0 22 19 40 41 40h291z m0-293c22 0 40-19 40-41s-18-41-40-41h-166c-22 0-41 19-41 41s19 41 41 41h166z m306 281c16 16 44 16 59 0l125-125c16-16 16-44 0-59-9-10-22-13-31-13-9 0-22 3-28 13l-53 53v-385l53 53c16 16 44 16 59 0 16-15 16-43 0-59l-125-122c-9-6-18-12-28-12-9 0-22 3-28 12l-125 125c-16 16-16 44 0 60 16 15 44 15 59 0l54-54v385l-54-53c-15-16-43-16-59 0-16 15-16 43 0 59l122 122z m-306-572c22 0 40-19 40-41 0-21-18-40-40-40h-85c-22 0-40 19-40 40 0 22 18 41 40 41h85z" horiz-adv-x="1000" />
</font>
</defs>
</svg>
