<?xml version="1.0" encoding="utf-8"?>
<!-- Generator: Adobe Illustrator 25.4.2, SVG Export Plug-In . SVG Version: 6.00 Build 0)  -->
<svg version="1.1" id="Capa_1" xmlns="http://www.w3.org/2000/svg" xmlns:xlink="http://www.w3.org/1999/xlink" x="0px" y="0px"
	 viewBox="1 168 696 192" style="enable-background:new 0 0 696 528;" xml:space="preserve">
<style type="text/css">
	.st0{fill:#768828;}
</style>
<g id="BONOLOTO_x5F_H_x5F_VERDE">
	<g>
		<path class="st0" d="M252.4,309.8c4.1-2.1,6.4-6.2,6.4-11.3c0-4.3-1.5-7.9-4.5-10.6c-3-2.8-6.7-4.3-11.1-4.3h-26.8v57.6h28.9
			c5.1,0,9.2-1.6,12.6-4.8c3.4-3.2,5.1-7.4,5.1-12.3C263,316.8,259.1,311.7,252.4,309.8z M239.8,306.3h-7.1v-9.2h7.1
			c2.5,0,4.4,1.9,4.4,4.5C244.1,304.4,242.4,306.3,239.8,306.3z M232.7,317.7h9.1c3.2,0,5.4,2,5.4,4.9c0,3-2.3,5.1-5.4,5.1h-9.2
			V317.7z"/>
		<path class="st0" d="M300.4,282.9c-8.9,0-16.2,2.9-22.4,8.7c-6.1,5.8-9.2,12.9-9.2,21.1c0,8.2,3.1,15.2,9.2,21.1
			c6.2,5.8,13.6,8.7,22.4,8.7c8.8,0,16.2-2.8,22.4-8.7h0c6.2-5.9,9.3-12.9,9.3-21.1c0-8.2-3.1-15.3-9.3-21.1
			C316.6,285.7,309.2,282.9,300.4,282.9z M311,323.3c-2.9,2.9-6.5,4.4-10.6,4.4c-4.3,0-7.8-1.4-10.7-4.4l0,0
			c-2.9-2.9-4.4-6.4-4.4-10.7c0-4.1,1.5-7.7,4.4-10.6c2.9-3,6.5-4.5,10.6-4.5c4.1,0,7.7,1.5,10.6,4.5c3,3,4.5,6.6,4.5,10.6
			C315.5,316.7,314,320.3,311,323.3z"/>
		<polygon class="st0" points="378,313.3 354.8,283.7 340.4,283.7 340.4,341.2 356,341.2 356,310.4 380.2,341.1 380.4,341.2 
			393.6,341.2 393.6,283.7 378,283.7 		"/>
		<path class="st0" d="M433.5,282.9c-8.9,0-16.2,2.9-22.4,8.7c-6.1,5.8-9.2,12.9-9.2,21.1c0,8.2,3.1,15.2,9.2,21.1
			c6.2,5.8,13.6,8.7,22.4,8.7c8.8,0,16.2-2.8,22.4-8.7h0c6.2-5.9,9.3-12.9,9.3-21.1c0-8.2-3.1-15.3-9.3-21.1
			C449.7,285.7,442.4,282.9,433.5,282.9z M444.1,323.3c-2.9,2.9-6.5,4.4-10.6,4.4c-4.3,0-7.8-1.4-10.7-4.4l0,0
			c-2.9-2.9-4.4-6.4-4.4-10.7c0-4.1,1.5-7.7,4.4-10.6c2.9-3,6.5-4.5,10.6-4.5c4.1,0,7.7,1.5,10.6,4.5c3,3,4.5,6.6,4.5,10.6
			C448.7,316.7,447.1,320.3,444.1,323.3z"/>
		<polygon class="st0" points="489.9,283.7 473.5,283.7 473.5,341.2 511.4,341.2 511.4,326.4 489.9,326.4 		"/>
		<path class="st0" d="M546.7,282.9c-8.9,0-16.2,2.9-22.4,8.7c-6.1,5.8-9.2,12.9-9.2,21.1c0,8.2,3.1,15.2,9.2,21.1
			c6.2,5.8,13.6,8.7,22.4,8.7c8.8,0,16.2-2.8,22.4-8.7h0c6.2-5.9,9.3-12.9,9.3-21.1c0-8.2-3.1-15.3-9.3-21.1
			C562.9,285.7,555.6,282.9,546.7,282.9z M557.3,323.3c-2.9,2.9-6.5,4.4-10.6,4.4c-4.3,0-7.8-1.4-10.7-4.4l0,0
			c-2.9-2.9-4.4-6.4-4.4-10.7c0-4.1,1.5-7.7,4.4-10.6c2.9-3,6.5-4.5,10.6-4.5c4.1,0,7.7,1.5,10.6,4.5c3,3,4.5,6.6,4.5,10.6
			C561.8,316.7,560.3,320.3,557.3,323.3z"/>
		<polygon class="st0" points="581.3,298.5 596.5,298.5 596.5,341.2 612.9,341.2 612.9,298.5 627.8,298.5 627.8,283.7 581.3,283.7 
					"/>
		<path class="st0" d="M684.7,291.6c-6.2-5.9-13.5-8.7-22.4-8.7c-8.9,0-16.2,2.9-22.4,8.7c-6.1,5.8-9.2,12.9-9.2,21.1
			c0,8.2,3.1,15.2,9.2,21.1c6.2,5.8,13.6,8.7,22.4,8.7c8.8,0,16.2-2.8,22.4-8.7h0c6.2-5.9,9.3-12.9,9.3-21.1
			C694.1,304.5,690.9,297.4,684.7,291.6z M672.9,323.3c-2.9,2.9-6.5,4.4-10.6,4.4c-4.3,0-7.8-1.4-10.7-4.4l0,0
			c-2.9-2.9-4.4-6.4-4.4-10.7c0-4.1,1.5-7.7,4.4-10.6c2.9-3,6.5-4.5,10.6-4.5c4.1,0,7.7,1.5,10.6,4.5c3,3,4.5,6.6,4.5,10.6
			C677.4,316.7,675.9,320.3,672.9,323.3z"/>
	</g>
	<g>
		<g>
			<g>
				<polygon class="st0" points="173.2,341.1 149.7,341.1 149.7,328.6 160.7,328.6 160.7,182.3 14.5,182.3 14.5,328.6 24.7,328.6 
					24.7,341.1 1.9,341.1 1.9,169.8 173.2,169.8 				"/>
			</g>
		</g>
		<g>
			<g>
				<path class="st0" d="M47.9,273.3c-9.5-9.5-11.6-22.8-2.1-32.3c9.5-9.5,23-7.6,32.5,2c11.3,11.3,0.2,30.3,5.2,35.2
					c0.2,0.2-0.3,0.6-0.5,0.5C78.1,273.7,59.7,285.1,47.9,273.3z"/>
				<path class="st0" d="M126.7,273.3c9.5-9.5,11.6-22.8,2.1-32.3s-23-7.6-32.5,2c-11.3,11.3-0.2,30.3-5.2,35.2
					c-0.2,0.2,0.3,0.6,0.5,0.5C96.5,273.7,115,285.1,126.7,273.3z"/>
				<path class="st0" d="M47.9,289.3c-9.5,9.5-11.6,22.8-2.1,32.3c9.5,9.5,23,7.6,32.5-2c11.3-11.3,0.2-30.3,5.2-35.2
					c0.2-0.2-0.3-0.6-0.5-0.5C78.1,289,59.7,277.6,47.9,289.3z"/>
				<path class="st0" d="M126.7,289.3c9.5,9.5,11.6,22.8,2.1,32.3s-23,7.6-32.5-2c-11.3-11.3-0.2-30.3-5.2-35.2
					c-0.2-0.2,0.3-0.6,0.5-0.5C96.5,289,115,277.6,126.7,289.3z"/>
			</g>
			<path class="st0" d="M79.4,358.2c-1.2,0-2.5-0.4-3.5-1.2c-2.5-2-2.9-5.6-1-8.1c6.1-7.8,7-17.4,6.8-24c-0.1-3.2,2.3-5.9,5.5-6
				c3.2,0,5.9,2.3,6,5.5c0.5,12.3-2.6,23.2-9.2,31.6C82.8,357.4,81.1,358.2,79.4,358.2z"/>
		</g>
	</g>
</g>
</svg>
