<svg xmlns="http://www.w3.org/2000/svg" xml:space="preserve" id="Capa_1" x="0" y="0" style="enable-background:new 0 0 696 528" version="1.1" viewBox="0 0 696 528"><style>.st0{display:none}.st1{display:inline}.st4{fill:#768828}</style><path d="M578 476.3h-62.8v-33.5h29.3V51.9H153.7v390.9h27.4v33.5h-60.9V18.5H578z" class="st4"/><path d="M243.2 295.2c-25.4-25.4-31-61-5.6-86.5s61.4-20.2 86.8 5.2c30.2 30.2.6 81 13.8 94.2.4.4-.8 1.7-1.2 1.2-13.2-13.1-62.5 17.2-93.8-14.1zM453.6 295.2c25.4-25.4 31-61 5.6-86.5s-61.4-20.2-86.8 5.2c-30.2 30.2-.6 81-13.8 94.2-.4.4.8 1.7 1.2 1.2 13.2-13.1 62.5 17.2 93.8-14.1zM243.2 338c-25.4 25.4-31 61-5.6 86.5s61.4 20.2 86.8-5.2c30.2-30.2.6-81 13.8-94.2.4-.4-.8-1.7-1.2-1.2-13.2 13.1-62.5-17.3-93.8 14.1zM453.6 338c25.4 25.4 31 61 5.6 86.5s-61.4 20.2-86.8-5.2c-30.2-30.2-.6-81-13.8-94.2-.4-.4.8-1.7 1.2-1.2 13.2 13.1 62.5-17.2 93.8 14.1zM327.1 522c-3.3 0-6.7-1.1-9.5-3.3-6.7-5.2-7.9-14.9-2.6-21.6 16.3-20.9 18.8-46.4 18.1-64.1-.4-8.5 6.2-15.7 14.7-16 8.5-.1 15.7 6.2 16 14.7 1.4 32.8-7 62-24.5 84.4-3.1 3.9-7.6 5.9-12.2 5.9z" class="st4"/></svg>