<svg xmlns="http://www.w3.org/2000/svg" width="696" height="528" viewBox="0 0 696 528" version="1.1"><path d="M 117.419 179.897 C 111.484 182.593, 106.240 188.453, 104.490 194.345 C 102.645 200.559, 102.622 203.426, 104.372 209.239 C 106.284 215.595, 110.098 220.189, 116.246 223.546 C 121.488 226.408, 121.556 226.416, 145.500 227.111 C 158.700 227.494, 169.899 227.429, 170.387 226.967 C 171.589 225.827, 147.547 186.640, 143.608 183.318 C 141.898 181.876, 139.052 180.090, 137.282 179.348 C 132.610 177.391, 122.312 177.675, 117.419 179.897 M 406.797 371.123 C 405.547 371.898, 405.605 372.005, 418.694 393.367 C 424.468 402.790, 430.387 411.796, 431.846 413.380 C 438.545 420.649, 450.566 422.404, 460.472 417.557 C 475.777 410.069, 478.465 390.405, 465.838 378.301 C 459.614 372.335, 456.880 371.768, 431.150 371.103 C 418.307 370.771, 407.348 370.780, 406.797 371.123" stroke="none" fill="#f08159" fill-rule="evenodd"/><path d="M 223.500 216.644 C 214.484 218.836, 208.427 223.295, 204.772 230.432 C 200.327 239.110, 202.775 251.853, 210.169 258.534 C 217.091 264.788, 218.249 265, 245.409 265 C 260.737 265, 270.114 264.624, 270.503 263.994 C 271.222 262.831, 249.358 229.139, 244.654 224.162 C 242.919 222.327, 239.914 220.007, 237.977 219.008 C 234.203 217.062, 226.773 215.849, 223.500 216.644 M 349.366 252.505 C 346.601 253.883, 343.397 256.020, 342.245 257.255 C 339.808 259.868, 318 298.203, 318 299.874 C 318 301.330, 326.354 301.259, 349.642 299.605 C 366.242 298.426, 368.171 298.090, 372.327 295.654 C 385.368 288.012, 388.381 268.486, 378.197 257.624 C 371.142 250.099, 358.646 247.880, 349.366 252.505 M 249.960 347.129 C 239.814 367.623, 239.501 368.457, 239.537 374.879 C 239.600 386.211, 246.528 395.353, 257.459 398.531 C 269.620 402.067, 282.753 395.171, 286.847 383.101 C 288.298 378.822, 288.211 370.446, 286.674 366.442 C 284.134 359.824, 263.469 326, 261.966 326 C 260.950 326, 256.833 333.246, 249.960 347.129 M 319.029 327.754 C 307.769 327.913, 298.181 328.419, 297.722 328.878 C 296.733 329.867, 320.440 366.284, 324.619 370.197 C 328.812 374.122, 334.113 376, 341 376 C 348.161 376, 353.252 374.095, 357.838 369.699 C 368.171 359.794, 367.922 343.446, 357.291 333.871 C 350.522 327.774, 347.858 327.348, 319.029 327.754" stroke="none" fill="#ee7a9d" fill-rule="evenodd"/><path d="M 572.870 187.415 C 568.949 188.924, 532 215.777, 532 217.117 C 532 218.388, 534.347 219.404, 555.878 227.455 C 579.474 236.277, 583.353 236.786, 592.118 232.207 C 614.316 220.611, 607.596 187.883, 582.710 186.391 C 578.916 186.163, 575.088 186.562, 572.870 187.415 M 135.483 359.953 C 115.353 360.541, 113.062 360.792, 108.756 362.876 C 103.324 365.506, 99.511 369.638, 96.720 375.920 C 93.923 382.215, 94.693 392.427, 98.386 398.007 C 108.543 413.356, 130.103 413.236, 140.227 397.774 C 149.634 383.407, 161.398 363.306, 161.446 361.515 C 161.512 359.061, 162.987 359.150, 135.483 359.953" stroke="none" fill="#52b374" fill-rule="evenodd"/><path d="M 324.718 159.054 C 319.402 160.358, 316.003 162.305, 312.301 166.165 C 306.101 172.628, 305.683 174.898, 305.915 200.830 C 306.030 213.661, 306.383 224.835, 306.700 225.660 C 307.017 226.486, 308.001 226.963, 308.888 226.720 C 311.157 226.100, 342.790 204.343, 346.872 200.596 C 351.710 196.154, 353.952 190.672, 353.978 183.218 C 354.004 175.901, 352.519 171.800, 347.970 166.618 C 342.165 160.008, 332.994 157.024, 324.718 159.054 M 276.663 433.250 C 273.967 437.638, 259.936 463.940, 257.496 469.180 C 249.755 485.809, 261.132 504.041, 279.210 503.978 C 287.262 503.950, 292.395 501.630, 297.672 495.635 C 303.450 489.072, 305.413 480.427, 302.837 472.899 C 300.628 466.446, 280.833 431, 279.437 431 C 278.672 431, 277.424 432.012, 276.663 433.250" stroke="none" fill="#6e368c" fill-rule="evenodd"/><path d="M 403.105 19.635 C 397.565 22.396, 392.900 27.705, 391.073 33.329 C 390.138 36.207, 386 73.977, 386 79.632 C 386 81.134, 386.584 82, 387.597 82 C 389.791 82, 427.380 62.393, 430.957 59.383 C 437.470 53.903, 440.225 41.858, 437.080 32.619 C 435.347 27.531, 429.508 21.147, 424.500 18.866 C 418.387 16.082, 409.601 16.398, 403.105 19.635 M 224.500 292.631 C 200.178 294.209, 195.996 295.105, 190.723 299.869 C 183.486 306.407, 180.470 316.586, 182.980 326 C 184.516 331.763, 192.682 339.999, 198.616 341.771 C 207.701 344.484, 218.179 341.859, 224.149 335.376 C 225.606 333.794, 231.766 323.738, 237.837 313.028 C 246.054 298.537, 248.606 293.230, 247.816 292.278 C 247.233 291.575, 246.473 291.060, 246.128 291.134 C 245.782 291.208, 236.050 291.881, 224.500 292.631" stroke="none" fill="#5bc5f2" fill-rule="evenodd"/><path d="M 232.803 86.351 C 214.739 91.400, 205.882 111.854, 214.676 128.214 C 216.930 132.408, 221.735 137.139, 238.500 151.674 C 250.050 161.687, 260.036 169.906, 260.691 169.940 C 261.346 169.973, 262.100 169.648, 262.366 169.217 C 262.632 168.786, 264.479 156.129, 266.470 141.090 C 270.534 110.385, 270.412 106.984, 264.941 98.724 C 258.240 88.608, 244.145 83.181, 232.803 86.351 M 455.332 144.790 C 452.490 145.806, 448.550 147.869, 446.575 149.375 C 444.601 150.881, 435.746 162.266, 426.897 174.675 C 413.642 193.264, 411.046 197.457, 412.154 198.486 C 413.097 199.361, 421.662 200.060, 440.735 200.818 C 463.808 201.736, 468.711 201.681, 472.821 200.461 C 490.253 195.284, 498.753 175.287, 490.470 158.941 C 484.223 146.612, 468.243 140.177, 455.332 144.790 M 124.372 267.212 C 118.375 269.144, 111.715 275.204, 108.265 281.868 C 101.936 294.093, 104.457 307.951, 114.639 316.914 C 124.230 325.356, 139.295 326.508, 149.611 319.587 C 156.312 315.092, 191 283.652, 191 282.073 C 191 280.733, 185.757 278.956, 164.750 273.173 C 137.829 265.762, 131.687 264.855, 124.372 267.212 M 479.500 275.086 C 473.720 276.830, 429.530 301.479, 429.211 303.136 C 428.807 305.244, 473.849 329.760, 481.885 331.807 C 489.207 333.672, 496.630 332.193, 503.783 327.444 C 515.076 319.946, 519.703 306.306, 515.324 293.428 C 512.892 286.275, 504.069 277.692, 496.987 275.589 C 491.166 273.860, 484.224 273.660, 479.500 275.086 M 203.219 388.573 C 192.630 398.819, 182.771 409.242, 181.310 411.734 C 177.316 418.549, 176.839 429.784, 180.229 437.189 C 185.595 448.911, 194.412 455, 206.018 455 C 214.483 455, 220.768 452.837, 226.204 448.052 C 232.164 442.805, 235.354 436.097, 235.740 428 C 236.159 419.200, 226.285 370.670, 223.986 370.232 C 223.136 370.071, 214.019 378.123, 203.219 388.573 M 317.040 384.976 C 315.640 385.841, 327.770 434.635, 331.150 441.739 C 333.820 447.348, 340.953 453.491, 347.209 455.569 C 353.836 457.770, 364.900 457.136, 370.568 454.231 C 375.106 451.904, 380.999 445.836, 383.594 440.818 C 385.815 436.524, 386.604 425.219, 385.064 419.763 C 383.350 413.687, 379.173 407.996, 373.748 404.346 C 368.280 400.666, 318.928 383.809, 317.040 384.976" stroke="none" fill="#e50056" fill-rule="evenodd"/></svg>