<svg xmlns="http://www.w3.org/2000/svg" xml:space="preserve" id="Capa_1" x="0" y="0" style="enable-background:new 0 0 1152 1245" version="1.1" viewBox="0 0 1152 1245"><style>.st0{fill:#043f65}</style><path d="M576.07 423.383c-173.176 0-313.614 140.437-313.614 313.614s140.438 313.614 313.614 313.614 313.615-140.437 313.615-313.614S749.247 423.383 576.07 423.383zm55.639 66.73c83.547 0 151.172 67.625 151.172 151.172s-67.625 151.172-151.172 151.172-151.172-67.625-151.172-151.172 67.625-151.172 151.172-151.172zm-53.492 490.906c-135.965 0-250.462-119.864-250.462-251.178 0-81.937 48.84-155.108 118.612-198.402-8.05 11.271-16.28 24.152-19.143 29.519-11.27 21.29-21.289 52.955-21.289 99.29 0 102.69 88.02 214.324 202.874 214.324 89.988 0 185.7-69.771 215.04-152.424.358 7.156.537 14.312.537 21.826 0 132.03-110.204 237.045-246.169 237.045z" class="st0"/><path d="M1080.751 1076.552H942.997v-72.634h65.12V140.003H146.886v863.736h60.11v72.634H71.748V67.369h1009.004v1009.183z" class="st0"/></svg>