<svg xmlns="http://www.w3.org/2000/svg" xml:space="preserve" id="Capa_1" x="0" y="0" style="enable-background:new 0 0 696 528" version="1.1" viewBox="0 0 696 528"><style>.st0{display:none}.st1{display:inline}.st7{fill:#768828}.st8{fill:#008547}.st9{fill:#dc3f47}</style><path d="M582 492.2h-65.1v-34.8h30.4V51.8H141.6v405.6h28.5v34.8h-63.2V17.1H582z" class="st9"/><path d="M490.8 353.4c1-7 1.7-14 1.7-21.3 0-7-.7-13.8-1.6-20.5-44.4-3.4-92.7-6.6-144.6-6.6-59.1 0-112.7 3.7-148.2 6.6-.9 6.7-1.6 13.6-1.6 20.5 0 7.2.7 14.3 1.7 21.3 32.1 2.7 83.5 5.8 148.1 5.8 47 0 97-2 144.5-5.8zM459.8 424.7c11.3-14.1 20.2-30.3 25.7-47.9-46 3.5-93.9 5.4-139.3 5.4-60.8 0-110.1-2.8-142.9-5.3 5.6 17.7 14.5 33.9 25.8 48 31.6 6.2 72 11.6 117.1 11.6 36.4 0 73.8-3.9 113.6-11.8zM228.6 240.3c-11.2 14.1-20 30.3-25.5 47.9 35.8-2.8 87-6.1 143.2-6.1 50.1 0 96.5 2.9 139.6 6.2-5.5-17.6-14.2-33.8-25.4-47.9-32-6.5-71.9-12.5-114.2-12.5-37.4-.1-76.9 4.1-117.7 12.4zM346.3 204.8c29.8 0 58.3 2.9 83.9 6.8-24.2-17.2-53.7-27.5-85.7-27.5s-61.6 10.3-85.8 27.5c30.1-4.4 59.4-6.8 87.6-6.8zM346.3 459.4c-31.5 0-60.9-2.6-86.7-6.2 24 16.9 53.3 26.9 84.9 26.9 31.6 0 60.9-10 85-26.9-28.6 4.1-56.2 6.2-83.2 6.2z" class="st9"/></svg>