<?xml version="1.0" encoding="utf-8"?>
<!-- Generator: Adobe Illustrator 25.4.2, SVG Export Plug-In . SVG Version: 6.00 Build 0)  -->
<svg version="1.1" id="Capa_1" xmlns="http://www.w3.org/2000/svg" xmlns:xlink="http://www.w3.org/1999/xlink" x="0px" y="0px"
	 viewBox="0 0 696 528" style="enable-background:new 0 0 696 528;" xml:space="preserve">
<style type="text/css">
	.st0{display:none;}
	.st1{display:inline;fill:#A21B41;}
	.st2{display:inline;}
	.st3{fill:#E70033;}
	.st4{fill:#4479BB;}
	.st5{fill:#4B844C;}
	.st6{enable-background:new    ;}
	.st7{fill:#116EA9;}
	.st8{clip-path:url(#SVGID_00000157267084845945516050000009421910656577225131_);}
	.st9{clip-path:url(#SVGID_00000034061735517383839170000009474133539325505192_);}
	.st10{clip-path:url(#SVGID_00000009584472513695192710000009797755425686988720_);}
	.st11{clip-path:url(#SVGID_00000011718310288446990120000016229093855527621251_);}
	.st12{fill:url(#SVGID_00000067223133449545699290000014870684470614561421_);}
	.st13{fill:url(#SVGID_00000008139953090687732950000003039517801916805780_);}
	.st14{fill:url(#SVGID_00000139263906654841071680000014635199175147381393_);}
	.st15{fill:url(#SVGID_00000142172653941631319360000017326370705787114908_);}
	.st16{fill:url(#SVGID_00000032622149126005710140000004750317099365944493_);}
	.st17{fill:url(#SVGID_00000023997088767070989540000011682251005087263112_);}
	.st18{fill:#000B8C;}
	.st19{fill-rule:evenodd;clip-rule:evenodd;fill:#000B8C;}
	.st20{fill:#75BACD;}
	.st21{fill:#EAB843;}
	.st22{fill-rule:evenodd;clip-rule:evenodd;fill:#EAB843;}
	.st23{display:inline;fill:#DC3F47;}
	.st24{fill:#66ADD5;}
	.st25{fill:#268AC3;}
	.st26{fill:#0076B9;}
	.st27{fill:#7A8634;}
	.st28{fill:#CB1517;}
</style>
<g id="Capa_1_00000147920521331372319940000010303766725889029295_" class="st0">
	<path class="st1" d="M325.1,243.3l-4.4-20.5l-2.8,20.5l-12.3-9l-5.4,4.1l4.5-0.9L312,251h3.2h1.7h0.1v0.1l0.1-0.1h14.6l6.6-13.4
		l4.5,1l-5.6-4.1L325.1,243.3z M321,229.2l3.2,14.9l-5.9,4.3L321,229.2z M316.5,249.8h-4l-7.3-13.6l-0.4,0.1l0.8-0.6l12.1,8.9
		l-0.7,4.8L316.5,249.8z M337.5,236.2l-6.7,13.6h-12.4l18.7-14.1l0.8,0.6L337.5,236.2z"/>
	<path class="st1" d="M320.8,222.2c0.8,0,1.5-0.7,1.5-1.5s-0.7-1.5-1.6-1.5c-0.8,0-1.5,0.7-1.5,1.5
		C319.2,221.5,320,222.2,320.8,222.2"/>
	<path class="st1" d="M344.9,238.2c-0.8,0-1.5,0.7-1.5,1.5s0.7,1.5,1.6,1.5c0.8,0,1.5-0.7,1.5-1.5S345.8,238.2,344.9,238.2"/>
	<path class="st1" d="M297.5,237.5c-0.8,0-1.5,0.7-1.5,1.5s0.7,1.5,1.6,1.5c0.8,0,1.5-0.7,1.5-1.5
		C299,238.2,298.4,237.5,297.5,237.5"/>
	<path class="st1" d="M304.1,259.9l-6-0.3l0,0l-3.4-0.1l-0.1,6l3.4,0.1l-0.2,12.2c0,2.1-0.5,3.9-3.4,3.8c-0.8,0-1.8-0.2-2.3-0.3
		l-0.1,5.4c1,0.2,2.1,0.4,3.1,0.4c7.9,0.3,8.6-4.5,8.7-9.4l0.2-11.9l0,0L304.1,259.9L304.1,259.9L304.1,259.9z"/>
	<path class="st1" d="M321.8,259.3c-8,0-14.4,6.2-14.2,14c0.2,7.9,6.9,14.1,14.9,14.1c8.1,0,14.4-6.1,14.2-14
		S329.9,259.3,321.8,259.3 M322.4,282c-4.8,0-8.6-3.8-8.7-8.6c-0.1-4.8,3.5-8.6,8.3-8.6s8.6,3.9,8.7,8.6
		C330.8,278.2,327,282,322.4,282"/>
	<polygon class="st1" points="363.2,259.8 356,259.8 346.5,272 346.2,259.8 340.2,259.8 341,286.9 347,287 346.6,274.6 357,287 
		364.4,287 352.6,273.1 	"/>
	<polygon class="st1" points="373,275.8 384.6,275.8 384.5,270.4 372.8,270.4 372.6,265.3 385.1,265.3 385,259.9 366.5,259.8 
		367.1,287 386,287.1 385.9,281.6 373,281.6 	"/>
	<path class="st1" d="M413,287.1l-7.2-10.5c2.9-1.2,5-4.2,4.9-7.7c-0.1-5.1-4.4-9-9.5-9h-11.4v0.1l0.1,4.6l5.9,8.2H390l0.4,14.3h6
		l-0.2-9l3.5,0.2l6.5,9L413,287.1z M404.6,269c0,1.6-0.7,2.8-2,3.4l-4.8-7h3.3C403,265.4,404.5,266.9,404.6,269"/>
</g>
<g id="Capa_3" class="st0">
	<g class="st2">
		<path class="st3" d="M401.4,271.5c-0.5,0-1,0-1.3,0v-1.3c2.3,0,7.6,0,9.4-0.5c4.7-1.2,7.6-4.5,7.6-8.6v-14.6
			c0-5.4-6.2-9.8-13.9-9.8H293c-7.7,0-13.9,4.4-13.9,9.8v14.6c0,3.4,1.7,6.2,4.8,7.9c2.6,1.4,4.7,1,4.7,1l0.3,1.2
			c-0.1,0-2.6,0.5-5.6-1.1c-3.6-2-5.5-5.1-5.5-9v-14.6c0.1-6.1,6.9-11.1,15.2-11.1h110c8.4,0,15.1,5,15.1,11.1v14.6
			c0,4.7-3.3,8.5-8.5,9.8C408,271.4,404,271.5,401.4,271.5z"/>
	</g>
	<g class="st2">
		<g>
			<g>
				<path class="st3" d="M352.5,242.9l-1.6,6.7c0,0.2-0.1,0.3-0.1,0.5c0,0.5,0.2,0.9,0.7,0.9c0.9,0,1.5-0.7,1.8-1.7l1.5-6.3h3.2
					l-2.4,9.8h-3.2l0.2-1c-1,0.9-2,1.1-2.7,1.1c-1.4,0-2.4-0.7-2.4-2.3c0-0.4,0.1-0.8,0.2-1.3l1.5-6.3L352.5,242.9L352.5,242.9z
					 M368,244.3c0,3.1-1.8,8.5-6.4,8.5c-1.7,0-2.8-0.8-2.8-2.3c0-0.3,0-0.6,0.1-1l1.3-5.6l-0.6-0.3l0.2-0.8h4l-1.7,6.7
					c-0.1,0.3-0.1,0.5-0.1,0.7c0,0.4,0.2,0.6,0.9,0.6c2,0,3.7-3.9,3.7-6.1v-0.3c-0.1,0-0.3,0.1-0.5,0.1c-0.7,0-1-0.5-1-1.1
					c0-0.4,0.5-1,1.3-1C367.5,242.5,368,243.3,368,244.3z"/>
				<path class="st3" d="M373.4,242.9l-1.6,6.7c-0.1,0.3-0.1,0.5-0.1,0.6c0,0.5,0.3,0.7,0.9,0.7c0.9,0,1.7-0.7,2-1.7h1
					c-1.3,3.2-3.5,3.6-4.8,3.6c-1.4,0-2.4-0.7-2.4-2.3c0-0.4,0.1-0.8,0.2-1.3l1.5-6.3H373.4z M372.2,238.7c1,0,1.8,0.7,1.8,1.6
					c0,0.9-0.8,1.5-1.8,1.5s-1.8-0.7-1.8-1.5C370.5,239.5,371.4,238.7,372.2,238.7z"/>
				<path class="st3" d="M385.5,242.9l-1.6,6.7c-0.1,0.3-0.1,0.5-0.1,0.6c0,0.5,0.3,0.7,0.9,0.7c0.2,0,0.3,0,0.5-0.1
					c-0.6,1.4-1,2-2.3,2c-1.2,0-2-0.7-2.2-1.8c-0.7,0.9-1.8,1.8-3.4,1.8c-1.5,0-3-0.8-3-3.2c0-2.6,1.9-6.9,5.8-6.9
					c1.3,0,1.8,0.4,1.8,1v0.1l0.2-1L385.5,242.9C385.5,242.8,385.5,242.9,385.5,242.9z M377.6,249.4c0,1.5,0.7,1.5,1.1,1.5
					c0.7,0,1.6-0.6,1.9-1.7l1.1-4.4c0-0.2-0.2-0.7-0.9-0.7C378.9,244,377.6,247.6,377.6,249.4z"/>
				<path class="st3" d="M401.9,239l-2.6,10.6c-0.1,0.3-0.1,0.5-0.1,0.6c0,0.5,0.3,0.7,0.9,0.7c0.9,0,1.5-0.7,1.8-1.7h1
					c-1.3,3.2-3.3,3.5-4.6,3.5c-1.2,0-2-0.6-2.2-1.7c-0.7,0.9-1.7,1.8-3.4,1.8c-1.5,0-3-0.8-3-3.2c0-2.6,1.9-6.9,5.8-6.9
					c1.3,0,1.8,0.4,1.8,1v0.1l1.1-4.5L401.9,239z M396.1,249.2l1.1-4.5c0-0.2-0.3-0.7-0.9-0.7c-1.9,0-3.2,3.5-3.2,5.4
					c0,1.5,0.7,1.5,1.1,1.5C394.9,250.9,395.9,250.4,396.1,249.2L396.1,249.2z"/>
				<path class="st3" d="M406.4,251c0.9,0,1.9-0.5,2.7-1c-0.5,2.2-2.1,2.9-3.9,2.9c-2.1,0-3.5-0.9-3.5-3.1c0-2.3,1.5-7,6.1-7
					c2,0,2.5,0.9,2.5,1.9c0,2.3-2.5,4-5.2,4.1c0,0.2,0,0.4,0,0.6C405,250.6,405.6,251,406.4,251z M408,243.8c-1.1,0-2.3,2.2-2.7,4
					c1.8-0.1,3.3-1.6,3.3-3.2C408.5,244.1,408.4,243.8,408,243.8z"/>
			</g>
			<g>
				<path class="st3" d="M307.5,259.9c-1.3,0-2.3,1.2-2.8,2.6l-2.5,8.9H297l2.7-9.6c0.1-0.2,0.1-0.4,0.1-0.7c0-0.6-0.3-1.2-1.1-1.2
					c-1.4,0-2.4,1.2-2.9,2.6l-2.6,8.9H288l3.9-13.9h5.2l-0.4,1.4c1.5-1.3,3.2-1.6,4.4-1.6c1.9,0,3.3,0.7,3.7,2.4
					c1.7-2.1,3.7-2.4,5.1-2.4c2.3,0,4,0.9,4,3.1s-1.7,5.6-1.7,7.2c0,0.7,0.4,1.2,1.5,1.2c1.6,0,2.3-1,3.1-2.4h1.5
					c-2,4.6-4.8,5.1-6.8,5.1c-3.2,0-4.3-1.6-4.3-3.1c0-1.9,1.6-5.3,1.6-7.1C308.9,260.4,308.4,259.9,307.5,259.9z"/>
				<path class="st3" d="M324.8,257.5l-2.6,9.4c-0.1,0.4-0.1,0.6-0.1,0.9c0,0.8,0.5,1,1.5,1c0.7,0,0.9-0.1,1.2-0.2
					c-0.2,2-2,2.9-4,2.9c-2.2,0-3.9-1-3.9-3.3c0-0.5,0.1-1.1,0.3-1.8l2.5-8.9C319.6,257.5,324.8,257.5,324.8,257.5z M323.1,251.6
					c1.6,0,2.9,1,2.9,2.2s-1.3,2.2-2.9,2.2s-2.9-1-2.9-2.2S321.5,251.6,323.1,251.6z"/>
				<path class="st3" d="M333.8,253.1l-3.9,14c-0.1,0.3-0.1,0.6-0.1,0.8c0,0.7,0.4,1,1.4,1c1.3,0,2.6-1,3.1-2.3h1.4
					c-1.9,4.2-5.3,4.8-7.2,4.8c-2,0-3.6-0.9-3.6-3.1c0-0.5,0.1-1.1,0.3-1.7l3.6-13L333.8,253.1z"/>
				<path class="st3" d="M338.9,267.1c-0.1,0.3-0.1,0.5-0.1,0.8c0,0.6,0.3,1,1.4,1c0.6,0,0.9-0.1,1.1-0.2c-0.2,1.8-1.9,2.7-3.8,2.7
					c-2,0-3.6-1-3.6-3.2c0-0.5,0.1-1.1,0.3-1.7l3.6-13l5-0.5L338.9,267.1z"/>
				<path class="st3" d="M355.4,261.7c0.1,0.1,0.3,0.1,0.4,0.1c1.7,0,4-0.8,5.6-1.7l0.3,0.8c-1.4,1.1-3.8,2-6.4,2.3
					c-0.6,5.1-4.2,8.4-8.7,8.4c-3.4,0-5.8-1.2-5.8-4.4c0-3.2,2.5-9.9,10-9.9C353.8,257.2,355.4,258.8,355.4,261.7z M352.1,263.2
					c-0.8-0.1-1-0.6-1-1.2c0-0.8,0.5-1.3,1.1-1.5c-0.1-1.2-0.4-1.6-1.4-1.6c-2.6,0-4.8,5.1-4.8,7.8c0,1.8,0.5,2.2,1.9,2.2
					C349.8,269,351.5,266.5,352.1,263.2z"/>
				<path class="st3" d="M368.1,259.9c-1.3,0-2.3,1.2-2.8,2.6l-2.5,8.9h-5.2l3.9-13.9h5.2l-0.4,1.4c1.5-1.3,3.1-1.6,4.3-1.6
					c2.3,0,4,0.9,4,3.1s-1.7,5.6-1.7,7.2c0,0.7,0.4,1.2,1.5,1.2c1.6,0,2.3-1,3.1-2.4h1.5c-2,4.6-4.8,5.1-6.8,5.1
					c-3.2,0-4.3-1.6-4.3-3.1c0-1.9,1.6-5.3,1.6-7.1C369.5,260.4,369,259.9,368.1,259.9z"/>
				<path class="st3" d="M386.8,269.2c2.9,0,4.6-1.2,6.4-2.8h1.2c-2.1,2.6-5.2,5.1-10,5.1c-3.4,0-5.7-1.3-5.7-4.4
					c0-3.2,2.4-9.9,9.8-9.9c3.2,0,4,1.3,4,2.7c0,3.2-4,5.7-8.4,5.9c0,0.4-0.1,0.8-0.1,1.1C384,268.7,385,269.2,386.8,269.2z
					 M388.9,258.7c-1.9,0-3.6,3-4.4,5.7c2.8-0.1,5.3-2.3,5.3-4.6C389.8,259.1,389.5,258.7,388.9,258.7z"/>
				<path class="st3" d="M405.5,256.6c0.4,7.2,0.8,8.3,0.8,10.1c0,3.6-4.3,4.8-7.3,4.8c-3.7,0-5.3-1.9-5.3-3.6
					c0-1.3,0.9-2.2,1.9-2.6c2-2.7,3.3-5.5,4.5-8.2L405.5,256.6z M396.8,267.7c-0.4,0-0.8-0.1-1-0.4c0,1.3,0.6,1.9,2.2,1.9
					s3.2-0.6,3.2-2.6c0-1.4-0.3-2.3-0.7-6.6c-0.7,1.8-1.7,3.5-2.9,5.2c0.5,0.2,0.8,0.5,0.8,1C398.4,267,397.6,267.7,396.8,267.7z"/>
			</g>
			<polyline class="st3" points="342.8,253.4 346.6,238.9 341.8,238.9 337.6,253.8 			"/>
			<polyline class="st3" points="333.6,253.5 337.5,239 332.8,239 328.6,253.9 			"/>
		</g>
	</g>
</g>
<g id="Capa_4" class="st0">
	<g id="AZUL" class="st2">
		<g>
			<path class="st4" d="M282.8,286.2v-8.7h2.5v6.6h3.4v2.1H282.8z"/>
			<path class="st4" d="M297.9,285.1c-1,0.9-2.1,1.3-3.5,1.3s-2.6-0.4-3.5-1.3c-1-0.9-1.5-1.9-1.5-3.2c0-1.3,0.5-2.3,1.5-3.2
				c1-0.9,2.1-1.3,3.5-1.3s2.6,0.4,3.5,1.3c1,0.9,1.5,1.9,1.5,3.2S298.9,284.2,297.9,285.1z M292.6,283.6c0.5,0.5,1.1,0.7,1.7,0.7
				c0.7,0,1.3-0.2,1.7-0.7c0.5-0.5,0.7-1,0.7-1.7s-0.2-1.2-0.7-1.7s-1.1-0.7-1.7-0.7c-0.7,0-1.3,0.2-1.7,0.7c-0.5,0.5-0.7,1-0.7,1.7
				S292.1,283.1,292.6,283.6z"/>
			<path class="st4" d="M302.4,286.2v-6.6H300v-2.1h7.3v2.1h-2.4v6.6H302.4z"/>
			<path class="st4" d="M308.4,286.2v-8.7h6.7v2.1h-4.2v1.2h3.9v1.9h-3.9v1.3h4.3v2.1L308.4,286.2L308.4,286.2z"/>
			<path class="st4" d="M316.6,286.2v-8.7h4.1c0.9,0,1.7,0.3,2.3,0.9c0.6,0.6,0.9,1.3,0.9,2.1c0,1.1-0.6,2.1-1.5,2.5l2.3,3.2H322
				l-1.8-2.7l0,0h-0.9v2.7H316.6z M319.1,281.6h1.4c0.7,0,1.1-0.4,1.1-1c0-0.5-0.4-0.9-0.9-0.9h-1.6V281.6z"/>
			<path class="st4" d="M325.9,286.2v-8.7h2.5v8.7H325.9z M325.9,276.9l0.6-1.8h2.5l-1.3,1.8H325.9z"/>
			<path class="st4" d="M329.5,286.2l3.7-8.7h2.3l3.7,8.7h-2.6l-0.5-1.1h-3.5l-0.5,1.1H329.5z M333.2,283.3h2.1l-1-2.7L333.2,283.3z
				"/>
			<path class="st4" d="M344.8,286.2v-8.7h2.2l3.8,4.7v-4.7h2.4v8.7h-2l-4-4.9v4.9H344.8z"/>
			<path class="st4" d="M354.1,286.2l3.7-8.7h2.3l3.7,8.7h-2.6l-0.5-1.1h-3.5l-0.5,1.1H354.1z M358,283.3h2.2l-1.1-2.7L358,283.3z"
				/>
			<path class="st4" d="M372.6,279.1l-1.7,1.3c-0.6-0.6-1.3-0.9-2.1-0.9c-0.7,0-1.3,0.2-1.7,0.7c-0.5,0.4-0.7,1-0.7,1.7
				s0.2,1.2,0.7,1.7c0.5,0.4,1.1,0.7,1.7,0.7c0.8,0,1.5-0.3,2.1-0.9l1.7,1.3c-0.9,1-2.3,1.7-3.7,1.7c-1.4,0-2.5-0.4-3.5-1.3
				c-0.9-0.8-1.4-1.9-1.4-3.2c0-1.3,0.5-2.3,1.4-3.2c1-0.9,2.1-1.3,3.5-1.3C370.4,277.4,371.8,278.1,372.6,279.1z"/>
			<path class="st4" d="M374,286.2v-8.7h2.5v8.7H374z"/>
			<path class="st4" d="M386.5,285.1c-1,0.9-2.1,1.3-3.5,1.3s-2.6-0.4-3.5-1.3c-1-0.9-1.5-1.9-1.5-3.2c0-1.3,0.5-2.3,1.5-3.2
				c1-0.9,2.1-1.3,3.5-1.3s2.6,0.4,3.5,1.3c1,0.9,1.5,1.9,1.5,3.2C387.9,283.2,387.4,284.2,386.5,285.1z M381.1,283.6
				c0.5,0.5,1.1,0.7,1.7,0.7c0.7,0,1.3-0.2,1.7-0.7c0.5-0.5,0.7-1,0.7-1.7s-0.2-1.2-0.7-1.7s-1.1-0.7-1.7-0.7s-1.3,0.2-1.7,0.7
				c-0.5,0.5-0.7,1-0.7,1.7C380.5,282.6,380.6,283.1,381.1,283.6z"/>
			<path class="st4" d="M389.4,286.2v-8.7h2.2l3.8,4.7v-4.7h2.4v8.7h-2l-4-4.9v4.9H389.4z"/>
			<path class="st4" d="M398.8,286.2l3.7-8.7h2.3l3.7,8.7h-2.6l-0.5-1.1h-3.5l-0.5,1.1H398.8z M402.5,283.3h2.2l-1.1-2.7
				L402.5,283.3z"/>
			<path class="st4" d="M409.5,286.2v-8.7h2.5v6.6h3.4v2.1H409.5z"/>
		</g>
		<g>
			<g>
				<polygon class="st4" points="362,267 358.4,267 358.4,265.1 360,265.1 360,243.4 337.5,243.4 337.5,265.1 339,265.1 339,267 
					335.5,267 335.5,241.5 362,241.5 				"/>
			</g>
			<g>
				<g>
					<path class="st4" d="M347,263.8c-0.3-1.5-0.5-3.3-0.5-5.4c0-2.4,0.3-4.8,0.7-6.5h-0.4c-1.5,1.5-2.5,4-2.5,6.5
						c0,2.1,0.6,3.9,1.6,5.4H347z"/>
					<path class="st4" d="M343.9,263.8h0.7c-0.9-1.6-1.4-3.4-1.4-5.4c0-2.4,0.8-4.7,2.1-6.4l0,0c-1.1,0.7-2.1,1.5-2.8,2.5
						c-0.7,1.1-1.2,2.4-1.2,3.8c0,1.7,0.6,3.2,1.6,4.5C343.1,263.2,343.5,263.5,343.9,263.8z"/>
					<path class="st4" d="M350.5,263.8h1c1.1-1.5,1.6-3.3,1.6-5.4c0-2.5-1-5-2.5-6.5h-0.4c0.5,1.6,0.7,4,0.7,6.5
						C351,260.5,350.8,262.3,350.5,263.8z"/>
					<path class="st4" d="M349.2,263.8c0.3-1.5,0.5-3.3,0.5-5.4c0-2.5-0.3-4.9-0.8-6.5h-0.6c-0.5,1.5-0.8,4-0.8,6.5
						c0,2.1,0.2,3.9,0.5,5.4H349.2z"/>
					<path class="st4" d="M352.9,263.8h0.7c0.4-0.3,0.7-0.6,1-0.9c1-1.2,1.6-2.8,1.6-4.5c0-1.4-0.4-2.7-1.2-3.8
						c-0.7-1-1.7-1.8-2.8-2.5l0,0c1.3,1.7,2.1,4,2.1,6.4C354.2,260.4,353.8,262.2,352.9,263.8z"/>
				</g>
				<path class="st4" d="M350.8,251.4c-0.6-0.3-1.3-0.5-2.1-0.5c-0.8,0-1.5,0.2-2.1,0.5H350.8z"/>
				<path class="st4" d="M352.9,264.6h-8.2c1,0.6,2.1,1,3.3,1.1v1.3h1.5v-1.3C350.8,265.5,351.9,265.2,352.9,264.6z"/>
			</g>
		</g>
	</g>
	<g id="VERDE_x5F_V" class="st2">
		<g>
			<g>
				<polygon class="st5" points="360.8,267.5 357.2,267.5 357.2,265.6 358.9,265.6 358.9,243.7 337.5,243.7 337.5,265.6 339,265.6 
					339,267.5 335.6,267.5 335.6,241.8 360.8,241.8 				"/>
			</g>
		</g>
		<g>
			<polygon class="st5" points="309.5,277.5 307,277.5 307,286.1 312.5,286.1 312.5,283.9 309.5,283.9 			"/>
			<path class="st5" d="M316.5,277.5l-3.4,8.6h2.5l0.4-1.1h3.1l0.4,1.1h2.5l-3.4-8.6H316.5z M318.5,283.1h-1.8l0.9-2.4L318.5,283.1z
				"/>
			<path class="st5" d="M333,278.2c-0.6-0.5-1.3-0.8-1.9-0.8h-4v8.6h2.4v-2.5h1.6c0.7,0,1.4-0.3,2-0.9s0.9-1.3,0.9-2.2
				C334,279.6,333.5,278.7,333,278.2z M329.5,279.7h1.5c0.1,0,0.2,0,0.4,0.1c0.2,0.1,0.3,0.4,0.3,0.8s-0.1,0.6-0.3,0.7
				c-0.3,0.1-0.4,0.1-0.5,0.1h-1.5L329.5,279.7L329.5,279.7z"/>
			<path class="st5" d="M342,280.5c0-0.8-0.3-1.5-0.9-2.1s-1.3-0.9-2.1-0.9h-3.8v8.6h2.4v-2.7h0.8l1.7,2.6h2.7l-2.1-3.2
				C341.5,282.5,342,281.5,342,280.5z M337.5,279.7h1.4c0.4,0,0.7,0.4,0.7,0.8c0,0.6-0.3,0.9-0.9,0.9h-1.2V279.7z"/>
			<rect x="343.5" y="277.5" class="st5" width="2.4" height="8.6"/>
			<polygon class="st5" points="352,281.3 349.5,277.5 347.5,277.5 347.5,286.1 349.6,286.1 349.6,281.7 352,285.1 354.5,281.7 
				354.5,286.1 356.6,286.1 356.6,277.5 354.8,277.5 			"/>
			<rect x="358.2" y="277.5" class="st5" width="2.4" height="8.6"/>
			<polygon class="st5" points="361.6,279.7 363.9,279.7 363.9,286.1 366.2,286.1 366.2,279.7 368.5,279.7 368.5,277.5 361.6,277.5 
							"/>
			<rect x="369.4" y="277.5" class="st5" width="2.4" height="8.6"/>
			<polygon class="st5" points="379.1,277.5 377.2,282.6 375.2,277.5 372.8,277.5 376.1,286.1 378.2,286.1 381.6,277.5 			"/>
			<path class="st5" d="M386,277.5h-2.2l-3.4,8.6h2.5l0.4-1.1h3.1l0.4,1.1h2.5L386,277.5z M385.8,283.1H384l0.9-2.4L385.8,283.1z"/>
		</g>
		<g>
			<path class="st5" d="M356,260c0.1-0.4,0.1-0.8,0.1-1.2c0-0.4,0-0.7-0.1-1.1c-2.3-0.2-4.9-0.4-7.6-0.4c-3.1,0-5.9,0.2-7.8,0.4
				c0,0.4-0.1,0.7-0.1,1.1s0,0.8,0.1,1.2c1.7,0.1,4.4,0.3,7.8,0.3C350.8,260.3,353.5,260.2,356,260z"/>
			<path class="st5" d="M354.2,263.9c0.6-0.8,1.1-1.6,1.4-2.6c-2.4,0.2-5,0.3-7.4,0.3c-3.2,0-5.8-0.1-7.5-0.3c0.3,1,0.8,1.8,1.4,2.6
				c1.7,0.3,3.8,0.6,6.2,0.6C350.2,264.5,352.1,264.3,354.2,263.9z"/>
			<path class="st5" d="M342,253.9c-0.6,0.8-1.1,1.6-1.3,2.6c1.9-0.2,4.6-0.3,7.6-0.3c2.6,0,5.1,0.2,7.4,0.3c-0.3-1-0.8-1.8-1.3-2.6
				c-1.7-0.4-3.8-0.7-6-0.7C346.4,253.2,344.2,253.4,342,253.9z"/>
			<path class="st5" d="M348.2,252c1.6,0,3.1,0.2,4.4,0.4c-1.3-0.9-2.8-1.5-4.5-1.5s-3.2,0.6-4.5,1.5
				C345.2,252.1,346.8,252,348.2,252z"/>
			<path class="st5" d="M348.2,265.7c-1.7,0-3.2-0.1-4.6-0.3c1.3,0.9,2.8,1.5,4.5,1.5s3.2-0.5,4.5-1.5
				C351.1,265.6,349.8,265.7,348.2,265.7z"/>
		</g>
	</g>
</g>
<g id="Capa_7" class="st0">
	<g class="st2">
		<g class="st6">
			<path class="st7" d="M280.8,238.4h18v6.2h-11.4v3.5H298v5.6h-10.6v3.8H299v6.1h-18.2V238.4z"/>
			<path class="st7" d="M303.2,238.4h6.6v19h9.3v6.2h-15.9V238.4z"/>
			<path class="st7" d="M323,238.4h6.6v25.2H323V238.4z"/>
			<path class="st7" d="M347,238c4,0,7.5,1.7,9.9,4.5l-4.5,3.9c-1.4-1.4-3.3-2.2-5.4-2.2c-3.7,0-6.6,2.9-6.6,6.8s3,6.8,6.6,6.8
				c2.1,0,3.9-0.8,5.1-2.2v-1.7h-6.3v-5.7h12v10.1c-2.2,3.3-6.2,5.6-10.8,5.6c-7.3,0-13.3-5.5-13.3-12.9
				C333.8,243.5,339.8,238,347,238z"/>
			<path class="st7" d="M362,238.4h18v6.2h-11.4v3.5h10.6v5.6h-10.6v3.8h11.6v6.1H362V238.4z"/>
		</g>
		<g>
			<g>
				<g>
					<g>
						<g>
							<defs>
								<rect id="SVGID_1_" x="275.4" y="227.1" width="144.3" height="54.3"/>
							</defs>
							<clipPath id="SVGID_00000049924390645232427880000007065447092234524821_">
								<use xlink:href="#SVGID_1_"  style="overflow:visible;"/>
							</clipPath>
							<g style="clip-path:url(#SVGID_00000049924390645232427880000007065447092234524821_);">
								<g>
									<g>
										<g>
											<g>
												<g>
													<defs>
														<ellipse id="SVGID_00000128444540928114439530000016255034988044153987_" cx="401.8" cy="266" rx="16.9" ry="14.9"/>
													</defs>
													<clipPath id="SVGID_00000116952329325751969070000013316272425705516700_">
														<use xlink:href="#SVGID_00000128444540928114439530000016255034988044153987_"  style="overflow:visible;"/>
													</clipPath>
													<g style="clip-path:url(#SVGID_00000116952329325751969070000013316272425705516700_);">
														<g class="st6">
															<path class="st7" d="M417.4,271.8c-0.9,1.8-2.1,3.4-3.6,4.7s-3.3,2.4-5.4,3.2c-2.1,0.8-4.3,1.2-6.6,1.2
																c-1.7,0-3.5-0.2-5.2-0.7H388l-4.4-7.4h3c-0.6-1-1-2-1.4-3.2c-0.3-1.1-0.5-2.3-0.5-3.5c0-2,0.4-4,1.3-5.8
																s2.1-3.4,3.6-4.7s3.3-2.4,5.4-3.2s4.3-1.2,6.6-1.2c2.3,0,4.5,0.4,6.6,1.2s3.9,1.8,5.4,3.2c1.5,1.3,2.7,2.9,3.6,4.7
																s1.3,3.7,1.3,5.8C418.5,268.2,418.2,270,417.4,271.8z M388.6,275.8l0.6,1h12.3c1.8,0,3.4-0.3,5-0.8
																c1.5-0.6,2.9-1.3,4-2.3s2-2.1,2.7-3.4c0.6-1.3,1-2.7,1-4.2s-0.3-2.9-1-4.2c-0.6-1.3-1.5-2.5-2.7-3.4
																c-1.1-1-2.4-1.8-3.9-2.3c-1.5-0.6-3.1-0.8-4.8-0.8c-1.7,0-3.3,0.3-4.8,0.8c-1.5,0.6-2.8,1.3-3.9,2.3s-2,2.1-2.7,3.4
																c-0.6,1.3-1,2.7-1,4.2c0,1.1,0.2,2.1,0.5,3.1c0.4,1,0.8,1.9,1.5,2.8c0.6,0.8,1.4,1.6,2.2,2.3
																c0.9,0.7,1.8,1.2,2.9,1.7h-7.9C388.7,276,388.7,275.8,388.6,275.8z M397.5,275c-1.3-0.5-2.5-1.2-3.5-2.1
																s-1.8-1.9-2.4-3.1s-0.9-2.4-0.9-3.8s0.3-2.6,0.9-3.8c0.6-1.2,1.4-2.2,2.4-3.1s2.2-1.6,3.5-2.1s2.8-0.8,4.3-0.8
																s3,0.3,4.3,0.8s2.5,1.2,3.5,2.1s1.8,1.9,2.4,3.1s0.9,2.4,0.9,3.8s-0.3,2.6-0.9,3.8c-0.6,1.2-1.4,2.2-2.4,3.1
																s-2.2,1.6-3.5,2.1s-2.8,0.8-4.3,0.8S398.8,275.5,397.5,275z M408,263.7c-0.4-0.7-0.8-1.3-1.5-1.9
																c-0.6-0.5-1.3-1-2.2-1.3c-0.8-0.3-1.7-0.5-2.6-0.5s-1.8,0.2-2.6,0.5c-0.8,0.3-1.5,0.7-2.2,1.3
																c-0.6,0.5-1.1,1.2-1.5,1.9c-0.4,0.7-0.5,1.5-0.5,2.3s0.2,1.6,0.5,2.3c0.4,0.7,0.8,1.3,1.5,1.9c0.6,0.5,1.3,1,2.2,1.3
																c0.8,0.3,1.7,0.5,2.6,0.5s1.8-0.2,2.6-0.5c0.8-0.3,1.5-0.7,2.2-1.3c0.6-0.5,1.1-1.2,1.5-1.9c0.4-0.7,0.5-1.5,0.5-2.3
																S408.4,264.4,408,263.7z"/>
														</g>
													</g>
												</g>
											</g>
										</g>
									</g>
								</g>
								<polygon class="st7" points="289.8,280.1 397.2,280.1 397.2,276.9 285.9,276.9 								"/>
								<polygon class="st7" points="284.5,275.8 389.5,275.8 389.5,272.7 280.9,272.7 								"/>
							</g>
						</g>
					</g>
				</g>
			</g>
		</g>
	</g>
	<g class="st2">
		<g>
			<g>
				<g>
					<defs>
						<ellipse id="SVGID_00000150086741639524336390000001723224144619449474_" cx="401.9" cy="242.1" rx="13.8" ry="12.1"/>
					</defs>
					<clipPath id="SVGID_00000173135698152712164850000006618586501221483954_">
						<use xlink:href="#SVGID_00000150086741639524336390000001723224144619449474_"  style="overflow:visible;"/>
					</clipPath>
					<g style="clip-path:url(#SVGID_00000173135698152712164850000006618586501221483954_);">
						<g>
							<g>
								<g>
									<g>
										<defs>
											<ellipse id="SVGID_00000144299514911684766100000018391762548574455999_" cx="401.9" cy="242.2" rx="13.8" ry="12.1"/>
										</defs>
										<clipPath id="SVGID_00000176027599399420392200000005751557171720665245_">
											<use xlink:href="#SVGID_00000144299514911684766100000018391762548574455999_"  style="overflow:visible;"/>
										</clipPath>
										<g style="clip-path:url(#SVGID_00000176027599399420392200000005751557171720665245_);">
											<g class="st6">
												<path class="st7" d="M414.6,246.9c-0.7,1.5-1.7,2.8-3,3.9c-1.2,1.1-2.7,2-4.4,2.6c-1.7,0.6-3.5,1-5.4,1
													c-1.4,0-2.8-0.2-4.2-0.6h-7l-3.6-6h2.4c-0.5-0.8-0.8-1.7-1.1-2.6c-0.3-0.9-0.4-1.9-0.4-2.9c0-1.7,0.4-3.2,1.1-4.7
													s1.7-2.8,3-3.9c1.3-1.1,2.7-2,4.4-2.6c1.7-0.6,3.5-1,5.4-1s3.7,0.3,5.4,1c1.7,0.6,3.2,1.5,4.4,2.6
													c1.3,1.1,2.2,2.4,3,3.9c0.7,1.5,1.1,3,1.1,4.7S415.4,245.4,414.6,246.9z M391.2,250.2l0.5,0.8h10.1c1.4,0,2.8-0.2,4-0.7
													c1.3-0.5,2.3-1.1,3.3-1.9c0.9-0.8,1.6-1.7,2.2-2.8c0.5-1.1,0.8-2.2,0.8-3.4s-0.3-2.4-0.8-3.4c-0.5-1.1-1.2-2-2.2-2.8
													c-0.9-0.8-2-1.4-3.2-1.9s-2.5-0.7-3.9-0.7s-2.7,0.2-3.9,0.7c-1.2,0.5-2.3,1.1-3.2,1.9c-0.9,0.8-1.6,1.7-2.2,2.8
													c-0.5,1.1-0.8,2.2-0.8,3.4c0,0.9,0.1,1.7,0.4,2.5s0.7,1.6,1.2,2.3s1.1,1.3,1.8,1.9c0.7,0.6,1.5,1,2.4,1.3
													C397.8,250.2,391.2,250.2,391.2,250.2z M398.5,249.5c-1.1-0.4-2.1-1-2.9-1.7s-1.5-1.6-2-2.5c-0.5-1-0.7-2-0.7-3.1
													s0.2-2.1,0.7-3.1s1.1-1.8,2-2.5c0.8-0.7,1.8-1.3,2.9-1.7s2.3-0.6,3.5-0.6s2.4,0.2,3.5,0.6c1.1,0.4,2.1,1,2.9,1.7
													s1.5,1.6,2,2.5c0.5,1,0.7,2,0.7,3.1s-0.2,2.1-0.7,3.1s-1.1,1.8-2,2.5c-0.8,0.7-1.8,1.3-2.9,1.7s-2.3,0.6-3.5,0.6
													S399.5,250,398.5,249.5z M407,240.3c-0.3-0.6-0.7-1.1-1.2-1.5s-1.1-0.8-1.8-1c-0.7-0.3-1.4-0.4-2.2-0.4
													c-0.8,0-1.5,0.1-2.2,0.4c-0.7,0.3-1.3,0.6-1.8,1s-0.9,1-1.2,1.5c-0.3,0.6-0.4,1.2-0.4,1.9s0.1,1.3,0.4,1.9
													c0.3,0.6,0.7,1.1,1.2,1.5s1.1,0.8,1.8,1c0.7,0.3,1.4,0.4,2.2,0.4c0.8,0,1.5-0.1,2.2-0.4c0.7-0.3,1.3-0.6,1.8-1
													s0.9-1,1.2-1.5c0.3-0.6,0.4-1.2,0.4-1.9C407.5,241.6,407.4,240.9,407,240.3z"/>
											</g>
										</g>
									</g>
								</g>
							</g>
						</g>
						<g>
							<path class="st7" d="M391.6,250.2c0.2,0.2,0.5,0.4,0.7,0.7c0.1,0.1,0.3,0.2,0.4,0.3c2.7,0,5.4-0.1,8.1-0.1
								c-0.5,0-1.2-0.1-1.9-0.3c-0.5-0.2-1-0.3-1.4-0.5c-1.5-0.1-3-0.1-4.5-0.2L391.6,250.2z"/>
						</g>
					</g>
				</g>
			</g>
		</g>
	</g>
</g>
<g id="Capa_5" class="st0">
	<g class="st2">
		<g>
			<g>
				<g>
					
						<linearGradient id="SVGID_00000160909054962325049030000004064008947290305427_" gradientUnits="userSpaceOnUse" x1="1036.6885" y1="-681.8016" x2="1052.4325" y2="-693.6655" gradientTransform="matrix(0.9063 -0.4226 -0.4226 -0.9063 -875.2905 60.6903)">
						<stop  offset="0" style="stop-color:#C89211"/>
						<stop  offset="1" style="stop-color:#C89211;stop-opacity:0.3"/>
					</linearGradient>
					<path style="fill:url(#SVGID_00000160909054962325049030000004064008947290305427_);" d="M364.4,246.1c-0.3,0-0.6,0.2-0.8,0.4
						l-3.4,4.6c-0.2,0.2-0.4,0.2-0.4-0.1l-1.4-5.5c-0.1-0.3-0.3-0.6-0.6-0.6l-5.3-1.8c-0.3-0.1-0.3-0.3-0.1-0.4l4.7-3.1
						c0.2-0.1,0.4-0.5,0.4-0.8l0.1-5.7c0-0.3,0.2-0.4,0.4-0.2l4.4,3.5c0.2,0.2,0.6,0.3,0.9,0.2l5.4-1.7c0.3-0.1,0.4,0.1,0.3,0.3
						l-2,5.3c-0.1,0.3-0.1,0.7,0.1,0.9l3.3,4.7c0.2,0.2,0.1,0.4-0.2,0.4L364.4,246.1z"/>
					
						<linearGradient id="SVGID_00000180344723867115491520000007124286358197245074_" gradientUnits="userSpaceOnUse" x1="1030.9879" y1="-675.0972" x2="1037.0886" y2="-679.6655" gradientTransform="matrix(0.9063 -0.4226 -0.4226 -0.9063 -875.2905 60.6903)">
						<stop  offset="0" style="stop-color:#C89211"/>
						<stop  offset="1" style="stop-color:#C89211;stop-opacity:0.3"/>
					</linearGradient>
					<path style="fill:url(#SVGID_00000180344723867115491520000007124286358197245074_);" d="M349,239.1c-0.1,0-0.2,0.1-0.3,0.1
						l-1.3,1.8c-0.1,0.1-0.1,0.1-0.2,0l-0.6-2.2c0-0.1-0.1-0.2-0.2-0.3l-2.1-0.7c-0.1,0-0.1-0.1,0-0.2l1.8-1.2
						c0.2,0,0.2-0.2,0.2-0.3v-2.3c0-0.1,0.1-0.1,0.1-0.1l1.7,1.4c0.1,0.1,0.2,0.1,0.3,0.1l2.1-0.7c0.1,0,0.2,0,0.1,0.1l-0.8,2.1
						c0,0.1,0,0.3,0,0.3l1.3,1.9c0.1,0.1,0,0.2-0.1,0.2C351,239.1,349,239.1,349,239.1z"/>
					
						<linearGradient id="SVGID_00000121255859561031577530000010936959756169948074_" gradientUnits="userSpaceOnUse" x1="1029.1881" y1="-684.0284" x2="1032.6921" y2="-686.6522" gradientTransform="matrix(0.9063 -0.4226 -0.4226 -0.9063 -875.2905 60.6903)">
						<stop  offset="0" style="stop-color:#C89211"/>
						<stop  offset="1" style="stop-color:#C89211;stop-opacity:0.3"/>
					</linearGradient>
					<path style="fill:url(#SVGID_00000121255859561031577530000010936959756169948074_);" d="M349.2,246.9c-0.1,0-0.1,0-0.2,0.1
						l-0.7,1.1c0,0.1-0.1,0-0.1,0l-0.3-1.3c0-0.1-0.1-0.1-0.1-0.1l-1.2-0.4c-0.1,0-0.1-0.1,0-0.1l1.1-0.7c0.1,0,0.1-0.1,0.1-0.2V244
						c0-0.1,0-0.1,0.1,0l1,0.8c0,0,0.1,0.1,0.2,0l1.2-0.4c0.1,0,0.1,0,0.1,0.1l-0.5,1.2c0,0.1,0,0.2,0,0.2l0.7,1.1
						c0,0.1,0,0.1,0,0.1L349.2,246.9z"/>
					
						<linearGradient id="SVGID_00000037672840177770008690000010337144614109603211_" gradientUnits="userSpaceOnUse" x1="1020.5276" y1="-678.3813" x2="1024.1565" y2="-681.0986" gradientTransform="matrix(0.9063 -0.4226 -0.4226 -0.9063 -875.2905 60.6903)">
						<stop  offset="0" style="stop-color:#C89211"/>
						<stop  offset="1" style="stop-color:#C89211;stop-opacity:0.3"/>
					</linearGradient>
					<path style="fill:url(#SVGID_00000037672840177770008690000010337144614109603211_);" d="M339,245.5c-0.1,0-0.1,0-0.2,0.1
						l-0.8,1.1c0,0.1-0.1,0-0.1,0l-0.3-1.3c0-0.1-0.1-0.1-0.1-0.2l-1.2-0.4c-0.1,0-0.1-0.1,0-0.1l1.1-0.7c0.1,0,0.1-0.1,0.1-0.2
						v-1.4c0-0.1,0-0.1,0.1,0l1,0.9c0,0,0.1,0.1,0.2,0l1.2-0.4c0.1,0,0.1,0,0.1,0.1l-0.5,1.3c0,0.1,0,0.2,0,0.2l0.7,1.1
						c0,0.1,0,0.1,0,0.1L339,245.5z"/>
					
						<linearGradient id="SVGID_00000163773774888914909540000016498615203440497075_" gradientUnits="userSpaceOnUse" x1="1026.7705" y1="-678.868" x2="1029.2019" y2="-680.6887" gradientTransform="matrix(0.9063 -0.4226 -0.4226 -0.9063 -875.2905 60.6903)">
						<stop  offset="0" style="stop-color:#C89211"/>
						<stop  offset="1" style="stop-color:#C89211;stop-opacity:0.3"/>
					</linearGradient>
					<path style="fill:url(#SVGID_00000163773774888914909540000016498615203440497075_);" d="M344,242.9L344,242.9l-0.7,0.8h-0.1
						l-0.2-0.9l-0.1-0.1l-0.8-0.3c0,0,0,0,0-0.1l0.7-0.5l0.1-0.1v-0.9c0,0,0-0.1,0.1,0l0.7,0.6h0.1l0.8-0.3c0,0,0.1,0,0,0.1
						l-0.3,0.8v0.1l0.5,0.8v0.1L344,242.9z"/>
					
						<linearGradient id="SVGID_00000081628039319734372820000013442471645010305718_" gradientUnits="userSpaceOnUse" x1="1017.8275" y1="-674.022" x2="1020.0328" y2="-675.6732" gradientTransform="matrix(0.9063 -0.4226 -0.4226 -0.9063 -875.2905 60.6903)">
						<stop  offset="0" style="stop-color:#C89211"/>
						<stop  offset="1" style="stop-color:#C89211;stop-opacity:0.3"/>
					</linearGradient>
					<path style="fill:url(#SVGID_00000081628039319734372820000013442471645010305718_);" d="M333.6,242.2
						C333.6,242.2,333.5,242.2,333.6,242.2L333,243c0,0,0,0-0.1,0l-0.2-0.8c0,0,0-0.1-0.1-0.1l-0.7-0.3c0,0,0,0,0-0.1l0.7-0.5
						l0.1-0.1v-0.8c0,0,0-0.1,0.1,0l0.6,0.5h0.1l0.7-0.3c0,0,0.1,0,0,0l-0.2,0.9v0.1l0.5,0.7v0.1L333.6,242.2z"/>
				</g>
			</g>
		</g>
		<path class="st18" d="M337,281.5h-4.3v-1.6h3.3v-2h-3.3v-1.4h4.1v-2.1h-6.5v9.1h6.7L337,281.5L337,281.5z M348.9,280.5h1.4
			l1.5,3.1h2.5l-1.9-3.5c0.9-0.5,1.4-1.4,1.4-2.6c0-1.6-1-3-3.2-3h-4.1v9.1h2.3L348.9,280.5L348.9,280.5z M348.9,276.4h1.5
			c0.7,0,1.1,0.4,1.1,1.1c0,0.6-0.4,1.1-1.1,1.1h-1.5V276.4z M353.8,263.5c0-3.7-3-6.8-6.7-6.8s-6.7,3-6.7,6.8c0,3.7,3,6.8,6.7,6.8
			C350.9,270.3,353.8,267.3,353.8,263.5z M346.8,258.4L346.8,258.4L346.8,258.4C346.9,258.4,346.9,258.4,346.8,258.4
			C346.9,258.4,346.9,258.4,346.8,258.4L346.8,258.4c0.4-0.1,0.7-0.1,1-0.1c1.8,0,3.2,1.5,3.2,3.2c0,1.8-1.4,3.2-3.2,3.2
			s-3.2-1.5-3.2-3.2C344.5,260,345.5,258.8,346.8,258.4z M344.9,268.2c-0.2-0.1-0.3-0.2-0.5-0.3l0,0l0,0l0,0l0,0l0,0h-0.1l0,0l0,0
			l0,0l-0.1-0.1c-0.3-0.2-0.5-0.5-0.8-0.7c-0.2-0.3-0.4-0.6-0.6-0.9c-0.1-0.2-0.2-0.3-0.2-0.5c-0.1-0.2-0.1-0.4-0.2-0.5
			c-0.1-0.4-0.2-0.7-0.2-1.1c0-0.2,0-0.4,0-0.6s0-0.4,0.1-0.6c0.1-0.4,0.2-0.8,0.3-1.1c0,0,0-0.1,0.1-0.1c0,0,0-0.1,0.1-0.1v-0.1
			l0,0l0,0v-0.1v-0.1l0,0l0,0l0,0v-0.1l0.1-0.1c0.1-0.1,0.1-0.2,0.2-0.2c0.4-0.6,1-1.1,1.6-1.4c0,0,0,0-0.1,0.1l-0.1,0.1l-0.1,0.1
			c-0.1,0.1-0.1,0.2-0.2,0.3s-0.1,0.2-0.2,0.4c-0.1,0.1-0.1,0.3-0.1,0.4c-0.2,0.6-0.2,1.2-0.1,1.9c0.1,0.7,0.3,1.4,0.7,2
			c0.1,0.1,0.1,0.2,0.2,0.2l0.1,0.1v0.1l0,0l0,0l0,0l0,0l0,0l0,0l0,0l0.1,0.1l0,0l0,0l0.1,0.1l0.1,0.1c0.2,0.1,0.3,0.3,0.5,0.4
			s0.4,0.2,0.6,0.3c0.4,0.2,0.8,0.4,1.3,0.4c0.2,0,0.5,0.1,0.7,0c0.1,0,0.1,0,0.2,0h0.1l0,0l0,0l0,0h0.1l0,0l0,0l0,0h0.1l0,0l0,0
			c0.2,0,0.5-0.1,0.7-0.2c0.1,0,0.2-0.1,0.3-0.1s0.2-0.1,0.3-0.2c0.4-0.2,0.8-0.5,1.1-0.9c0.3-0.3,0.7-0.7,0.9-1.2v-0.1l0,0l0,0l0,0
			v-0.1v-0.1l0,0l0,0v-0.1c0,0.3,0,0.6-0.1,1c0,0.3-0.1,0.6-0.2,0.8c0,0.1-0.1,0.3-0.1,0.4c-0.1,0.1-0.1,0.3-0.2,0.4
			s-0.1,0.3-0.2,0.4c0,0,0,0.1-0.1,0.1l0,0l0,0l0,0l0,0l0,0c0,0,0,0.1-0.1,0.1l-0.1,0.1l0,0l0,0l0,0l0,0l-0.1,0.1l-0.1,0.1
			c-0.1,0.1-0.2,0.2-0.3,0.3c-0.2,0.2-0.5,0.4-0.8,0.6s-0.6,0.3-0.9,0.4c-0.6,0.2-1.3,0.3-2,0.2
			C346.1,268.7,345.5,268.5,344.9,268.2z M339.2,269.3H338v-18.6h18.3v18.6h-1.4v1.6h2.9v-21.8h-21.4v21.8h2.9L339.2,269.3
			L339.2,269.3z M337.8,274.5v5.5c0,2,1.2,3.8,3.9,3.8c2.8,0,3.8-2,3.8-3.8v-5.5H343v5.3c0,1-0.4,1.7-1.5,1.7s-1.5-0.7-1.5-1.7v-5.3
			H337.8z M322.5,284.8l-2.1,4l-2.2-4H316l-0.4,9.1h2.3l0.2-5.3l1.7,3.1h1.3l1.6-3.1l0.2,5.3h2.4l-0.4-9.1H322.5z M359.2,289.9
			l-3.4-5.1h-2.2v9.1h2.3v-5.2l3.6,5.2h2v-9.1h-2.3V289.9z M365.4,290.2h3.3v-2h-3.3v-1.4h4.1v-2.1H363v9.1h6.7v-2.1h-4.4
			L365.4,290.2L365.4,290.2z M326.2,293.9h2.4v-9.1h-2.4V293.9z M359,274.2c-2.8,0-4.7,2.1-4.7,4.8c0,2.6,1.7,4.8,4.7,4.8
			c2.9,0,4.7-2.3,4.7-4.8C363.6,276.4,361.9,274.2,359,274.2z M359,281.5c-1.3,0-2.2-1-2.2-2.5s0.9-2.5,2.2-2.5
			c1.4,0,2.2,1.2,2.2,2.5C361.2,280.5,360.4,281.5,359,281.5z M339.5,284.8H337v9.1h6.3v-2.1h-3.9v-7H339.5z M348.1,284.5
			c-2.8,0-4.7,2.1-4.7,4.8c0,2.6,1.7,4.8,4.7,4.8c2.9,0,4.7-2.3,4.7-4.8C352.9,286.7,351,284.5,348.1,284.5z M348.1,291.8
			c-1.3,0-2.2-1-2.2-2.5s0.9-2.5,2.2-2.5c1.4,0,2.2,1.2,2.2,2.5C350.4,290.9,349.5,291.8,348.1,291.8z M332.2,284.8h-2.4v9.1h6.3
			v-2.1h-3.9V284.8z M373,287c0-0.4,0.3-0.6,0.8-0.6c0.6,0,1.6,0.4,2.2,0.8l1.2-1.6c-0.9-0.7-2.1-1.1-3.3-1.1
			c-2.5,0-3.5,1.4-3.5,2.8c0,2.8,4.3,2.8,4.3,4c0,0.5-0.5,0.7-1,0.7c-0.8,0-1.7-0.4-2.3-1l-1.4,1.8c0.8,0.8,2.1,1.3,3.7,1.3
			c2.1,0,3.6-1.4,3.6-3C377.5,288.1,373,288.3,373,287z"/>
	</g>
	<g class="st2">
		<g>
			<path class="st18" d="M348,246.3c-8,0-13.1,5.9-13.1,13.3c0,7.2,4.8,13.3,13.1,13.3c8.1,0,13.1-6.4,13.1-13.3
				C361.2,252.4,356,246.3,348,246.3z M357.2,265.1l-6.1-0.4c-0.3,0-0.7,0.2-0.9,0.4l-3.7,5.1c-0.2,0.2-0.4,0.2-0.5-0.1l-1.6-6.1
				c-0.1-0.3-0.4-0.6-0.6-0.7l-5.8-2c-0.3-0.1-0.3-0.3-0.1-0.5l5.2-3.4c0.2-0.2,0.5-0.5,0.5-0.9l0.1-6.4c0-0.3,0.2-0.4,0.4-0.2
				l4.8,4c0.2,0.2,0.6,0.3,0.9,0.2l5.9-1.9c0.3-0.1,0.4,0.1,0.3,0.4l-2.2,5.9c-0.1,0.3-0.1,0.7,0.1,1l3.5,5.2
				C357.6,264.9,357.5,265.1,357.2,265.1z"/>
			<path class="st18" d="M359.8,243.4c-0.2,0-0.4,0.1-0.5,0.3l-2.3,3.2c-0.1,0.2-0.2,0.1-0.3-0.1l-1-3.9c0-0.2-0.2-0.4-0.4-0.5
				l-3.6-1.3c-0.2-0.1-0.2-0.2,0-0.3l3.2-2.2c0.2-0.1,0.3-0.3,0.3-0.5v-4c0-0.2,0.1-0.3,0.3-0.1l3,2.6c0.1,0.1,0.4,0.2,0.6,0.1
				l3.7-1.2c0.2-0.1,0.3,0,0.2,0.2l-1.5,3.7c-0.1,0.2,0,0.5,0.1,0.6l2.2,3.3c0.1,0.2,0,0.3-0.1,0.3L359.8,243.4z"/>
		</g>
		<g>
			<polygon class="st19" points="367,274.7 368.6,275.4 367,276.9 365.5,276.9 			"/>
			<path class="st18" d="M320.9,282.8h3.1V281h-3.1v-1.3h3.8v-1.9h-6v8.3h6.2v-1.9h-4V282.8z M365,277.6c-2.6,0-4.3,1.9-4.3,4.4
				c0,2.4,1.6,4.4,4.3,4.4c2.7,0,4.3-2.1,4.3-4.4C369.2,279.6,367.5,277.6,365,277.6 M365,284.3c-1.2,0-2-0.9-2-2.3s0.8-2.3,2-2.3
				c1.3,0,2,1.1,2,2.3C367,283.4,366.1,284.3,365,284.3 M341.1,277.8l-2,3.6l-2-3.6H335l-0.4,8.3h2.1l0.2-4.9l1.6,2.8h1.2l1.5-2.8
				l0.2,4.9h2.2l-0.4-8.3H341.1z M344.5,286.1h2.2v-8.3h-2.2V286.1z M350.1,277.8H348v8.3h5.9v-1.9h-3.6v-6.4H350.1z M356.8,277.8
				h-2.2v8.3h5.9v-1.9h-3.6L356.8,277.8L356.8,277.8z M375.2,282.4l-3.2-4.6h-2v8.3h2.2v-4.8l3.3,4.8h1.9v-8.3h-2.2
				C375.2,277.8,375.2,282.4,375.2,282.4z"/>
			<path class="st18" d="M328,277.8h-2.2v8.3h5.9v-1.9h-3.6L328,277.8L328,277.8z"/>
		</g>
	</g>
	<g id="QUINIGOL_x5F_V_x5F_AZUL" class="st2">
		<g>
			<path class="st20" d="M348.9,252.7v2.2l0.4,0.2h0.1l1.1,0.8l0,0l0.2,0.1c0.1,0.1,0.2,0.2,0.3,0.2l0,0l0.2,0.2
				c0.1,0.1,0.1,0.1,0.2,0.2l0,0c1.3-0.4,1.9-0.5,2.3-0.6c0.1,0,0.2-0.2,0.2-0.3s0-0.3,0-0.6c0-0.5-0.2-1.8-0.3-2l-0.1-0.1
				c-0.4-0.3-0.6-0.6-1.1-0.8l-0.2-0.1c-0.3-0.2-0.4-0.3-0.7-0.3h-0.1c-0.1,0-0.4,0-0.5,0.1c-0.4,0-1.2,0.2-2,0.6
				C349,252.4,348.9,252.5,348.9,252.7z"/>
			<path class="st20" d="M348.5,255.5l-2.2,1.6c-0.1,0.1-0.2,0.2-0.1,0.4l0.8,2.4c0,0.1,0.2,0.2,0.3,0.2l1.3,0.1l0,0l1.2-0.1
				c0.1,0,0.3-0.1,0.3-0.2l0.8-2.4c0-0.1,0-0.3-0.1-0.4L348.5,255.5L348.5,255.5z"/>
			<path class="st20" d="M347.9,252.4c-0.7-0.5-1.6-0.6-2-0.6l0,0c0,0-0.2,0-0.3,0l0,0h-0.1c-0.2,0-0.4,0-0.7,0.2
				c-0.5,0.3-0.8,0.5-1.3,0.8l-0.1,0.1c-0.1,0.1-0.2,0.4-0.3,1.1l0,0c-0.1,0.3-0.1,0.7-0.1,1.1v0.1c0,0.2,0,0.3,0,0.5
				c0,0.1,0.1,0.3,0.2,0.3c0.3,0.1,1,0.3,2.2,0.6l0,0c0.1-0.1,0.1-0.1,0.2-0.2l0.2-0.2c0.1-0.1,0.2-0.1,0.3-0.2l0.2-0.1l0,0l1.1-0.8
				h0.1l0.4-0.2c0-0.3,0-1.4,0-2.2C348,252.5,348,252.4,347.9,252.4z"/>
			<path class="st20" d="M350,266.1c-0.5,0.1-1.1,0.1-1.6,0.1c-0.3,0-1,0-1.5-0.1c-0.1,0-0.2,0-0.3,0c-0.2,0.1-0.4,0.2-0.6,0.3
				c0.8,0.3,1.6,0.4,2.5,0.4s1.7-0.2,2.5-0.4c-0.2-0.1-0.4-0.2-0.6-0.3C350.1,266.1,350.1,266,350,266.1z"/>
			<path class="st20" d="M354.8,256.3c0.6,0.5,1,1.3,1.3,2c0.2-0.2,0.3-0.3,0.4-0.5c0,0,0,0,0.1-0.1c-0.3-1.7-1-3.1-2.1-4.3
				c0.2,0.6,0.4,1.8,0.3,2.6C354.6,256.1,354.6,256.2,354.8,256.3z"/>
			<path class="st20" d="M340.5,257.7L340.5,257.7c0.1,0.2,0.3,0.4,0.4,0.6c0.2-0.6,0.7-1.4,1.3-1.9c0.1-0.1,0.1-0.2,0.1-0.3
				c-0.1-0.7,0-1.8,0.2-2.5C341.5,254.6,340.8,256.1,340.5,257.7z"/>
			<path class="st20" d="M351.5,263c-0.2-0.4-0.6-0.9-0.9-1.5c-0.1-0.2-0.3-0.4-0.4-0.5s-0.2-0.2-0.3-0.1c-0.4,0-0.9,0.1-1.2,0.1
				h-0.2h-0.2c-0.3,0-0.8,0-1.2-0.1c-0.1,0-0.2,0-0.3,0.1s-0.2,0.3-0.4,0.5c-0.4,0.6-0.7,1.1-0.9,1.5c-0.1,0.1-0.1,0.2,0,0.3
				c0.2,0.6,0.7,1.4,1.4,1.9l0,0c0.3,0.1,0.6,0.1,0.9,0.2c0.2,0,0.5,0,0.8,0s0.5,0,0.7,0c0.3,0,0.6-0.1,0.8-0.2c0.1,0,0.1,0,0.1-0.1
				c0.6-0.5,1.1-1.3,1.3-1.8C351.5,263.2,351.5,263.1,351.5,263z"/>
			<path class="st20" d="M344.6,265.9L344.6,265.9c0.3,0,0.6,0,0.9-0.2c0.2-0.1,0.3-0.4,0.2-0.5c-0.5-0.6-0.8-1.2-1-1.6
				c0-0.1-0.2-0.2-0.3-0.2c-0.5-0.1-1-0.2-1.5-0.4c-0.2-0.1-0.5,0.1-0.5,0.3c0,0.4,0,0.8,0.1,1.1c0.5,0.6,1.2,1.1,1.9,1.5
				C344.5,265.9,344.5,265.9,344.6,265.9z"/>
			<path class="st20" d="M346.4,251.1c0.6,0.1,1.3,0.3,1.9,0.6c0.1,0.1,0.2,0.1,0.4,0c0.6-0.3,1.4-0.5,2-0.6
				c-0.1-0.1-0.3-0.1-0.4-0.1s-0.2-0.1-0.3-0.1c-0.5-0.1-0.9-0.2-1.4-0.2l0,0c0,0,0,0-0.1,0c0,0,0,0-0.1,0l0,0
				c-0.5,0-0.9,0.1-1.4,0.2C346.9,250.9,346.6,251,346.4,251.1z"/>
			<path class="st20" d="M354.5,263.3c0-0.2-0.2-0.4-0.5-0.3c-0.5,0.2-1,0.3-1.5,0.4c-0.1,0-0.2,0.1-0.3,0.2c-0.2,0.5-0.6,1.1-1,1.6
				c-0.2,0.2-0.1,0.5,0.2,0.5c0.3,0.1,0.6,0.1,0.9,0.1c0.1,0,0.2,0,0.3,0c0.7-0.4,1.3-0.9,1.9-1.5
				C354.5,264.1,354.5,263.7,354.5,263.3z"/>
			<path class="st20" d="M352.5,262.6c0.7-0.1,1.5-0.4,1.9-0.6l0,0c0.8-0.9,1-2.3,1.1-2.9c0-0.1,0-0.2,0-0.2v-0.1l0,0
				c-0.2-0.6-0.7-1.5-1.1-1.9c-0.1-0.1-0.2-0.1-0.3-0.1l-2.2,0.6c-0.1,0-0.2,0.1-0.2,0.3c-0.1,0.7-0.4,1.8-0.8,2.5
				c-0.1,0.1,0,0.2,0,0.3c0.3,0.4,0.8,1.2,1.3,2C352.1,262.6,352.4,262.7,352.5,262.6z"/>
			<path class="st20" d="M355.2,263c0.7-1.2,1.2-2.7,1.2-4.1c-0.1,0-0.1,0.1-0.2,0.1c0,0.6-0.2,2.1-1,3.2c-0.1,0.1-0.1,0.2-0.1,0.3
				C355.1,262.7,355.1,262.8,355.2,263z"/>
			<path class="st20" d="M342.5,262c0.4,0.2,1.2,0.5,1.9,0.6c0.1,0,0.3,0,0.4-0.2c0.4-0.8,1-1.6,1.3-2c0.1-0.1,0.1-0.2,0-0.3
				c-0.4-0.7-0.7-1.9-0.8-2.5c0-0.1-0.1-0.2-0.2-0.3l-2.1-0.6c-0.1,0-0.2,0-0.3,0.1c-0.5,0.4-1,1.3-1.1,1.9l0,0v0.1
				c0,0.1,0,0.1,0,0.2C341.5,259.7,341.8,261.1,342.5,262L342.5,262z"/>
			<path class="st20" d="M340.8,259c-0.1,0-0.1-0.1-0.2-0.1c0,1.4,0.4,2.9,1.2,4.1c0-0.2,0-0.3,0.1-0.5c0-0.1,0-0.2-0.1-0.3
				C341,261.1,340.8,259.6,340.8,259z"/>
		</g>
		<g>
			<g>
				<polygon class="st20" points="361.4,267.5 357.8,267.5 357.8,265.6 359.5,265.6 359.5,243.7 337.5,243.7 337.5,265.6 339,265.6 
					339,267.5 335.6,267.5 335.6,241.8 361.4,241.8 				"/>
			</g>
		</g>
		<g>
			<path class="st20" d="M325,278.6c-0.9-0.9-2-1.3-3.4-1.3c-1.3,0-2.4,0.4-3.3,1.3s-1.4,1.9-1.4,3.1s0.5,2.3,1.4,3.1
				c0.9,0.9,2.1,1.3,3.3,1.3c0.7,0,1.4-0.1,2.1-0.4l0.8,0.8l1.6-1.4l-0.7-0.7c0.7-0.8,1-1.7,1-2.6
				C326.4,280.5,325.9,279.4,325,278.6z M321.5,284c-0.6,0-1.2-0.2-1.6-0.6s-0.7-1-0.7-1.6s0.2-1.1,0.7-1.6c0.4-0.4,1-0.7,1.6-0.7
				s1.2,0.2,1.6,0.7c0.4,0.4,0.7,1,0.7,1.6c0,0.3,0,0.6-0.1,0.9l-0.9-1l-1.6,1.4l0.9,1C322,283.9,321.8,284,321.5,284z"/>
			<path class="st20" d="M332.8,282.1c0,1.3-0.4,1.9-1.4,1.9c-0.5,0-0.8-0.1-1.1-0.4c-0.3-0.3-0.4-0.8-0.4-1.4v-4.8h-2.4v4.9
				c0,1.2,0.4,2.2,1.1,2.9c0.7,0.6,1.7,1,2.8,1c1.1,0,2.1-0.3,2.8-1c0.7-0.7,1.1-1.6,1.1-2.9v-4.9h-2.4L332.8,282.1L332.8,282.1z"/>
			<rect x="336.8" y="277.4" class="st20" width="2.4" height="8.6"/>
			<polygon class="st20" points="346.5,281.8 343,277.4 340.9,277.4 340.9,286 343.1,286 343.1,281.4 346.9,286 348.8,286 
				348.8,277.4 346.5,277.4 			"/>
			<rect x="350.5" y="277.4" class="st20" width="2.4" height="8.6"/>
			<path class="st20" d="M358.4,282.8h2.2v0.5c-0.4,0.5-1,0.7-1.7,0.7c-0.6,0-1.2-0.2-1.6-0.6s-0.7-0.9-0.7-1.6
				c0-0.6,0.2-1.2,0.7-1.6c0.4-0.4,1-0.6,1.6-0.6c0.7,0,1.3,0.2,1.8,0.7l0,0l1.7-1.4l0,0c-0.9-1-2.1-1.5-3.5-1.5
				c-1.3,0-2.4,0.4-3.3,1.3c-0.9,0.8-1.4,1.9-1.4,3.2c0,1.3,0.5,2.3,1.4,3.2c0.9,0.8,2,1.3,3.3,1.3c1.6,0,3-0.7,3.8-1.9l0,0V281
				h-4.3V282.8z"/>
			<path class="st20" d="M368.5,277.3c-1.3,0-2.4,0.4-3.4,1.3c-0.9,0.9-1.4,1.9-1.4,3.2c0,1.2,0.5,2.3,1.4,3.2s2,1.3,3.4,1.3
				c1.3,0,2.4-0.4,3.4-1.3l0,0c0.9-0.9,1.4-1.9,1.4-3.2c0-1.2-0.5-2.3-1.4-3.2C371,277.7,369.9,277.3,368.5,277.3z M370.1,283.3
				c-0.4,0.4-1,0.7-1.6,0.7s-1.2-0.2-1.6-0.7c-0.4-0.4-0.7-1-0.7-1.6s0.2-1.1,0.7-1.6c0.4-0.4,1-0.7,1.6-0.7s1.2,0.2,1.6,0.7
				c0.4,0.4,0.7,1,0.7,1.6C370.8,282.4,370.5,282.9,370.1,283.3z"/>
			<polygon class="st20" points="377,283.8 377,277.4 374.5,277.4 374.5,286 380.2,286 380.2,283.8 			"/>
		</g>
	</g>
</g>
<g id="Capa_6" class="st0">
	<g id="QUINTUPLE_x5F_V_x5F_NARANJA_1_" class="st2">
		<g>
			<g>
				<polygon class="st21" points="360.6,264.5 357.1,264.5 357.1,262.7 358.8,262.7 358.8,240.9 336.8,240.9 336.8,262.7 
					338.2,262.7 338.2,264.5 334.9,264.5 334.9,239 360.6,239 				"/>
			</g>
		</g>
		<g>
			<rect x="342.1" y="244.6" class="st21" width="1.9" height="9"/>
			<rect x="347" y="242.3" class="st21" width="1.9" height="9.4"/>
			<rect x="351.5" y="244.6" class="st21" width="1.9" height="9"/>
		</g>
		<g>
			<g>
				<path class="st21" d="M319.9,275.6c-0.9-0.9-2.1-1.3-3.4-1.3s-2.4,0.4-3.4,1.3c-0.9,0.9-1.4,1.9-1.4,3.1s0.5,2.3,1.4,3.1
					c0.9,0.9,2.1,1.3,3.4,1.3c0.7,0,1.5-0.1,2.1-0.4l0.8,0.8l1.6-1.4l-0.7-0.7c0.7-0.8,1-1.7,1-2.6
					C321.2,277.5,320.9,276.5,319.9,275.6z M316.5,281c-0.6,0-1.2-0.2-1.6-0.6s-0.7-1-0.7-1.6s0.2-1.1,0.7-1.6
					c0.4-0.4,1-0.7,1.6-0.7s1.2,0.2,1.6,0.7c0.4,0.4,0.7,1,0.7,1.6c0,0.3-0.1,0.6-0.1,0.9l-0.9-1l-1.6,1.4l0.9,1
					C316.9,281,316.6,281,316.5,281z"/>
				<path class="st21" d="M327.8,279.1c0,1.3-0.4,1.9-1.4,1.9c-0.5,0-0.8-0.1-1.1-0.4c-0.3-0.3-0.4-0.8-0.4-1.4v-4.8h-2.5v4.9
					c0,1.2,0.4,2.2,1.1,2.9c0.7,0.6,1.7,1,2.8,1s2.1-0.3,2.8-1c0.7-0.7,1.1-1.6,1.1-2.9v-4.9h-2.5v4.7L327.8,279.1L327.8,279.1z"/>
				<rect x="331.8" y="274.4" class="st21" width="2.5" height="8.6"/>
				<polygon class="st21" points="338.2,278.4 342,283 342,283 344,283 344,274.4 341.5,274.4 341.5,278.9 338,274.4 335.9,274.4 
					335.9,283 338.2,283 				"/>
				<polygon class="st21" points="349.6,283 349.6,276.7 352,276.7 352,274.4 344.9,274.4 344.9,276.7 347.1,276.7 347.1,283 				
					"/>
				<path class="st21" d="M356.6,283.2c1.1,0,2.1-0.3,2.8-1c0.7-0.7,1.1-1.6,1.1-2.9v-4.9H358v4.7c0,1.3-0.4,1.9-1.4,1.9
					c-0.5,0-0.8-0.1-1.1-0.4c-0.3-0.3-0.4-0.8-0.4-1.4v-4.8h-2.5v4.9c0,1.2,0.4,2.2,1.1,2.9C354.6,282.8,355.5,283.2,356.6,283.2z"
					/>
				<path class="st21" d="M368.1,275.2c-0.6-0.5-1.3-0.8-2-0.8H362v8.6h2.5v-2.5h1.6c0.8,0,1.5-0.3,2.1-0.9s1-1.3,1-2.2
					C369.2,276.6,368.9,275.7,368.1,275.2z M364.5,276.7h1.5c0.1,0,0.2,0,0.4,0.1c0.2,0.1,0.3,0.4,0.3,0.8s-0.1,0.6-0.3,0.7
					c-0.2,0.1-0.3,0.1-0.4,0.1h-1.5V276.7z"/>
				<polygon class="st21" points="372.9,274.4 370.4,274.4 370.4,283 376.1,283 376.1,280.8 372.9,280.8 				"/>
				<polygon class="st21" points="379.8,280.9 379.8,279.7 383.5,279.7 383.5,277.7 379.8,277.7 379.8,276.6 383.6,276.6 
					383.6,274.4 377.2,274.4 377.2,283 383.8,283 383.8,280.9 				"/>
				<path class="st21" d="M338.9,287.4c-0.6-0.5-1.3-0.8-2-0.8h-4.1v8.6h2.5v-2.5h1.6c0.8,0,1.5-0.3,2.1-0.9s1-1.3,1-2.2
					S339.5,287.9,338.9,287.4z M335.2,288.8h1.5c0.1,0,0.2,0,0.4,0.1c0.2,0.1,0.3,0.4,0.3,0.8s-0.1,0.6-0.3,0.7
					c-0.2,0.1-0.3,0.1-0.4,0.1h-1.5V288.8z"/>
				<polygon class="st21" points="343.5,286.6 341.1,286.6 341.1,295.2 346.9,295.2 346.9,293 343.5,293 				"/>
				<path class="st21" d="M352.9,291.2c0,1.3-0.4,1.9-1.4,1.9s-1.4-0.6-1.4-1.9v-4.7h-2.5v4.9c0,1.2,0.4,2.2,1.1,2.9
					c0.7,0.6,1.7,1,2.8,1c1.1,0,2.1-0.3,2.8-1c0.7-0.7,1.1-1.6,1.1-2.9v-4.9h-2.5V291.2z"/>
			</g>
			<path class="st21" d="M331.9,273.8l0.6-1.8h2.4l-1.3,1.8H331.9z"/>
			<path class="st21" d="M357.9,292.2c0.5,0.6,1.3,1.1,2.2,1.1c0.8,0,1.2-0.2,1.2-0.6c0-0.2-0.2-0.4-0.5-0.5
				c-0.2-0.1-0.3-0.1-0.5-0.2c-0.3-0.1-1-0.3-1.4-0.4c-1.3-0.5-2-1.3-2-2.5c0-0.8,0.3-1.5,0.9-1.9c0.6-0.5,1.4-0.7,2.2-0.7
				c1.4,0,2.5,0.5,3.2,1.4l-1.6,1.3c-0.4-0.5-0.9-0.7-1.6-0.7c-0.6,0-1,0.2-1,0.5c0,0.2,0.1,0.4,0.4,0.5c0.1,0.1,0.3,0.1,0.4,0.1
				c0.3,0.1,1,0.3,1.5,0.5c1.5,0.5,2.1,1.3,2.1,2.5c0,1.7-1.2,2.7-3.5,2.7c-1,0-1.8-0.2-2.4-0.5c-0.6-0.4-1.1-0.8-1.4-1.3
				L357.9,292.2z"/>
		</g>
		<path class="st22" d="M350,256c0.3-0.4,0.8-0.8,1.3-1l0,0c-0.1,0.3-0.1,0.6-0.2,1c0.2-0.2,0.5-0.4,0.7-0.5l0,0
			c-0.3,2.1,0.6,2.8,1.2,4.1c0.3,0.8,0.6,1.7,0.9,2.4c0.2,0.3,0.3,0.6,0.5,1.1c0.6,1.4-0.4,2.2-1.8,1.8c-0.2-0.3-0.5-0.5-0.5-1
			c-1.4-0.2-2-1.3-2.8-2c-2.3,0.9-0.6,3.4-0.2,5.5c0.3,2.3-0.4,3.4-1.7,4.3c-5.9-6.1-6.2-6.5-6.2-6.6c0-1.2,0.2-2.4,0.5-3.5
			c1.1-3.1,3.7-4.5,7.7-5C349.6,256.5,350,256.1,350,256"/>
	</g>
</g>
<g id="Capa_8" class="st0">
	<polygon class="st23" points="318.8,282.9 322.4,282.9 322.4,280.9 318.8,280.9 318.8,279.8 322.5,279.8 322.5,277.6 316.4,277.6 
		316.4,286.2 322.6,286.2 322.6,284.1 318.8,284.1 	"/>
	<polygon class="st23" points="326.4,277.6 324,277.6 324,286.2 329.5,286.2 329.5,284 326.4,284 	"/>
	<path class="st23" d="M338,283h2.1v0.5c-0.4,0.5-0.9,0.7-1.6,0.7c-0.6,0-1.1-0.2-1.6-0.6s-0.6-1-0.6-1.7c0-0.6,0.2-1.2,0.6-1.6
		s0.9-0.6,1.6-0.6s1.3,0.3,1.8,0.8l0,0l1.6-1.4l0,0c-0.9-1-2-1.5-3.4-1.5c-1.3,0-2.4,0.4-3.2,1.3c-0.9,0.8-1.3,1.9-1.3,3.2
		c0,1.3,0.4,2.3,1.3,3.2c0.9,0.8,2,1.3,3.2,1.3c1.5,0,2.9-0.7,3.7-1.9l0,0v-3.5H338V283z"/>
	<path class="st23" d="M349.4,283.5c-0.4,0.5-0.9,0.7-1.5,0.7s-1.1-0.2-1.6-0.6c-0.4-0.5-0.6-1-0.6-1.6s0.2-1.2,0.7-1.6
		c0.4-0.5,0.9-0.7,1.5-0.7s1.1,0.2,1.5,0.7s0.7,1,0.7,1.6S349.9,283.1,349.4,283.5 M347.9,277.5c-1.3,0-2.4,0.4-3.2,1.3
		c-0.9,0.9-1.4,1.9-1.4,3.2s0.4,2.3,1.4,3.2c0.9,0.9,2,1.3,3.2,1.3s2.4-0.4,3.2-1.3l0,0c0.9-0.9,1.4-2,1.4-3.2s-0.5-2.3-1.4-3.2
		C350.1,277.9,349.1,277.5,347.9,277.5"/>
	<path class="st23" d="M356,279.8h1.4c0.4,0,0.7,0.3,0.7,0.8c0,0.6-0.3,0.9-0.9,0.9H356V279.8z M360.5,280.6c0-0.8-0.3-1.5-0.9-2.1
		s-1.3-0.9-2.2-0.9h-3.8v8.7h2.4v-2.6h0.8l1.7,2.6h2.7l-2.1-3.2C360,282.6,360.5,281.6,360.5,280.6"/>
	<path class="st23" d="M364.4,279.9h1c0.9,0,1.5,0.2,1.9,0.6c0.3,0.4,0.4,0.8,0.4,1.4s-0.1,1-0.4,1.5c-0.3,0.4-0.9,0.6-1.9,0.6h-1
		V279.9z M365.5,277.6H362v8.7h3.4c1.5,0,2.6-0.4,3.3-1.2c0.8-0.8,1.2-1.8,1.2-3.1s-0.4-2.3-1.2-3.1
		C368,278,366.9,277.6,365.5,277.6"/>
	<path class="st23" d="M377,283.5c-0.4,0.5-0.9,0.7-1.5,0.7s-1.1-0.2-1.6-0.6c-0.4-0.5-0.6-1-0.6-1.6s0.2-1.2,0.7-1.6
		c0.4-0.5,0.9-0.7,1.5-0.7s1.1,0.2,1.5,0.7s0.7,1,0.7,1.6S377.4,283.1,377,283.5 M378.6,278.8c-0.9-0.9-2-1.3-3.2-1.3
		s-2.4,0.4-3.2,1.3c-0.9,0.9-1.4,1.9-1.4,3.2s0.4,2.3,1.4,3.2c0.9,0.9,2,1.3,3.2,1.3s2.4-0.4,3.2-1.3l0,0c0.9-0.9,1.4-2,1.4-3.2
		C380,280.7,379.5,279.6,378.6,278.8"/>
	<path class="st23" d="M317,294.6h1.1c1.5,0,2.3-0.9,2.3-2.3s-0.8-2.3-2.3-2.3H317V294.6L317,294.6z M316.4,295.2v-5.7h1.8
		c0.9,0,1.6,0.3,2.1,0.8s0.8,1.2,0.8,2.1s-0.3,1.5-0.8,2.1c-0.5,0.5-1.2,0.8-2.1,0.8L316.4,295.2L316.4,295.2z"/>
	<polygon class="st23" points="322.2,295.2 322.2,289.5 325.4,289.5 325.4,290.1 322.9,290.1 322.9,291.9 325.2,291.9 325.2,292.5 
		322.9,292.5 322.9,294.6 325.5,294.6 325.5,295.2 	"/>
	<polygon class="st23" points="330.1,295.2 330.1,289.5 330.8,289.5 330.8,294.6 333,294.6 333,295.2 	"/>
	<path class="st23" d="M335,293.2h2.2l-1.1-2.7L335,293.2z M333.5,295.2l2.3-5.7h0.5l2.3,5.7H338l-0.6-1.4h-2.7l-0.6,1.4H333.5z"/>
	<path class="st23" d="M343.5,292.4h1.1c0.3,0,0.6-0.1,0.8-0.3c0.2-0.2,0.3-0.5,0.3-0.8s-0.1-0.7-0.3-0.9c-0.2-0.2-0.5-0.3-0.8-0.3
		h-1.1V292.4z M342.9,295.2v-5.7h1.8c0.5,0,0.9,0.2,1.2,0.5c0.3,0.3,0.5,0.8,0.5,1.2c0,0.5-0.2,0.9-0.5,1.2
		c-0.3,0.3-0.7,0.5-1.2,0.5h-1.1v2.2L342.9,295.2C342.9,295.1,342.9,295.2,342.9,295.2z"/>
	<path class="st23" d="M348.1,292.4h1.2c0.3,0,0.6-0.1,0.8-0.3c0.2-0.2,0.3-0.5,0.3-0.8c0-0.6-0.4-1.1-1.1-1.1h-1.2L348.1,292.4
		L348.1,292.4z M347.5,295.2v-5.7h1.9c0.5,0,0.8,0.2,1.2,0.5c0.3,0.3,0.5,0.7,0.5,1.2c0,0.8-0.4,1.4-1.1,1.6l1.3,2.4h-0.7l-1.2-2.3
		l0,0h-1.2v2.3H347.5z"/>
	<rect x="352.5" y="289.5" class="st23" width="0.6" height="5.7"/>
	<polygon class="st23" points="354.8,295.2 354.8,289.5 355.2,289.5 357.4,293.1 359.5,289.5 360,289.5 360,295.2 359.5,295.2 
		359.5,290.7 357.4,294.2 355.4,290.7 355.4,295.2 	"/>
	<rect x="361.6" y="289.5" class="st23" width="0.6" height="5.7"/>
	<polygon class="st23" points="365,295.2 365,290.1 363.5,290.1 363.5,289.5 367,289.5 367,290.1 365.5,290.1 365.5,295.2 	"/>
	<rect x="368.1" y="289.5" class="st23" width="0.6" height="5.7"/>
	<polygon class="st23" points="372.4,295.2 370,289.5 370.6,289.5 372.5,294.1 374.4,289.5 375,289.5 372.8,295.2 	"/>
	<path class="st23" d="M376.4,293.2h2.2l-1.1-2.7L376.4,293.2z M374.9,295.2l2.3-5.7h0.5l2.3,5.7h-0.6l-0.6-1.4H376l-0.6,1.4H374.9z
		"/>
	<polygon class="st23" points="335.8,241.8 335.8,267.6 339,267.6 339,265.7 337.5,265.7 337.5,243.7 358.9,243.7 358.9,265.7 
		357.2,265.7 357.2,267.6 360.6,267.6 360.6,241.8 	"/>
	<path class="st23" d="M354.1,261.2c-2,0.2-4,0.2-5.9,0.2c-2.5,0-4.6-0.1-6.1-0.2c-0.1-0.3-0.2-0.7-0.3-1.1c1.5,0.1,3.6,0.2,6.3,0.2
		c2,0,4.2-0.1,6.2-0.3C354.4,260.5,354.4,260.9,354.1,261.2 M351,264.9c-0.9,0.1-1.8,0.2-2.7,0.2c-1,0-2-0.1-2.8-0.2
		c-0.7-0.3-1.3-0.8-1.8-1.4c1.3,0.2,2.9,0.4,4.6,0.4c1.5,0,2.9-0.2,4.5-0.4C352.2,264.1,351.6,264.6,351,264.9 M342.1,257
		c1.6-0.1,3.8-0.3,6.1-0.3c2.2,0,4.1,0.1,6,0.3c0.1,0.3,0.2,0.7,0.3,1.1c-1.9-0.2-4-0.3-6.2-0.3c-2.5,0-4.8,0.2-6.4,0.3
		C342,257.7,342,257.3,342.1,257 M345,253.3c1.1-0.2,2.2-0.2,3.3-0.2s2.2,0.1,3.1,0.2c0.6,0.4,1.1,0.8,1.6,1.4
		c-1.4-0.3-3-0.5-4.7-0.5c-1.6,0-3.2,0.2-4.9,0.5C343.9,254.2,344.4,253.7,345,253.3 M348.1,251c-4.3,0-7.8,3.6-7.8,8s3.5,8,7.8,8
		s7.8-3.6,7.8-8S352.5,251,348.1,251"/>
</g>
<g id="Capa_9" class="st0">
	<g class="st2">
		<g>
			<g>
				<path class="st24" d="M350,249c-0.5-0.1-1-0.2-1.5-0.3v5.2c0.5,0,1,0.1,1.5,0.3V249z"/>
				<path class="st24" d="M347.5,248.8c-0.6,0-1.1,0.2-1.6,0.3v5.2c0.5-0.2,1.1-0.3,1.6-0.3V248.8z"/>
				<path class="st24" d="M344.9,249.6c-0.5,0.3-0.9,0.6-1.3,0.9v5.2c0.4-0.3,0.8-0.6,1.3-0.9V249.6z"/>
				<path class="st24" d="M342.5,251.7c-0.8,1.2-1.3,2.6-1.3,4.2c0,0.9,0.2,1.8,0.5,2.6c0.2-0.6,0.5-1.1,0.9-1.6L342.5,251.7
					L342.5,251.7z"/>
				<path class="st24" d="M352.5,250.2c-0.4-0.3-0.8-0.6-1.3-0.8v5.2c0.5,0.2,0.9,0.5,1.3,0.8V250.2z"/>
				<path class="st24" d="M353.5,251.3v5.2c0.5,0.6,0.9,1.3,1.2,2c0.3-0.8,0.5-1.7,0.5-2.6C355.1,254.1,354.5,252.5,353.5,251.3z"/>
			</g>
			<g>
				<path class="st25" d="M345,254.7c-0.6,0.3-1.1,0.7-1.6,1.1v5.2c0.5-0.5,1-0.9,1.6-1.2V254.7z"/>
				<path class="st25" d="M350.2,254.2c-0.6-0.2-1.2-0.3-1.8-0.3v5.2c0.6,0,1.2,0.1,1.8,0.3V254.2z"/>
				<path class="st25" d="M347.8,253.9c-0.7,0-1.4,0.2-2,0.4v5.2c0.6-0.2,1.3-0.4,2-0.4V253.9z"/>
				<path class="st25" d="M353.4,256.3v5.1c0.6,0.6,1,1.4,1.4,2.2c0.3-0.8,0.5-1.7,0.5-2.6C355.1,259.2,354.5,257.5,353.4,256.3z"/>
				<path class="st25" d="M352.6,255.6c-0.5-0.4-1-0.8-1.6-1v5.2c0.6,0.3,1.1,0.6,1.6,1V255.6z"/>
				<path class="st25" d="M342.6,256.6c-1,1.2-1.5,2.8-1.5,4.4c0,0.9,0.2,1.8,0.5,2.6c0.3-0.7,0.6-1.3,1-1.9V256.6z"/>
			</g>
			<path class="st26" d="M348.1,259.1c-3.9,0-7,3.2-7,7.2s3.2,7.2,7,7.2c3.9,0,7-3.2,7-7.2S352,259.1,348.1,259.1z"/>
			<polygon class="st26" points="360.5,267.1 357.1,267.1 357.1,265.3 358.8,265.3 358.8,243.7 337.5,243.7 337.5,265.3 339,265.3 
				339,267.1 335.8,267.1 335.8,241.8 360.5,241.8 			"/>
		</g>
		<g>
			<path class="st26" d="M316.4,293.1v-1.4l-1.4-2.6h1.1l0.8,1.5l0.8-1.5h1.1l-1.4,2.6v1.4H316.4z"/>
			<g>
				<path class="st26" d="M319.4,293.1l1.6-4h1l1.6,4h-1.2l-0.2-0.5h-1.5l-0.2,0.5H319.4z M321,291.8h0.9l-0.5-1.2L321,291.8z"/>
				<path class="st26" d="M323.8,293.1v-4h1.8c0.3,0,0.6,0.1,0.9,0.3c0.3,0.2,0.5,0.6,0.5,1.1c0,0.4-0.1,0.7-0.4,1s-0.6,0.4-0.9,0.4
					h-0.8v1.1L323.8,293.1L323.8,293.1z M324.8,291h0.7c0,0,0.1,0,0.2-0.1c0.1,0,0.2-0.2,0.2-0.4s-0.1-0.3-0.2-0.4
					c-0.1,0-0.1-0.1-0.2-0.1h-0.7V291z"/>
				<path class="st26" d="M327.1,289.2h1v2.1c0,0.7,0.2,0.9,0.7,0.9c0.4,0,0.7-0.2,0.7-0.9v-2.1h1v2.2c0,0.6-0.2,1-0.5,1.3
					s-0.7,0.4-1.2,0.4s-0.9-0.1-1.2-0.4c-0.3-0.3-0.5-0.7-0.5-1.3V289.2z"/>
				<path class="st26" d="M331,293.1v-4h2.8v1H332v0.5h1.7v0.9H332v0.6h1.8v1H331z"/>
				<path class="st26" d="M334.9,291.8c0.2,0.3,0.6,0.5,1,0.5c0.3,0,0.5-0.1,0.5-0.3c0-0.1-0.1-0.2-0.2-0.2s-0.1-0.1-0.2-0.1
					s-0.4-0.1-0.6-0.2c-0.6-0.2-0.9-0.6-0.9-1.1c0-0.4,0.1-0.7,0.4-0.9c0.3-0.2,0.6-0.3,1-0.3c0.6,0,1.1,0.2,1.4,0.6l-0.8,0.6
					c-0.2-0.2-0.4-0.3-0.7-0.3s-0.4,0.1-0.4,0.2s0,0.2,0.2,0.2c0.1,0,0.1,0.1,0.2,0.1s0.4,0.1,0.7,0.2c0.7,0.2,0.9,0.6,0.9,1.1
					c0,0.8-0.5,1.3-1.5,1.3c-0.4,0-0.8-0.1-1.1-0.2c-0.3-0.2-0.5-0.4-0.6-0.6L334.9,291.8z"/>
				<path class="st26" d="M338.4,293.1v-3h-1v-1h3v1h-1v3H338.4z"/>
				<path class="st26" d="M340,293.1l1.6-4h1l1.6,4H343l-0.2-0.5h-1.5l-0.2,0.5H340z M341.5,291.8h0.9l-0.5-1.2L341.5,291.8z"/>
				<path class="st26" d="M344.5,291.8c0.2,0.3,0.6,0.5,1,0.5c0.3,0,0.5-0.1,0.5-0.3c0-0.1-0.1-0.2-0.2-0.2s-0.1-0.1-0.2-0.1
					s-0.4-0.1-0.6-0.2c-0.6-0.2-0.9-0.6-0.9-1.1c0-0.4,0.1-0.7,0.4-0.9c0.3-0.2,0.6-0.3,1-0.3c0.6,0,1.1,0.2,1.4,0.6l-0.7,0.6
					c-0.2-0.2-0.4-0.3-0.7-0.3c-0.3,0-0.4,0.1-0.4,0.2s0,0.2,0.2,0.2c0.1,0,0.1,0.1,0.2,0.1s0.4,0.1,0.7,0.2
					c0.7,0.2,0.9,0.6,0.9,1.1c0,0.8-0.5,1.3-1.5,1.3c-0.4,0-0.8-0.1-1.1-0.2c-0.3-0.2-0.5-0.4-0.6-0.6L344.5,291.8z"/>
			</g>
			<g>
				<path class="st26" d="M348.8,293.1v-4h1.6c0.7,0,1.2,0.2,1.5,0.5c0.4,0.4,0.5,0.8,0.5,1.4s-0.2,1.1-0.5,1.4
					c-0.3,0.4-0.9,0.5-1.5,0.5h-1.6V293.1z M349.8,292.1h0.5c0.4,0,0.7-0.1,0.9-0.3c0.1-0.2,0.2-0.4,0.2-0.7c0-0.3,0-0.5-0.2-0.7
					s-0.4-0.3-0.9-0.3h-0.4L349.8,292.1L349.8,292.1z"/>
				<path class="st26" d="M352.8,293.1v-4h2.8v1h-1.8v0.5h1.7v0.9h-1.7v0.6h1.8v1H352.8z"/>
				<path class="st26" d="M356,293.1v-4h1v3h1.5v1H356z"/>
			</g>
			<g>
				<path class="st26" d="M360.1,293.1v-4h2.8v1h-1.8v0.5h1.7v0.9h-1.7v0.6h1.8v1H360.1z"/>
				<path class="st26" d="M363.9,291.8c0.2,0.3,0.6,0.5,1,0.5c0.3,0,0.5-0.1,0.5-0.3c0-0.1-0.1-0.2-0.2-0.2s-0.1-0.1-0.2-0.1
					s-0.4-0.1-0.6-0.2c-0.6-0.2-0.9-0.6-0.9-1.1c0-0.4,0.1-0.7,0.4-0.9c0.3-0.2,0.6-0.3,1-0.3c0.6,0,1.1,0.2,1.4,0.6l-0.7,0.6
					c-0.2-0.2-0.4-0.3-0.7-0.3c-0.3,0-0.4,0.1-0.4,0.2s0,0.2,0.2,0.2c0.1,0,0.1,0.1,0.2,0.1s0.4,0.1,0.7,0.2
					c0.7,0.2,0.9,0.6,0.9,1.1c0,0.8-0.5,1.3-1.5,1.3c-0.4,0-0.8-0.1-1.1-0.2c-0.3-0.2-0.5-0.4-0.6-0.6L363.9,291.8z"/>
				<path class="st26" d="M367.4,293.1v-3h-1v-1h3.1v1h-1v3H367.4z"/>
				<path class="st26" d="M369,293.1l1.6-4h1l1.6,4H372l-0.2-0.5h-1.5l-0.2,0.5H369z M370.5,291.8h0.9l-0.5-1.2L370.5,291.8z"/>
				<path class="st26" d="M373.2,293.1v-4h1.6c0.7,0,1.2,0.2,1.5,0.5c0.4,0.4,0.5,0.8,0.5,1.4s-0.2,1.1-0.5,1.4
					c-0.3,0.4-0.9,0.5-1.5,0.5h-1.6V293.1z M374.4,292.1h0.5c0.4,0,0.7-0.1,0.9-0.3c0.1-0.2,0.2-0.4,0.2-0.7c0-0.3,0-0.5-0.2-0.7
					c-0.1-0.2-0.4-0.3-0.9-0.3h-0.5V292.1z"/>
				<path class="st26" d="M380.8,292.6c-0.4,0.4-0.9,0.6-1.5,0.6s-1.1-0.2-1.5-0.6s-0.6-0.9-0.6-1.4c0-0.6,0.2-1,0.6-1.4
					s0.9-0.6,1.5-0.6s1.1,0.2,1.5,0.6s0.6,0.9,0.6,1.4S381.1,292.2,380.8,292.6z M378.5,291.9c0.2,0.2,0.5,0.3,0.7,0.3
					c0.3,0,0.5-0.1,0.7-0.3c0.2-0.2,0.3-0.5,0.3-0.8s-0.1-0.5-0.3-0.8c-0.2-0.2-0.5-0.3-0.7-0.3c-0.3,0-0.5,0.1-0.7,0.3
					c-0.2,0.2-0.3,0.5-0.3,0.8C378.2,291.5,378.4,291.7,378.5,291.9z"/>
			</g>
		</g>
		<g>
			<path class="st26" d="M315,286.1V277h2.4v6.9h3.4v2.2H315z"/>
			<path class="st26" d="M330.1,284.9c-1,0.9-2.1,1.4-3.5,1.4s-2.5-0.5-3.5-1.4s-1.4-2-1.4-3.3s0.5-2.4,1.4-3.3
				c1-0.9,2.1-1.4,3.5-1.4s2.5,0.5,3.5,1.4s1.4,2,1.4,3.3S331.1,284,330.1,284.9z M325,283.4c0.5,0.5,1.1,0.7,1.7,0.7
				c0.7,0,1.2-0.2,1.7-0.7s0.7-1.1,0.7-1.8c0-0.7-0.2-1.3-0.7-1.8s-1.1-0.7-1.7-0.7c-0.7,0-1.2,0.2-1.7,0.7s-0.7,1.1-0.7,1.8
				C324.2,282.3,324.5,282.9,325,283.4z"/>
			<path class="st26" d="M335,286.1v-6.9h-2.4V277h7.2v2.2h-2.4v6.9H335z"/>
			<path class="st26" d="M341.8,286.1V277h6.6v2.2h-4.2v1.3h3.9v2h-3.9v1.4h4.3v2.2H341.8z"/>
			<path class="st26" d="M350.5,286.1V277h4.1c0.9,0,1.6,0.3,2.3,0.9c0.6,0.6,0.9,1.3,0.9,2.2c0,1.2-0.6,2.2-1.5,2.6l2.2,3.4h-2.8
				l-1.8-2.8l0,0H353v2.8H350.5z M353,281.3h1.3c0.7,0,1.1-0.4,1.1-1.1c0-0.6-0.4-1-0.8-1H353V281.3z"/>
			<path class="st26" d="M360,286.1V277h2.4v9.1H360z M360,276.4l0.6-1.9h2.4l-1.3,1.9H360z"/>
			<path class="st26" d="M363.8,286.1l3.6-9.1h2.2l3.6,9.1h-2.6l-0.5-1.2h-3.4l-0.3,1.2H363.8z M367.5,283h2.2l-1.1-2.8L367.5,283z"
				/>
			<path class="st26" d="M375.5,283c0.5,0.7,1.3,1.1,2.2,1.1c0.8,0,1.2-0.2,1.2-0.7c0-0.2-0.2-0.4-0.5-0.6c-0.2-0.1-0.3-0.1-0.5-0.2
				c-0.3-0.1-1-0.3-1.4-0.5c-1.4-0.5-2.1-1.4-2.1-2.6c0-0.9,0.3-1.5,0.9-2s1.4-0.7,2.3-0.7c1.5,0,2.6,0.5,3.3,1.5l-1.6,1.4
				c-0.4-0.5-0.9-0.7-1.6-0.7c-0.6,0-1,0.2-1,0.6c0,0.3,0.1,0.4,0.4,0.5c0.1,0.1,0.3,0.1,0.4,0.2c0.3,0.1,1,0.3,1.6,0.5
				c1.5,0.6,2.2,1.4,2.2,2.6c0,1.8-1.2,2.9-3.6,2.9c-1,0-1.8-0.2-2.5-0.6c-0.6-0.4-1.1-0.8-1.5-1.4L375.5,283z"/>
		</g>
	</g>
</g>
<g id="Capa_2_00000157988559205554691040000009559769679532704946_" class="st0">
	<g id="BONOLOTO_x5F_V_x5F_VERDE" class="st2">
		<g>
			<path class="st27" d="M317.5,281.5c0.6-0.3,1-0.9,1-1.7c0-0.7-0.2-1.2-0.7-1.6s-1-0.6-1.7-0.6h-4v8.7h4.3c0.8,0,1.4-0.2,1.9-0.7
				s0.8-1.1,0.8-1.9C319,282.5,318.5,281.7,317.5,281.5z M315.5,280.9h-1.1v-1.4h1.1c0.4,0,0.7,0.3,0.7,0.7
				C316.1,280.6,315.9,280.9,315.5,280.9z M314.5,282.7h1.4c0.5,0,0.8,0.3,0.8,0.7s-0.3,0.8-0.8,0.8h-1.4V282.7z"/>
			<path class="st27" d="M324.6,277.4c-1.3,0-2.4,0.4-3.4,1.3c-0.9,0.9-1.4,1.9-1.4,3.2c0,1.3,0.5,2.3,1.4,3.2s2,1.3,3.4,1.3
				c1.3,0,2.4-0.4,3.4-1.3l0,0c0.9-0.9,1.4-2,1.4-3.2s-0.5-2.3-1.4-3.2C327,277.8,326,277.4,324.6,277.4z M326.2,283.5
				c-0.4,0.4-1,0.7-1.6,0.7s-1.2-0.2-1.6-0.7l0,0c-0.4-0.4-0.7-1-0.7-1.6s0.2-1.2,0.7-1.6c0.4-0.5,1-0.7,1.6-0.7s1.2,0.2,1.6,0.7
				c0.5,0.5,0.7,1,0.7,1.6S326.6,283,326.2,283.5z"/>
			<polygon class="st27" points="336.4,282 332.9,277.5 330.6,277.5 330.6,286.2 333,286.2 333,281.5 336.6,286.2 336.8,286.2 
				338.8,286.2 338.8,277.5 336.4,277.5 			"/>
			<path class="st27" d="M344.8,277.4c-1.3,0-2.4,0.4-3.4,1.3c-0.9,0.9-1.4,1.9-1.4,3.2c0,1.3,0.5,2.3,1.4,3.2s2,1.3,3.4,1.3
				c1.3,0,2.4-0.4,3.4-1.3l0,0c0.9-0.9,1.4-2,1.4-3.2s-0.5-2.3-1.4-3.2C347.1,277.8,346,277.4,344.8,277.4z M346.4,283.5
				c-0.4,0.4-1,0.7-1.6,0.7s-1.2-0.2-1.6-0.7l0,0c-0.4-0.4-0.7-1-0.7-1.6s0.2-1.2,0.7-1.6c0.4-0.5,1-0.7,1.6-0.7s1.2,0.2,1.6,0.7
				c0.5,0.5,0.7,1,0.7,1.6S346.8,283,346.4,283.5z"/>
			<polygon class="st27" points="353.2,277.5 350.8,277.5 350.8,286.2 356.5,286.2 356.5,284 353.2,284 			"/>
			<path class="st27" d="M361.9,277.4c-1.3,0-2.4,0.4-3.4,1.3c-0.9,0.9-1.4,1.9-1.4,3.2c0,1.3,0.5,2.3,1.4,3.2
				c0.9,0.9,2,1.3,3.4,1.3c1.3,0,2.4-0.4,3.4-1.3l0,0c0.9-0.9,1.4-2,1.4-3.2s-0.5-2.3-1.4-3.2C364.2,277.8,363.1,277.4,361.9,277.4z
				 M363.5,283.5c-0.4,0.4-1,0.7-1.6,0.7s-1.2-0.2-1.6-0.7l0,0c-0.4-0.4-0.7-1-0.7-1.6s0.2-1.2,0.7-1.6c0.4-0.5,1-0.7,1.6-0.7
				s1.2,0.2,1.6,0.7c0.5,0.5,0.7,1,0.7,1.6S363.9,283,363.5,283.5z"/>
			<polygon class="st27" points="367,279.8 369.4,279.8 369.4,286.2 371.9,286.2 371.9,279.8 374,279.8 374,277.5 367,277.5 			"/>
			<path class="st27" d="M382.6,278.7c-0.9-0.9-2-1.3-3.4-1.3c-1.3,0-2.4,0.4-3.4,1.3c-0.9,0.9-1.4,1.9-1.4,3.2
				c0,1.3,0.5,2.3,1.4,3.2s2,1.3,3.4,1.3c1.3,0,2.4-0.4,3.4-1.3l0,0c0.9-0.9,1.4-2,1.4-3.2S383.5,279.6,382.6,278.7z M380.9,283.5
				c-0.4,0.4-1,0.7-1.6,0.7s-1.2-0.2-1.6-0.7l0,0c-0.4-0.4-0.7-1-0.7-1.6s0.2-1.2,0.7-1.6c0.4-0.5,1-0.7,1.6-0.7s1.2,0.2,1.6,0.7
				c0.5,0.5,0.7,1,0.7,1.6S381.4,283,380.9,283.5z"/>
		</g>
		<g>
			<g>
				<g>
					<polygon class="st27" points="361,267.5 357.4,267.5 357.4,265.6 359,265.6 359,243.5 337,243.5 337,265.6 338.5,265.6 
						338.5,267.5 335,267.5 335,241.7 361,241.7 					"/>
				</g>
			</g>
			<g>
				<g>
					<path class="st27" d="M342,257.3c-1.4-1.4-1.8-3.4-0.3-4.9c1.4-1.4,3.5-1.1,4.9,0.3c1.7,1.7,0,4.6,0.8,5.3c0,0,0,0.1-0.1,0.1
						C346.5,257.3,343.9,259.1,342,257.3z"/>
					<path class="st27" d="M354,257.3c1.4-1.4,1.8-3.4,0.3-4.9c-1.4-1.4-3.5-1.1-4.9,0.3c-1.7,1.7,0,4.6-0.8,5.3c0,0,0,0.1,0.1,0.1
						C349.4,257.3,352.1,259.1,354,257.3z"/>
					<path class="st27" d="M342,259.7c-1.4,1.4-1.8,3.4-0.3,4.9c1.4,1.4,3.5,1.1,4.9-0.3c1.7-1.7,0-4.6,0.8-5.3c0,0,0-0.1-0.1-0.1
						C346.5,259.6,343.9,257.9,342,259.7z"/>
					<path class="st27" d="M354,259.7c1.4,1.4,1.8,3.4,0.3,4.9s-3.5,1.1-4.9-0.3c-1.7-1.7,0-4.6-0.8-5.3c0,0,0-0.1,0.1-0.1
						C349.4,259.6,352.1,257.9,354,259.7z"/>
				</g>
				<path class="st27" d="M346.8,270.1c-0.2,0-0.4-0.1-0.5-0.2c-0.4-0.3-0.4-0.8-0.1-1.2c0.9-1.2,1.1-2.6,1-3.6
					c0-0.5,0.4-0.9,0.8-0.9c0.5,0,0.9,0.4,0.9,0.8c0.1,1.9-0.4,3.5-1.4,4.8C347.2,270,347,270.1,346.8,270.1z"/>
			</g>
		</g>
	</g>
	<g id="QUINIELA_x5F_V_x5F_ROJO" class="st2">
		<g>
			<polygon class="st28" points="361,267.3 357.6,267.3 357.6,265.5 359.2,265.5 359.2,243.8 337.8,243.8 337.8,265.5 339.2,265.5 
				339.2,267.3 335.9,267.3 335.9,242 361,242 			"/>
			<g>
				<path class="st28" d="M348.5,259.3l-6.8,4l6.9,4l6.8-4L348.5,259.3z M350.5,263.6c-0.5,0.3-1,0.3-1.5,0.3
					c-0.4,0-1.5-0.1-1.5-0.1l1.3,0.8l-0.9,0.5l-2.8-1.7l0.6-0.4c0,0,2.9,0.1,3.1,0.1c0.3,0,0.5,0,0.6-0.1c0.2-0.1,0.3-0.3,0-0.5
					c-0.4-0.2-0.9,0-0.9,0l-0.9-0.5c0.8-0.4,2-0.4,2.7,0C351.4,262.6,351,263.3,350.5,263.6z"/>
				<path class="st28" d="M348,250.4l-6.9,4v8.1l6.9-4V250.4z M344.2,258.8v-3.3l-0.6,0.3v-1.1l1.6-0.9v0.7v0.3v3.3L344.2,258.8z"/>
				<path class="st28" d="M355.9,254.4l-6.9-4v8.2l6.9,4V254.4z M353.2,259.1l-0.7-1.6l-0.7,0.8l-1.2-0.7l1.3-1.5l-1.3-2.9l1.3,0.7
					l0.6,1.5l0.6-0.7l1.3,0.7l-1.3,1.4l1.3,3L353.2,259.1z"/>
			</g>
		</g>
		<g>
			<path class="st28" d="M335.9,278.3c-0.9-0.9-2-1.3-3.3-1.3s-2.4,0.4-3.3,1.3c-0.9,0.8-1.4,1.9-1.4,3.1s0.5,2.3,1.4,3.1
				s2,1.3,3.3,1.3c0.7,0,1.4-0.1,2-0.4l0.7,0.8l1.6-1.4l-0.7-0.8c0.7-0.8,1-1.6,1-2.6C337.2,280.2,336.8,279.2,335.9,278.3
				 M332.5,283.6c-0.6,0-1.1-0.2-1.6-0.6c-0.4-0.4-0.6-1-0.6-1.6s0.2-1.1,0.6-1.6c0.4-0.4,1-0.7,1.6-0.7s1.1,0.2,1.6,0.7
				c0.4,0.4,0.7,1,0.7,1.5c0,0.3,0,0.6-0.1,0.9l-0.9-1l-1.6,1.4l0.9,1C332.9,283.6,332.8,283.6,332.5,283.6"/>
			<path class="st28" d="M343.5,281.8c0,1.3-0.4,1.8-1.4,1.8s-1.4-0.6-1.4-1.8v-4.6h-2.4v4.9c0,1.2,0.4,2.2,1.1,2.8
				c0.7,0.6,1.6,1,2.7,1s2-0.3,2.7-1s1.1-1.6,1.1-2.8v-4.9h-2.4C343.5,277.2,343.5,281.8,343.5,281.8z"/>
			<rect x="347.5" y="277.1" class="st28" width="2.4" height="8.5"/>
			<polygon class="st28" points="357,281.5 353.6,277.1 351.5,277.1 351.5,285.7 353.8,285.7 353.8,281.1 357.4,285.7 357.4,285.7 
				359.4,285.7 359.4,277.1 357,277.1 			"/>
			<rect x="361" y="277.1" class="st28" width="2.4" height="8.5"/>
			<polygon class="st28" points="367.4,282.4 371,282.4 371,280.4 367.4,280.4 367.4,279.3 371.2,279.3 371.2,277.1 365,277.1 
				365,285.7 371.2,285.7 371.2,283.5 367.4,283.5 			"/>
			<polygon class="st28" points="375,277.1 372.6,277.1 372.6,285.7 378.2,285.7 378.2,283.5 375,283.5 			"/>
			<path class="st28" d="M384.4,277.2L384.4,277.2h-2.2l-3.5,8.5h2.5l0.4-1.1h3.1l0.4,1.1h2.5L384.4,277.2z M384.1,282.7h-1.8
				l0.9-2.4L384.1,282.7z"/>
			<polygon class="st28" points="311.6,277.1 309.1,277.1 309.1,285.7 314.8,285.7 314.8,283.5 311.6,283.5 			"/>
			<path class="st28" d="M320.9,277.2L320.9,277.2h-2.2l-3.5,8.5h2.5l0.4-1.1h3.3l0.4,1.1h2.6L320.9,277.2z M320.8,282.7H319
				l0.9-2.4L320.8,282.7z"/>
		</g>
	</g>
</g>
<g>
	<g>
		<path class="st18" d="M348.3,133.2c-73.7,0-120.8,54.3-120.8,121.8c0,65.6,43.7,122.2,120.8,122.2c74.7,0,120.8-58.6,120.8-122.2
			C469.1,188.5,421,133.2,348.3,133.2z M433,304.8l-56.3-3.3c-2.7-0.2-6.3,1.5-7.9,3.8L335,351.9c-1.6,2.2-3.5,1.9-4.2-0.8
			l-14.3-56.3c-0.7-2.7-3.4-5.7-5.9-6.6l-53.5-18.7c-2.6-0.9-2.8-2.9-0.5-4.4l47.6-31.3c2.3-1.5,4.2-5,4.2-7.8l0.6-58.3
			c0-2.8,1.8-3.6,3.9-1.9l43.8,37c2.1,1.8,5.9,2.5,8.5,1.7l53.9-17.5c2.6-0.8,3.9,0.6,2.9,3.2l-20.5,54.4c-1,2.6-0.5,6.6,1.1,8.9
			L435,301C436.6,303.2,435.7,305,433,304.8z"/>
		<path class="st18" d="M455.3,105.9c-1.7-0.1-3.9,1-4.9,2.4l-21.1,29.5c-1,1.4-2.2,1.2-2.6-0.5l-9-35.7c-0.4-1.7-2.1-3.6-3.7-4.2
			l-33.5-11.8c-1.6-0.6-1.8-1.8-0.3-2.8L409.9,63c1.4-1,2.6-3.2,2.6-5l0.4-37c0-1.8,1.1-2.3,2.4-1.2l27.4,23.5
			c1.3,1.1,3.7,1.6,5.3,1.1l33.7-11.1c1.6-0.5,2.4,0.4,1.8,2l-12.8,34.5c-0.6,1.7-0.3,4.2,0.7,5.6l20.4,30c1,1.4,0.4,2.5-1.3,2.4
			L455.3,105.9z"/>
	</g>
	<g>
		<polygon class="st19" points="521.7,393.1 537,399.8 522,413.8 508.5,413.8 		"/>
		<path class="st18" d="M98,467.4h28.5v-16.5H98v-11.8h34.7v-17.5H77.8v76.3h57.3v-17.5H98V467.4z M503.1,419.6
			c-24.2,0-39.7,17.8-39.7,40c0,21.6,14.3,40.1,39.7,40.1c24.6,0,39.7-19.3,39.7-40.1C542.8,437.7,527,419.6,503.1,419.6
			 M503.1,480.7c-10.7,0-18.8-8.1-18.8-21.2c0-12.7,7.8-21.2,18.8-21.2c12.2,0,18.7,10.1,18.7,21.2
			C521.8,472.6,514,480.7,503.1,480.7 M284.4,421.6l-18.2,33.3l-18.5-33.3h-19.3l-3.5,76.3h19.4l1.5-44.7l14.9,26.1h11.1l13.4-26.1
			l1.8,44.7h20.5l-3.5-76.3H284.4z M316.2,497.9h20.2v-76.3h-20.2V497.9z M367,421.6h-20.2v76.3h53.7v-17.8H367V421.6z M428.3,421.6
			h-20.2v76.3h53.7v-17.8h-33.5V421.6z M597.8,464.2l-29.3-42.5h-18.4v76.3h20v-43.8l30.4,43.8h17.3v-76.3h-20V464.2z"/>
		<path class="st18" d="M164.4,421.5h-20.2v76.3h53.7v-17.8h-33.5V421.5z"/>
	</g>
</g>
</svg>
