<?xml version="1.0" encoding="utf-8"?>
<!-- Generator: Adobe Illustrator 25.4.2, SVG Export Plug-In . SVG Version: 6.00 Build 0)  -->
<svg version="1.1" id="Capa_1" xmlns="http://www.w3.org/2000/svg" xmlns:xlink="http://www.w3.org/1999/xlink" x="0px" y="0px"
	 viewBox="0 0 696 528" style="enable-background:new 0 0 696 528;" xml:space="preserve">
<style type="text/css">
	.st0{display:none;}
	.st1{display:inline;}
	.st2{clip-path:url(#SVGID_00000086672427194214329550000013274254459061504153_);fill:#000B8C;}
	.st3{clip-path:url(#SVGID_00000009569266062279623770000003199842116967686296_);fill:#000B8C;}
	
		.st4{clip-path:url(#SVGID_00000002343180734397678240000009508632368670886042_);fill-rule:evenodd;clip-rule:evenodd;fill:#000B8C;}
	.st5{clip-path:url(#SVGID_00000013889544905333040940000015424004424913266614_);fill:#000B8C;}
	.st6{clip-path:url(#SVGID_00000081615802456006145400000006793227742624598405_);fill:#000B8C;}
	.st7{fill:#768828;}
	.st8{fill:#008547;}
</style>
<g class="st0">
	<g class="st1">
		<defs>
			<rect id="SVGID_1_" width="696" height="528"/>
		</defs>
		<clipPath id="SVGID_00000046304411685517035490000010325028230392795322_">
			<use xlink:href="#SVGID_1_"  style="overflow:visible;"/>
		</clipPath>
		<path style="clip-path:url(#SVGID_00000046304411685517035490000010325028230392795322_);fill:#000B8C;" d="M355.6,136.7
			c-69.7,0-114.2,51.4-114.2,115.2c0,62.1,41.3,115.5,114.2,115.5c70.7,0,114.2-55.5,114.2-115.5C469.8,189,424.4,136.7,355.6,136.7
			 M435.7,299l-53.3-3.1c-2.6-0.1-5.9,1.5-7.5,3.6l-31.9,44c-1.5,2.1-3.3,1.8-4-0.8l-13.6-53.2c-0.7-2.6-3.2-5.3-5.6-6.2l-50.6-17.7
			c-2.4-0.9-2.7-2.7-0.5-4.1l45-29.6c2.2-1.4,4-4.8,4-7.4l0.6-55.2c0-2.6,1.7-3.4,3.7-1.8l41.4,35c2,1.7,5.6,2.4,8.1,1.6l51-16.5
			c2.4-0.8,3.7,0.6,2.8,3L405.9,242c-0.9,2.5-0.5,6.2,1,8.4l30.8,44.8C439.1,297.5,438.2,299.2,435.7,299"/>
	</g>
	<g class="st1">
		<defs>
			<rect id="SVGID_00000018957658193919950320000010074187748141447558_" width="696" height="528"/>
		</defs>
		<clipPath id="SVGID_00000087394942820522345160000016980823318235607724_">
			<use xlink:href="#SVGID_00000018957658193919950320000010074187748141447558_"  style="overflow:visible;"/>
		</clipPath>
		<path style="clip-path:url(#SVGID_00000087394942820522345160000016980823318235607724_);fill:#000B8C;" d="M456.8,110.9
			c-1.6-0.1-3.7,0.9-4.7,2.3l-20,27.9c-1,1.3-2.1,1.1-2.5-0.5l-8.5-33.8c-0.4-1.6-2-3.4-3.5-3.9l-31.7-11.2
			c-1.5-0.5-1.7-1.7-0.3-2.6l28.2-18.8c1.4-0.9,2.5-3,2.5-4.7l0.4-35c0-1.7,1-2.2,2.3-1.1l25.9,22.2c1.2,1.1,3.5,1.5,5,1l31.9-10.5
			c1.5-0.5,2.3,0.4,1.7,1.9l-12.1,32.6c-0.6,1.6-0.3,4,0.6,5.3l19.3,28.4c0.9,1.4,0.4,2.4-1.2,2.3L456.8,110.9z"/>
	</g>
	<g class="st1">
		<defs>
			<rect id="SVGID_00000015326051196676297950000012938629015832636080_" width="696" height="528"/>
		</defs>
		<clipPath id="SVGID_00000008120771870869779620000016864231050729921965_">
			<use xlink:href="#SVGID_00000015326051196676297950000012938629015832636080_"  style="overflow:visible;"/>
		</clipPath>
		
			<polygon style="clip-path:url(#SVGID_00000008120771870869779620000016864231050729921965_);fill-rule:evenodd;clip-rule:evenodd;fill:#000B8C;" points="
			519.6,382.6 534,388.9 519.9,402.1 507.1,402.1 		"/>
	</g>
	<g class="st1">
		<defs>
			<rect id="SVGID_00000141447102852494821720000012580455113926964898_" width="696" height="528"/>
		</defs>
		<clipPath id="SVGID_00000093154892302443779280000006408978988286802066_">
			<use xlink:href="#SVGID_00000141447102852494821720000012580455113926964898_"  style="overflow:visible;"/>
		</clipPath>
		<path style="clip-path:url(#SVGID_00000093154892302443779280000006408978988286802066_);fill:#000B8C;" d="M118.9,452.8h26.9
			v-15.6h-26.9V426h32.8v-16.6h-52v72.1h54.2V465h-35C118.9,465,118.9,452.8,118.9,452.8z M502,407.5c-22.9,0-37.5,16.9-37.5,37.9
			c0,20.4,13.6,38,37.5,38c23.2,0,37.5-18.2,37.5-38C539.5,424.7,524.6,407.5,502,407.5 M502,465.4c-10.1,0-17.7-7.7-17.7-20
			c0-12,7.4-20,17.7-20c11.5,0,17.7,9.5,17.7,20C519.7,457.7,512.3,465.4,502,465.4 M295.2,409.5L278,441l-17.5-31.5h-18.3
			l-3.4,72.1h18.4l1.4-42.3l14,24.6h10.5l12.7-24.6l1.7,42.3h19.4l-3.4-72.1H295.2z M325.2,481.6h19.1v-72.1h-19.1V481.6z
			 M373.3,409.5h-19.1v72.1H405v-16.9h-31.7L373.3,409.5L373.3,409.5z M431.3,409.5h-19.1v72.1H463v-16.9h-31.7L431.3,409.5
			L431.3,409.5z M591.6,449.7l-27.7-40.2h-17.4v72.1h18.9v-41.4l28.8,41.4h16.3v-72.1h-18.9L591.6,449.7L591.6,449.7z"/>
	</g>
	<g class="st1">
		<defs>
			<rect id="SVGID_00000045616024562176801560000008759651771692906628_" width="696" height="528"/>
		</defs>
		<clipPath id="SVGID_00000091013913130510980970000017528540032698463395_">
			<use xlink:href="#SVGID_00000045616024562176801560000008759651771692906628_"  style="overflow:visible;"/>
		</clipPath>
		<polygon style="clip-path:url(#SVGID_00000091013913130510980970000017528540032698463395_);fill:#000B8C;" points="181.6,409.4 
			162.5,409.4 162.5,481.5 213.3,481.5 213.3,464.7 181.6,464.7 		"/>
	</g>
</g>
<g id="BONOLOTO_x5F_V_x5F_VERDE" class="st0">
	<g class="st1">
		<path class="st7" d="M56.7,413.4c5.8-3.1,9.2-8.9,9.2-16.2c0-6.2-2.2-11.3-6.5-15.3c-4.3-4.1-9.7-6.1-16-6.1H5v82.6h41.5
			c7.4,0,13.3-2.3,18.1-6.9c4.9-4.6,7.3-10.6,7.3-17.7C71.8,423.4,66.3,416.1,56.7,413.4z M38.5,408.3H28.4V395h10.1
			c3.6,0,6.3,2.8,6.3,6.5C44.8,405.6,42.2,408.3,38.5,408.3z M28.4,424.7h13.1c4.6,0,7.8,2.9,7.8,7c0,4.2-3.2,7.3-7.7,7.3H28.4
			V424.7z"/>
		<path class="st7" d="M125.5,374.7c-12.7,0-23.3,4.1-32.2,12.5c-8.8,8.3-13.3,18.5-13.3,30.2s4.5,21.9,13.3,30.2
			c9,8.4,19.5,12.4,32.2,12.4s23.2-4.1,32.2-12.4l0,0c8.9-8.4,13.4-18.6,13.4-30.2c0-11.8-4.5-21.9-13.4-30.2
			C148.7,378.8,138.2,374.7,125.5,374.7z M140.7,432.6c-4.2,4.2-9.3,6.4-15.2,6.4c-6.1,0-11.1-2-15.3-6.2l0,0
			c-4.2-4.2-6.2-9.2-6.2-15.3c0-5.9,2.1-11,6.4-15.2c4.2-4.3,9.3-6.5,15.2-6.5c5.9,0,11,2.2,15.2,6.5c4.3,4.3,6.5,9.4,6.5,15.2
			C147.2,423.2,145,428.3,140.7,432.6z"/>
		<polygon class="st7" points="236.8,418.3 203.6,375.8 182.9,375.8 182.9,458.4 205.4,458.4 205.4,414.2 240.1,458.2 240.3,458.4 
			259.3,458.4 259.3,375.8 236.8,375.8 		"/>
		<path class="st7" d="M316.6,374.7c-12.7,0-23.3,4.1-32.2,12.5c-8.8,8.3-13.3,18.5-13.3,30.2s4.5,21.9,13.3,30.2
			c9,8.4,19.5,12.4,32.2,12.4s23.2-4.1,32.2-12.4l0,0c8.9-8.4,13.4-18.6,13.4-30.2c0-11.8-4.5-21.9-13.4-30.2
			C339.9,378.8,329.3,374.7,316.6,374.7z M331.8,432.6c-4.2,4.2-9.3,6.4-15.2,6.4c-6.1,0-11.1-2-15.3-6.2l0,0
			c-4.2-4.2-6.2-9.2-6.2-15.3c0-5.9,2.1-11,6.4-15.2c4.2-4.3,9.3-6.5,15.2-6.5c5.9,0,11,2.2,15.2,6.5c4.3,4.3,6.5,9.4,6.5,15.2
			C338.3,423.2,336.1,428.3,331.8,432.6z"/>
		<polygon class="st7" points="397.4,375.8 374,375.8 374,458.4 428.4,458.4 428.4,437.1 397.4,437.1 		"/>
		<path class="st7" d="M479,374.7c-12.7,0-23.3,4.1-32.2,12.5c-8.8,8.3-13.3,18.5-13.3,30.2s4.5,21.9,13.3,30.2
			c9,8.4,19.5,12.4,32.2,12.4s23.2-4.1,32.2-12.4l0,0c8.9-8.4,13.4-18.6,13.4-30.2c0-11.8-4.5-21.9-13.4-30.2
			C502.3,378.8,491.7,374.7,479,374.7z M494.2,432.6c-4.2,4.2-9.3,6.4-15.2,6.4c-6.1,0-11.1-2-15.3-6.2l0,0
			c-4.2-4.2-6.2-9.2-6.2-15.3c0-5.9,2.1-11,6.4-15.2c4.2-4.3,9.3-6.5,15.2-6.5c5.9,0,11,2.2,15.2,6.5c4.3,4.3,6.5,9.4,6.5,15.2
			C500.7,423.2,498.5,428.3,494.2,432.6z"/>
		<polygon class="st7" points="528.6,397.1 550.5,397.1 550.5,458.4 573.9,458.4 573.9,397.1 595.4,397.1 595.4,375.8 528.6,375.8 
					"/>
		<path class="st7" d="M677.1,387.2c-8.9-8.4-19.4-12.5-32.2-12.5c-12.7,0-23.3,4.1-32.2,12.5c-8.8,8.3-13.3,18.5-13.3,30.2
			s4.5,21.9,13.3,30.2c9,8.4,19.5,12.4,32.2,12.4s23.2-4.1,32.2-12.4l0,0c8.9-8.4,13.4-18.6,13.4-30.2
			C690.5,405.7,686,395.5,677.1,387.2z M660.1,432.6c-4.2,4.2-9.3,6.4-15.2,6.4c-6.1,0-11.1-2-15.3-6.2l0,0
			c-4.2-4.2-6.2-9.2-6.2-15.3c0-5.9,2.1-11,6.4-15.2c4.2-4.3,9.3-6.5,15.2-6.5s11,2.2,15.2,6.5c4.3,4.3,6.5,9.4,6.5,15.2
			C666.6,423.2,664.4,428.3,660.1,432.6z"/>
	</g>
	<g class="st1">
		<g>
			<g>
				<polygon class="st7" points="470.6,280.6 436.9,280.6 436.9,262.7 452.6,262.7 452.6,52.8 242.8,52.8 242.8,262.7 257.5,262.7 
					257.5,280.6 224.8,280.6 224.8,34.9 470.6,34.9 				"/>
			</g>
		</g>
		<g>
			<g>
				<path class="st7" d="M290.8,183.4c-13.6-13.6-16.6-32.8-3-46.4s33-10.8,46.6,2.8c16.2,16.2,0.3,43.5,7.4,50.6
					c0.2,0.2-0.4,0.9-0.7,0.7C334.1,184,307.7,200.2,290.8,183.4z"/>
				<path class="st7" d="M403.8,183.4c13.6-13.6,16.6-32.8,3-46.4s-33-10.8-46.6,2.8c-16.2,16.2-0.3,43.5-7.4,50.6
					c-0.2,0.2,0.4,0.9,0.7,0.7C360.5,184,387,200.2,403.8,183.4z"/>
				<path class="st7" d="M290.8,206.4c-13.6,13.6-16.6,32.8-3,46.4c13.6,13.6,33,10.8,46.6-2.8c16.2-16.2,0.3-43.5,7.4-50.6
					c0.2-0.2-0.4-0.9-0.7-0.7C334.1,205.9,307.7,189.6,290.8,206.4z"/>
				<path class="st7" d="M403.8,206.4c13.6,13.6,16.6,32.8,3,46.4c-13.6,13.6-33,10.8-46.6-2.8c-16.2-16.2-0.3-43.5-7.4-50.6
					c-0.2-0.2,0.4-0.9,0.7-0.7C360.5,205.9,387,189.6,403.8,206.4z"/>
			</g>
			<path class="st7" d="M335.9,305.2c-1.8,0-3.6-0.6-5.1-1.8c-3.6-2.8-4.2-8-1.4-11.6c8.8-11.2,10.1-24.9,9.7-34.4
				c-0.2-4.6,3.3-8.4,7.9-8.6c4.6-0.1,8.4,3.3,8.6,7.9c0.8,17.6-3.8,33.3-13.2,45.3C340.8,304.1,338.4,305.2,335.9,305.2z"/>
		</g>
	</g>
</g>
<g class="st0">
	<g class="st1">
		<g>
			<polygon class="st7" points="578,476.3 515.2,476.3 515.2,442.8 544.5,442.8 544.5,51.9 153.7,51.9 153.7,442.8 181.1,442.8 
				181.1,476.3 120.2,476.3 120.2,18.5 578,18.5 			"/>
		</g>
	</g>
	<g class="st1">
		<g>
			<path class="st7" d="M243.2,295.2c-25.4-25.4-31-61-5.6-86.5s61.4-20.2,86.8,5.2c30.2,30.2,0.6,81,13.8,94.2
				c0.4,0.4-0.8,1.7-1.2,1.2C323.8,296.2,274.5,326.5,243.2,295.2z"/>
			<path class="st7" d="M453.6,295.2c25.4-25.4,31-61,5.6-86.5s-61.4-20.2-86.8,5.2c-30.2,30.2-0.6,81-13.8,94.2
				c-0.4,0.4,0.8,1.7,1.2,1.2C373,296.2,422.3,326.5,453.6,295.2z"/>
			<path class="st7" d="M243.2,338c-25.4,25.4-31,61-5.6,86.5s61.4,20.2,86.8-5.2c30.2-30.2,0.6-81,13.8-94.2
				c0.4-0.4-0.8-1.7-1.2-1.2C323.8,337,274.5,306.6,243.2,338z"/>
			<path class="st7" d="M453.6,338c25.4,25.4,31,61,5.6,86.5s-61.4,20.2-86.8-5.2c-30.2-30.2-0.6-81-13.8-94.2
				c-0.4-0.4,0.8-1.7,1.2-1.2C373,337,422.3,306.7,453.6,338z"/>
		</g>
		<path class="st7" d="M327.1,522c-3.3,0-6.7-1.1-9.5-3.3c-6.7-5.2-7.9-14.9-2.6-21.6c16.3-20.9,18.8-46.4,18.1-64.1
			c-0.4-8.5,6.2-15.7,14.7-16c8.5-0.1,15.7,6.2,16,14.7c1.4,32.8-7,62-24.5,84.4C336.2,520,331.7,522,327.1,522z"/>
	</g>
</g>
<g>
	<g>
		<g>
			<polygon class="st8" points="581.8,493 516.9,493 516.9,458.4 547.2,458.4 547.2,53.7 142.6,53.7 142.6,458.4 171,458.4 171,493 
				107.9,493 107.9,19.1 581.8,19.1 			"/>
		</g>
	</g>
	<g>
		<path class="st8" d="M490.8,354.6c1-6.9,1.7-14,1.7-21.2c0-7-0.7-13.8-1.6-20.5c-44.3-3.4-92.5-6.6-144.3-6.6
			c-58.9,0-112.4,3.7-147.8,6.6c-0.9,6.7-1.6,13.5-1.6,20.5c0,7.2,0.7,14.3,1.7,21.2c32,2.7,83.3,5.8,147.7,5.8
			C393.7,360.4,443.5,358.4,490.8,354.6z"/>
		<path class="st8" d="M460,425.7c11.3-14.1,20.1-30.2,25.7-47.8c-45.9,3.5-93.7,5.4-139,5.4c-60.6,0-109.8-2.8-142.5-5.3
			c5.6,17.6,14.4,33.8,25.8,47.9c31.5,6.2,71.9,11.6,116.8,11.6C382.9,437.4,420.3,433.5,460,425.7z"/>
		<path class="st8" d="M229.3,241.7c-11.2,14.1-19.9,30.2-25.4,47.8c35.7-2.8,86.8-6.1,142.8-6.1c50,0,96.3,2.9,139.2,6.2
			c-5.5-17.6-14.2-33.7-25.4-47.8c-31.9-6.5-71.8-12.5-113.9-12.5C309.4,229.3,270,233.5,229.3,241.7z"/>
		<path class="st8" d="M346.7,206.4c29.7,0,58.2,2.9,83.7,6.8c-24.1-17.2-53.6-27.4-85.5-27.4c-31.9,0-61.4,10.2-85.6,27.5
			C289.4,208.7,318.6,206.4,346.7,206.4z"/>
		<path class="st8" d="M346.7,460.3c-31.4,0-60.7-2.5-86.5-6.2c24,16.8,53.1,26.8,84.7,26.8c31.6,0,60.8-10,84.7-26.9
			C401.1,458.2,373.7,460.3,346.7,460.3z"/>
	</g>
</g>
</svg>
