<svg xmlns="http://www.w3.org/2000/svg" xml:space="preserve" id="Capa_1" x="0" y="0" style="enable-background:new 0 0 696 528" version="1.1" viewBox="0 0 696 528"><style>.st0{display:none}.st1{display:inline}.st7{fill:#768828}.st8{fill:#008547}.st9{fill:#007ac0}.st10{fill:#cb1517}</style><path d="M589 500h-65.8v-35.2h30.7V53.3H144v411.5h28.8V500h-63.9V18.1H589z" class="st10"/><path d="m348.6 347.8-130.4 75.6 132 76.6 130-75.8-131.6-76.4zm40.2 80.6c-8.7 5.1-19.9 6.5-28.4 6.2-8.5-.3-27.9-1.1-27.9-1.1l25 14.5-17.3 10.1-54.2-31.5 12.1-7s54.5 1.2 59.6 1.4c5.1.2 9.8-.5 12.3-2 3.4-2 5.2-5.7 0-8.7-8.1-4.7-17.8.5-17.8.5l-17.4-10.1c14.4-8.4 37.8-8.2 51.6-.2 16.9 10 11.1 22.8 2.4 27.9zM340.7 178l-132.3 76.7.4 154.5 131.9-76.5V178zm-72.1 160.8-.2-63.2-10.8 6.2-.1-20.2 30.3-17.6v20.1l.2 63.2-19.4 11.5zM489.5 254.5 357.6 178v155.4l131.9 76.4V254.5zm-49.9 89.9-13.8-30.9-13.9 14.9-22.6-13.1 24.8-27.9-24.6-55.2 24.2 14 12.2 28 12.3-13.8 24.2 14-24.8 26.6 24.6 56.6-22.6-13.2z" class="st10"/></svg>