<svg xmlns="http://www.w3.org/2000/svg" xml:space="preserve" id="Capa_1" x="0" y="0" style="enable-background:new 0 0 696 528" version="1.1" viewBox="0 0 696 528"><style>.st0{display:none}.st1{display:inline}.st7{fill:#768828}.st8{fill:#008547}.st9{fill:#dc3f47}</style><path d="M390.2 199.8c5.5-6.9 15.5-14.5 24.2-17.9v.9c-1.2 6-2.4 11.9-3.6 17.9 4.2-3.3 8.4-6.6 12.5-9.9h.9c-5.6 38.4 10.6 52.4 21.5 77 5.1 14 11.8 31.2 16.9 45.3 3.9 6 5.3 11.3 9.5 21.2 11.3 26.3-8 41-32.8 33.4-4.4-5.8-8.3-9.6-9.9-18.8-25.4-3.7-37-24-51.8-38.1-43 16.7-11.3 63.8-3.4 103.2 5.8 42.4-7.2 64.5-30.8 81-108.1-113.9-115.3-121.7-115.3-124.1.6-21.8 3-44.6 9.9-65.4 19.5-57.7 68.3-84.6 143.3-94 1.1-2.4 7.7-9.3 8.9-11.7" style="fill-rule:evenodd;clip-rule:evenodd;fill:#ed691f"/><path d="M584.3 494.4h-65.4v-34.9h30.5V51.9H141.8v407.6h28.7v34.9h-63.6V17h477.4z" style="fill:#ed691f"/></svg>