<svg xmlns="http://www.w3.org/2000/svg" viewBox="0 0 47.94 31.39"><defs><style>.eef6696f-65ec-4f3a-b3c0-0925515c7e20{isolation:isolate;}.b7eddfda-c2d7-4308-9d74-48bdd32f46ea{fill:#fff;}.ab25b3a9-9a57-4dad-aa14-195d2fe94d3d{fill:#6f2277;}.f7edcc63-6dab-4e49-960e-8bae0e46b873{fill:#945a98;}.a441c296-8bd2-490e-8061-c9f8c3ef94c9{fill:#a979ac;}.be835062-5f56-461b-912b-e78f4fd66e81{fill:#bf99c0;}.b5edec80-b33e-4a0d-b95f-21a255c8a177{fill:#d4bad4;}.b23fa87f-ccc8-46ed-883f-137797ec5443{fill:#e9dce9;}.bb11b1aa-77d1-481f-a960-c955556003ad{mix-blend-mode:multiply;}.a21381ff-1f72-43a9-a5bb-059e49033c40{fill:#fd0;}.ac346983-7e40-497a-83f8-7e164be61466{fill:#a16da4;}.ad2e00b1-8794-4810-a2bd-d09249824448{fill:#1a171b;}</style></defs><title>Logo Gana Gato</title><g class="eef6696f-65ec-4f3a-b3c0-0925515c7e20"><g id="f949dc79-efdd-41a0-a9a4-b328564a6c60" data-name="Capa 1"><path class="b7eddfda-c2d7-4308-9d74-48bdd32f46ea" d="M49.33,44.73l-.77,1.2-.64,1h0a3.3,3.3,0,1,1-5,1.7l-.6.28a11.24,11.24,0,0,0-4.12,3.35l-2-.17L34.7,52l.77,1.18,1.38,2.13a3.94,3.94,0,0,0,.35,2.28l.12.22.08.13,0,0a13.91,13.91,0,0,1,2.23-1.32,11.19,11.19,0,0,1,3.58-1.07s.62.24.13.3a13,13,0,0,0-5.8,2.28l0,0,.12.15,0,0,.13.14.05.05.2.18.11.1a13.28,13.28,0,0,1,2.48-1.63,11,11,0,0,1,3.46-1.13s.64.23.16.3A12.54,12.54,0,0,0,38.42,59l0,0,.12.08.1.06.12.08.14.08.18.09.09,0a13.42,13.42,0,0,1,1.55-1.17A10.52,10.52,0,0,1,44,56.86s.67.16.21.27a12.06,12.06,0,0,0-4.74,2.41l0,0,.13,0,.17.06.16,0,.15,0,.12,0,.22.06.13,0,.17,0,.12,0,.26,0h.09l.22,0h1.13l.34,0h0l.72-.09h0q.38-.06.75-.15h0a12.2,12.2,0,0,0,2.74-1l.12-.06.31-.16.2-.11.25-.15.18-.11.32-.21.18-.12.3-.21.15-.11.24-.19.14-.11.35-.3,0,0,.3-.28.1-.1.24-.25.08-.08c.2-.23.4-.47.58-.7l0-.06a4,4,0,0,0,.23-.34l0,0a8.46,8.46,0,0,0,.44-.77v0a6.39,6.39,0,0,0,.46-1.18h0a12.15,12.15,0,0,0-4.79,2.31c-.37.3-.1-.33-.1-.33a11,11,0,0,1,3.09-1.72,13.12,13.12,0,0,1,1.87-.53,4.4,4.4,0,0,0,.1-.88A12.52,12.52,0,0,0,47,55.07c-.34.33-.14-.31-.14-.31a11.11,11.11,0,0,1,3-2.07,14.18,14.18,0,0,1,2.8-1,3.41,3.41,0,0,0-.14-1A12.88,12.88,0,0,0,47.17,54c-.35.35-.17-.29-.17-.29a11.49,11.49,0,0,1,3-2.2,14.93,14.93,0,0,1,2.4-1c0-.14-.11-.27-.17-.41a4,4,0,0,0-1.61-1.66L50,46.66Zm-6.89,9.41c-.29.07-.64-.54-.78-1.38s0-1.57.28-1.64.63.54.77,1.38S42.73,54.06,42.44,54.14Zm3.92-.47c.22.46-.21,1.14-1,1.52s-1.55.3-1.78-.16.2-1.14,1-1.51S46.13,53.21,46.36,53.67Zm-1.48-2.25c.58.62,1.24,1,1.48.78s0-.83-.63-1.45-1.23-1-1.47-.78S44.31,50.81,44.88,51.42Z" transform="translate(-31.29 -40.79)"/><path class="ab25b3a9-9a57-4dad-aa14-195d2fe94d3d" d="M42.71,52.5c-.14-.84-.48-1.45-.77-1.38s-.41.81-.28,1.64.49,1.45.78,1.38S42.85,53.33,42.71,52.5Zm1.86,1c-.76.37-1.19,1-1,1.51s1,.53,1.78.16,1.19-1.06,1-1.52S45.33,53.14,44.57,53.52Zm14.29-1.79a13,13,0,0,0-4-.36,5.47,5.47,0,0,0-.11-1.15,16.38,16.38,0,0,1,4.84,0A14.55,14.55,0,0,0,54.72,50a4.72,4.72,0,0,0-.35-1,5.18,5.18,0,0,0-2.48-2.36l-2.11-5.92L46.42,46a15.86,15.86,0,0,0-8.93,4.42L31.29,50l3.43,5.26a5.13,5.13,0,0,0,.37,3.4,4.38,4.38,0,0,0,.54.85,14.4,14.4,0,0,0-2.82,4,16.57,16.57,0,0,1,2.95-3.83,4.93,4.93,0,0,0,.86.78,12.83,12.83,0,0,0-2.14,3.39,15.71,15.71,0,0,1,2.29-3.28,5.51,5.51,0,0,0,.89.5,11.79,11.79,0,0,0-2.16,4,14.38,14.38,0,0,1,2.36-3.95c2.61,1.11,6.39.86,10-.93s6.11-4.64,6.81-7.39a14.59,14.59,0,0,1,4.57.52,12,12,0,0,0-4.52-.73,5.84,5.84,0,0,0,.14-1A15.53,15.53,0,0,1,58.86,51.73Zm-13.13-1c.58.62.86,1.26.63,1.45s-.9-.16-1.48-.78S44,50.16,44.26,50,45.15,50.14,45.73,50.75Zm6.53-.64c.06.14.12.27.17.41a14.93,14.93,0,0,0-2.4,1,11.49,11.49,0,0,0-3,2.2s-.18.64.17.29a12.88,12.88,0,0,1,5.33-3.23,3.41,3.41,0,0,1,.14,1,14.18,14.18,0,0,0-2.8,1,11.11,11.11,0,0,0-3,2.07s-.2.64.14.31a12.52,12.52,0,0,1,5.65-3.13,4.4,4.4,0,0,1-.1.88,13.12,13.12,0,0,0-1.87.53,11,11,0,0,0-3.09,1.72s-.27.63.1.33a12.15,12.15,0,0,1,4.79-2.31,9.76,9.76,0,0,1-5.3,5.69,9.78,9.78,0,0,1-7.73.76,12.06,12.06,0,0,1,4.74-2.41c.46-.11-.2-.28-.21-.27a10.52,10.52,0,0,0-3.23,1.4,13.48,13.48,0,0,0-1.56,1.17,4.75,4.75,0,0,1-.76-.45,12.54,12.54,0,0,1,5.91-2.6c.48-.07-.16-.3-.16-.3a11,11,0,0,0-3.46,1.13,13.28,13.28,0,0,0-2.48,1.63,3.69,3.69,0,0,1-.67-.7,13,13,0,0,1,5.8-2.28c.49-.06-.13-.31-.13-.3a11.19,11.19,0,0,0-3.58,1.07A13.91,13.91,0,0,0,37.42,58a3.72,3.72,0,0,1-.22-.38,4,4,0,0,1-.35-2.29l-1.38-2.13L34.7,52l1.41.11,2,.17a11.24,11.24,0,0,1,4.12-3.35l.6-.28a3.26,3.26,0,0,0,.19,2.46A3.3,3.3,0,1,0,49,48.16a3.14,3.14,0,0,0-1.06-1.24l.64-1,.77-1.2L50,46.66l.63,1.79A4,4,0,0,1,52.26,50.11Z" transform="translate(-31.29 -40.79)"/><path class="b7eddfda-c2d7-4308-9d74-48bdd32f46ea" d="M78.48,55.34c2.67,6-2,13.06-10.43,15.78s-17.43,0-20.1-6,2-13.07,10.42-15.78S75.8,49.34,78.48,55.34Z" transform="translate(-31.29 -40.79)"/><path class="f7edcc63-6dab-4e49-960e-8bae0e46b873" d="M77.61,55.62c2.52,5.66-1.88,12.32-9.83,14.88s-16.44,0-19-5.61S50.7,52.57,58.65,50,75.09,50,77.61,55.62Z" transform="translate(-31.29 -40.79)"/><path class="a441c296-8bd2-490e-8061-c9f8c3ef94c9" d="M75.65,57.73c2.1,4.71-1.57,10.26-8.18,12.39s-13.69,0-15.78-4.67,1.56-10.26,8.18-12.39S73.55,53,75.65,57.73Z" transform="translate(-31.29 -40.79)"/><path class="be835062-5f56-461b-912b-e78f4fd66e81" d="M73.81,59.68c1.69,3.8-1.26,8.27-6.6,10s-11,0-12.72-3.77,1.26-8.27,6.59-10S72.12,55.88,73.81,59.68Z" transform="translate(-31.29 -40.79)"/><path class="b5edec80-b33e-4a0d-b95f-21a255c8a177" d="M71.93,61.68c1.29,2.89-1,6.29-5,7.59s-8.39,0-9.67-2.86,1-6.28,5-7.59S70.65,58.79,71.93,61.68Z" transform="translate(-31.29 -40.79)"/><path class="b23fa87f-ccc8-46ed-883f-137797ec5443" d="M70,63.77c.86,1.94-.64,4.22-3.37,5.1S61,68.88,60.09,67s.65-4.22,3.37-5.1S69.09,61.83,70,63.77Z" transform="translate(-31.29 -40.79)"/><g class="bb11b1aa-77d1-481f-a960-c955556003ad"><path class="ab25b3a9-9a57-4dad-aa14-195d2fe94d3d" d="M56.14,71.24l.08-.2-.07.09A.21.21,0,0,0,56.14,71.24Zm.17-.42v0l0,.07Zm.1-.32a1.34,1.34,0,0,0-.07.18A1.71,1.71,0,0,0,56.41,70.5Zm-.1.29h0l0-.11-.06.09S56.32,70.75,56.31,70.79ZM53.19,58.48l.24,0-.13,0A.18.18,0,0,0,53.19,58.48Zm.5,0h0l-.08,0Zm.37,0-.21,0A.82.82,0,0,0,54.06,58.39Zm-.33,0h0l.12,0h-.12S53.77,58.42,53.73,58.43Zm0,0-.09,0Zm.05-.3s0,.07.13,0a3.51,3.51,0,0,1,.53-.1c.08,0,.23.05.31,0s.67-.19.38-.16c-.44,0-.73.09-1.12.14l-.95.18-.27,0h.37A4.88,4.88,0,0,0,53.78,58.1Zm-2.37.47.12,0a1.26,1.26,0,0,0,.58,0l-.09,0c-.11,0-.12,0,0,0a2.49,2.49,0,0,0-.67,0S51.35,58.57,51.41,58.57Zm-.08,0h0l-.12,0h0ZM73,56.41h0Zm2.06.14c-.58-.25-1-.06-2.06-.14.62.05-.61.23-1.33.09a16.68,16.68,0,0,0-3.61.16,18.36,18.36,0,0,1,.79-2.08,19.48,19.48,0,0,0,.69-2.17c.1-.79-.36-.54-.39-.51-.42.33-.38.74-.8,1.56.24-.46,0,.61-.37,1.11a6.61,6.61,0,0,0-.81,2.15l-.33,0c-1.72,0-3.31.28-5.06.43a16.56,16.56,0,0,1,.73-1.54,22.33,22.33,0,0,0,.85-2.18c.15-.79-.33-.56-.36-.54-.45.32-.44.74-.92,1.55.28-.46,0,.62-.45,1.11a5.15,5.15,0,0,0-.8,1.68c-.48,0-.91.15-1.32.22s-.7,0-1,.06c-.43,0-.8.1-1.15.16l1.12-.14c.3,0-.18.12-.37.16s-.23-.06-.31,0a5.17,5.17,0,0,0-.54.11c-.08,0-.08-.06-.12,0-.26,0-.45.16-.63.16h-.58l-.14,0c-.34.08-.74.16-1.11.22h0a2.5,2.5,0,0,1,.67,0c-.1,0-.1,0,0,0l.09,0a1.41,1.41,0,0,1-.58,0l-.12,0a.09.09,0,0,1-.08-.06l-.13,0a3.46,3.46,0,0,0,.39.06l1.59-.12a.21.21,0,0,1,.12,0l.12,0h.31s0,0,0,0L57,58l.08,0h.13l-.1,0H57l.51,0,.1,0A.75.75,0,0,1,58,58h.11l.38,0,.77,0,1.33-.08q-.14.4-.3.78c-.12.25-.22.54-.34.85-.55,1.22-1,2.43-1.4,3.69-.35,0-.72,0-1,.06-.45,0-.82.1-1.18.16l1.15-.14c.3,0-.19.12-.39.16s-.23,0-.31,0a5.35,5.35,0,0,0-.55.11c-.09,0-.09-.06-.13-.05a5.37,5.37,0,0,1-.64.16h-.6l-.15,0-1.14.22h0a2.64,2.64,0,0,1,.69,0c-.11,0-.1,0,0,0l.1,0a1.31,1.31,0,0,1-.59,0l-.13,0c-.06,0-.06,0-.08-.05h-.14a2.64,2.64,0,0,0,.41.07l1.63-.13a.17.17,0,0,1,.12,0l.13,0,.23,0h.08s0,0,0,0l-.08,0,.08,0,.13,0,.09,0-.07,0H56l.53,0,.11,0a.75.75,0,0,1,.33,0h.11l.4,0,.79-.05h.06c-.09.24-.18.48-.28.73-.17.46-.25.89-.36,1.3s-.24.57-.33.8-.22.68-.3,1c.11-.34.18-.59.31-1s0,.21,0,.39-.13.15-.14.22a3.51,3.51,0,0,0-.12.49c0,.07-.08,0-.09.07a4.54,4.54,0,0,1-.1.58c-.06.1-.1.19-.15.28l-.08.18,0,.13c-.07.32-.15.67-.24,1h0a1.86,1.86,0,0,1,.26-.53c-.05.07-.07,0,0,0l.07-.06a1,1,0,0,1-.2.48v.12a.08.08,0,0,1-.08,0l0,.11a2,2,0,0,0,.21-.28c.18-.46.34-.9.51-1.32,0,0,0-.07,0-.11a.47.47,0,0,0,.06-.09l.08-.18,0-.07h0s0,0,0,0l-.06,0,.06,0,.06-.09,0-.08,0,.07h0l0,.09h0v0l.18-.42a.29.29,0,0,1,0-.09.53.53,0,0,1,.12-.26l0-.07h0l0,0,.13-.32c.09-.2.17-.41.26-.63.36-.85.68-1.67,1-2.52,1.42-.09,2.79-.2,4.3-.29l1.73-.08,0,.12a12.46,12.46,0,0,0-.27,1.29c-.07.29-.2.57-.27.8a9.38,9.38,0,0,0-.24,1c.09-.33.14-.58.25-1s0,.21,0,.38-.13.16-.13.23a2.53,2.53,0,0,0-.08.48c0,.08-.08,0-.08.08a5.2,5.2,0,0,1-.07.57c-.05.1-.09.19-.13.29l-.06.18,0,.12c0,.31-.1.67-.16,1h0a1.86,1.86,0,0,1,.22-.53c0,.08-.06.06,0,0l.07-.06a1.05,1.05,0,0,1-.16.48v.12s0,0-.08,0l0,.11a2,2,0,0,0,.18-.28q.21-.69.42-1.32s0-.07,0-.11l.06-.09.06-.18V66.9h0s0,0,0,0l0,.06,0-.06a.19.19,0,0,0,0-.09s0-.05,0-.08,0,0,0,.07h0v.09h0v.05l.14-.42a.29.29,0,0,0,0-.09.47.47,0,0,1,.1-.26l0-.07h0v0l.11-.31c.07-.21.14-.42.22-.63.22-.64.42-1.26.62-1.88h.41c1.83-.05,3.46-.3,5.32-.24.72,0,2-.13,2.69-.19.88-.21.35-.53.3-.54-.59-.25-1-.07-2.08-.14.57,0-.67.23-1.4.09a21,21,0,0,0-3.89.17c-.33,0-.68,0-1.07.08h0c.15-.47.31-.94.47-1.43.27-.78.53-1.52.8-2.24.17-.44.32-.88.46-1.32,1.46-.08,2.82-.25,4.35-.2.7,0,2-.13,2.62-.19C75.57,56.88,75.05,56.57,75,56.55ZM58.94,57.92a.94.94,0,0,1,.41,0A.71.71,0,0,1,58.94,57.92Zm-1,8.46a.81.81,0,0,1,.16-.32A.54.54,0,0,1,57.89,66.38Zm.46-2.71a.75.75,0,0,1-.37,0,1.21,1.21,0,0,1,.38,0ZM65,65.33a.83.83,0,0,1,.14-.32A.46.46,0,0,1,65,65.33Zm1.82-7.68c-.1.26-.18.55-.28.86-.5,1.32-.82,2.62-1.22,4-1.76.09-3.43.33-5.3.46-.26,0-.51.06-.74.1.12-.32.26-.65.39-1,.32-.77.64-1.51,1-2.23s.57-1.36.83-2l2.71-.19c.93-.05,1.82-.09,2.7-.11C66.86,57.56,66.85,57.61,66.83,57.65ZM63.75,69.76v0l0,.06Zm.07-.32a1.21,1.21,0,0,0,0,.18A.78.78,0,0,0,63.82,69.44Zm-.07.29h0l0-.11-.05.09S63.75,69.69,63.75,69.73Zm0,0,0,.05Zm-11.66-5.5h.25l-.13,0A.17.17,0,0,0,52.06,64.21Zm.52,0h0Zm.39-.06a1.46,1.46,0,0,0-.22,0Zm-.35,0h0l.13,0-.13,0S52.66,64.15,52.62,64.17Zm0,0-.08,0Zm1.05-.33c.2,0,.69-.19.39-.16l-1.15.14-1,.19H52a5.37,5.37,0,0,0,.64-.16s0,.07.13.05a5.35,5.35,0,0,1,.55-.11C53.44,63.75,53.59,63.83,53.67,63.8ZM50,64.27h.13Zm22.39-2.14h0Z" transform="translate(-31.29 -40.79)"/></g><path class="a21381ff-1f72-43a9-a5bb-059e49033c40" d="M55.93,71l.08-.2a.35.35,0,0,1-.06.09S55.93,71,55.93,71Zm.17-.41v0l0,.07Zm.1-.33a1.34,1.34,0,0,0-.07.18A.61.61,0,0,0,56.2,70.29Zm-.09.29h0l0-.11a.15.15,0,0,1-.06.09S56.11,70.54,56.11,70.58ZM53,58.27l.24,0a.25.25,0,0,1-.12,0A.21.21,0,0,0,53,58.27Zm.51,0h0Zm.37-.06a1.46,1.46,0,0,0-.22,0Zm-.34,0h0l.12,0-.12,0S53.56,58.21,53.52,58.23Zm0,0-.08,0Zm.06-.3s0,.07.12,0,.35-.09.53-.11.23.06.31,0,.67-.19.38-.16l-1.12.14-.95.19H53C53.13,58.06,53.31,57.93,53.58,57.89Zm-2.37.48.12,0a1.43,1.43,0,0,0,.58,0l-.1,0c-.11,0-.12,0,0,.05a3.09,3.09,0,0,0-.68,0S51.14,58.36,51.21,58.37Zm-.09-.06h0l-.13,0h0Zm21.63-2.1h0Zm2,.13c-.58-.25-1-.06-2-.13.61,0-.62.23-1.34.09a16.61,16.61,0,0,0-3.6.16,16.19,16.19,0,0,1,.79-2.09,21.64,21.64,0,0,0,.69-2.16c.09-.79-.37-.54-.4-.51-.42.33-.38.74-.8,1.55.25-.46,0,.61-.36,1.11a6.47,6.47,0,0,0-.81,2.15l-.33,0c-1.73.05-3.32.27-5.06.42a15.2,15.2,0,0,1,.72-1.54,20.72,20.72,0,0,0,.85-2.17c.15-.8-.33-.57-.36-.54-.45.32-.44.73-.92,1.55.28-.46,0,.61-.44,1.1A5.26,5.26,0,0,0,60.57,57c-.48.06-.9.16-1.31.23s-.7,0-1,0a10.66,10.66,0,0,0-1.14.17l1.12-.15c.29,0-.19.13-.38.17s-.23-.06-.31,0-.34.07-.53.11-.09-.06-.13,0a4.88,4.88,0,0,1-.62.15h-.37l-.22,0-.14,0c-.34.08-.74.15-1.11.22h0a2.5,2.5,0,0,1,.67,0c-.1,0-.09,0,0-.05l.09,0a1.26,1.26,0,0,1-.58,0l-.12,0c-.06,0-.06,0-.08,0h-.13a2.39,2.39,0,0,0,.4.07l1.59-.13a.13.13,0,0,1,.11,0l.13,0,.22,0h.08s0,0,0,0l-.08,0,.08,0H57l-.1,0h-.06l.51,0,.11,0a.58.58,0,0,1,.32,0h.11l.39,0,.76,0,1.34-.08c-.1.26-.2.53-.31.77s-.21.54-.34.86c-.55,1.22-.94,2.42-1.4,3.69-.34,0-.72,0-1,0a11.51,11.51,0,0,0-1.18.17l1.15-.15c.31,0-.19.13-.38.17s-.24-.06-.32,0a3.76,3.76,0,0,0-.55.1c-.08,0-.09-.06-.13,0a5.06,5.06,0,0,1-.64.15h-.6l-.15,0c-.35.08-.75.16-1.14.22h0a2.65,2.65,0,0,1,.69,0c-.1,0-.1,0,0,0l.1,0a1.52,1.52,0,0,1-.6,0l-.12,0c-.07,0-.07,0-.09-.05l-.13,0a3.64,3.64,0,0,0,.41.06l1.63-.12a.21.21,0,0,1,.12,0l.13,0h.23l.08,0h0s0,0,0,0l-.09,0,.09,0H56l-.1,0h-.06l.52,0h.11a.66.66,0,0,1,.34,0h.1l.4,0,.79,0h.07l-.28.73a11.78,11.78,0,0,0-.36,1.3c-.09.29-.25.57-.33.8a8,8,0,0,0-.31,1l.31-1c.09-.25,0,.22,0,.39S57,66.88,57,67a3.38,3.38,0,0,0-.11.48c0,.08-.09,0-.09.07-.07.23,0,.45-.11.58s-.1.2-.15.29-.05.11-.07.18l0,.13c-.06.31-.15.67-.23,1h0a1.92,1.92,0,0,1,.26-.54c-.05.08-.07.06,0,0l.06,0a1.09,1.09,0,0,1-.19.47s0,.08,0,.12-.05,0-.08,0l0,.11a2,2,0,0,0,.21-.28c.17-.47.34-.9.51-1.32a.25.25,0,0,1,0-.12A.27.27,0,0,0,57,68l.07-.19,0-.07h0s0,0,0,0l-.05.06.05-.06a.35.35,0,0,0,.06-.09.19.19,0,0,0,0-.07v.06h0l0,.09h0v.06l.17-.42,0-.09c0-.11.05-.22.12-.27l0-.07h0l0,0,.13-.32.27-.63c.36-.86.68-1.68,1-2.53,1.43-.08,2.8-.2,4.31-.28l1.72-.09a.65.65,0,0,1,0,.13c-.13.46-.18.89-.26,1.29s-.21.57-.28.8a9.2,9.2,0,0,0-.23,1c.09-.34.14-.59.24-1s0,.21,0,.38-.12.15-.13.23,0,.3-.08.47-.08,0-.08.08c-.05.23,0,.44-.07.57s-.08.2-.12.29a1.34,1.34,0,0,0-.07.18v.13c-.05.31-.11.66-.17,1h0a1.92,1.92,0,0,1,.22-.54c0,.08-.07.06,0,0l.06-.06a1.05,1.05,0,0,1-.16.47.68.68,0,0,1,0,.12c0,.05,0,0-.07,0l0,.11a2.31,2.31,0,0,0,.19-.28c.14-.47.28-.9.41-1.33a.18.18,0,0,1,0-.1l.06-.09.06-.19,0-.07h0s0,0,0,0l0,0,0,0,.06-.09a.19.19,0,0,1,0-.08s0,0,0,.06v0l0,.08h0v.06l.15-.42a.2.2,0,0,1,0-.09c0-.11,0-.22.1-.26l0-.08h0l0,0,.1-.32c.08-.21.15-.42.22-.63.22-.63.43-1.25.62-1.87L66,63c1.83-.05,3.46-.29,5.33-.23.71,0,2-.13,2.68-.2.89-.21.36-.52.31-.54-.59-.25-1-.06-2.09-.13.58,0-.67.23-1.4.09a20.18,20.18,0,0,0-3.89.17c-.33,0-.67.05-1.06.07h0c.15-.46.3-.94.47-1.43.26-.77.53-1.51.8-2.23.17-.45.31-.89.45-1.33,1.46-.08,2.83-.24,4.36-.19.69,0,1.95-.13,2.61-.19C75.37,56.68,74.85,56.36,74.8,56.34ZM58.73,57.71a1.14,1.14,0,0,1,.41,0A.71.71,0,0,1,58.73,57.71Zm-1,8.46a.9.9,0,0,1,.17-.32A.5.5,0,0,1,57.68,66.17Zm.46-2.71a.76.76,0,0,1-.37,0,1.21,1.21,0,0,1,.38,0Zm6.66,1.67a.67.67,0,0,1,.15-.32A.53.53,0,0,1,64.8,65.13Zm1.82-7.68c-.1.26-.17.54-.27.86-.5,1.31-.82,2.61-1.23,4-1.76.1-3.42.34-5.3.47-.26,0-.5.06-.74.1l.4-1c.32-.77.63-1.51,1-2.23s.56-1.35.83-2l2.7-.19,2.7-.12A.78.78,0,0,1,66.62,57.45Zm-3.08,12.1v0Zm.08-.32a1.27,1.27,0,0,0-.06.18A.63.63,0,0,0,63.62,69.23Zm-.08.29h0l0-.11a.19.19,0,0,1-.05.09S63.54,69.48,63.54,69.52Zm0,0,0,.06ZM51.86,64l.25,0L52,64A.21.21,0,0,0,51.86,64Zm.52,0h0l-.08,0Zm.38,0-.22,0A.86.86,0,0,0,52.76,63.92Zm-.34,0h0l.12,0h-.12S52.46,64,52.42,64Zm0,0-.09,0Zm1-.33c.19,0,.69-.2.39-.17l-1.16.15-1,.18-.27,0h.37a5.06,5.06,0,0,0,.64-.15s.05.07.13,0a3.76,3.76,0,0,1,.55-.1C53.23,63.54,53.38,63.62,53.47,63.6Zm-3.66.47h0l.13,0h0ZM72.2,61.93h0Z" transform="translate(-31.29 -40.79)"/><path class="a21381ff-1f72-43a9-a5bb-059e49033c40" d="M58.56,54.36a1.84,1.84,0,0,0-1.82,1.26c-.14.69.45,1.26,1.32,1.26a1.84,1.84,0,0,0,1.82-1.26C60,54.92,59.43,54.36,58.56,54.36Zm-1.33.1a.58.58,0,0,0-.72-.54.84.84,0,0,0-.75.72.57.57,0,0,0,.71.54A.84.84,0,0,0,57.23,54.46Zm.22-.25a.86.86,0,0,0,1-.22.56.56,0,0,0-.08-.88.88.88,0,0,0-1,.23A.54.54,0,0,0,57.45,54.21Zm2.21,0a.75.75,0,0,0,.58-.82.62.62,0,0,0-.85-.37.77.77,0,0,0-.59.82A.63.63,0,0,0,59.66,54.26Zm1.28-.3a.89.89,0,0,0-1,.4.53.53,0,0,0,.29.81.91.91,0,0,0,1-.41A.52.52,0,0,0,60.94,54Z" transform="translate(-31.29 -40.79)"/><path class="a21381ff-1f72-43a9-a5bb-059e49033c40" d="M72.27,53.1a1.91,1.91,0,0,0-1.9,1.32c-.15.72.47,1.31,1.37,1.31a1.93,1.93,0,0,0,1.9-1.31C73.78,53.69,73.17,53.1,72.27,53.1Zm-1.4.11c0-.36-.32-.61-.74-.56a.86.86,0,0,0-.78.75.6.6,0,0,0,.74.56A.86.86,0,0,0,70.87,53.21ZM71.1,53a.91.91,0,0,0,1.08-.23.58.58,0,0,0-.09-.91A.89.89,0,0,0,71,52,.57.57,0,0,0,71.1,53Zm2.31.06a.81.81,0,0,0,.61-.86.67.67,0,0,0-.89-.39.79.79,0,0,0-.61.86A.66.66,0,0,0,73.41,53Zm1.33-.32a.92.92,0,0,0-1,.42A.55.55,0,0,0,74,54a1,1,0,0,0,1-.42A.55.55,0,0,0,74.74,52.69Z" transform="translate(-31.29 -40.79)"/><path class="a21381ff-1f72-43a9-a5bb-059e49033c40" d="M69.34,65.08a2.67,2.67,0,0,0-2.66,1.84c-.2,1,.66,1.84,1.92,1.84a2.67,2.67,0,0,0,2.66-1.84C71.47,65.9,70.61,65.08,69.34,65.08Zm-2,.15a.84.84,0,0,0-1-.79,1.23,1.23,0,0,0-1.1,1.06.83.83,0,0,0,1,.78A1.22,1.22,0,0,0,67.39,65.23Zm.32-.36a1.25,1.25,0,0,0,1.5-.33.8.8,0,0,0-.11-1.28,1.27,1.27,0,0,0-1.51.33A.81.81,0,0,0,67.71,64.87Zm3.23.07a1.12,1.12,0,0,0,.86-1.19.92.92,0,0,0-1.25-.55,1.13,1.13,0,0,0-.86,1.2A.92.92,0,0,0,70.94,64.94Zm1.87-.44a1.3,1.3,0,0,0-1.45.58.77.77,0,0,0,.43,1.18,1.31,1.31,0,0,0,1.45-.59A.76.76,0,0,0,72.81,64.5Z" transform="translate(-31.29 -40.79)"/><path class="ac346983-7e40-497a-83f8-7e164be61466" d="M65.86,56.86a1.39,1.39,0,0,0-.81-.51l0,0a.42.42,0,0,0,0-.16A.33.33,0,0,0,65,56a.37.37,0,0,0-.31-.17h-.78a.32.32,0,0,0-.3.2l-.1.29a3.31,3.31,0,0,0-1.39.46,2.19,2.19,0,0,0-.9,1.15,1.89,1.89,0,0,0-.11.83l0,.14a1.41,1.41,0,0,0,.41.75l.42.32H60.75a.29.29,0,0,0-.29.2l-.1.28a2.35,2.35,0,0,0-.17,1,1.1,1.1,0,0,0,.31.65,1.74,1.74,0,0,0,.79.46l0,.15a.39.39,0,0,0,0,.15.46.46,0,0,0,.08.19.43.43,0,0,0,.32.17h.78a.3.3,0,0,0,.29-.2s.07-.22.13-.37a3.36,3.36,0,0,0,1.45-.56,2.78,2.78,0,0,0,1-1.33,2.17,2.17,0,0,0,.14-.92v0a1.22,1.22,0,0,0-.34-.71,3.78,3.78,0,0,0-.62-.46h1.16a.27.27,0,0,0,.28-.18l.12-.29a1.6,1.6,0,0,0,.11-.78A1.06,1.06,0,0,0,65.86,56.86Z" transform="translate(-31.29 -40.79)"/><path class="a21381ff-1f72-43a9-a5bb-059e49033c40" d="M65.71,56.72a1.52,1.52,0,0,0-.82-.52l0,0a.26.26,0,0,0,0-.15.34.34,0,0,0-.07-.19.42.42,0,0,0-.32-.16h-.78a.29.29,0,0,0-.29.2l-.1.28a3.26,3.26,0,0,0-1.39.47,2.23,2.23,0,0,0-.91,1.14,1.76,1.76,0,0,0-.1.83.77.77,0,0,0,0,.15,1.33,1.33,0,0,0,.42.74,3.16,3.16,0,0,0,.42.32H60.59a.3.3,0,0,0-.29.2l-.1.28A2.42,2.42,0,0,0,60,61.33a1.05,1.05,0,0,0,.3.65,1.92,1.92,0,0,0,.8.46,1.41,1.41,0,0,0-.06.15.42.42,0,0,0,.06.34.42.42,0,0,0,.32.16h.78a.29.29,0,0,0,.29-.2s.08-.21.13-.37A3.24,3.24,0,0,0,64.11,62a2.74,2.74,0,0,0,1-1.33,2,2,0,0,0,.14-.91v0a1.22,1.22,0,0,0-.34-.71,3.37,3.37,0,0,0-.63-.47h1.17a.29.29,0,0,0,.28-.17l.12-.29a1.77,1.77,0,0,0,.11-.79A1.18,1.18,0,0,0,65.71,56.72Z" transform="translate(-31.29 -40.79)"/><path class="ab25b3a9-9a57-4dad-aa14-195d2fe94d3d" d="M65.36,58.15h-1.7l.09-.23a1.33,1.33,0,0,0,.11-.49q0-.12-.21-.12a.35.35,0,0,0-.26.1.74.74,0,0,0-.19.3c-.08.22-.08.38,0,.47a3.73,3.73,0,0,0,.73.52,3.56,3.56,0,0,1,.7.5.87.87,0,0,1,.23.49,1.74,1.74,0,0,1-.12.79,2.5,2.5,0,0,1-.86,1.19,3,3,0,0,1-1.49.53l-.19.54h-.78l.19-.56a1.55,1.55,0,0,1-1-.43c-.25-.26-.27-.7,0-1.33l.1-.28h1.69l-.12.35a3.51,3.51,0,0,0-.2.71c0,.09.07.14.21.14a.4.4,0,0,0,.28-.1.66.66,0,0,0,.19-.28,2.42,2.42,0,0,0,.16-.69c0-.13-.13-.28-.39-.44q-.63-.42-.84-.6a1,1,0,0,1-.29-.54,1.39,1.39,0,0,1,.07-.79,1.92,1.92,0,0,1,.78-1,3.31,3.31,0,0,1,1.46-.45l.15-.45h.78l-.16.45a1.39,1.39,0,0,1,1,.44,1,1,0,0,1,0,1A2.65,2.65,0,0,1,65.36,58.15Z" transform="translate(-31.29 -40.79)"/><path class="ac346983-7e40-497a-83f8-7e164be61466" d="M67.14,64.52a1.46,1.46,0,0,0-.62-.32,3.11,3.11,0,0,0-.69-.07H65.2a7,7,0,0,0-1,.14,7.84,7.84,0,0,0-.93.26,4,4,0,0,0-.8.41,1.82,1.82,0,0,0-.32.29,2.38,2.38,0,0,0-.73-.07h-.05l.38-1a.27.27,0,0,0,0-.12.38.38,0,0,0-.07-.21.33.33,0,0,0-.3-.15h-.53a2.22,2.22,0,0,0-.91.27l-.36.16a2.43,2.43,0,0,0-.37.21.37.37,0,0,0-.13.17l-.33.85-.24.06-.51.12a.64.64,0,0,0-.24-.25l-.45-.17a5.1,5.1,0,0,0-.7-.16,3.88,3.88,0,0,0-1,0,4.78,4.78,0,0,0-2,.51,2.12,2.12,0,0,0-1.05,1.13,1.28,1.28,0,0,0-.11.44v0a.46.46,0,0,0,.13.33.51.51,0,0,0,.37.13l.39,0-.25.08a4.79,4.79,0,0,0-.67.29,1.55,1.55,0,0,0-.28.2l.13-.34a1.29,1.29,0,0,0,.06-.37.62.62,0,0,0-.13-.4.59.59,0,0,0-.26-.2,1.11,1.11,0,0,0,.27-.12,1.55,1.55,0,0,0,.49-.41,1.44,1.44,0,0,0,.28-.5l0-.09.1-.27a1.68,1.68,0,0,0,.11-.58,1.11,1.11,0,0,0-.33-.81,2,2,0,0,0-1.69-.43h0l-.15,0h0a.51.51,0,0,0,.31-.23.08.08,0,0,0,0,0l1.21-3.38h0l.14,0h0l-1.12,3.11a.5.5,0,0,0,0,.12.29.29,0,0,0,0,.16.4.4,0,0,0,.31.23h.06l.1,0h.25l.3,0,.22,0h0a.7.7,0,0,0,.3-.1l.19-.14a.36.36,0,0,0,.11-.14.77.77,0,0,0,.31.21,1,1,0,0,0,.46,0l2.5-.19a.4.4,0,0,0,.21-.09l.22-.19a.4.4,0,0,0,.1-.15l1.31-3.6a.33.33,0,0,0,0-.22.57.57,0,0,0-.27-.36,2.15,2.15,0,0,0-.34-.13,3.13,3.13,0,0,0-.53-.12,3,3,0,0,0-.74,0,3.78,3.78,0,0,0-1.5.38,2.06,2.06,0,0,0-.4.29.3.3,0,0,0,0-.08h0a.76.76,0,0,0-.37-.28,1.32,1.32,0,0,0-.43-.08,3.84,3.84,0,0,0-.48,0,4.89,4.89,0,0,0-.59.09,2.34,2.34,0,0,1-.45.07h-.27l-.21,0h-.26l-.19,0h-.1a.41.41,0,0,0-.19.08l-.19.16a.4.4,0,0,0-.1.15l-.06.16L51,59.08a1.46,1.46,0,0,0-.33-.12,3,3,0,0,0-.54-.13,3.4,3.4,0,0,0-.73,0,3.68,3.68,0,0,0-1.5.39l-.26.17,0-.11a1.25,1.25,0,0,0,.09-.47.89.89,0,0,0-.26-.64,1.5,1.5,0,0,0-1.32-.36,3.66,3.66,0,0,0-.72.14,3.36,3.36,0,0,0-.68.28,2.54,2.54,0,0,0-.56.39,1.31,1.31,0,0,0-.37.55S42.46,62.92,42.43,63a.44.44,0,0,0,0,.35l.06.12h0l.07.15v0s0,.1,0,.1l0,0a.62.62,0,0,0,.42.29,1.58,1.58,0,0,0,.38,0l.37,0,.29,0a3.33,3.33,0,0,0,1.4-.39,2.53,2.53,0,0,0,.47-.36.62.62,0,0,0,.12.26.65.65,0,0,0,.32.23,1.06,1.06,0,0,0,.46,0l2.5-.2a.34.34,0,0,0,.21-.08l.15-.13a.35.35,0,0,0,.09.07.46.46,0,0,0,.29.08h.59c-.13,0-.25.06-.38.09a5,5,0,0,0-.9.37,3.4,3.4,0,0,0-.73.52,1.7,1.7,0,0,0-.48.7l-1.91,5.3s0,0,0,0a.45.45,0,0,0,0,.41v0l.08.17.11.23.07.15,0,0a.71.71,0,0,0,.49.34,2,2,0,0,0,.49,0,2.82,2.82,0,0,0,.49,0h0l.37,0a4.41,4.41,0,0,0,1.86-.52,2.51,2.51,0,0,0,.85-.76.76.76,0,0,0,0,.21v0a.68.68,0,0,0,.15.41.78.78,0,0,0,.38.26,1.21,1.21,0,0,0,.56.06l3.42-.27a.32.32,0,0,0,.21-.08l.3-.27a.33.33,0,0,0,.1-.14l1.45-4c.11,0,.24,0,.39.07l-.33,1-.24.69-.19.58-.13.37a1.1,1.1,0,0,0,0,.18v-.09a.42.42,0,0,1,0,.06v0h0a2.07,2.07,0,0,0-.12.45.76.76,0,0,0,0,.15.61.61,0,0,0,.26.52.31.31,0,0,0,.13.06l.14,0,.16.11h0a1.22,1.22,0,0,0,.4.1,6.25,6.25,0,0,0,.7,0h.16l.21,0h0l.2,0h.21a.58.58,0,0,0,.49-.32h0l0-.13a.6.6,0,0,0-.32-.78h0a.29.29,0,0,1-.08-.08c.06-.19.92-2.63,1-3l.71-.13c-.42,1.13-1,2.84-1,2.84a1,1,0,0,0,0,.29.71.71,0,0,0,.16.47,1.23,1.23,0,0,0,.59.39,3.12,3.12,0,0,0,.78.17,4.51,4.51,0,0,0,.9,0,6.25,6.25,0,0,0,.73-.1l.75-.16h0a4.51,4.51,0,0,0,.67-.29,3.44,3.44,0,0,0,.71-.59.57.57,0,0,0,.08-.13l1.46-4.06a.43.43,0,0,0,0-.11A.91.91,0,0,0,67.14,64.52Z" transform="translate(-31.29 -40.79)"/><path class="b7eddfda-c2d7-4308-9d74-48bdd32f46ea" d="M67,64.37a1.35,1.35,0,0,0-.62-.31,3.1,3.1,0,0,0-.69-.08h-.63a6.82,6.82,0,0,0-1,.14,7.51,7.51,0,0,0-.94.26,4,4,0,0,0-.8.41,1.82,1.82,0,0,0-.32.29,2.73,2.73,0,0,0-.73-.07h-.05c.16-.44.38-1,.38-1a.35.35,0,0,0,0-.13.38.38,0,0,0-.07-.21.36.36,0,0,0-.3-.15h-.53a2.22,2.22,0,0,0-.91.27l-.36.16a3,3,0,0,0-.37.21.37.37,0,0,0-.13.17l-.33.85-.24.06-.5.13a.69.69,0,0,0-.25-.26,2.82,2.82,0,0,0-.44-.16,5.65,5.65,0,0,0-.71-.17,4.42,4.42,0,0,0-1,0,4.82,4.82,0,0,0-2,.51,2.12,2.12,0,0,0-1.05,1.13,1,1,0,0,0,0,.1,1.36,1.36,0,0,0-.07.35v0a.46.46,0,0,0,.13.33.47.47,0,0,0,.37.13l.39,0-.25.08a4.79,4.79,0,0,0-.67.29,1.18,1.18,0,0,0-.27.2l.12-.34a1.27,1.27,0,0,0,.07-.37.63.63,0,0,0-.14-.4.62.62,0,0,0-.25-.2l.26-.11a1.92,1.92,0,0,0,.5-.42,1.69,1.69,0,0,0,.28-.49l0-.1.1-.27a1.68,1.68,0,0,0,.11-.58,1.15,1.15,0,0,0-.32-.81,2,2,0,0,0-1.7-.43h0l-.15,0h0a.51.51,0,0,0,.31-.23l0,0,1.21-3.38h0l.14,0h0l-1.12,3.11a.51.51,0,0,0,0,.13.37.37,0,0,0,0,.15.42.42,0,0,0,.32.23h0l.11,0h.24l.3,0,.23,0h0a.7.7,0,0,0,.3-.1l.19-.14a.3.3,0,0,0,.11-.14.77.77,0,0,0,.31.21,1,1,0,0,0,.46,0L56.8,63a.4.4,0,0,0,.21-.09l.22-.19a.31.31,0,0,0,.1-.15l1.31-3.6a.33.33,0,0,0,0-.22.61.61,0,0,0-.28-.36,2.15,2.15,0,0,0-.34-.13,4.12,4.12,0,0,0-.53-.12,2.93,2.93,0,0,0-.74,0,3.52,3.52,0,0,0-1.49.39,2.11,2.11,0,0,0-.41.28.3.3,0,0,0,0-.08h0a.76.76,0,0,0-.37-.28A1.65,1.65,0,0,0,54,58.3a2.48,2.48,0,0,0-.47,0,3.49,3.49,0,0,0-.6.08,2.22,2.22,0,0,1-.45.07h-.13s0,0,0,0h-.13l-.21,0h-.26l-.19,0h-.1a.37.37,0,0,0-.19.09l-.19.15a.4.4,0,0,0-.1.15l-.06.16-.11-.09a2,2,0,0,0-.34-.12,3.16,3.16,0,0,0-.53-.13,3,3,0,0,0-.74,0,3.62,3.62,0,0,0-1.5.38l-.26.17,0-.11a1.45,1.45,0,0,0,.08-.47.85.85,0,0,0-.26-.64A1.53,1.53,0,0,0,46,57.64a3.66,3.66,0,0,0-.72.14,3.61,3.61,0,0,0-.68.28,2.93,2.93,0,0,0-.56.39,1.49,1.49,0,0,0-.37.55s-1.36,3.77-1.39,3.88a.44.44,0,0,0,0,.35l.06.13h0l.08.15v0l.06.1s0,0,0,0A.62.62,0,0,0,43,64a2.17,2.17,0,0,0,.38,0l.36,0L44,64a3.33,3.33,0,0,0,1.4-.39,2.16,2.16,0,0,0,.47-.36.72.72,0,0,0,.12.27.76.76,0,0,0,.32.22,1.08,1.08,0,0,0,.46.05l2.5-.19a.4.4,0,0,0,.21-.09l.15-.13a.36.36,0,0,0,.09.08.44.44,0,0,0,.29.07h.43l.16,0-.38.09a5.38,5.38,0,0,0-.89.37,3.58,3.58,0,0,0-.74.52,1.76,1.76,0,0,0-.48.7l-1.91,5.3a.08.08,0,0,0,0,0,.48.48,0,0,0,0,.42h0l.08.17.11.23.08.15v0a.69.69,0,0,0,.49.34,1.94,1.94,0,0,0,.49,0l.49,0h0l.37,0a4.41,4.41,0,0,0,1.86-.52,2.51,2.51,0,0,0,.85-.76.75.75,0,0,0,0,.21v.06a.67.67,0,0,0,.15.4.83.83,0,0,0,.38.26,1.21,1.21,0,0,0,.56.06l3.42-.26a.4.4,0,0,0,.21-.09l.3-.26a.53.53,0,0,0,.11-.15l1.45-4a2.62,2.62,0,0,0,.38.07l-.33,1-.24.69-.19.58-.13.37a1.1,1.1,0,0,0,0,.18v-.09a.42.42,0,0,1,0,.06v0h0A2.24,2.24,0,0,0,57,70a.81.81,0,0,0,0,.15.61.61,0,0,0,.26.52.31.31,0,0,0,.13.06l.14,0a.69.69,0,0,0,.17.11h0a1.22,1.22,0,0,0,.41.1,6.08,6.08,0,0,0,.69,0h.16l.21,0h0l.19,0h.21a.59.59,0,0,0,.49-.33h0l0-.13a.6.6,0,0,0-.31-.78h0l-.08-.08c.07-.18.92-2.63,1-3l.71-.13-1,2.85a.69.69,0,0,0-.05.28.71.71,0,0,0,.16.47,1.37,1.37,0,0,0,.59.4,3.15,3.15,0,0,0,.78.16,4.51,4.51,0,0,0,.9,0,6.25,6.25,0,0,0,.73-.1l.75-.16h0A4.1,4.1,0,0,0,65,70a3.15,3.15,0,0,0,.71-.59.32.32,0,0,0,.08-.12l1.46-4.07a.43.43,0,0,0,0-.11A.91.91,0,0,0,67,64.37Z" transform="translate(-31.29 -40.79)"/><path class="ad2e00b1-8794-4810-a2bd-d09249824448" d="M46,58c.52,0,.86,0,1,.24a.66.66,0,0,1,.1.74c0,.08-.07.17-.1.27a1,1,0,0,1-.17.29.81.81,0,0,1-.28.23,1.14,1.14,0,0,1-.45.13.63.63,0,0,1-.33,0,.34.34,0,0,1-.16-.15.52.52,0,0,1,0-.22,1.05,1.05,0,0,1,.06-.24l.07-.21c0-.08,0-.19.06-.3l-.16-.15-.24.18-1.45,4,.11.16.43-.3.12-.19c.19-.47.33-.83.41-1.07s.14-.38.14-.4,0-.07-.06-.06H45a.18.18,0,0,1-.21-.11.34.34,0,0,1,.09-.3.38.38,0,0,1,.29-.17l.43,0,.53-.06q.51,0,.36.42l-.61,1.69v.05a1.51,1.51,0,0,1-.71.79,2.78,2.78,0,0,1-1.25.35l-.29,0-.34,0a1.39,1.39,0,0,1-.3,0,.24.24,0,0,1-.18-.11,1.39,1.39,0,0,0-.06-.13c0-.06-.06-.11-.08-.16l-.07-.14s0-.06,0-.07L44,59.12a.89.89,0,0,1,.28-.4,2,2,0,0,1,.49-.34,2.45,2.45,0,0,1,.6-.25A3.12,3.12,0,0,1,46,58Z" transform="translate(-31.29 -40.79)"/><path class="ad2e00b1-8794-4810-a2bd-d09249824448" d="M49.38,59.75,49,59.62a3,3,0,0,0-.4.32c-.14.13-.25.25-.36.37l-1,.08c-.06,0-.09,0-.08-.09a.47.47,0,0,1,0-.17l0-.08a1.33,1.33,0,0,1,.65-.68A3.31,3.31,0,0,1,49.24,59a2.7,2.7,0,0,1,.65,0,4.32,4.32,0,0,1,.48.11l.28.1a.24.24,0,0,1,.1.15L49.44,63l-.22.2-2.5.19a.69.69,0,0,1-.3,0,.32.32,0,0,1-.16-.1.24.24,0,0,1-.06-.15.41.41,0,0,1,0-.16l.56-1.58a.49.49,0,0,1,.24-.23,3.05,3.05,0,0,1,.44-.19,4.41,4.41,0,0,1,.55-.16l.53-.13.4-.09a.47.47,0,0,0,.17-.05Zm-.81,1.47-.13,0-.14,0-.16.08-.2.1-.47,1.33.1,0,.17,0h.07l.15-.05a.66.66,0,0,0,.19-.09l.16-.1a.22.22,0,0,0,.08-.09l.45-1.25s0-.06-.08,0Z" transform="translate(-31.29 -40.79)"/><path class="ad2e00b1-8794-4810-a2bd-d09249824448" d="M51.33,59l.18-.15h.12l.16,0H52l.17,0,.17,0h.19a2.74,2.74,0,0,0,.5-.08,4.41,4.41,0,0,1,.54-.07,2.1,2.1,0,0,1,.43,0,1.39,1.39,0,0,1,.33.06.37.37,0,0,1,.18.14.21.21,0,0,1,0,.22l-1.3,3.66-.2.15-.13,0-.2,0-.29,0h-.22l-.1,0s-.07,0-.06,0l1.25-3.51s0-.05-.15-.08a.92.92,0,0,0-.28,0l-.14,0-.18,0-.14,0s-.07,0-.07,0L51,63,51,63l-.16.05h-.17l-.23,0H50a.11.11,0,0,1-.07,0l0,0Z" transform="translate(-31.29 -40.79)"/><path class="ad2e00b1-8794-4810-a2bd-d09249824448" d="M56.93,59.16,56.54,59a2.91,2.91,0,0,0-.4.33,4.17,4.17,0,0,0-.36.37l-1,.07c-.06,0-.08,0-.08-.08a.52.52,0,0,1,0-.18l0-.08a1.33,1.33,0,0,1,.65-.68,3.32,3.32,0,0,1,1.35-.34,2.74,2.74,0,0,1,.65,0,2.8,2.8,0,0,1,.48.12,1.15,1.15,0,0,1,.28.1.19.19,0,0,1,.1.14L57,62.41l-.22.19-2.5.19a.71.71,0,0,1-.3,0,.33.33,0,0,1-.16-.11.34.34,0,0,1-.06-.15.77.77,0,0,1,0-.15l.57-1.58c0-.09.1-.16.23-.24s.28-.13.45-.19l.54-.16.53-.13.4-.09c.11,0,.17,0,.17,0Zm-.8,1.47-.13,0a.48.48,0,0,0-.14.05l-.17.08-.19.1L55,62.2s0,0,.09,0l.17,0h.07l.16,0,.18-.09.16-.11a.22.22,0,0,0,.08-.09l.45-1.24s0-.06-.08-.06Z" transform="translate(-31.29 -40.79)"/><path class="ad2e00b1-8794-4810-a2bd-d09249824448" d="M51.19,63.71c.71-.05,1.17,0,1.4.32a.89.89,0,0,1,.14,1c0,.1-.08.23-.13.36a1.23,1.23,0,0,1-.23.4,1.39,1.39,0,0,1-.39.32,1.47,1.47,0,0,1-.61.17.84.84,0,0,1-.45,0A.41.41,0,0,1,50.7,66a.67.67,0,0,1,0-.29,1.35,1.35,0,0,1,.09-.33l.09-.29a3.32,3.32,0,0,0,.08-.41l-.22-.21-.33.25-2,5.53.15.22.59-.4.17-.26c.25-.65.44-1.14.56-1.47s.19-.52.19-.55,0-.09-.09-.08h-.14c-.15,0-.24,0-.27-.16a.43.43,0,0,1,.11-.4.48.48,0,0,1,.4-.23l.58,0,.73-.08c.47,0,.64.16.5.57L51,69.72l0,.07a2.07,2.07,0,0,1-1,1.09,4.3,4.3,0,0,1-1.71.48l-.4,0-.46,0a1.68,1.68,0,0,1-.41,0,.33.33,0,0,1-.25-.16L46.74,71l-.11-.21-.08-.19a.17.17,0,0,1,0-.1l1.91-5.31a1.56,1.56,0,0,1,.38-.55,3.43,3.43,0,0,1,.67-.46,4.12,4.12,0,0,1,.83-.34A4,4,0,0,1,51.19,63.71Z" transform="translate(-31.29 -40.79)"/><path class="ad2e00b1-8794-4810-a2bd-d09249824448" d="M55.78,66.1l-.54-.18a3.66,3.66,0,0,0-.55.44,5.78,5.78,0,0,0-.49.51l-1.33.1c-.08,0-.11,0-.11-.12a.86.86,0,0,1,.05-.23l0-.11a1.84,1.84,0,0,1,.88-.94,4.63,4.63,0,0,1,1.85-.46,3.63,3.63,0,0,1,.89,0,5.38,5.38,0,0,1,.66.15l.38.14a.3.3,0,0,1,.13.2l-1.78,4.91-.3.27-3.43.26a1,1,0,0,1-.4,0,.51.51,0,0,1-.23-.15.37.37,0,0,1-.07-.2.47.47,0,0,1,0-.21l.77-2.16a.62.62,0,0,1,.32-.32,3.85,3.85,0,0,1,.61-.27l.74-.22.73-.17.56-.12a.61.61,0,0,0,.22-.07Zm-1.11,2-.18,0a.93.93,0,0,0-.19.07l-.22.1-.27.14-.64,1.81s0,0,.12,0l.24,0h.09l.22-.06.25-.12L54.3,70q.11-.06.12-.12l.61-1.7c0-.06,0-.08-.11-.08Z" transform="translate(-31.29 -40.79)"/><path class="ad2e00b1-8794-4810-a2bd-d09249824448" d="M57.44,70.33a.29.29,0,0,1-.1-.32,1.63,1.63,0,0,1,.09-.38.49.49,0,0,0,0-.11.18.18,0,0,0,0-.06c0-.09.08-.22.13-.39s.12-.36.19-.57l.24-.69.48-1.38c-.37-.06-.93-.1-.9-.18L57.7,66a.46.46,0,0,1,.07-.14.51.51,0,0,1,.13-.12c.06,0,.87-.21,1-.26l.4-1,.31-.18L60,64.1a1.89,1.89,0,0,1,.77-.23h.52l-.57,1.48a11.13,11.13,0,0,1,1.16.08c.06,0,.07.12,0,.22l-.11.3a5.75,5.75,0,0,1-1.33.3l-1.15,3.28a.57.57,0,0,0,.24.38c.17.11.23.22.18.34a1.21,1.21,0,0,1-.05.14c0,.05-.09.09-.22.11h-.18l-.21,0-.21,0h-.16a5.21,5.21,0,0,1-.63,0,.61.61,0,0,1-.26-.06l-.14-.09A.6.6,0,0,0,57.44,70.33Z" transform="translate(-31.29 -40.79)"/><path class="ad2e00b1-8794-4810-a2bd-d09249824448" d="M65.08,64.34h.6a2.43,2.43,0,0,1,.61.07,1,1,0,0,1,.46.23.59.59,0,0,1,.17.49l-1.46,4.06a2.88,2.88,0,0,1-.62.52,3.14,3.14,0,0,1-.62.27l-.72.15a4.84,4.84,0,0,1-.7.1,3.84,3.84,0,0,1-.83,0,2.71,2.71,0,0,1-.7-.14,1.07,1.07,0,0,1-.43-.28.4.4,0,0,1-.05-.41l1.39-3.84a1,1,0,0,1,.39-.47,3.63,3.63,0,0,1,.71-.37,7.18,7.18,0,0,1,.89-.25A7.66,7.66,0,0,1,65.08,64.34Zm-.35.69a.76.76,0,0,0-.27.06.56.56,0,0,0-.2.12.47.47,0,0,0-.14.14l-.07.1-1.33,3.69q-.06.21,0,.24a.68.68,0,0,0,.32,0h.14l.26,0q.14,0,.15-.09l1.46-4.06s0-.07-.09-.1A.68.68,0,0,0,64.73,65Z" transform="translate(-31.29 -40.79)"/><path class="a21381ff-1f72-43a9-a5bb-059e49033c40" d="M45.73,50.75c.58.61.86,1.26.63,1.45s-.89-.16-1.47-.78S44,50.16,44.26,50,45.15,50.14,45.73,50.75Z" transform="translate(-31.29 -40.79)"/></g></g></svg>