<svg xmlns="http://www.w3.org/2000/svg" id="a44255a4-4ae9-41b4-bf5e-ba3515c77ade" data-name="Capa 1" viewBox="0 0 47.76 51.09"><defs><style>.a84e496d-5194-4e2f-8568-22feb072a905{fill:#410099;}.bc737ee8-abaf-4b5e-afc5-229db26fe19f{fill:#ea0029;}</style></defs><title>Logo Melate Retro</title><path class="a84e496d-5194-4e2f-8568-22feb072a905" d="M71.38,36.3a7.66,7.66,0,0,0-7.13-1.2,9.2,9.2,0,0,1,6.35,2,8.29,8.29,0,0,1,2.91,5.71A6.73,6.73,0,0,0,71.38,36.3Z" transform="translate(-32.19 -34.73)"/><path class="a84e496d-5194-4e2f-8568-22feb072a905" d="M43.17,68.89h2.18l.23,9.71H42.89V72.93L39.66,78.6H38L36.61,73,34.78,78.6H32.19l3.55-9.71h2.14l1.6,5.9Z" transform="translate(-32.19 -34.73)"/><path class="a84e496d-5194-4e2f-8568-22feb072a905" d="M53.2,77.47a5.06,5.06,0,0,1-3.56,1.36,3,3,0,0,1-2.41-1.09,3.32,3.32,0,0,1-.64-2.17,5.12,5.12,0,0,1,1.3-3.16,4.29,4.29,0,0,1,3-1.31c1.73,0,2.7.72,2.7,2s-1.52,2.48-4.35,3.06a1.15,1.15,0,0,0,1.12,1,3.68,3.68,0,0,0,2.39-1.06Zm-1.64-4.14a.58.58,0,0,0-.64-.63c-.8,0-1.5.91-1.69,2.26C50.64,74.63,51.52,74,51.56,73.33Z" transform="translate(-32.19 -34.73)"/><path class="a84e496d-5194-4e2f-8568-22feb072a905" d="M56.46,78.6H53.93l1.7-9.71h2.52Z" transform="translate(-32.19 -34.73)"/><path class="a84e496d-5194-4e2f-8568-22feb072a905" d="M65.38,75.54l-.06.56c-.12.87.08,1.13.79,1.09l-.46,1.47a5.3,5.3,0,0,1-1.34.11c-1,0-1.48-.55-1.48-1.38a2.7,2.7,0,0,1-2.44,1.44c-1.56,0-2.49-1.27-2.32-3.18a4.7,4.7,0,0,1,2-3.64,5.15,5.15,0,0,1,2.86-.9,10.52,10.52,0,0,1,3.1.49Zm-2.12-2.43a.76.76,0,0,0-.25,0,2,2,0,0,0-1.41.31,3,3,0,0,0-1,2c-.08.82.21,1.29.81,1.32s.84-.27,1.41-1.07Z" transform="translate(-32.19 -34.73)"/><path class="a84e496d-5194-4e2f-8568-22feb072a905" d="M72.54,73.09h-2l-.36,2.31a3.76,3.76,0,0,0,0,.61c0,.55.32.85.91.88a2.57,2.57,0,0,0,1-.17l.46,1.44a4.56,4.56,0,0,1-2.7.66c-1.43,0-2.41-.88-2.32-2.12a8.66,8.66,0,0,1,.13-1.08l.39-2.53h-1.4l.22-1.38c1.83-.3,2.24-.64,3.13-2.56h1.18l-.33,2.18h2Z" transform="translate(-32.19 -34.73)"/><path class="a84e496d-5194-4e2f-8568-22feb072a905" d="M79.54,77.47A5.06,5.06,0,0,1,76,78.83a3.08,3.08,0,0,1-2.41-1.09,3.32,3.32,0,0,1-.64-2.17,5.12,5.12,0,0,1,1.3-3.16,4.29,4.29,0,0,1,3-1.31c1.73,0,2.7.72,2.7,2s-1.52,2.48-4.35,3.06a1.15,1.15,0,0,0,1.12,1,3.68,3.68,0,0,0,2.39-1.06Zm-1.63-4.14a.59.59,0,0,0-.65-.63c-.8,0-1.5.91-1.69,2.26C77,74.63,77.86,74,77.91,73.33Z" transform="translate(-32.19 -34.73)"/><path class="bc737ee8-abaf-4b5e-afc5-229db26fe19f" d="M50,79.5a17.45,17.45,0,0,1,1.75-.09,3.83,3.83,0,0,1,2.15.44,1.74,1.74,0,0,1,.79,1.5,2,2,0,0,1-1.43,1.77l1.65,2.55h-2l-1.2-2.15h-.58l-.36,2.15H49Zm1.27,2.94H52a1,1,0,0,0,1-.9c0-.54-.39-.89-1.08-.89h-.33Z" transform="translate(-32.19 -34.73)"/><path class="bc737ee8-abaf-4b5e-afc5-229db26fe19f" d="M57.65,81.91h2l-.2,1.17h-2l-.22,1.32h2.88l-.37,1.27H55.33l1-6.21h4l-.2,1.23H57.85Z" transform="translate(-32.19 -34.73)"/><path class="bc737ee8-abaf-4b5e-afc5-229db26fe19f" d="M63.51,85.67H61.75l.81-4.89H60.71l.22-1.32h5.46l-.22,1.32H64.33Z" transform="translate(-32.19 -34.73)"/><path class="bc737ee8-abaf-4b5e-afc5-229db26fe19f" d="M67,79.5a17.45,17.45,0,0,1,1.75-.09,3.83,3.83,0,0,1,2.15.44,1.74,1.74,0,0,1,.79,1.5,2,2,0,0,1-1.43,1.77l1.65,2.55h-2l-1.2-2.15h-.59l-.35,2.15H66Zm1.26,2.94h.76a1,1,0,0,0,1-.9c0-.54-.39-.89-1.09-.89h-.32Z" transform="translate(-32.19 -34.73)"/><path class="bc737ee8-abaf-4b5e-afc5-229db26fe19f" d="M79.16,82.11a3.72,3.72,0,0,1-3.84,3.7c-1.9,0-3.06-1-3.06-2.74a3.82,3.82,0,0,1,1.13-2.66,3.93,3.93,0,0,1,2.67-1.09A2.73,2.73,0,0,1,79.16,82.11Zm-5,.86a1.27,1.27,0,0,0,1.31,1.44,1.5,1.5,0,0,0,1.3-.71,2.9,2.9,0,0,0,.46-1.51,1.3,1.3,0,0,0-1.33-1.47A2,2,0,0,0,74.17,83Z" transform="translate(-32.19 -34.73)"/><path class="bc737ee8-abaf-4b5e-afc5-229db26fe19f" d="M37.68,65.15a1.84,1.84,0,0,0-1.15.55l.25,0a.93.93,0,0,1,1,.88,1.15,1.15,0,0,1-1.3,1.16,1.33,1.33,0,0,1-1-.43,1.13,1.13,0,0,1-.24-.77,1.92,1.92,0,0,1,.49-1.12,2.85,2.85,0,0,1,2.05-.87Zm-1.59,1.43a.47.47,0,0,0,.45.48.45.45,0,0,0,.49-.48.47.47,0,0,0-.46-.45.93.93,0,0,0-.23,0l-.14,0A.58.58,0,0,0,36.09,66.58Z" transform="translate(-32.19 -34.73)"/><path class="bc737ee8-abaf-4b5e-afc5-229db26fe19f" d="M40.42,64.4l-2.05,3.47-.54-.1,2.05-3.47Z" transform="translate(-32.19 -34.73)"/><path class="bc737ee8-abaf-4b5e-afc5-229db26fe19f" d="M41.34,65.86a.42.42,0,0,0,.37-.39c0-.16-.15-.28-.37-.28a1.48,1.48,0,0,0-.71.19l-.1-.55a2,2,0,0,1,1-.26c.62,0,1.08.33,1.08.78s-.13.49-.52.7a.69.69,0,0,1,.48.71.93.93,0,0,1-.5.76,1.7,1.7,0,0,1-.81.19,2.27,2.27,0,0,1-1.17-.3l.18-.58a1.6,1.6,0,0,0,.8.26c.33,0,.55-.15.55-.39s-.17-.34-.42-.34h-.46l.08-.5Z" transform="translate(-32.19 -34.73)"/><path class="bc737ee8-abaf-4b5e-afc5-229db26fe19f" d="M43.09,67.12a2.16,2.16,0,0,0,1.17-.57.91.91,0,0,1-.31,0,.9.9,0,0,1-1-.92,1.06,1.06,0,0,1,.45-.85,1.44,1.44,0,0,1,.8-.26,1.33,1.33,0,0,1,1,.37,1.07,1.07,0,0,1,.31.77A1.9,1.9,0,0,1,45,66.93a3.06,3.06,0,0,1-2.09.82Zm1.57-1.4a.45.45,0,0,0-.46-.49.46.46,0,1,0,0,.91.68.68,0,0,0,.21,0l.09,0A.5.5,0,0,0,44.66,65.72Z" transform="translate(-32.19 -34.73)"/><path class="a84e496d-5194-4e2f-8568-22feb072a905" d="M70.76,44.26C69.81,39.08,64.57,36,59,37a10.22,10.22,0,0,0-7,4.84,6.69,6.69,0,0,0-7.79-.39c-3.59,2.35-2.4,6.86-2,7.94C44.13,54.56,54,63.84,54,63.87s.05,0,.07,0S65.24,55.5,67,54.07C71,50.76,71.37,47.58,70.76,44.26Zm-5.4,9c-.42.31-2.71,2.21-5.42,4.18l-5.67,4.1S45,52.72,43.85,48.08a5.28,5.28,0,0,1,1.32-5.33c2.88-2.71,6.53-.67,6.62-.61-.41.79-1.24,2.26-.7,5.6a10,10,0,0,0,7.84,7.87c-.43-.17-6.39-3.51-6-10.29a8.16,8.16,0,0,1,8.72-7.52,6.66,6.66,0,0,1,6.44,6.8A6,6,0,0,1,62.88,50c-3.45.63-6.8-1.38-7.46-4.49a5.22,5.22,0,0,1-.12-1.1,6.16,6.16,0,0,0,0,2.53c.78,3.63,4.57,5.78,8.6,5a7.52,7.52,0,0,0,5.62-5.24A10.22,10.22,0,0,1,65.36,53.3Z" transform="translate(-32.19 -34.73)"/><path class="bc737ee8-abaf-4b5e-afc5-229db26fe19f" d="M57.42,40a1,1,0,0,0,1-1,1,1,0,0,0-.22-.63,9.38,9.38,0,0,0-1.78.92A1,1,0,0,0,57.42,40Z" transform="translate(-32.19 -34.73)"/><path class="bc737ee8-abaf-4b5e-afc5-229db26fe19f" d="M59.35,40.62a1,1,0,0,0,0-1.91,1,1,0,1,0,0,1.91Z" transform="translate(-32.19 -34.73)"/><path class="bc737ee8-abaf-4b5e-afc5-229db26fe19f" d="M60,38.71a1,1,0,0,0,1-.93A7.87,7.87,0,0,0,59.1,38,1,1,0,0,0,60,38.71Z" transform="translate(-32.19 -34.73)"/><path class="bc737ee8-abaf-4b5e-afc5-229db26fe19f" d="M61.92,39.39a1,1,0,0,0,.95-1,1,1,0,0,0-.13-.48,7.51,7.51,0,0,0-1.06-.15,3.39,3.39,0,0,0-.45,0,.95.95,0,0,0,.69,1.61Z" transform="translate(-32.19 -34.73)"/><path class="bc737ee8-abaf-4b5e-afc5-229db26fe19f" d="M62.87,39.13a1,1,0,0,0,1.91,0,.9.9,0,0,0-.12-.46,7.63,7.63,0,0,0-1-.47A1,1,0,0,0,62.87,39.13Z" transform="translate(-32.19 -34.73)"/><path class="bc737ee8-abaf-4b5e-afc5-229db26fe19f" d="M64.78,39.81a1,1,0,0,0,1.82.4A6.88,6.88,0,0,0,65.22,39,1,1,0,0,0,64.78,39.81Z" transform="translate(-32.19 -34.73)"/><path class="bc737ee8-abaf-4b5e-afc5-229db26fe19f" d="M67.43,41.41a7.15,7.15,0,0,0-.72-1.07.68.68,0,0,0,0,.15A1,1,0,0,0,67.43,41.41Z" transform="translate(-32.19 -34.73)"/><path class="bc737ee8-abaf-4b5e-afc5-229db26fe19f" d="M67.9,43.09a.93.93,0,0,0,.2.58,6.21,6.21,0,0,0-.15-.88A.94.94,0,0,0,67.9,43.09Z" transform="translate(-32.19 -34.73)"/><path class="bc737ee8-abaf-4b5e-afc5-229db26fe19f" d="M67.18,45a1,1,0,0,0,.69.94,5.52,5.52,0,0,0,.24-1.31,4.16,4.16,0,0,0,0-.61A1,1,0,0,0,67.18,45Z" transform="translate(-32.19 -34.73)"/><path class="bc737ee8-abaf-4b5e-afc5-229db26fe19f" d="M66.25,45.27a1,1,0,1,0-1-1A1,1,0,0,0,66.25,45.27Z" transform="translate(-32.19 -34.73)"/><path class="bc737ee8-abaf-4b5e-afc5-229db26fe19f" d="M64.37,44.59a1,1,0,1,0-1-1A1,1,0,0,0,64.37,44.59Z" transform="translate(-32.19 -34.73)"/><path class="bc737ee8-abaf-4b5e-afc5-229db26fe19f" d="M58.67,42.56a1,1,0,1,0-1-1A1,1,0,0,0,58.67,42.56Z" transform="translate(-32.19 -34.73)"/><path class="bc737ee8-abaf-4b5e-afc5-229db26fe19f" d="M56.76,41.89a1,1,0,1,0,0-2,1,1,0,0,0,0,2Z" transform="translate(-32.19 -34.73)"/><path class="bc737ee8-abaf-4b5e-afc5-229db26fe19f" d="M55.87,40.23a1,1,0,0,0-.11-.47,8,8,0,0,0-1.29,1.37,1.12,1.12,0,0,0,.41.09A1,1,0,0,0,55.87,40.23Z" transform="translate(-32.19 -34.73)"/><path class="bc737ee8-abaf-4b5e-afc5-229db26fe19f" d="M68.79,48.36l.09.1h-.14a7.88,7.88,0,0,1-1,1.39,1.06,1.06,0,0,0,.26.43,1.21,1.21,0,0,0-.8.42.31.31,0,0,0,0-.1,1.34,1.34,0,0,0,0-.2A6.73,6.73,0,0,1,63.9,52a9,9,0,0,1-1.44.14,1.18,1.18,0,0,0,.36.56,1.11,1.11,0,0,0-.77.39,1.12,1.12,0,0,0-.38-.78,1.06,1.06,0,0,0,.56-.17A7.64,7.64,0,0,1,60.87,52l0,0a1.18,1.18,0,0,0-.75.33,1,1,0,0,0-.21-.57,8.14,8.14,0,0,1-1.1-.44,1.08,1.08,0,0,0-.59.3A1.06,1.06,0,0,0,58,51l.15,0a6.32,6.32,0,0,1-2.48-2.88,1.13,1.13,0,0,0-.51.29,1.14,1.14,0,0,0-.36-.73,1.11,1.11,0,0,0,.63-.26c0-.14-.08-.27-.11-.42a6.16,6.16,0,0,1,0-2.53,5.22,5.22,0,0,0,.12,1.1c0,.07,0,.14.06.22a1.11,1.11,0,0,0,.8-.45s0,0,0,.08a1.08,1.08,0,0,0,.35.79,1.06,1.06,0,0,0-.82.39h0a1.08,1.08,0,0,0-.31-.75A5.53,5.53,0,0,0,57,48.31a1,1,0,0,0,.47-.29,1.19,1.19,0,0,0,.32.73,1,1,0,0,0-.24,0,6.58,6.58,0,0,0,1.41.82,1.09,1.09,0,0,0-.32-.56,1.08,1.08,0,0,0,.73-.35v0a1.07,1.07,0,0,0,.27.72,1.19,1.19,0,0,0-.52.21,6.5,6.5,0,0,0,1.71.43,1.37,1.37,0,0,0-.2-.29,1.07,1.07,0,0,0,.64-.35,1.14,1.14,0,0,0,.24.6.92.92,0,0,0-.27.08,7.37,7.37,0,0,0,1.68-.1A7.67,7.67,0,0,0,65,49.3l-.12-.12h0a1.09,1.09,0,0,0,.79-.34v0a5.6,5.6,0,0,0,2.15-2.95,1,1,0,0,0-1.26.45s0-.1,0-.14a1.06,1.06,0,0,0-1.87-.68v0a1.06,1.06,0,0,0-1.92-.61s0-.06,0-.09a1,1,0,0,0-.59-.94l.21,0A1,1,0,1,0,62,43.8l-.24,0a1,1,0,0,0-.83.41h0a1.06,1.06,0,0,0-.63-1,.88.88,0,0,0,.24,0,1,1,0,1,0-.4-.08.84.84,0,0,0-.27,0,1,1,0,0,0-.83.41,1.06,1.06,0,0,0-1.06-1,1,1,0,0,0-.86.45s0,0,0-.08a1.06,1.06,0,0,0-1.06-1.06,1,1,0,0,0-.89.49c0-.05,0-.09,0-.14a1,1,0,0,0-.76-1,8.15,8.15,0,0,0-1,1.74h0A7.85,7.85,0,0,0,53,45.32,9.46,9.46,0,0,0,53,47a1.07,1.07,0,0,0,.64-.3,1.07,1.07,0,0,0,.33.65,1.14,1.14,0,0,0-.69.27A1.05,1.05,0,0,0,53,47c.51,5.12,4.68,7.88,5.72,8.46a1.24,1.24,0,0,0,.45-.25,1.17,1.17,0,0,0,.27.53,1.18,1.18,0,0,0-.57.28,1.19,1.19,0,0,0-.21-.52,12.43,12.43,0,0,1-1.38-.43.84.84,0,0,0-.27.13,1,1,0,0,0-.14-.3,9.57,9.57,0,0,1-1.39-.74.76.76,0,0,0,.12.19,1.35,1.35,0,0,0-.47.22,1.25,1.25,0,0,0-.28-.52,1,1,0,0,0,.29-.11,9.57,9.57,0,0,1-2.71-2.88,1.26,1.26,0,0,0-.5.26,1.09,1.09,0,0,0-.24-.45,1.28,1.28,0,0,0,.5-.2,10.86,10.86,0,0,1-.9-2.15,1.31,1.31,0,0,0-.56.29,1.09,1.09,0,0,0-.31-.59,1.14,1.14,0,0,0,.6-.32,1.13,1.13,0,0,0,.26.6,5.69,5.69,0,0,1-.18-.8c-.54-3.34.28-4.81.7-5.6l-.41-.2a1.1,1.1,0,0,0,.27.38h-.09a1,1,0,0,0-.81.39h0a1.07,1.07,0,0,0-.42-.85h.08a1,1,0,0,0,.47-.11,6.84,6.84,0,0,0-1.35-.33,1,1,0,0,0,.21.21h-.06a1,1,0,0,0-.81.37,1.12,1.12,0,0,0-.24-.64,5,5,0,0,0-3.46,1.4,5.44,5.44,0,0,0-.88,1.11,1.13,1.13,0,0,1,.1.13l-.19,0a4.86,4.86,0,0,0-.53,1.72.86.86,0,0,0,.07.1h-.08a6.58,6.58,0,0,0,.18,2.22,16.73,16.73,0,0,0,2.93,5.18l.22-.11a1.22,1.22,0,0,0,.16.37l-.14,0a83.47,83.47,0,0,0,7.26,8l5.67-4.11c1.19-.86,2.31-1.72,3.22-2.43a.69.69,0,0,0-.11-.13,1.09,1.09,0,0,0,.6-.29s0,0,0,0l1.7-1.35a15,15,0,0,0,1.2-1,1.14,1.14,0,0,0-.37-.52,1.19,1.19,0,0,0,.77-.42s0,.06,0,.1a1.15,1.15,0,0,0,.06.37,9.09,9.09,0,0,0,2.5-5A9.73,9.73,0,0,1,68.79,48.36Zm-2.32-1.59a.59.59,0,0,0,0,.14,1.06,1.06,0,0,0,.39.81h0a1.09,1.09,0,0,0-.79.34,1.1,1.1,0,0,0-.36-.78A1.07,1.07,0,0,0,66.47,46.77Zm-4.15,1.52a1.07,1.07,0,0,0-.82.37,1.07,1.07,0,0,0-.44-.8h0a1.09,1.09,0,0,0,.84-.4,1.06,1.06,0,0,0,.45.83Zm2.18-2.08v0a1.08,1.08,0,0,0,.34.77,1.07,1.07,0,0,0-.73.36,1.06,1.06,0,0,0-.38-.77A1.08,1.08,0,0,0,64.5,46.21Zm-.67,1.93a1.13,1.13,0,0,0,.37.77h0a1.1,1.1,0,0,0-.77.32A1.14,1.14,0,0,0,63,48.5H63A1.07,1.07,0,0,0,63.83,48.14Zm-2-2.25a1,1,0,0,0,.86-.45s0,.06,0,.09a1,1,0,0,0,.36.79,1.07,1.07,0,0,0-.81.41,1.09,1.09,0,0,0-.49-.85Zm-1.06-1.07h0a1,1,0,0,0,.48.88h-.1a1.07,1.07,0,0,0-.8.37,1.09,1.09,0,0,0-.4-.84A1.06,1.06,0,0,0,60.72,44.82Zm-.7,2a1.08,1.08,0,0,0,.44.86h0a1.1,1.1,0,0,0-.81.36v0a1.05,1.05,0,0,0-.37-.81A1.15,1.15,0,0,0,60,46.79Zm-1.19-2.6a1.09,1.09,0,0,0,.38.79h0a1.1,1.1,0,0,0-.81.37A1,1,0,0,0,58,44.6,1.07,1.07,0,0,0,58.83,44.19Zm-.71,1.93a1.08,1.08,0,0,0,.36.76,1.07,1.07,0,0,0-.76.35,1.08,1.08,0,0,0-.36-.76A1.07,1.07,0,0,0,58.12,46.12ZM57,43.46s0,0,0,.08a1,1,0,0,0,.38.8,1.07,1.07,0,0,0-.84.44s0-.06,0-.1a1.11,1.11,0,0,0-.33-.78A1.06,1.06,0,0,0,57,43.46ZM55,42.7s0,.1,0,.15a1.08,1.08,0,0,0,.31.75,1.08,1.08,0,0,0-.76.36,1.13,1.13,0,0,0-.38-.8A1,1,0,0,0,55,42.7Zm-1.1,3.1a1.16,1.16,0,0,0-.4-.72,1.1,1.1,0,0,0,.77-.36,1.11,1.11,0,0,0,.35.77A1,1,0,0,0,53.94,45.8Zm.59,4.4a1.12,1.12,0,0,0-.32-.57,1.1,1.1,0,0,0,.61-.32,1.09,1.09,0,0,0,.27.64A1.14,1.14,0,0,0,54.53,50.2Zm1.21,2.6a1.1,1.1,0,0,0-.22-.56A1.32,1.32,0,0,0,56,52a1.12,1.12,0,0,0,.28.54A1.12,1.12,0,0,0,55.74,52.8Zm.67-1.92a1.19,1.19,0,0,0-.27-.55,1.17,1.17,0,0,0,.55-.26,1.16,1.16,0,0,0,.27.57A1.1,1.1,0,0,0,56.41,50.88Zm1.21,2.56a1.12,1.12,0,0,0-.29-.56,1.13,1.13,0,0,0,.61-.32,1.08,1.08,0,0,0,.26.63A1.21,1.21,0,0,0,57.62,53.44Zm-4.19-.24a1.08,1.08,0,0,0,.28.54,1.16,1.16,0,0,0-.5.24,1.11,1.11,0,0,0-.28-.55A1.27,1.27,0,0,0,53.43,53.2Zm-2.81-2.69a1.18,1.18,0,0,0-.6.27,1.18,1.18,0,0,0-.23-.55,1.27,1.27,0,0,0,.56-.27A1.14,1.14,0,0,0,50.62,50.51Zm-.1-7.16h0a1,1,0,0,0,.41.82,1.1,1.1,0,0,0-.8.42,1.08,1.08,0,0,0-.44-.84A1.05,1.05,0,0,0,50.52,43.35Zm-.64,2a1.08,1.08,0,0,0,.29.73,1.1,1.1,0,0,0-.73.3,1.14,1.14,0,0,0-.29-.64A1.08,1.08,0,0,0,49.88,45.32Zm-.49,2.6a1.25,1.25,0,0,0-.59.28,1.16,1.16,0,0,0-.32-.63,1.09,1.09,0,0,0,.62-.29A1.11,1.11,0,0,0,49.39,47.92Zm-.78-5.22a1.08,1.08,0,0,0,.42.84,1.07,1.07,0,0,0-.8.36,1.06,1.06,0,0,0-.39-.83A1.05,1.05,0,0,0,48.61,42.7Zm-.67,1.93a1,1,0,0,0,.29.73,1.12,1.12,0,0,0-.68.3,1,1,0,0,0-.31-.67A1.06,1.06,0,0,0,47.94,44.63ZM46,42.33a1.09,1.09,0,0,0,.76-.31,1.07,1.07,0,0,0,.36.78,1.06,1.06,0,0,0-.79.35,1.11,1.11,0,0,0-.46-.83ZM46,44a1.12,1.12,0,0,0,.3.7,1.09,1.09,0,0,0-.66.3,1.09,1.09,0,0,0-.3-.65A1.15,1.15,0,0,0,46,44Zm-1.69,4.69a1.11,1.11,0,0,0-.24-.47,1.19,1.19,0,0,0,.55-.27,1.09,1.09,0,0,0,.22.49A1.24,1.24,0,0,0,44.34,48.66Zm.37-2.47a1.13,1.13,0,0,0,.63-.3,1.15,1.15,0,0,0,.33.7,1.08,1.08,0,0,0-.63.26A1.26,1.26,0,0,0,44.71,46.19Zm.85,5.07a1.2,1.2,0,0,0-.24-.51,1.16,1.16,0,0,0,.48-.21A1.17,1.17,0,0,0,46,51,1.11,1.11,0,0,0,45.56,51.26Zm.7-1.93a1.13,1.13,0,0,0-.25-.5,1.09,1.09,0,0,0,.49-.25,1.26,1.26,0,0,0,.24.54A1.16,1.16,0,0,0,46.26,49.33Zm.63-1.81a1.07,1.07,0,0,0-.35-.63,1.16,1.16,0,0,0,.68-.31,1,1,0,0,0,.3.66A1.17,1.17,0,0,0,46.89,47.52Zm.61,4.34a1.22,1.22,0,0,0-.2-.43,1.2,1.2,0,0,0,.39-.2,1.3,1.3,0,0,0,.22.46A1.23,1.23,0,0,0,47.5,51.86Zm.38-2.32a1.15,1.15,0,0,0,.54-.27,1.17,1.17,0,0,0,.22.51,1.29,1.29,0,0,0-.52.23A1.24,1.24,0,0,0,47.88,49.54Zm.84,4.93a1.09,1.09,0,0,0-.18-.43A1.11,1.11,0,0,0,49,53.8a1.22,1.22,0,0,0,.22.44A1.19,1.19,0,0,0,48.72,54.47Zm.41-2.36a1.23,1.23,0,0,0,.48-.25,1.15,1.15,0,0,0,.21.52,1.23,1.23,0,0,0-.44.23A1.24,1.24,0,0,0,49.13,52.11ZM50,57a1.25,1.25,0,0,0-.16-.35,1.41,1.41,0,0,0,.37-.18,1.14,1.14,0,0,0,.16.38A1.11,1.11,0,0,0,50,57Zm.67-1.8a1.09,1.09,0,0,0-.25-.49,1.3,1.3,0,0,0,.43-.2A1.13,1.13,0,0,0,51,55,1.14,1.14,0,0,0,50.63,55.15Zm.44-2.31a1.16,1.16,0,0,0,.49-.26,1.26,1.26,0,0,0,.24.44,1.32,1.32,0,0,0-.54.24A1,1,0,0,0,51.07,52.84Zm.77,4.87a1.27,1.27,0,0,0-.18-.39,1.17,1.17,0,0,0,.39-.18,1.22,1.22,0,0,0,.18.36A1.33,1.33,0,0,0,51.84,57.71Zm.5-2.3a1.22,1.22,0,0,0,.45-.24,1.33,1.33,0,0,0,.19.42,1,1,0,0,0-.45.2A1.5,1.5,0,0,0,52.34,55.41Zm.77,4.78a1.42,1.42,0,0,0-.14-.36,1.05,1.05,0,0,0,.3-.15,1.46,1.46,0,0,0,.16.36A1.33,1.33,0,0,0,53.11,60.19Zm.66-1.86A1.4,1.4,0,0,0,53.6,58a1.26,1.26,0,0,0,.33-.16,1.43,1.43,0,0,0,.17.38A1,1,0,0,0,53.77,58.33Zm.45-2.25a1.27,1.27,0,0,0,.47-.22,1.28,1.28,0,0,0,.19.41,1.16,1.16,0,0,0-.47.2A1.09,1.09,0,0,0,54.22,56.08ZM55,60.83a1.11,1.11,0,0,0-.15-.31,1.06,1.06,0,0,0,.35-.18,1.46,1.46,0,0,0,.14.31A1.38,1.38,0,0,0,55,60.83ZM55.62,59a1,1,0,0,0-.15-.32,1.14,1.14,0,0,0,.37-.17,1.14,1.14,0,0,0,.13.3A1.19,1.19,0,0,0,55.62,59Zm.68-1.87a1.07,1.07,0,0,0-.2-.38,1.15,1.15,0,0,0,.41-.17,1.17,1.17,0,0,0,.16.36A1.3,1.3,0,0,0,56.3,57.11Zm2,.68a1.2,1.2,0,0,0-.2-.41,1.07,1.07,0,0,0,.39-.22,1.41,1.41,0,0,0,.17.46A1.19,1.19,0,0,0,58.26,57.79Zm1.29-3.64a1.23,1.23,0,0,0-.29-.58,1.19,1.19,0,0,0,.58-.32,1.08,1.08,0,0,0,.26.63A1.19,1.19,0,0,0,59.55,54.15Zm1.25,2.46a1.24,1.24,0,0,0-.25-.45,1.25,1.25,0,0,0,.49-.24,1.27,1.27,0,0,0,.19.5A1.28,1.28,0,0,0,60.8,56.61Zm.65-1.75a1.08,1.08,0,0,0-.28-.6,1.06,1.06,0,0,0,.62-.38,1.1,1.1,0,0,0,.31.7A1.24,1.24,0,0,0,61.45,54.86ZM64,53.66a1.1,1.1,0,0,0-.37-.67,1.07,1.07,0,0,0,.71-.3,1.18,1.18,0,0,0,.27.66A1.12,1.12,0,0,0,64,53.66Z" transform="translate(-32.19 -34.73)"/><path class="bc737ee8-abaf-4b5e-afc5-229db26fe19f" d="M63.14,42a1,1,0,1,0-1-1A1,1,0,0,0,63.14,42Z" transform="translate(-32.19 -34.73)"/><path class="bc737ee8-abaf-4b5e-afc5-229db26fe19f" d="M61.23,41.3a1,1,0,1,0-.95-1A1,1,0,0,0,61.23,41.3Z" transform="translate(-32.19 -34.73)"/><path class="bc737ee8-abaf-4b5e-afc5-229db26fe19f" d="M65.05,42.67a1,1,0,1,0-1-1A1,1,0,0,0,65.05,42.67Z" transform="translate(-32.19 -34.73)"/><path class="bc737ee8-abaf-4b5e-afc5-229db26fe19f" d="M66,42.39a1,1,0,0,0,1.89.15,6.49,6.49,0,0,0-.33-.87.92.92,0,0,0-.61-.23A1,1,0,0,0,66,42.39Z" transform="translate(-32.19 -34.73)"/></svg>