<svg xmlns="http://www.w3.org/2000/svg" id="b2698956-b951-4a5f-849b-881d6dfb7845" data-name="a972054b-92cd-42a0-a504-cf46fe784a2d" viewBox="0 0 43.56 40.37"><defs><style>.f4a4cdcd-08f6-4dd3-9e13-f932e15623f9{fill:#fff;}.a0626d2b-ce9b-4dee-be55-ef66046e8761{opacity:0.35;}.b3f392d5-45fb-4870-9aa7-de014998798a{fill:#410099;}.e48b66cc-15b6-4e2c-a2af-fbf9f196a197{fill:#ea0029;}.f3679da3-3158-4d6d-90b5-814b36315d09{fill:none;stroke:#410099;stroke-miterlimit:10;stroke-width:0.5px;}</style></defs><title>Logo Revancha Revanchita_OK</title><path class="f4a4cdcd-08f6-4dd3-9e13-f932e15623f9" d="M26.19,15.75h.93l.1,4.15H26.07V17.48L24.69,19.9H24l-.58-2.4-.78,2.4H21.5L23,15.75h.91l.68,2.52Z"/><path class="f4a4cdcd-08f6-4dd3-9e13-f932e15623f9" d="M27.22,20.29H26.07a.38.38,0,0,1-.39-.39V19L25,20.09a.38.38,0,0,1-.34.2H24a.39.39,0,0,1-.38-.3l-.26-1L23,20a.39.39,0,0,1-.37.27H21.5a.37.37,0,0,1-.32-.17.42.42,0,0,1-.05-.36l1.52-4.14a.38.38,0,0,1,.37-.26h.91a.4.4,0,0,1,.38.29l.45,1.65,1.1-1.76a.39.39,0,0,1,.33-.18h.93a.39.39,0,0,1,.39.38l.1,4.15a.39.39,0,0,1-.39.4Zm-.76-.78h.35l-.08-3.36h-.32L25,18.48a.41.41,0,0,1-.39.18.4.4,0,0,1-.33-.29l-.6-2.22h-.34l-1.22,3.36h.25L23,17.38a.4.4,0,0,1,.39-.27.37.37,0,0,1,.37.3l.51,2.1h.18l1.27-2.23a.39.39,0,0,1,.73.2Z"/><path class="f4a4cdcd-08f6-4dd3-9e13-f932e15623f9" d="M30.47,19.42A2.19,2.19,0,0,1,29,20a1.31,1.31,0,0,1-1-.47,1.39,1.39,0,0,1-.27-.93,2.14,2.14,0,0,1,.56-1.34,1.81,1.81,0,0,1,1.28-.57c.74,0,1.16.31,1.16.86s-.65,1.05-1.86,1.3a.48.48,0,0,0,.48.43,1.55,1.55,0,0,0,1-.45Zm-.7-1.77a.25.25,0,0,0-.27-.27c-.34,0-.64.39-.72,1C29.38,18.2,29.75,17.94,29.77,17.65Z"/><path class="f4a4cdcd-08f6-4dd3-9e13-f932e15623f9" d="M29,20.39a1.71,1.71,0,0,1-1.34-.62,1.81,1.81,0,0,1-.35-1.17A2.54,2.54,0,0,1,27.92,17a2.19,2.19,0,0,1,1.57-.69c1.14,0,1.55.64,1.55,1.25a1.28,1.28,0,0,1-.49,1,.45.45,0,0,1,.11.17l.19.59a.38.38,0,0,1-.13.42A2.53,2.53,0,0,1,29,20.39Zm-.07-3.15a1.42,1.42,0,0,0-.39.29A1.79,1.79,0,0,0,28,18.6a1.05,1.05,0,0,0,.19.69.92.92,0,0,0,.69.32.9.9,0,0,1-.52-.69.41.41,0,0,1,.08-.31.42.42,0,0,1-.09-.32A1.73,1.73,0,0,1,28.88,17.24ZM30,17.15l0,0a.62.62,0,0,1,.18.47l0,.18a.5.5,0,0,0,.11-.29A.38.38,0,0,0,30,17.15Z"/><path class="f4a4cdcd-08f6-4dd3-9e13-f932e15623f9" d="M31.86,19.9H30.79l.72-4.15h1.08Z"/><path class="f4a4cdcd-08f6-4dd3-9e13-f932e15623f9" d="M31.86,20.29H30.79a.41.41,0,0,1-.31-.14.4.4,0,0,1-.08-.32l.72-4.15a.41.41,0,0,1,.39-.32h1.08a.41.41,0,0,1,.3.14.41.41,0,0,1,.08.32L32.25,20A.4.4,0,0,1,31.86,20.29Zm-.61-.78h.28l.59-3.36h-.28Z"/><path class="f4a4cdcd-08f6-4dd3-9e13-f932e15623f9" d="M35.68,18.59l0,.24c0,.37,0,.48.34.47l-.2.62a2.11,2.11,0,0,1-.57,0c-.41,0-.64-.23-.64-.59a1.14,1.14,0,0,1-1,.62c-.66,0-1.06-.54-1-1.36a2,2,0,0,1,.85-1.56,2.22,2.22,0,0,1,1.22-.38,4.48,4.48,0,0,1,1.32.21Zm-.91-1-.11,0a.86.86,0,0,0-.6.14,1.28,1.28,0,0,0-.41.85c0,.35.09.55.34.57s.36-.12.61-.46Z"/><path class="f4a4cdcd-08f6-4dd3-9e13-f932e15623f9" d="M33.54,20.39a1.28,1.28,0,0,1-1-.42,1.75,1.75,0,0,1-.39-1.37,2.43,2.43,0,0,1,1-1.84,2.61,2.61,0,0,1,1.45-.45,5,5,0,0,1,1.44.22.4.4,0,0,1,.27.44L36,18.88v0a.36.36,0,0,1,.26.14.4.4,0,0,1,.07.36l-.2.63a.38.38,0,0,1-.3.27,3.35,3.35,0,0,1-.66.06,1.15,1.15,0,0,1-.73-.29A1.36,1.36,0,0,1,33.54,20.39Zm1.08-3.3a1.8,1.8,0,0,0-1,.32,1.61,1.61,0,0,0-.68,1.26,1,1,0,0,0,.19.77.53.53,0,0,0,.41.17.65.65,0,0,0,.43-.13h0a.72.72,0,0,1-.52-.25.94.94,0,0,1-.19-.75,1.67,1.67,0,0,1,.55-1.12,1.27,1.27,0,0,1,.89-.22l.17,0a.4.4,0,0,1,.29.44L35,18.69a.51.51,0,0,1-.07.17l-.14.18a.4.4,0,0,1,.2.34c0,.09,0,.19.26.2h.25l-.09-.08a.85.85,0,0,1-.14-.7l0-.24.22-1.34A3.92,3.92,0,0,0,34.62,17.09ZM34.3,18h0a1,1,0,0,0-.25.58v.12a2,2,0,0,0,.19-.2Z"/><path class="f4a4cdcd-08f6-4dd3-9e13-f932e15623f9" d="M38.73,17.55H37.9l-.16,1a2.11,2.11,0,0,0,0,.26c0,.24.13.36.39.38a1.2,1.2,0,0,0,.43-.08l.2.62a1.94,1.94,0,0,1-1.15.28c-.62,0-1-.37-1-.9,0-.13,0-.28.06-.47l.17-1.07h-.6l.09-.59c.78-.13,1-.28,1.34-1.1h.51L38,16.8h.83Z"/><path class="f4a4cdcd-08f6-4dd3-9e13-f932e15623f9" d="M37.59,20.39A1.44,1.44,0,0,1,36.51,20a1.21,1.21,0,0,1-.31-.9c0-.14,0-.31.06-.49l.1-.63h-.14a.41.41,0,0,1-.3-.14.45.45,0,0,1-.09-.32l.09-.58a.4.4,0,0,1,.33-.33c.62-.1.7-.14,1-.87a.41.41,0,0,1,.36-.23h.51a.37.37,0,0,1,.29.14.35.35,0,0,1,.09.31l-.07.48h.38a.4.4,0,0,1,.39.46l-.12.75a.39.39,0,0,1-.39.33h-.5l-.1.65a1.24,1.24,0,0,0,0,.18h0a.62.62,0,0,0,.25-.06.42.42,0,0,1,.31,0,.41.41,0,0,1,.2.23l.19.62A.39.39,0,0,1,39,20,2.36,2.36,0,0,1,37.59,20.39Zm-.6-3.2.13.1a.41.41,0,0,1,.09.32L37,18.69a2.48,2.48,0,0,0,0,.42.37.37,0,0,0,.1.31.64.64,0,0,0,.5.18,2.37,2.37,0,0,0,.49,0,.74.74,0,0,1-.75-.77,2.85,2.85,0,0,1,0-.31l.16-1a.39.39,0,0,1,.34-.33.31.31,0,0,1-.13-.1.36.36,0,0,1-.09-.31v0A1.34,1.34,0,0,1,37,17.19Z"/><path class="f4a4cdcd-08f6-4dd3-9e13-f932e15623f9" d="M41.72,19.42A2.19,2.19,0,0,1,40.2,20a1.3,1.3,0,0,1-1-.47,1.39,1.39,0,0,1-.27-.93,2.18,2.18,0,0,1,.55-1.34,1.85,1.85,0,0,1,1.29-.57c.74,0,1.15.31,1.15.86s-.64,1.05-1.85,1.3a.48.48,0,0,0,.48.43,1.55,1.55,0,0,0,1-.45ZM41,17.65a.25.25,0,0,0-.27-.27c-.35,0-.64.39-.73,1C40.63,18.2,41,17.94,41,17.65Z"/><path class="f4a4cdcd-08f6-4dd3-9e13-f932e15623f9" d="M40.2,20.39a1.7,1.7,0,0,1-1.34-.62,1.82,1.82,0,0,1-.36-1.17A2.57,2.57,0,0,1,39.17,17a2.17,2.17,0,0,1,1.57-.69c1.14,0,1.55.64,1.55,1.25a1.28,1.28,0,0,1-.49,1,.39.39,0,0,1,.11.17l.18.59a.39.39,0,0,1-.12.42A2.54,2.54,0,0,1,40.2,20.39Zm-.08-3.15a1.53,1.53,0,0,0-.38.29,1.79,1.79,0,0,0-.45,1.07,1.05,1.05,0,0,0,.19.69.91.91,0,0,0,.69.32.9.9,0,0,1-.52-.69.37.37,0,0,1,.08-.31.42.42,0,0,1-.1-.32A1.81,1.81,0,0,1,40.12,17.24Zm1.08-.09,0,0a.61.61,0,0,1,.17.47.57.57,0,0,1,0,.18.46.46,0,0,0,.12-.29A.38.38,0,0,0,41.2,17.15Z"/><path class="f4a4cdcd-08f6-4dd3-9e13-f932e15623f9" d="M19.84,12.07a4.85,4.85,0,0,0-4.5-.76,5.9,5.9,0,0,1,4,1.29,5.2,5.2,0,0,1,1.84,3.61A4.24,4.24,0,0,0,19.84,12.07Z"/><path class="f4a4cdcd-08f6-4dd3-9e13-f932e15623f9" d="M21.19,16.61h0a.4.4,0,0,1-.37-.36,4.82,4.82,0,0,0-1.7-3.35,5.47,5.47,0,0,0-3.75-1.19.4.4,0,0,1-.4-.33.39.39,0,0,1,.28-.44A6,6,0,0,1,17,10.69a4.83,4.83,0,0,1,3.15,1.08,4.69,4.69,0,0,1,1.48,4.52A.41.41,0,0,1,21.19,16.61Z"/><path class="f4a4cdcd-08f6-4dd3-9e13-f932e15623f9" d="M15.12,22.11a4.5,4.5,0,0,1-5.44-3.18,3.75,3.75,0,0,1,0-1.6,3.3,3.3,0,0,0,.07.69,4,4,0,0,0,4.72,2.84,3.78,3.78,0,0,0,3.31-3.44,4.21,4.21,0,0,0-4.07-4.3A5.16,5.16,0,0,0,8.2,17.87,7.17,7.17,0,0,0,12,24.39a6.36,6.36,0,0,1-5-5,5,5,0,0,1,.45-3.55,3.69,3.69,0,0,0-4.19.39,3.34,3.34,0,0,0-.84,3.37C3.16,22.56,9,28.16,9,28.16l3.58-2.6c1.71-1.24,3.16-2.44,3.43-2.64a6.47,6.47,0,0,0,2.63-4.12A4.75,4.75,0,0,1,15.12,22.11Z"/><path class="f4a4cdcd-08f6-4dd3-9e13-f932e15623f9" d="M9,28.55a.39.39,0,0,1-.27-.11c-.25-.23-6-5.71-6.71-8.73A3.69,3.69,0,0,1,3,16a3.54,3.54,0,0,1,2.5-1,4.67,4.67,0,0,1,2.17.56.41.41,0,0,1,.14.52l0,0a4.57,4.57,0,0,0-.39,3.26,6,6,0,0,0,2,3.36,6.82,6.82,0,0,1-1.56-4.85,5.55,5.55,0,0,1,5.93-5.13,4.61,4.61,0,0,1,4.44,4.72,4.18,4.18,0,0,1-3.64,3.8,4.31,4.31,0,0,1-.88.09,4.64,4.64,0,0,1-2.86-1,4.29,4.29,0,0,0,3.31,1.46,4.81,4.81,0,0,0,.93-.09,4.44,4.44,0,0,0,3.26-3,.37.37,0,0,1,.45-.25.38.38,0,0,1,.31.42,6.82,6.82,0,0,1-2.78,4.39l-.43.35c-.61.48-1.74,1.38-3,2.3l-3.58,2.6A.39.39,0,0,1,9,28.55ZM5.5,15.76a2.77,2.77,0,0,0-2,.78,2.89,2.89,0,0,0-.72,3C3.43,22,8,26.57,9.07,27.64l3.31-2.4c1.25-.9,2.37-1.8,3-2.28.22-.18.37-.3.45-.35s.4-.33.58-.5a4.7,4.7,0,0,1-1.2.39,6.57,6.57,0,0,1-1.08.1A4.77,4.77,0,0,1,9.29,19a4.4,4.4,0,0,1,0-1.77.41.41,0,0,1,.43-.31.4.4,0,0,1,.35.4,2.54,2.54,0,0,0,.07.61,3.51,3.51,0,0,0,3.52,2.6,3.64,3.64,0,0,0,.74-.07,3.37,3.37,0,0,0,3-3.08,3.83,3.83,0,0,0-3.71-3.88A4.76,4.76,0,0,0,8.59,17.9C8.33,22,12.08,24,12.12,24a.4.4,0,0,1-.24.75,6.76,6.76,0,0,1-5.26-5.3,5.68,5.68,0,0,1,.3-3.42A3.79,3.79,0,0,0,5.5,15.76Z"/><path class="f4a4cdcd-08f6-4dd3-9e13-f932e15623f9" d="M19.45,17.2c-.6-3.27-3.91-5.24-7.43-4.59a6.42,6.42,0,0,0-4.45,3.06,4.23,4.23,0,0,0-4.93-.25c-2.27,1.49-1.52,4.34-1.26,5,1.23,3.28,7.46,9.15,7.48,9.17s0,0,.05,0,7.05-5.3,8.17-6.2C19.57,21.31,19.84,19.3,19.45,17.2ZM16,22.92c-.27.2-1.72,1.4-3.43,2.64L9,28.16s-5.87-5.6-6.6-8.54a3.34,3.34,0,0,1,.84-3.37,3.69,3.69,0,0,1,4.19-.39A5,5,0,0,0,7,19.41a6.36,6.36,0,0,0,5,5A7.17,7.17,0,0,1,8.2,17.87a5.16,5.16,0,0,1,5.51-4.75,4.21,4.21,0,0,1,4.07,4.3,3.78,3.78,0,0,1-3.31,3.44A4,4,0,0,1,9.75,18a3.3,3.3,0,0,1-.07-.69,3.75,3.75,0,0,0,0,1.6,4.5,4.5,0,0,0,5.44,3.18,4.75,4.75,0,0,0,3.55-3.31A6.47,6.47,0,0,1,16,22.92Z"/><path class="f4a4cdcd-08f6-4dd3-9e13-f932e15623f9" d="M8.88,30h0a.43.43,0,0,1-.28-.11c-.06,0-6.33-6-7.59-9.32C1,20.43-.34,16.9,2.42,15.09a4.44,4.44,0,0,1,2.45-.76,4.92,4.92,0,0,1,2.58.78A6.92,6.92,0,0,1,12,12.22a8.38,8.38,0,0,1,1.4-.13,6.35,6.35,0,0,1,6.49,5c.35,1.92.33,4.2-2.5,6.58-.78.62-8.09,6.16-8.25,6.24A.35.35,0,0,1,8.88,30ZM4.32,15.16a3.7,3.7,0,0,0-1.47.59C.61,17.22,1.7,20.18,1.74,20.3c1.07,2.84,6.07,7.75,7.17,8.81,1.22-.91,6.92-5.19,7.93-6,2.51-2.11,2.55-4.05,2.23-5.82A5.25,5.25,0,0,0,16,13.45a4.39,4.39,0,0,1,2.16,4,4.18,4.18,0,0,1-3.64,3.8,4.31,4.31,0,0,1-.88.09,4.64,4.64,0,0,1-2.86-1,4.29,4.29,0,0,0,3.31,1.46,4.81,4.81,0,0,0,.93-.09,4.44,4.44,0,0,0,3.26-3,.37.37,0,0,1,.45-.25.38.38,0,0,1,.31.42,6.82,6.82,0,0,1-2.78,4.39l-.43.35c-.61.48-1.74,1.38-3,2.3l-3.58,2.6a.39.39,0,0,1-.5,0c-.25-.23-6-5.71-6.71-8.73a3.65,3.65,0,0,1,2.27-4.55Zm1.18.6a2.77,2.77,0,0,0-2,.78,2.89,2.89,0,0,0-.72,3C3.43,22,8,26.57,9.07,27.64l3.31-2.4c1.25-.9,2.37-1.8,3-2.28.22-.18.37-.3.45-.35s.4-.33.58-.5a4.7,4.7,0,0,1-1.2.39,6.57,6.57,0,0,1-1.08.1A4.77,4.77,0,0,1,9.29,19a4.4,4.4,0,0,1,0-1.77.41.41,0,0,1,.43-.31.4.4,0,0,1,.35.4,2.54,2.54,0,0,0,.07.61,3.51,3.51,0,0,0,3.52,2.6,3.64,3.64,0,0,0,.74-.07,3.37,3.37,0,0,0,3-3.08,3.83,3.83,0,0,0-3.71-3.88A4.76,4.76,0,0,0,8.59,17.9c-.25,4,3.25,6,3.51,6.11a.4.4,0,0,1-.13.77h-.09a6.76,6.76,0,0,1-5.26-5.3,5.68,5.68,0,0,1,.3-3.42A3.79,3.79,0,0,0,5.5,15.76ZM7.84,16l0,.1,0,0a4.57,4.57,0,0,0-.39,3.26,6,6,0,0,0,2,3.36,6.82,6.82,0,0,1-1.56-4.85,5.33,5.33,0,0,1,2.65-4.32,5.73,5.73,0,0,0-2.55,2.34A.27.27,0,0,1,7.84,16Z"/><path class="f4a4cdcd-08f6-4dd3-9e13-f932e15623f9" d="M11.94,13.59a5.14,5.14,0,0,1,3.26.52,5.45,5.45,0,0,1,2.35,2.43,3.24,3.24,0,0,0-1.9-2.92A3.63,3.63,0,0,0,11.94,13.59Z"/><path class="f4a4cdcd-08f6-4dd3-9e13-f932e15623f9" d="M17.55,16.93a.39.39,0,0,1-.36-.23A5,5,0,0,0,15,14.46,4.85,4.85,0,0,0,12,14a.38.38,0,0,1-.42-.22.39.39,0,0,1,.11-.47,3,3,0,0,1,1.9-.58,4.79,4.79,0,0,1,2.24.58c1.4.76,2.3,2.19,2.09,3.33a.39.39,0,0,1-.34.32Z"/><g class="a0626d2b-ce9b-4dee-be55-ef66046e8761"><path class="f4a4cdcd-08f6-4dd3-9e13-f932e15623f9" d="M12,13.57a1.43,1.43,0,0,0-.34.39l0,.07c-.59,1.09.2,2.67,1.76,3.53s3.25.66,4-.44a1.51,1.51,0,0,0,.23-.6,5.46,5.46,0,0,0-2.35-2.41A5.09,5.09,0,0,0,12,13.57Z"/><path class="f4a4cdcd-08f6-4dd3-9e13-f932e15623f9" d="M15.29,18.48h0a4.5,4.5,0,0,1-2.14-.58,4.4,4.4,0,0,1-1.86-1.84,2.35,2.35,0,0,1-.06-2.21l.06-.1a1.75,1.75,0,0,1,.42-.48.37.37,0,0,1,.19-.09,5.55,5.55,0,0,1,3.49.59,5.75,5.75,0,0,1,2.51,2.59.51.51,0,0,1,0,.2,2.21,2.21,0,0,1-.29.78A2.78,2.78,0,0,1,15.29,18.48Zm-3.16-4.54a1.41,1.41,0,0,0-.18.23l0,.05A1.59,1.59,0,0,0,12,15.71a3.6,3.6,0,0,0,1.52,1.5,3.76,3.76,0,0,0,1.77.49h0A2,2,0,0,0,17,16.9a2.11,2.11,0,0,0,.14-.32A5,5,0,0,0,15,14.46,4.81,4.81,0,0,0,12.13,13.94Z"/></g><path class="f4a4cdcd-08f6-4dd3-9e13-f932e15623f9" d="M20.13,20.63a8.12,8.12,0,0,1,1-.06,2,2,0,0,1,1.24.29,1.13,1.13,0,0,1,.46.95A1.24,1.24,0,0,1,22,23L23,24.59H21.79l-.7-1.38h-.33l-.21,1.38h-1Zm.73,1.88h.43a.62.62,0,0,0,.55-.58c0-.34-.22-.56-.62-.56H21Z"/><path class="f4a4cdcd-08f6-4dd3-9e13-f932e15623f9" d="M23,25H21.79a.42.42,0,0,1-.36-.22L21,24l-.1.67a.4.4,0,0,1-.39.34h-1a.37.37,0,0,1-.3-.14.36.36,0,0,1-.09-.31l.59-4a.4.4,0,0,1,.35-.33,8.3,8.3,0,0,1,1.05-.06,2.33,2.33,0,0,1,1.47.36,1.55,1.55,0,0,1,.62,1.27,1.53,1.53,0,0,1-.68,1.28l.75,1.3a.39.39,0,0,1,0,.39A.4.4,0,0,1,23,25ZM22,24.19h.25l-.61-1a.36.36,0,0,1,0-.32.82.82,0,0,1-.3.07.45.45,0,0,1,.11.13Zm-2,0h.22l.16-1a.41.41,0,0,1,.26-.32l-.07-.06a.41.41,0,0,1-.09-.32l.17-1.14A.38.38,0,0,1,21,21h.22a1,1,0,0,1,.77.3.89.89,0,0,1,.24.69,1,1,0,0,1-.18.52.79.79,0,0,0,.39-.67.77.77,0,0,0-.29-.64,1.79,1.79,0,0,0-1-.21c-.24,0-.42,0-.67,0Zm1.37-2.41,0,.33a.28.28,0,0,0,.13-.2.15.15,0,0,0,0-.1Z"/><path class="f4a4cdcd-08f6-4dd3-9e13-f932e15623f9" d="M25.37,24.15a1.79,1.79,0,0,1-1.31.53,1.08,1.08,0,0,1-.88-.43,1.27,1.27,0,0,1-.24-.84,2,2,0,0,1,.48-1.21,1.52,1.52,0,0,1,1.11-.51c.63,0,1,.28,1,.77s-.56.95-1.6,1.18a.44.44,0,0,0,.41.39,1.33,1.33,0,0,0,.88-.41Zm-.6-1.6a.22.22,0,0,0-.24-.24c-.29,0-.55.35-.62.87C24.43,23.05,24.75,22.81,24.77,22.55Z"/><path class="f4a4cdcd-08f6-4dd3-9e13-f932e15623f9" d="M24.06,25.07a1.5,1.5,0,0,1-1.2-.59,1.62,1.62,0,0,1-.31-1.07,2.37,2.37,0,0,1,.58-1.48,1.92,1.92,0,0,1,1.4-.64c1,0,1.39.6,1.39,1.17a1.22,1.22,0,0,1-.42.9.38.38,0,0,1,.09.15l.16.53a.41.41,0,0,1-.12.41A2.22,2.22,0,0,1,24.06,25.07Zm-.3-2.67-.05.06a1.62,1.62,0,0,0-.38.95,1,1,0,0,0,.16.61.65.65,0,0,0,.36.23.88.88,0,0,1-.32-.55.4.4,0,0,1,.07-.28.41.41,0,0,1-.08-.3A1.91,1.91,0,0,1,23.76,22.4Z"/><path class="f4a4cdcd-08f6-4dd3-9e13-f932e15623f9" d="M27.7,21.7l.86.19-1.46,2.7h-.83l-.57-2.7.9-.19.3,1.59Z"/><path class="f4a4cdcd-08f6-4dd3-9e13-f932e15623f9" d="M27.1,25h-.83a.39.39,0,0,1-.38-.31L25.32,22a.38.38,0,0,1,.3-.46l.9-.2a.4.4,0,0,1,.3.06.39.39,0,0,1,.17.26l.08.44.28-.55a.4.4,0,0,1,.44-.21l.86.2a.4.4,0,0,1,.27.22.43.43,0,0,1,0,.35l-1.47,2.69A.38.38,0,0,1,27.1,25Zm-.51-.79h.28l1.1-2h-.06l-.66,1.32a.39.39,0,0,1-.41.21.39.39,0,0,1-.33-.31l-.22-1.2-.12,0Z"/><path class="f4a4cdcd-08f6-4dd3-9e13-f932e15623f9" d="M31,23.4l0,.22c0,.33,0,.44.3.42l-.17.57a1.88,1.88,0,0,1-.5,0,.5.5,0,0,1-.54-.53,1,1,0,0,1-.9.56c-.57,0-.91-.5-.85-1.24A1.82,1.82,0,0,1,29,22a1.89,1.89,0,0,1,1.06-.35,3.63,3.63,0,0,1,1.14.19Zm-.78-.94-.09,0a.73.73,0,0,0-.53.13,1.21,1.21,0,0,0-.35.77c0,.32.08.5.3.51s.31-.1.52-.41Z"/><path class="f4a4cdcd-08f6-4dd3-9e13-f932e15623f9" d="M29.16,25.07a1.14,1.14,0,0,1-.88-.38,1.66,1.66,0,0,1-.37-1.28,2.25,2.25,0,0,1,.9-1.69,2.18,2.18,0,0,1,1.28-.42,4.13,4.13,0,0,1,1.26.2.41.41,0,0,1,.27.44l-.25,1.72a.39.39,0,0,1,.27.49l-.17.57a.41.41,0,0,1-.3.28,2.45,2.45,0,0,1-.58,0,1,1,0,0,1-.63-.23A1.22,1.22,0,0,1,29.16,25.07Zm.08-2.69a1.45,1.45,0,0,0-.54,1.1.86.86,0,0,0,.16.68.38.38,0,0,0,.3.12.48.48,0,0,0,.26-.05A.64.64,0,0,1,29,24a.9.9,0,0,1-.18-.71A1.74,1.74,0,0,1,29.24,22.38Zm1.05,1.42a.4.4,0,0,1,.16.32c0,.08,0,.13.17.14h.12l0,0a.87.87,0,0,1-.14-.67l0-.21.18-1.19a2.26,2.26,0,0,0-.43-.07.4.4,0,0,1,.25.42l-.15,1a.44.44,0,0,1-.06.16A1.71,1.71,0,0,1,30.29,23.8Zm-.56-.75a.88.88,0,0,0-.08.3l.05-.06Z"/><path class="f4a4cdcd-08f6-4dd3-9e13-f932e15623f9" d="M32.43,21.7a.61.61,0,0,1,.18.45v.18a1.54,1.54,0,0,1,.38-.41,1,1,0,0,1,.61-.22.66.66,0,0,1,.73.73c0,.08,0,.19,0,.32L34,24.59h-.92L33.33,23c0-.09,0-.17,0-.22a.21.21,0,0,0-.23-.24c-.2,0-.35.16-.57.54l-.22,1.51H31.4l.25-1.68a2.84,2.84,0,0,0,0-.35,2,2,0,0,0,0-.37.93.93,0,0,0-.07-.29Z"/><path class="f4a4cdcd-08f6-4dd3-9e13-f932e15623f9" d="M34,25h-.92a.37.37,0,0,1-.3-.14.28.28,0,0,1-.08-.15.4.4,0,0,1-.38.29H31.4a.39.39,0,0,1-.3-.14.38.38,0,0,1-.09-.31l.25-1.68a2.79,2.79,0,0,0,0-.32,1.83,1.83,0,0,0,0-.34,1.29,1.29,0,0,0-.05-.14.42.42,0,0,1,0-.33.4.4,0,0,1,.26-.2l.8-.2a.4.4,0,0,1,.37.11.69.69,0,0,1,.11.13,1.41,1.41,0,0,1,.78-.25,1.16,1.16,0,0,1,.86.34,1.07,1.07,0,0,1,.26.8c0,.1,0,.21,0,.35l-.28,1.84A.39.39,0,0,1,34,25Zm-.47-.79h.14l.22-1.5c0-.11,0-.21,0-.29a.29.29,0,0,0-.06-.21.52.52,0,0,0-.56,0,.68.68,0,0,1,.26.15.7.7,0,0,1,.17.47s0,.11,0,.2v.06Zm-1.68,0H32L32.16,23a.58.58,0,0,1,.05-.14l.15-.25a.37.37,0,0,1-.14-.3v-.17l-.12,0a2.36,2.36,0,0,1,0,.4A2,2,0,0,1,32,23Z"/><path class="f4a4cdcd-08f6-4dd3-9e13-f932e15623f9" d="M36.51,22.72c-.22-.18-.3-.22-.45-.21-.31,0-.57.39-.57.81s.14.54.39.56.28,0,.58-.25l.19.66a1.54,1.54,0,0,1-1,.39c-.68,0-1.11-.49-1.11-1.28A1.68,1.68,0,0,1,36,21.69a1.21,1.21,0,0,1,.93.36Z"/><path class="f4a4cdcd-08f6-4dd3-9e13-f932e15623f9" d="M35.61,25.07a1.5,1.5,0,0,1-1.5-1.67A2.07,2.07,0,0,1,36,21.29a1.57,1.57,0,0,1,1.19.47.4.4,0,0,1,.07.5l-.43.67a.4.4,0,0,1-.26.18.42.42,0,0,1-.31-.09c-.13-.1-.17-.11-.17-.12a.43.43,0,0,0-.22.42.42.42,0,0,0,0,.16h0s.08,0,.32-.18a.38.38,0,0,1,.36,0,.37.37,0,0,1,.24.26l.19.66a.4.4,0,0,1-.14.42A2,2,0,0,1,35.61,25.07Zm.4-3a1.3,1.3,0,0,0-1.12,1.32c0,.33.1.88.72.88h.22a.84.84,0,0,1-.74-.95,1.13,1.13,0,0,1,1-1.2h0a.9.9,0,0,1,.3.05l0,0A.93.93,0,0,0,36,22.08Z"/><path class="f4a4cdcd-08f6-4dd3-9e13-f932e15623f9" d="M38,22.23a1.14,1.14,0,0,1,.92-.53.66.66,0,0,1,.73.73c0,.09,0,.2,0,.32l-.28,1.84h-.93L38.6,23a1.12,1.12,0,0,0,0-.22.21.21,0,0,0-.23-.23c-.21,0-.35.15-.57.53l-.23,1.51h-.92l.62-4.18h.93Z"/><path class="f4a4cdcd-08f6-4dd3-9e13-f932e15623f9" d="M39.29,25h-.93a.41.41,0,0,1-.3-.14.53.53,0,0,1-.08-.15.39.39,0,0,1-.38.29h-.92a.37.37,0,0,1-.3-.14.35.35,0,0,1-.09-.31l.62-4.18A.4.4,0,0,1,37.3,20h.93a.41.41,0,0,1,.3.14.42.42,0,0,1,.09.31l-.14.9a1.55,1.55,0,0,1,.4-.06,1.12,1.12,0,0,1,.85.34,1,1,0,0,1,.27.8c0,.1,0,.22,0,.36l-.28,1.83A.4.4,0,0,1,39.29,25Zm-.47-.79H39l.23-1.5a1.68,1.68,0,0,0,0-.29.25.25,0,0,0-.05-.21.52.52,0,0,0-.57,0,.74.74,0,0,1,.27.16.62.62,0,0,1,.16.46s0,.11,0,.2v.06Zm-1.69,0h.14L37.45,23a.33.33,0,0,1,0-.14c.07-.11.14-.23.22-.34a.38.38,0,0,1-.14-.37l.2-1.36h-.13Z"/><path class="f4a4cdcd-08f6-4dd3-9e13-f932e15623f9" d="M42.44,23.4l0,.22c0,.33,0,.44.29.42l-.17.57a1.84,1.84,0,0,1-.49,0,.51.51,0,0,1-.55-.53,1,1,0,0,1-.89.56c-.58,0-.92-.5-.86-1.24a1.8,1.8,0,0,1,1.78-1.75,3.58,3.58,0,0,1,1.14.19Zm-.78-.94-.09,0a.71.71,0,0,0-.52.13,1.21,1.21,0,0,0-.35.77c0,.32.08.5.29.51s.31-.1.53-.41Z"/><path class="f4a4cdcd-08f6-4dd3-9e13-f932e15623f9" d="M40.61,25.07a1.16,1.16,0,0,1-.89-.38,1.69,1.69,0,0,1-.36-1.28,2.18,2.18,0,0,1,2.17-2.11,4.13,4.13,0,0,1,1.26.2.4.4,0,0,1,.27.44l-.25,1.72a.46.46,0,0,1,.21.13.42.42,0,0,1,.07.36l-.17.57a.4.4,0,0,1-.31.28A2.45,2.45,0,0,1,42,25a1,1,0,0,1-.62-.23A1.24,1.24,0,0,1,40.61,25.07Zm.07-2.69a1.48,1.48,0,0,0-.54,1.1.94.94,0,0,0,.16.68.41.41,0,0,0,.31.12.43.43,0,0,0,.25-.05.59.59,0,0,1-.37-.22.9.9,0,0,1-.18-.71A1.65,1.65,0,0,1,40.68,22.38Zm1.06,1.42a.4.4,0,0,1,.16.32c0,.08,0,.13.17.14h.12l0,0a.83.83,0,0,1-.14-.67l0-.21.18-1.19a2,2,0,0,0-.42-.07.38.38,0,0,1,.24.42l-.15,1a.31.31,0,0,1-.06.16Zm-.56-.75a1.18,1.18,0,0,0-.09.3l0-.06Z"/><path class="f4a4cdcd-08f6-4dd3-9e13-f932e15623f9" d="M17.06,25.12a8.41,8.41,0,0,1,1-.07,2,2,0,0,1,1.24.29,1.16,1.16,0,0,1,.46,1,1.23,1.23,0,0,1-.83,1.13l.95,1.64H18.72L18,27.69h-.34l-.21,1.38h-1ZM17.79,27h.44a.61.61,0,0,0,.54-.57c0-.35-.22-.57-.62-.57H18Z"/><path class="f4a4cdcd-08f6-4dd3-9e13-f932e15623f9" d="M19.89,29.46H18.72a.38.38,0,0,1-.35-.21l-.4-.79-.1.67a.39.39,0,0,1-.39.33h-1a.38.38,0,0,1-.39-.45l.59-4a.4.4,0,0,1,.35-.34c.45,0,.7-.06,1.05-.06a2.4,2.4,0,0,1,1.47.36,1.59,1.59,0,0,1-.06,2.56l.75,1.29a.38.38,0,0,1,0,.4A.39.39,0,0,1,19.89,29.46ZM19,28.68h.25l-.61-1.05a.4.4,0,0,1,0-.32.79.79,0,0,1-.3.08.28.28,0,0,1,.11.13Zm-2,0h.21l.16-1.05a.38.38,0,0,1,.27-.31.27.27,0,0,1-.08-.07.39.39,0,0,1-.09-.31l.17-1.14a.41.41,0,0,1,.36-.34h.22a1,1,0,0,1,.78.3,1,1,0,0,1,.24.68A1.13,1.13,0,0,1,19,27a.8.8,0,0,0,.39-.67.75.75,0,0,0-.29-.64,1.69,1.69,0,0,0-1-.21,4.86,4.86,0,0,0-.66,0Zm1.37-2.42-.05.34a.3.3,0,0,0,.13-.21.2.2,0,0,0,0-.09S18.33,26.27,18.3,26.26Z"/><path class="f4a4cdcd-08f6-4dd3-9e13-f932e15623f9" d="M22.3,28.63a1.79,1.79,0,0,1-1.31.53,1.1,1.1,0,0,1-.88-.42,1.29,1.29,0,0,1-.24-.84,2,2,0,0,1,.48-1.22,1.52,1.52,0,0,1,1.11-.51c.64,0,1,.28,1,.77s-.55,1-1.6,1.18a.44.44,0,0,0,.42.39,1.31,1.31,0,0,0,.88-.41ZM21.7,27a.22.22,0,0,0-.23-.24c-.3,0-.56.35-.63.87C21.36,27.53,21.68,27.3,21.7,27Z"/><path class="f4a4cdcd-08f6-4dd3-9e13-f932e15623f9" d="M21,29.55a1.47,1.47,0,0,1-1.2-.59,1.61,1.61,0,0,1-.31-1.06,2.4,2.4,0,0,1,.58-1.48,1.9,1.9,0,0,1,1.4-.64c1,0,1.39.6,1.39,1.16a1.19,1.19,0,0,1-.41.9.44.44,0,0,1,.08.15l.16.53a.39.39,0,0,1-.12.41A2.2,2.2,0,0,1,21,29.55Zm-.29-2.66-.06.05a1.68,1.68,0,0,0-.38,1,.93.93,0,0,0,.16.6.69.69,0,0,0,.37.24.9.9,0,0,1-.33-.56.4.4,0,0,1,.07-.28.43.43,0,0,1-.08-.29A1.86,1.86,0,0,1,20.7,26.89Z"/><path class="f4a4cdcd-08f6-4dd3-9e13-f932e15623f9" d="M24.63,26.18l.86.2L24,29.07h-.82l-.57-2.69.89-.2.3,1.6Z"/><path class="f4a4cdcd-08f6-4dd3-9e13-f932e15623f9" d="M24,29.46h-.82a.4.4,0,0,1-.39-.31l-.57-2.69a.4.4,0,0,1,.3-.47l.9-.19a.4.4,0,0,1,.3.05.41.41,0,0,1,.17.26l.08.45.28-.55a.38.38,0,0,1,.44-.21l.86.19a.4.4,0,0,1,.27.22.39.39,0,0,1,0,.35l-1.46,2.7A.4.4,0,0,1,24,29.46Zm-.5-.78h.27l1.1-2,0,0L24.18,28a.4.4,0,0,1-.4.22.42.42,0,0,1-.34-.32l-.22-1.2-.12,0Z"/><path class="f4a4cdcd-08f6-4dd3-9e13-f932e15623f9" d="M27.93,27.89l0,.21c-.05.34,0,.44.29.42l-.17.57a1.92,1.92,0,0,1-.49.05A.52.52,0,0,1,27,28.6a1,1,0,0,1-.9.56c-.57,0-.91-.49-.85-1.23A1.85,1.85,0,0,1,26,26.52,1.83,1.83,0,0,1,27,26.18a3.87,3.87,0,0,1,1.14.18ZM27.15,27a.18.18,0,0,0-.09,0,.69.69,0,0,0-.52.12,1.17,1.17,0,0,0-.36.78c0,.31.08.49.3.51s.31-.11.52-.42Z"/><path class="f4a4cdcd-08f6-4dd3-9e13-f932e15623f9" d="M26.09,29.55a1.18,1.18,0,0,1-.88-.37,1.63,1.63,0,0,1-.36-1.28,2.21,2.21,0,0,1,.89-1.7A2.3,2.3,0,0,1,27,25.78a4.15,4.15,0,0,1,1.26.21.39.39,0,0,1,.27.43l-.25,1.72a.41.41,0,0,1,.21.14.38.38,0,0,1,.06.36l-.17.57a.39.39,0,0,1-.3.27,2.06,2.06,0,0,1-.58.05,1,1,0,0,1-.63-.23A1.27,1.27,0,0,1,26.09,29.55Zm.08-2.69a1.46,1.46,0,0,0-.54,1.1.9.9,0,0,0,.16.68.35.35,0,0,0,.3.13.46.46,0,0,0,.26-.06.64.64,0,0,1-.38-.22.88.88,0,0,1-.18-.7A1.74,1.74,0,0,1,26.17,26.86Zm1.06,1.43a.4.4,0,0,1,.15.31c0,.08,0,.13.18.14a.47.47,0,0,0,.12,0l0,0a.8.8,0,0,1-.13-.66l0-.22.18-1.19a3.34,3.34,0,0,0-.42-.07.41.41,0,0,1,.24.42l-.15,1a.49.49,0,0,1-.06.17A.71.71,0,0,0,27.23,28.29Zm-.57-.76a1.16,1.16,0,0,0-.08.31l.05-.07Z"/><path class="f4a4cdcd-08f6-4dd3-9e13-f932e15623f9" d="M29.36,26.19a.59.59,0,0,1,.18.44v.18a1.72,1.72,0,0,1,.38-.41,1,1,0,0,1,.61-.21.65.65,0,0,1,.73.72c0,.08,0,.19,0,.32L31,29.07H30l.24-1.58c0-.1,0-.18,0-.23a.2.2,0,0,0-.23-.23c-.2,0-.35.15-.57.53l-.22,1.51h-.93l.25-1.67a3,3,0,0,0,0-.36,2,2,0,0,0,0-.37.75.75,0,0,0-.07-.29Z"/><path class="f4a4cdcd-08f6-4dd3-9e13-f932e15623f9" d="M31,29.46H30a.4.4,0,0,1-.3-.13.35.35,0,0,1-.08-.16.4.4,0,0,1-.38.29h-.93a.43.43,0,0,1-.3-.13.46.46,0,0,1-.09-.32l.25-1.67a3.31,3.31,0,0,0,0-.33,1.72,1.72,0,0,0,0-.34.38.38,0,0,0,0-.13.38.38,0,0,1,0-.33.37.37,0,0,1,.25-.21l.8-.19a.37.37,0,0,1,.37.1.69.69,0,0,1,.11.13,1.4,1.4,0,0,1,.78-.24,1.14,1.14,0,0,1,.86.33,1.08,1.08,0,0,1,.26.81,2.88,2.88,0,0,1,0,.35l-.28,1.84A.39.39,0,0,1,31,29.46Zm-.47-.78h.13l.23-1.51c0-.11,0-.21,0-.29a.28.28,0,0,0-.06-.21.52.52,0,0,0-.56,0,.54.54,0,0,1,.26.16.7.7,0,0,1,.17.47s0,.1,0,.19v.06Zm-1.69,0h.13l.17-1.18a.58.58,0,0,1,.05-.14,2.5,2.5,0,0,1,.16-.24.4.4,0,0,1-.15-.31v-.17l-.12,0c0,.22,0,.24,0,.4s0,.28-.05.4Z"/><path class="f4a4cdcd-08f6-4dd3-9e13-f932e15623f9" d="M33.44,27.2C33.23,27,33.14,27,33,27a.77.77,0,0,0-.58.81c0,.35.14.55.39.56s.28,0,.59-.25l.18.66a1.51,1.51,0,0,1-1,.39,1.12,1.12,0,0,1-1.12-1.27A1.69,1.69,0,0,1,33,26.17a1.22,1.22,0,0,1,.92.36Z"/><path class="f4a4cdcd-08f6-4dd3-9e13-f932e15623f9" d="M32.55,29.55A1.5,1.5,0,0,1,31,27.89,2.06,2.06,0,0,1,33,25.78a1.59,1.59,0,0,1,1.18.46.41.41,0,0,1,.07.51l-.42.66a.39.39,0,0,1-.27.18.38.38,0,0,1-.31-.08L33,27.39c-.07,0-.22.17-.22.41a.46.46,0,0,0,0,.17h0s.07,0,.31-.18a.42.42,0,0,1,.36-.05.37.37,0,0,1,.24.26l.19.66a.39.39,0,0,1-.13.42A1.9,1.9,0,0,1,32.55,29.55Zm.4-3a1.31,1.31,0,0,0-1.13,1.33c0,.33.1.88.73.88l.21,0A.84.84,0,0,1,32,27.8,1.12,1.12,0,0,1,33,26.6h0a.7.7,0,0,1,.3.06l0,0A.91.91,0,0,0,33,26.56Z"/><path class="f4a4cdcd-08f6-4dd3-9e13-f932e15623f9" d="M34.89,26.72a1.12,1.12,0,0,1,.92-.53.65.65,0,0,1,.73.72c0,.09,0,.2,0,.32l-.28,1.84h-.93l.25-1.58c0-.1,0-.17,0-.23a.2.2,0,0,0-.23-.23c-.21,0-.35.15-.56.53l-.23,1.51h-.93l.62-4.17h.93Z"/><path class="f4a4cdcd-08f6-4dd3-9e13-f932e15623f9" d="M36.22,29.46h-.93a.39.39,0,0,1-.29-.13.35.35,0,0,1-.08-.16.41.41,0,0,1-.38.29h-.93a.38.38,0,0,1-.39-.45l.62-4.17a.41.41,0,0,1,.39-.34h.93a.39.39,0,0,1,.3.14.39.39,0,0,1,.09.31l-.14.9a1.51,1.51,0,0,1,.4-.05,1.11,1.11,0,0,1,.85.33,1,1,0,0,1,.27.81c0,.1,0,.22,0,.35l-.28,1.84A.39.39,0,0,1,36.22,29.46Zm-.47-.78h.13l.23-1.51c0-.11,0-.2,0-.29a.33.33,0,0,0-.06-.21.52.52,0,0,0-.57,0,.57.57,0,0,1,.27.16.6.6,0,0,1,.16.46,1.58,1.58,0,0,1,0,.19v.06Zm-1.69,0h.14l.18-1.18a.28.28,0,0,1,0-.13c.07-.12.14-.24.22-.35a.4.4,0,0,1-.14-.36l.2-1.37h-.13Z"/><path class="f4a4cdcd-08f6-4dd3-9e13-f932e15623f9" d="M37.54,29.07h-.93L37,26.26H38Zm.59-3.59a.55.55,0,0,1-.57.57.46.46,0,0,1-.48-.5.55.55,0,0,1,.57-.54A.45.45,0,0,1,38.13,25.48Z"/><path class="f4a4cdcd-08f6-4dd3-9e13-f932e15623f9" d="M37.54,29.46h-.93a.43.43,0,0,1-.3-.13.42.42,0,0,1-.09-.32l.42-2.81a.38.38,0,0,1,.13-.24,1.07,1.07,0,0,1-.08-.41,1,1,0,0,1,1-.94.85.85,0,0,1,.87.87,1,1,0,0,1-.21.61.37.37,0,0,1,0,.23l-.42,2.81A.4.4,0,0,1,37.54,29.46Zm-.47-.78h.13l.3-2h-.13Zm.58-3.28a.15.15,0,0,0-.17.15c0,.11,0,.11.08.11a.16.16,0,0,0,.17-.18C37.73,25.43,37.73,25.4,37.65,25.4Z"/><path class="f4a4cdcd-08f6-4dd3-9e13-f932e15623f9" d="M40.16,26.94h-.72l-.14.89a1.85,1.85,0,0,0,0,.24.31.31,0,0,0,.33.34.84.84,0,0,0,.37-.07l.17.56a1.62,1.62,0,0,1-1,.25.78.78,0,0,1-.86-.81c0-.12,0-.26,0-.42l.15-1H38l.08-.53c.68-.12.83-.25,1.15-1h.44l-.12.84h.72Z"/><path class="f4a4cdcd-08f6-4dd3-9e13-f932e15623f9" d="M39.17,29.55a1.3,1.3,0,0,1-1-.38,1.15,1.15,0,0,1-.3-.86c0-.13,0-.3,0-.45l.08-.53H38a.39.39,0,0,1-.29-.13.41.41,0,0,1-.1-.32l.08-.53A.4.4,0,0,1,38,26c.51-.09.57-.12.86-.76a.38.38,0,0,1,.35-.23h.44a.38.38,0,0,1,.3.13.39.39,0,0,1,.09.31l-.06.4h.27a.4.4,0,0,1,.3.13.42.42,0,0,1,.09.32l-.1.68a.4.4,0,0,1-.39.33h-.38l-.09.56c0,.05,0,.08,0,.13a.71.71,0,0,0,.18-.05.37.37,0,0,1,.31,0,.37.37,0,0,1,.2.24l.17.55a.39.39,0,0,1-.15.44A2,2,0,0,1,39.17,29.55Zm-.42-2.92.06.05a.46.46,0,0,1,.09.32l-.15,1a2.87,2.87,0,0,0,0,.39.35.35,0,0,0,.08.27.54.54,0,0,0,.38.13h.19a.68.68,0,0,1-.47-.68,2,2,0,0,1,0-.28l.14-.91a.4.4,0,0,1,.25-.31l-.06-.05a.48.48,0,0,1-.09-.19A1.2,1.2,0,0,1,38.75,26.63Z"/><path class="f4a4cdcd-08f6-4dd3-9e13-f932e15623f9" d="M42.9,27.89l0,.21c-.05.34,0,.44.29.42l-.17.57a1.92,1.92,0,0,1-.49.05A.51.51,0,0,1,42,28.6a1,1,0,0,1-.9.56c-.57,0-.91-.49-.85-1.23a1.85,1.85,0,0,1,.73-1.41A1.83,1.83,0,0,1,42,26.18a3.92,3.92,0,0,1,1.14.18ZM42.12,27a.2.2,0,0,0-.09,0,.73.73,0,0,0-.53.12,1.21,1.21,0,0,0-.35.78c0,.31.08.49.3.51s.31-.11.52-.42Z"/><path class="f4a4cdcd-08f6-4dd3-9e13-f932e15623f9" d="M41.06,29.55a1.17,1.17,0,0,1-.88-.37,1.63,1.63,0,0,1-.36-1.28,2.21,2.21,0,0,1,.89-1.7A2.28,2.28,0,0,1,42,25.78a4.15,4.15,0,0,1,1.26.21.39.39,0,0,1,.27.43l-.25,1.72a.35.35,0,0,1,.2.14.39.39,0,0,1,.07.36l-.17.57a.39.39,0,0,1-.3.27,2.06,2.06,0,0,1-.58.05,1,1,0,0,1-.63-.23A1.27,1.27,0,0,1,41.06,29.55Zm.08-2.69A1.46,1.46,0,0,0,40.6,28a.86.86,0,0,0,.16.68.35.35,0,0,0,.3.13.48.48,0,0,0,.26-.06.64.64,0,0,1-.38-.22.88.88,0,0,1-.18-.7A1.74,1.74,0,0,1,41.14,26.86Zm1,1.43a.38.38,0,0,1,.16.31c0,.08,0,.13.18.14a.47.47,0,0,0,.12,0l0,0a.8.8,0,0,1-.13-.66l0-.22.18-1.19a3.67,3.67,0,0,0-.42-.07.41.41,0,0,1,.24.42l-.15,1a.49.49,0,0,1-.06.17A1.71,1.71,0,0,0,42.19,28.29Zm-.56-.76a.88.88,0,0,0-.08.31l.05-.07Z"/><path class="b3f392d5-45fb-4870-9aa7-de014998798a" d="M26.19,15.75h.93l.1,4.15H26.07V17.48L24.69,19.9H24l-.58-2.4-.78,2.4H21.5L23,15.75h.91l.68,2.52Z"/><path class="b3f392d5-45fb-4870-9aa7-de014998798a" d="M30.47,19.42A2.19,2.19,0,0,1,29,20a1.31,1.31,0,0,1-1-.47,1.39,1.39,0,0,1-.27-.93,2.14,2.14,0,0,1,.56-1.34,1.81,1.81,0,0,1,1.28-.57c.74,0,1.16.31,1.16.86s-.65,1.05-1.86,1.3a.48.48,0,0,0,.48.43,1.55,1.55,0,0,0,1-.45Zm-.7-1.77a.25.25,0,0,0-.27-.27c-.34,0-.64.39-.72,1C29.38,18.2,29.75,17.94,29.77,17.65Z"/><path class="b3f392d5-45fb-4870-9aa7-de014998798a" d="M31.86,19.9H30.79l.72-4.15h1.08Z"/><path class="b3f392d5-45fb-4870-9aa7-de014998798a" d="M35.68,18.59l0,.24c0,.37,0,.48.34.47l-.2.62a2.11,2.11,0,0,1-.57,0c-.41,0-.64-.23-.64-.59a1.14,1.14,0,0,1-1,.62c-.66,0-1.06-.54-1-1.36a2,2,0,0,1,.85-1.56,2.22,2.22,0,0,1,1.22-.38,4.48,4.48,0,0,1,1.32.21Zm-.91-1-.11,0a.86.86,0,0,0-.6.14,1.28,1.28,0,0,0-.41.85c0,.35.09.55.34.57s.36-.12.61-.46Z"/><path class="b3f392d5-45fb-4870-9aa7-de014998798a" d="M38.73,17.55H37.9l-.16,1a2.11,2.11,0,0,0,0,.26c0,.24.13.36.39.38a1.2,1.2,0,0,0,.43-.08l.2.62a1.94,1.94,0,0,1-1.15.28c-.62,0-1-.37-1-.9,0-.13,0-.28.06-.47l.17-1.07h-.6l.09-.59c.78-.13,1-.28,1.34-1.1h.51L38,16.8h.83Z"/><path class="b3f392d5-45fb-4870-9aa7-de014998798a" d="M41.72,19.42A2.19,2.19,0,0,1,40.2,20a1.3,1.3,0,0,1-1-.47,1.39,1.39,0,0,1-.27-.93,2.18,2.18,0,0,1,.55-1.34,1.85,1.85,0,0,1,1.29-.57c.74,0,1.15.31,1.15.86s-.64,1.05-1.85,1.3a.48.48,0,0,0,.48.43,1.55,1.55,0,0,0,1-.45ZM41,17.65a.25.25,0,0,0-.27-.27c-.35,0-.64.39-.73,1C40.63,18.2,41,17.94,41,17.65Z"/><path class="b3f392d5-45fb-4870-9aa7-de014998798a" d="M19.84,12.07a4.85,4.85,0,0,0-4.5-.76,5.9,5.9,0,0,1,4,1.29,5.2,5.2,0,0,1,1.84,3.61A4.24,4.24,0,0,0,19.84,12.07Z"/><path class="e48b66cc-15b6-4e2c-a2af-fbf9f196a197" d="M15.12,22.11a4.5,4.5,0,0,1-5.44-3.18,3.75,3.75,0,0,1,0-1.6,3.3,3.3,0,0,0,.07.69,4,4,0,0,0,4.72,2.84,3.78,3.78,0,0,0,3.31-3.44,4.21,4.21,0,0,0-4.07-4.3A5.16,5.16,0,0,0,8.2,17.87,7.17,7.17,0,0,0,12,24.39a6.36,6.36,0,0,1-5-5,5,5,0,0,1,.45-3.55,3.69,3.69,0,0,0-4.19.39,3.34,3.34,0,0,0-.84,3.37C3.16,22.56,9,28.16,9,28.16l3.58-2.6c1.71-1.24,3.16-2.44,3.43-2.64a6.47,6.47,0,0,0,2.63-4.12A4.75,4.75,0,0,1,15.12,22.11Z"/><path class="b3f392d5-45fb-4870-9aa7-de014998798a" d="M19.45,17.2c-.6-3.27-3.91-5.24-7.43-4.59a6.42,6.42,0,0,0-4.45,3.06,4.23,4.23,0,0,0-4.93-.25c-2.27,1.49-1.52,4.34-1.26,5,1.23,3.28,7.46,9.15,7.48,9.17s0,0,.05,0,7.05-5.3,8.17-6.2C19.57,21.31,19.84,19.3,19.45,17.2ZM16,22.92c-.27.2-1.72,1.4-3.43,2.64L9,28.16s-5.87-5.6-6.6-8.54a3.34,3.34,0,0,1,.84-3.37,3.69,3.69,0,0,1,4.19-.39A5,5,0,0,0,7,19.41a6.36,6.36,0,0,0,5,5A7.17,7.17,0,0,1,8.2,17.87a5.16,5.16,0,0,1,5.51-4.75,4.21,4.21,0,0,1,4.07,4.3,3.78,3.78,0,0,1-3.31,3.44A4,4,0,0,1,9.75,18a3.3,3.3,0,0,1-.07-.69,3.75,3.75,0,0,0,0,1.6,4.5,4.5,0,0,0,5.44,3.18,4.75,4.75,0,0,0,3.55-3.31A6.47,6.47,0,0,1,16,22.92Z"/><path class="f4a4cdcd-08f6-4dd3-9e13-f932e15623f9" d="M11.94,13.59a5.14,5.14,0,0,1,3.26.52,5.45,5.45,0,0,1,2.35,2.43,3.24,3.24,0,0,0-1.9-2.92A3.63,3.63,0,0,0,11.94,13.59Z"/><g class="a0626d2b-ce9b-4dee-be55-ef66046e8761"><path class="f4a4cdcd-08f6-4dd3-9e13-f932e15623f9" d="M12,13.57a1.43,1.43,0,0,0-.34.39l0,.07c-.59,1.09.2,2.67,1.76,3.53s3.25.66,4-.44a1.51,1.51,0,0,0,.23-.6,5.46,5.46,0,0,0-2.35-2.41A5.09,5.09,0,0,0,12,13.57Z"/></g><path class="b3f392d5-45fb-4870-9aa7-de014998798a" d="M20.13,20.63a8.12,8.12,0,0,1,1-.06,2,2,0,0,1,1.24.29,1.13,1.13,0,0,1,.46.95A1.24,1.24,0,0,1,22,23L23,24.59H21.79l-.7-1.38h-.33l-.21,1.38h-1Zm.73,1.88h.43a.62.62,0,0,0,.55-.58c0-.34-.22-.56-.62-.56H21Z"/><path class="b3f392d5-45fb-4870-9aa7-de014998798a" d="M25.37,24.15a1.79,1.79,0,0,1-1.31.53,1.08,1.08,0,0,1-.88-.43,1.27,1.27,0,0,1-.24-.84,2,2,0,0,1,.48-1.21,1.52,1.52,0,0,1,1.11-.51c.63,0,1,.28,1,.77s-.56.95-1.6,1.18a.44.44,0,0,0,.41.39,1.33,1.33,0,0,0,.88-.41Zm-.6-1.6a.22.22,0,0,0-.24-.24c-.29,0-.55.35-.62.87C24.43,23.05,24.75,22.81,24.77,22.55Z"/><path class="b3f392d5-45fb-4870-9aa7-de014998798a" d="M27.7,21.7l.86.19-1.46,2.7h-.83l-.57-2.7.9-.19.3,1.59Z"/><path class="b3f392d5-45fb-4870-9aa7-de014998798a" d="M31,23.4l0,.22c0,.33,0,.44.3.42l-.17.57a1.88,1.88,0,0,1-.5,0,.5.5,0,0,1-.54-.53,1,1,0,0,1-.9.56c-.57,0-.91-.5-.85-1.24A1.82,1.82,0,0,1,29,22a1.89,1.89,0,0,1,1.06-.35,3.63,3.63,0,0,1,1.14.19Zm-.78-.94-.09,0a.73.73,0,0,0-.53.13,1.21,1.21,0,0,0-.35.77c0,.32.08.5.3.51s.31-.1.52-.41Z"/><path class="b3f392d5-45fb-4870-9aa7-de014998798a" d="M32.43,21.7a.61.61,0,0,1,.18.45v.18a1.54,1.54,0,0,1,.38-.41,1,1,0,0,1,.61-.22.66.66,0,0,1,.73.73c0,.08,0,.19,0,.32L34,24.59h-.92L33.33,23c0-.09,0-.17,0-.22a.21.21,0,0,0-.23-.24c-.2,0-.35.16-.57.54l-.22,1.51H31.4l.25-1.68a2.84,2.84,0,0,0,0-.35,2,2,0,0,0,0-.37.93.93,0,0,0-.07-.29Z"/><path class="b3f392d5-45fb-4870-9aa7-de014998798a" d="M36.51,22.72c-.22-.18-.3-.22-.45-.21-.31,0-.57.39-.57.81s.14.54.39.56.28,0,.58-.25l.19.66a1.54,1.54,0,0,1-1,.39c-.68,0-1.11-.49-1.11-1.28A1.68,1.68,0,0,1,36,21.69a1.21,1.21,0,0,1,.93.36Z"/><path class="b3f392d5-45fb-4870-9aa7-de014998798a" d="M38,22.23a1.14,1.14,0,0,1,.92-.53.66.66,0,0,1,.73.73c0,.09,0,.2,0,.32l-.28,1.84h-.93L38.6,23a1.12,1.12,0,0,0,0-.22.21.21,0,0,0-.23-.23c-.21,0-.35.15-.57.53l-.23,1.51h-.92l.62-4.18h.93Z"/><path class="b3f392d5-45fb-4870-9aa7-de014998798a" d="M42.44,23.4l0,.22c0,.33,0,.44.29.42l-.17.57a1.84,1.84,0,0,1-.49,0,.51.51,0,0,1-.55-.53,1,1,0,0,1-.89.56c-.58,0-.92-.5-.86-1.24a1.8,1.8,0,0,1,1.78-1.75,3.58,3.58,0,0,1,1.14.19Zm-.78-.94-.09,0a.71.71,0,0,0-.52.13,1.21,1.21,0,0,0-.35.77c0,.32.08.5.29.51s.31-.1.53-.41Z"/><path class="b3f392d5-45fb-4870-9aa7-de014998798a" d="M17.06,25.12a8.41,8.41,0,0,1,1-.07,2,2,0,0,1,1.24.29,1.16,1.16,0,0,1,.46,1,1.23,1.23,0,0,1-.83,1.13l.95,1.64H18.72L18,27.69h-.34l-.21,1.38h-1ZM17.79,27h.44a.61.61,0,0,0,.54-.57c0-.35-.22-.57-.62-.57H18Z"/><path class="b3f392d5-45fb-4870-9aa7-de014998798a" d="M22.3,28.63a1.79,1.79,0,0,1-1.31.53,1.1,1.1,0,0,1-.88-.42,1.29,1.29,0,0,1-.24-.84,2,2,0,0,1,.48-1.22,1.52,1.52,0,0,1,1.11-.51c.64,0,1,.28,1,.77s-.55,1-1.6,1.18a.44.44,0,0,0,.42.39,1.31,1.31,0,0,0,.88-.41ZM21.7,27a.22.22,0,0,0-.23-.24c-.3,0-.56.35-.63.87C21.36,27.53,21.68,27.3,21.7,27Z"/><path class="b3f392d5-45fb-4870-9aa7-de014998798a" d="M24.63,26.18l.86.2L24,29.07h-.82l-.57-2.69.89-.2.3,1.6Z"/><path class="b3f392d5-45fb-4870-9aa7-de014998798a" d="M27.93,27.89l0,.21c-.05.34,0,.44.29.42l-.17.57a1.92,1.92,0,0,1-.49.05A.52.52,0,0,1,27,28.6a1,1,0,0,1-.9.56c-.57,0-.91-.49-.85-1.23A1.85,1.85,0,0,1,26,26.52,1.83,1.83,0,0,1,27,26.18a3.87,3.87,0,0,1,1.14.18ZM27.15,27a.18.18,0,0,0-.09,0,.69.69,0,0,0-.52.12,1.17,1.17,0,0,0-.36.78c0,.31.08.49.3.51s.31-.11.52-.42Z"/><path class="b3f392d5-45fb-4870-9aa7-de014998798a" d="M29.36,26.19a.59.59,0,0,1,.18.44v.18a1.72,1.72,0,0,1,.38-.41,1,1,0,0,1,.61-.21.65.65,0,0,1,.73.72c0,.08,0,.19,0,.32L31,29.07H30l.24-1.58c0-.1,0-.18,0-.23a.2.2,0,0,0-.23-.23c-.2,0-.35.15-.57.53l-.22,1.51h-.93l.25-1.67a3,3,0,0,0,0-.36,2,2,0,0,0,0-.37.75.75,0,0,0-.07-.29Z"/><path class="b3f392d5-45fb-4870-9aa7-de014998798a" d="M33.44,27.2C33.23,27,33.14,27,33,27a.77.77,0,0,0-.58.81c0,.35.14.55.39.56s.28,0,.59-.25l.18.66a1.51,1.51,0,0,1-1,.39,1.12,1.12,0,0,1-1.12-1.27A1.69,1.69,0,0,1,33,26.17a1.22,1.22,0,0,1,.92.36Z"/><path class="b3f392d5-45fb-4870-9aa7-de014998798a" d="M34.89,26.72a1.12,1.12,0,0,1,.92-.53.65.65,0,0,1,.73.72c0,.09,0,.2,0,.32l-.28,1.84h-.93l.25-1.58c0-.1,0-.17,0-.23a.2.2,0,0,0-.23-.23c-.21,0-.35.15-.56.53l-.23,1.51h-.93l.62-4.17h.93Z"/><path class="b3f392d5-45fb-4870-9aa7-de014998798a" d="M37.54,29.07h-.93L37,26.26H38Zm.59-3.59a.55.55,0,0,1-.57.57.46.46,0,0,1-.48-.5.55.55,0,0,1,.57-.54A.45.45,0,0,1,38.13,25.48Z"/><path class="b3f392d5-45fb-4870-9aa7-de014998798a" d="M40.16,26.94h-.72l-.14.89a1.85,1.85,0,0,0,0,.24.31.31,0,0,0,.33.34.84.84,0,0,0,.37-.07l.17.56a1.62,1.62,0,0,1-1,.25.78.78,0,0,1-.86-.81c0-.12,0-.26,0-.42l.15-1H38l.08-.53c.68-.12.83-.25,1.15-1h.44l-.12.84h.72Z"/><path class="b3f392d5-45fb-4870-9aa7-de014998798a" d="M42.9,27.89l0,.21c-.05.34,0,.44.29.42l-.17.57a1.92,1.92,0,0,1-.49.05A.51.51,0,0,1,42,28.6a1,1,0,0,1-.9.56c-.57,0-.91-.49-.85-1.23a1.85,1.85,0,0,1,.73-1.41A1.83,1.83,0,0,1,42,26.18a3.92,3.92,0,0,1,1.14.18ZM42.12,27a.2.2,0,0,0-.09,0,.73.73,0,0,0-.53.12,1.21,1.21,0,0,0-.35.78c0,.31.08.49.3.51s.31-.11.52-.42Z"/><path class="f4a4cdcd-08f6-4dd3-9e13-f932e15623f9" d="M15.53,28.14a1.08,1.08,0,1,1-1.08-1.08A1.07,1.07,0,0,1,15.53,28.14Z"/><path class="f3679da3-3158-4d6d-90b5-814b36315d09" d="M15.2,28.13a.75.75,0,1,1-1.49,0,.75.75,0,0,1,1.49,0Z"/><path class="b3f392d5-45fb-4870-9aa7-de014998798a" d="M14.13,27.7h.4l.16,0a.2.2,0,0,1,.12.2.21.21,0,0,1,0,.12.22.22,0,0,1-.09.07l.08.05a.53.53,0,0,1,0,.11v.11a.15.15,0,0,0,0,.07.1.1,0,0,0,0,.05H14.7a0,0,0,0,1,0,0,.23.23,0,0,0,0-.07v-.13a.13.13,0,0,0-.07-.11.22.22,0,0,0-.1,0h-.26v.35h-.12Zm.38.37a.23.23,0,0,0,.13,0s0-.06,0-.11a.11.11,0,0,0-.07-.12l-.09,0h-.28v.28Z"/></svg>