<svg xmlns="http://www.w3.org/2000/svg" xmlns:xlink="http://www.w3.org/1999/xlink" id="a572ba1b-0c70-45fc-aadb-8d6366e7b062" data-name="Capa 1" viewBox="0 0 55.67 23.77"><defs><style>.a814c45a-be51-403c-9d8f-fff728905875{fill:#1d1d1b;}.b06e3bd7-8960-40f4-985d-61e1b662d620{fill:#f4bf00;stroke:#f4bf00;}.b06e3bd7-8960-40f4-985d-61e1b662d620,.fa000df4-130e-4a57-ae2e-cd77d6658803{stroke-width:0.75px;}.ad5d1a4b-7796-4b77-add9-ce7b0d5a7ee5{fill:#e20613;}.eb16a637-872e-4842-8f7d-6079dee7c2f0,.f13a08cc-bc6e-496f-ae78-e37e284251db{fill:#fff;}.f13a08cc-bc6e-496f-ae78-e37e284251db,.f6154842-cee5-4dc0-99db-231e8a51d3c6{fill-rule:evenodd;}.bd913783-31a4-4aca-a813-57ceb162e605{fill:none;stroke:#1d1d1b;stroke-width:0.6px;}.fa000df4-130e-4a57-ae2e-cd77d6658803{fill:#2b5365;stroke:#e20613;}.ad14219f-35d5-4a4d-a7ad-d1cbbb117c76{fill:url(#f8fd12f3-6d36-407f-8522-f3c3c33f1698);}.a8488b5e-abcf-41ec-b6fb-32cd70f5fe6a{fill:url(#b28d69e1-8616-4b61-a78d-baccdd71dc07);}.bcd883f9-746b-4cb0-9402-71be2b70e3d5{fill:url(#fa606078-46de-478b-b138-85229e63ade1);}.eb16a637-872e-4842-8f7d-6079dee7c2f0{stroke:#fff;stroke-width:2px;}</style><linearGradient id="f8fd12f3-6d36-407f-8522-f3c3c33f1698" x1="35.45" y1="31.27" x2="35.45" y2="40.14" gradientTransform="matrix(1, 0.01, 0.01, -1, -7.77, 49.75)" gradientUnits="userSpaceOnUse"><stop offset="0" stop-color="#d88b00"/><stop offset="0.21" stop-color="#e3a400"/><stop offset="0.54" stop-color="#f2c400"/><stop offset="0.81" stop-color="#fcd900"/><stop offset="1" stop-color="#ffe000"/></linearGradient><linearGradient id="b28d69e1-8616-4b61-a78d-baccdd71dc07" x1="41.5" y1="35.02" x2="41.5" y2="40.14" xlink:href="#f8fd12f3-6d36-407f-8522-f3c3c33f1698"/><linearGradient id="fa606078-46de-478b-b138-85229e63ade1" x1="46.01" y1="35" x2="46.01" y2="43.13" xlink:href="#f8fd12f3-6d36-407f-8522-f3c3c33f1698"/></defs><title>Logo Progol Revancha_Mesa de trabajo 1</title><path class="a814c45a-be51-403c-9d8f-fff728905875" d="M7.79,11.82s-2.68,8,3.9,9.8c0,0,10.17,3.77,29.33-12.54,0,0-17.67,11.09-22.65,11.26,0,0,13-5.08,17.91-11.38,3.36-4.31-3,1.78-2.41,1,0,0-12.6,8.39-18.42,9.69,0,0,14.54-6.24,18.79-12.28,0,0-19.93,14.06-23.64,8.12,0,0-1.73-1.79-.2-5A3.18,3.18,0,0,0,7.79,11.82Z"/><path class="b06e3bd7-8960-40f4-985d-61e1b662d620" d="M.58,11v-2h4V9.5A4.42,4.42,0,0,1,6.73,9a3.37,3.37,0,0,1,2.4.89,3.05,3.05,0,0,1,1,2.39,3,3,0,0,1-1,2.36,3.72,3.72,0,0,1-2.56.84,3.66,3.66,0,0,1-2-.52v1.34h.84v2H.54v-2h.77V11.06Zm4,1.22a1.42,1.42,0,0,0,.3,1,1,1,0,0,0,.77.36q1.11,0,1.11-1.41c0-1-.34-1.38-1-1.38a1,1,0,0,0-.8.33A1.45,1.45,0,0,0,4.58,12.26Z"/><path class="b06e3bd7-8960-40f4-985d-61e1b662d620" d="M16.21,15.46H11.14v-2H12V11.11h-.89v-2H15V10.7a2.76,2.76,0,0,1,.69-1,2.36,2.36,0,0,1,.89-.56A5.49,5.49,0,0,1,17.89,9v2.78h-.28a4.19,4.19,0,0,0-1.49.19,1.41,1.41,0,0,0-.69.54,2,2,0,0,0-.19.89h.94Z"/><path class="b06e3bd7-8960-40f4-985d-61e1b662d620" d="M18.5,12.29A2.89,2.89,0,0,1,19.67,10a4.87,4.87,0,0,1,3.15-.9,5.43,5.43,0,0,1,3.25.94,2.88,2.88,0,0,1,1.24,2.41,3,3,0,0,1-1.21,2.37,4.93,4.93,0,0,1-3.16.89,5,5,0,0,1-3.27-1A3,3,0,0,1,18.5,12.29Zm3.3,0c0,1,.35,1.51,1.07,1.51S24,13.3,24,12.29a1.79,1.79,0,0,0-.28-1.08.87.87,0,0,0-.8-.38,1,1,0,0,0-.82.36,1.66,1.66,0,0,0-.32,1.14Z"/><path class="ad5d1a4b-7796-4b77-add9-ce7b0d5a7ee5" d="M.69,11.05v-2h4v.42A4.45,4.45,0,0,1,6.85,9a3.49,3.49,0,0,1,2.4.89,3.08,3.08,0,0,1,1,2.4,3,3,0,0,1-1,2.35,3.8,3.8,0,0,1-2.57.85,3.76,3.76,0,0,1-2-.53v1.35h.83v2H.66v-2h.77V11.05Zm4,1.21a1.52,1.52,0,0,0,.31,1,1,1,0,0,0,.77.36c.73,0,1.11-.47,1.12-1.41s-.35-1.38-1-1.38a1,1,0,0,0-.82.33A1.54,1.54,0,0,0,4.68,12.26Z"/><path class="ad5d1a4b-7796-4b77-add9-ce7b0d5a7ee5" d="M16.33,15.46H11.25v-2h.9V11.11h-.9v-2h4v1.58a2.61,2.61,0,0,1,.69-1,2,2,0,0,1,.89-.55,5,5,0,0,1,1.27-.11v2.76H17.8a4,4,0,0,0-1.49.2,1.26,1.26,0,0,0-.69.53,1.84,1.84,0,0,0-.2.89h1Z"/><path class="ad5d1a4b-7796-4b77-add9-ce7b0d5a7ee5" d="M18.61,12.29A2.89,2.89,0,0,1,19.79,10,4.88,4.88,0,0,1,23,9.06a5.42,5.42,0,0,1,3.24.94,2.89,2.89,0,0,1,1.24,2.41,2.92,2.92,0,0,1-1.21,2.37,4.93,4.93,0,0,1-3.16.89,5.18,5.18,0,0,1-3.29-1A3,3,0,0,1,18.61,12.29Zm3.3,0c0,1,.35,1.51,1.06,1.51s1.15-.46,1.15-1.47a1.78,1.78,0,0,0-.26-1.08.91.91,0,0,0-.8-.39,1,1,0,0,0-.83.37,1.73,1.73,0,0,0-.32,1.1Z"/><path class="f13a08cc-bc6e-496f-ae78-e37e284251db" d="M38.2,1.47A3.57,3.57,0,0,1,38,8.6h0A3.56,3.56,0,0,1,34.47,5v0a3.57,3.57,0,0,1,3.68-3.45Z"/><path class="f13a08cc-bc6e-496f-ae78-e37e284251db" d="M40.46,5.15a8.42,8.42,0,0,0-1.27.12,6.17,6.17,0,0,0-1-1.13c.08-.46.25-.82.33-1.26a1.51,1.51,0,0,1,1.9,2.27Z"/><path class="f13a08cc-bc6e-496f-ae78-e37e284251db" d="M36.78,7.89A3.46,3.46,0,0,1,37.2,7a5,5,0,0,0,1.44-.24,11.09,11.09,0,0,1,1,.65C39.5,8.65,37.49,8.64,36.78,7.89Z"/><path class="f13a08cc-bc6e-496f-ae78-e37e284251db" d="M35.59,7.41a19.63,19.63,0,0,1,2,1A2.42,2.42,0,0,1,35.59,7.41Z"/><path class="f13a08cc-bc6e-496f-ae78-e37e284251db" d="M34.62,4.84c.15.44.21.94.57,1.18a3.55,3.55,0,0,0,.34,1.39A3.15,3.15,0,0,1,34.62,4.84Z"/><path class="f6154842-cee5-4dc0-99db-231e8a51d3c6" d="M37.36,2.28a1.51,1.51,0,0,1,0-.6,1,1,0,0,0-.61.14,1.67,1.67,0,0,1,1.06-.3.51.51,0,0,0-.4.59.56.56,0,0,0,0,.12c.36.21.83.29,1.09.59a7,7,0,0,1,1.38-.17,1.83,1.83,0,0,0,0-.66,3.31,3.31,0,0,1,1.59,2c-.16-.17-.45,0-.56-.08a4.3,4.3,0,0,0-.2,2.58c.17,0,.55.13.55-.09.16.08-.1.19-.06.33,0-.24-.18-.24-.44-.24A4.11,4.11,0,0,0,39.28,8.2c.68,0,1.16-.69,1.63-1.11C39,10,34.25,8.25,34.52,4.69A3.56,3.56,0,0,1,36.6,1.82c-.5.43-1.28.59-1.37,1.5.23.09.56-.2,1-.14A3.08,3.08,0,0,1,37.36,2.28Zm1.2.63c-.08.44-.25.8-.33,1.25a6.38,6.38,0,0,1,1,1.11c.41-.06.89-.09,1.27-.12a1.51,1.51,0,0,0-1.9-2.24Zm.57,2.38a10.74,10.74,0,0,0-1-1.14c-.46.14-1,.19-1.45.29a5.42,5.42,0,0,1-.45-1.18c-1.55-.19-1.78,2-1,2.78a4.17,4.17,0,0,0,1-.24,3.64,3.64,0,0,1,.49-1.36c-.08.46-.5.89-.43,1.42a2,2,0,0,0,1,1.06c.46.11.89-.2,1.44-.24a3.54,3.54,0,0,0,.49-1.41ZM35.57,7.43A3.35,3.35,0,0,1,35.23,6c-.36-.23-.43-.74-.57-1.17a3.11,3.11,0,0,0,.87,2.54Zm4.08,0c-.33-.21-.61-.45-1-.64A4.71,4.71,0,0,1,37.24,7a3.81,3.81,0,0,0-.42.89c.67.73,2.68.74,2.8-.55Zm-2,1a18.88,18.88,0,0,0-2-1,2.44,2.44,0,0,0,2,1Z"/><path class="f13a08cc-bc6e-496f-ae78-e37e284251db" d="M38.64,6.68c-.54,0-1,.35-1.44.24a2,2,0,0,1-1-1.09c-.07-.5.35-1,.43-1.42a3.69,3.69,0,0,0-.49,1.37,4.17,4.17,0,0,1-1,.24c-.76-.82-.51-3,1-2.79a5.42,5.42,0,0,0,.45,1.18c.48-.1,1-.15,1.45-.28a9.07,9.07,0,0,1,1,1.14A3.54,3.54,0,0,1,38.64,6.68Z"/><path class="bd913783-31a4-4aca-a813-57ceb162e605" d="M34.46,5a3.62,3.62,0,1,1,3.67,3.57H38A3.56,3.56,0,0,1,34.46,5Z"/><path class="fa000df4-130e-4a57-ae2e-cd77d6658803" d="M31.65,10l-.53.55H31a.38.38,0,0,0-.27.09,1.42,1.42,0,0,1,.13.61A3.88,3.88,0,0,1,29.59,14a3,3,0,0,1-2.27,1A1.77,1.77,0,0,1,26,14.47a.61.61,0,0,0-.41.59c0,.35.33.52,1,.5H27a1.88,1.88,0,0,1,1.25.41,1.47,1.47,0,0,1,.49,1.2,1.38,1.38,0,0,1-.56,1.23,2.45,2.45,0,0,1-1.38.29,3.44,3.44,0,0,1-1.74-.52c-.69-.38-1-.83-1.07-1.34l.75-.11c0,.32.32.59.79.79a3,3,0,0,0,1.17.25c.41,0,.62-.12.62-.37s-.15-.41-.45-.46h-.75c-1.09,0-1.63-.47-1.62-1.38a1.41,1.41,0,0,1,.36-.89,2.25,2.25,0,0,1,.8-.6,1.37,1.37,0,0,1-.09-.57,3.51,3.51,0,0,1,1.11-2.56,3.38,3.38,0,0,1,2.47-1.12,2,2,0,0,1,1,.23A1.43,1.43,0,0,1,31,9.82,1.13,1.13,0,0,1,31.65,10Zm-2.18,1.23a.46.46,0,0,0-.36-.54H29c-.36,0-.77.37-1.23,1.1a3.41,3.41,0,0,0-.66,1.62q0,.45.48.45c.32,0,.83-.33,1.28-1A3,3,0,0,0,29.47,11.27Z"/><path class="fa000df4-130e-4a57-ae2e-cd77d6658803" d="M36.93,10.11l-.51.55h-.11a.41.41,0,0,0-.28.09,1.42,1.42,0,0,1,.13.61,3.59,3.59,0,0,1-1.08,2.52A3.3,3.3,0,0,1,32.62,15c-1.19,0-1.78-.5-1.78-1.5A3.48,3.48,0,0,1,31.94,11a3.38,3.38,0,0,1,2.47-1.12,2,2,0,0,1,1,.22,1.5,1.5,0,0,1,.8-.21A1,1,0,0,1,36.93,10.11ZM34.82,11.3a.46.46,0,0,0-.52-.53c-.34,0-.77.36-1.24,1.09a3.58,3.58,0,0,0-.65,1.63.4.4,0,0,0,.34.45h.13c.41,0,.84-.34,1.3-1A3.21,3.21,0,0,0,34.82,11.3Z"/><path class="fa000df4-130e-4a57-ae2e-cd77d6658803" d="M40.73,6.92,38,12.9a1.67,1.67,0,0,0-.16.58c0,.19.11.29.34.29l.25-.06h.17a1,1,0,0,1-.1.55,1.25,1.25,0,0,1-.45.49,1.28,1.28,0,0,1-.76.25,1,1,0,0,1-1.16-.88.71.71,0,0,1,0-.29,4.78,4.78,0,0,1,.56-1.67l2.48-5.24Z"/><path class="ad14219f-35d5-4a4d-a7ad-d1cbbb117c76" d="M31.72,10l-.52.56h-.11a.34.34,0,0,0-.27.09,1.42,1.42,0,0,1,.13.61A3.88,3.88,0,0,1,29.67,14a3,3,0,0,1-2.27,1,1.75,1.75,0,0,1-1.34-.47.6.6,0,0,0-.4.59c0,.35.33.52,1,.5h.45a1.83,1.83,0,0,1,1.25.41,1.5,1.5,0,0,1,.49,1.18,1.43,1.43,0,0,1-.56,1.23,2.45,2.45,0,0,1-1.38.29,3.44,3.44,0,0,1-1.74-.52c-.7-.38-1.05-.83-1.07-1.34l.75-.11c.05.33.32.59.79.79a3,3,0,0,0,1.17.25c.41,0,.62-.12.62-.37s-.15-.41-.45-.46h-.75c-1.09,0-1.63-.47-1.63-1.38a1.48,1.48,0,0,1,.37-.89,2.25,2.25,0,0,1,.8-.6,1.37,1.37,0,0,1-.09-.57,3.55,3.55,0,0,1,1.13-2.56,3.37,3.37,0,0,1,2.47-1.12,2,2,0,0,1,1,.23,1.35,1.35,0,0,1,.81-.21A1,1,0,0,1,31.72,10Zm-2.16,1.23q0-.54-.51-.54c-.36,0-.78.37-1.24,1.11a3.39,3.39,0,0,0-.65,1.62c0,.29.16.44.48.44s.83-.33,1.28-1A3.1,3.1,0,0,0,29.56,11.27Z"/><path class="a8488b5e-abcf-41ec-b6fb-32cd70f5fe6a" d="M37,10.11l-.51.55h-.11a.41.41,0,0,0-.28.09,1.59,1.59,0,0,1,.13.61,3.59,3.59,0,0,1-1.08,2.52A3.31,3.31,0,0,1,32.7,15c-1.17,0-1.78-.51-1.78-1.5A3.53,3.53,0,0,1,32,11,3.38,3.38,0,0,1,34.5,9.88a2,2,0,0,1,1,.22,1.5,1.5,0,0,1,.8-.21A1,1,0,0,1,37,10.11ZM34.82,11.3a.46.46,0,0,0-.52-.53c-.34,0-.77.36-1.24,1.09a3.47,3.47,0,0,0-.65,1.63.4.4,0,0,0,.34.45h.13c.41,0,.84-.34,1.3-1A3.21,3.21,0,0,0,34.82,11.3Z"/><path class="bcd883f9-746b-4cb0-9402-71be2b70e3d5" d="M40.81,6.92,38,12.9a1.43,1.43,0,0,0-.16.58c0,.19.11.29.34.29l.26-.06h.16a1,1,0,0,1-.1.55,1.25,1.25,0,0,1-.45.49,1.28,1.28,0,0,1-.76.25,1,1,0,0,1-1.16-.88.71.71,0,0,1,0-.29,4.78,4.78,0,0,1,.56-1.67l2.48-5.24Z"/><path class="eb16a637-872e-4842-8f7d-6079dee7c2f0" d="M31.35,18a5.87,5.87,0,0,1,.83-.05,1.62,1.62,0,0,1,1,.23,1,1,0,0,1,.37.79,1,1,0,0,1-.68.91l.79,1.36h-1l-.57-1.12h-.28l-.18,1.14h-.83Zm.6,1.55h.37a.5.5,0,0,0,.44-.48c0-.29-.19-.46-.52-.46h-.15Z"/><path class="eb16a637-872e-4842-8f7d-6079dee7c2f0" d="M35.71,20.86a1.48,1.48,0,0,1-1.08.43A.91.91,0,0,1,33.9,21a1.09,1.09,0,0,1-.19-.7,1.6,1.6,0,0,1,.39-1,1.26,1.26,0,0,1,.89-.43c.53,0,.82.24.82.65s-.46.78-1.32,1a.36.36,0,0,0,.33.29,1.09,1.09,0,0,0,.72-.34Zm-.5-1.32a.18.18,0,0,0-.16-.2h0c-.24,0-.46.29-.51.71.39-.09.66-.29.67-.51Z"/><path class="eb16a637-872e-4842-8f7d-6079dee7c2f0" d="M37.59,18.83l.72.16L37.1,21.22h-.68L36,19l.74-.16.24,1.32Z"/><path class="eb16a637-872e-4842-8f7d-6079dee7c2f0" d="M40.32,20.24v.18c0,.28,0,.37.24.35l-.13.47a2.8,2.8,0,0,1-.41,0,.42.42,0,0,1-.45-.39v-.06a.8.8,0,0,1-.74.47c-.48,0-.76-.4-.71-1a1.55,1.55,0,0,1,.6-1.16,1.62,1.62,0,0,1,.9-.28,3,3,0,0,1,.94.15Zm-.65-.77H39.6a.54.54,0,0,0-.43.09,1,1,0,0,0-.29.65c0,.25.06.41.24.41s.26-.08.43-.33Z"/><path class="eb16a637-872e-4842-8f7d-6079dee7c2f0" d="M41.5,18.84a.56.56,0,0,1,.15.37v.15A1.43,1.43,0,0,1,42,19a.89.89,0,0,1,.5-.18.53.53,0,0,1,.6.46.61.61,0,0,1,0,.14v.27l-.23,1.51H42l.2-1.31v-.19a.18.18,0,0,0-.14-.19h-.05c-.17,0-.29.13-.47.44l-.18,1.25h-.77l.22-1.38v-.29a1.61,1.61,0,0,0,0-.31A.69.69,0,0,0,40.8,19Z"/><path class="eb16a637-872e-4842-8f7d-6079dee7c2f0" d="M44.87,19.68c-.18-.15-.25-.18-.38-.17a.79.79,0,0,0-.47.66c0,.34.12.45.32.46s.23,0,.48-.2L45,21a1.21,1.21,0,0,1-.89.32.89.89,0,0,1-.91-.87,1.1,1.1,0,0,1,0-.18,1.4,1.4,0,0,1,1.26-1.42,1,1,0,0,1,.75.31Z"/><path class="eb16a637-872e-4842-8f7d-6079dee7c2f0" d="M46.05,19.28a1,1,0,0,1,.77-.44.55.55,0,0,1,.6.47v.4l-.24,1.51h-.77l.2-1.31v-.19a.16.16,0,0,0-.15-.18h0c-.17,0-.29.12-.47.43l-.18,1.25H45l.52-3.45h.76Z"/><path class="eb16a637-872e-4842-8f7d-6079dee7c2f0" d="M49.76,20.24v.18c0,.28,0,.37.24.35l-.14.47a1.41,1.41,0,0,1-.41,0,.42.42,0,0,1-.45-.39v-.06a.8.8,0,0,1-.74.47c-.48,0-.76-.4-.7-1a1.52,1.52,0,0,1,.59-1.16,1.62,1.62,0,0,1,.9-.28A2.91,2.91,0,0,1,50,19Zm-.68-.77h0a.6.6,0,0,0-.43.09,1,1,0,0,0-.29.65c0,.25.06.41.25.41s.25-.08.43-.33Z"/><path class="a814c45a-be51-403c-9d8f-fff728905875" d="M31.35,18a5.87,5.87,0,0,1,.83-.05,1.62,1.62,0,0,1,1,.23,1,1,0,0,1,.37.79,1,1,0,0,1-.68.91l.79,1.36h-1l-.57-1.12h-.28l-.18,1.14h-.83Zm.6,1.55h.37a.5.5,0,0,0,.44-.48c0-.29-.19-.46-.52-.46h-.15Z"/><path class="a814c45a-be51-403c-9d8f-fff728905875" d="M35.71,20.86a1.48,1.48,0,0,1-1.08.43A.91.91,0,0,1,33.9,21a1.09,1.09,0,0,1-.19-.7,1.6,1.6,0,0,1,.39-1,1.26,1.26,0,0,1,.89-.43c.53,0,.82.24.82.65s-.46.78-1.32,1a.36.36,0,0,0,.33.29,1.09,1.09,0,0,0,.72-.34Zm-.5-1.32a.18.18,0,0,0-.16-.2h0c-.24,0-.46.29-.51.71.39-.09.66-.29.67-.51Z"/><path class="a814c45a-be51-403c-9d8f-fff728905875" d="M37.59,18.83l.72.16L37.1,21.22h-.68L36,19l.74-.16.24,1.32Z"/><path class="a814c45a-be51-403c-9d8f-fff728905875" d="M40.32,20.24v.18c0,.28,0,.37.24.35l-.13.47a2.8,2.8,0,0,1-.41,0,.42.42,0,0,1-.45-.39v-.06a.8.8,0,0,1-.74.47c-.48,0-.76-.4-.71-1a1.55,1.55,0,0,1,.6-1.16,1.62,1.62,0,0,1,.9-.28,3,3,0,0,1,.94.15Zm-.65-.77H39.6a.54.54,0,0,0-.43.09,1,1,0,0,0-.29.65c0,.25.06.41.24.41s.26-.08.43-.33Z"/><path class="a814c45a-be51-403c-9d8f-fff728905875" d="M41.5,18.84a.56.56,0,0,1,.15.37v.15A1.43,1.43,0,0,1,42,19a.89.89,0,0,1,.5-.18.53.53,0,0,1,.6.46.61.61,0,0,1,0,.14v.27l-.23,1.51H42l.2-1.31v-.19a.18.18,0,0,0-.14-.19h-.05c-.17,0-.29.13-.47.44l-.18,1.25h-.77l.22-1.38v-.29a1.61,1.61,0,0,0,0-.31A.69.69,0,0,0,40.8,19Z"/><path class="a814c45a-be51-403c-9d8f-fff728905875" d="M44.87,19.68c-.18-.15-.25-.18-.38-.17a.79.79,0,0,0-.47.66c0,.34.12.45.32.46s.23,0,.48-.2L45,21a1.21,1.21,0,0,1-.89.32.89.89,0,0,1-.91-.87,1.1,1.1,0,0,1,0-.18,1.4,1.4,0,0,1,1.26-1.42,1,1,0,0,1,.75.31Z"/><path class="a814c45a-be51-403c-9d8f-fff728905875" d="M46.05,19.28a1,1,0,0,1,.77-.44.55.55,0,0,1,.6.47v.4l-.24,1.51h-.77l.2-1.31v-.19a.16.16,0,0,0-.15-.18h0c-.17,0-.29.12-.47.43l-.18,1.25H45l.52-3.45h.76Z"/><path class="a814c45a-be51-403c-9d8f-fff728905875" d="M49.76,20.24v.18c0,.28,0,.37.24.35l-.14.47a1.41,1.41,0,0,1-.41,0,.42.42,0,0,1-.45-.39v-.06a.8.8,0,0,1-.74.47c-.48,0-.76-.4-.7-1a1.52,1.52,0,0,1,.59-1.16,1.62,1.62,0,0,1,.9-.28A2.91,2.91,0,0,1,50,19Zm-.68-.77h0a.6.6,0,0,0-.43.09,1,1,0,0,0-.29.65c0,.25.06.41.25.41s.25-.08.43-.33Z"/><path class="ad5d1a4b-7796-4b77-add9-ce7b0d5a7ee5" d="M31.26,8.25A1.27,1.27,0,0,1,30,7,1.29,1.29,0,0,1,31.2,5.7,1.27,1.27,0,0,1,32.5,7V7A1.26,1.26,0,0,1,31.26,8.25Zm0-2.34A1.08,1.08,0,1,0,32.32,7a1.08,1.08,0,0,0-1.06-1.1Z"/><path class="ad5d1a4b-7796-4b77-add9-ce7b0d5a7ee5" d="M30.71,6.34h.63a.55.55,0,0,1,.25,0,.34.34,0,0,1,.15.49.47.47,0,0,1-.15.13.2.2,0,0,1,.12.08.58.58,0,0,1,.05.16v.27s0,.07.07.08h-.22V7.26a.21.21,0,0,0-.1-.17H30.9v.54h-.19Zm.61.59a.34.34,0,0,0,.2,0,.22.22,0,0,0,.07-.18.2.2,0,0,0-.09-.19h-.6V7Z"/></svg>