<svg xmlns="http://www.w3.org/2000/svg" id="b690b5c7-6b5d-4d40-98e4-680e784fd71b" data-name="Capa 1" viewBox="0 0 310 170"><defs><style>.ed1517e6-29d6-4d43-bf72-9a37899f3948{fill:#4c9c2e;}</style></defs><path class="ed1517e6-29d6-4d43-bf72-9a37899f3948" d="M43.47,124.07c-.17-.29-.31-.6-.45-.9A46.18,46.18,0,1,1,97.47,65.86a23.28,23.28,0,0,1,3.75.8,49.61,49.61,0,1,0-59,59.84Z"/><path class="ed1517e6-29d6-4d43-bf72-9a37899f3948" d="M41.87,117.78a15.68,15.68,0,0,1,2.48-8.65,26.2,26.2,0,1,1,29.79-43l.13.09a30.69,30.69,0,1,0-43.95,42.65l.11.14A35.53,35.53,0,1,1,84.14,67.39a26.17,26.17,0,0,1,8.57-1.76,41.66,41.66,0,1,0-50.81,52.6C41.89,118.08,41.87,117.94,41.87,117.78Z"/><path class="ed1517e6-29d6-4d43-bf72-9a37899f3948" d="M49,138.32A21,21,0,0,1,43,136L47.14,128a21.35,21.35,0,0,0,10.78,3,7.69,7.69,0,0,0,3.15-.51c.74-.33,1.1-.79,1.1-1.37s-.37-1-1.12-1.32a21.84,21.84,0,0,0-3.54-1.1,43.39,43.39,0,0,1-5.3-1.67,9.76,9.76,0,0,1-3.67-2.6A6.69,6.69,0,0,1,47,117.78a10.62,10.62,0,0,1,1.94-6.32,12.42,12.42,0,0,1,5.6-4.2,22.81,22.81,0,0,1,8.63-1.49,29.81,29.81,0,0,1,6.65.71,18.61,18.61,0,0,1,5.32,2l-3.88,7.86a14.48,14.48,0,0,0-4.14-1.78,18,18,0,0,0-4.63-.6,7.8,7.8,0,0,0-3.48.64c-.82.43-1.23.93-1.23,1.51s.37,1,1.12,1.37a21.9,21.9,0,0,0,3.68,1.1,39.17,39.17,0,0,1,5.23,1.55,9.43,9.43,0,0,1,3.67,2.56A6.58,6.58,0,0,1,73,127.29a10.32,10.32,0,0,1-2,6.25,12.57,12.57,0,0,1-5.62,4.18,22.65,22.65,0,0,1-8.58,1.49A33.06,33.06,0,0,1,49,138.32Z"/><path class="ed1517e6-29d6-4d43-bf72-9a37899f3948" d="M82.84,137.77a10.81,10.81,0,0,1-4.8-4.09,11.44,11.44,0,0,1-1.66-6.21,18.56,18.56,0,0,1,.36-3.38l3.52-17.59H91l-3.47,17.41a10.68,10.68,0,0,0-.28,2.33,4.23,4.23,0,0,0,1.1,3.19,4.44,4.44,0,0,0,3.2,1,4.66,4.66,0,0,0,3.69-1.5,11.22,11.22,0,0,0,2.06-5.07l3.47-17.41h10.6l-3.61,18c-1,4.84-2.92,8.49-5.85,11s-6.82,3.7-11.69,3.7A17.63,17.63,0,0,1,82.84,137.77Z"/><path class="ed1517e6-29d6-4d43-bf72-9a37899f3948" d="M140.46,109.29A9.41,9.41,0,0,1,144,117.1a12.75,12.75,0,0,1-2,7.08,13.1,13.1,0,0,1-5.66,4.75,20.21,20.21,0,0,1-8.52,1.69h-5.53l-1.55,7.86H110l6.39-32h14.21Q136.94,106.5,140.46,109.29Zm-8.63,11.9a4,4,0,0,0,1.23-3.13q0-3.24-4-3.24h-3.61l-1.5,7.49h4.42A5,5,0,0,0,131.83,121.19Z"/><path class="ed1517e6-29d6-4d43-bf72-9a37899f3948" d="M158.77,114.63l-.73,3.75h13.52L170,126.14H156.45l-.83,4.21h16L170,138.48H143.43l6.39-32h26l-1.64,8.13Z"/><path class="ed1517e6-29d6-4d43-bf72-9a37899f3948" d="M205.93,124.43a13.35,13.35,0,0,1-6.37,4.73l5.35,9.32h-11.2l-4.52-8h-2.65l-1.59,8H174.17l6.39-32H194.9q6.32,0,9.8,2.77a9.3,9.3,0,0,1,3.5,7.74A12.45,12.45,0,0,1,205.93,124.43Zm-12.67-9.61h-3.61l-1.51,7.49h4.43a5,5,0,0,0,3.47-1.12,4,4,0,0,0,1.24-3.13Q197.28,114.82,193.26,114.82Z"/><path class="ed1517e6-29d6-4d43-bf72-9a37899f3948" d="M214.59,106.5h10.78l-6.4,32H208.2Z"/><path class="ed1517e6-29d6-4d43-bf72-9a37899f3948" d="M233.61,137.4a13.31,13.31,0,0,1-5.66-5,14,14,0,0,1-2-7.45,19.12,19.12,0,0,1,2.58-9.93,17.84,17.84,0,0,1,7.17-6.79,22,22,0,0,1,10.39-2.42,19.14,19.14,0,0,1,8.57,1.81,13.31,13.31,0,0,1,5.66,5,14,14,0,0,1,2,7.45,19.12,19.12,0,0,1-2.58,9.93,17.84,17.84,0,0,1-7.17,6.79,22,22,0,0,1-10.4,2.42A19.13,19.13,0,0,1,233.61,137.4Zm13.93-8.24a8.42,8.42,0,0,0,2.9-3.56,11.86,11.86,0,0,0,1-4.89,5.8,5.8,0,0,0-6.26-6.21,7.57,7.57,0,0,0-4.45,1.32,8.42,8.42,0,0,0-2.9,3.56,11.86,11.86,0,0,0-1,4.89,5.8,5.8,0,0,0,6.26,6.21A7.59,7.59,0,0,0,247.54,129.16Z"/><path class="ed1517e6-29d6-4d43-bf72-9a37899f3948" d="M294.68,124.43a13.4,13.4,0,0,1-6.37,4.73l5.34,9.32H282.46l-4.52-8h-2.65l-1.6,8H262.91l6.4-32h14.34q6.3,0,9.79,2.77a9.28,9.28,0,0,1,3.5,7.74A12.45,12.45,0,0,1,294.68,124.43ZM282,114.82h-3.6l-1.51,7.49h4.43a5,5,0,0,0,3.47-1.12,4,4,0,0,0,1.23-3.13Q286,114.82,282,114.82Z"/><path class="ed1517e6-29d6-4d43-bf72-9a37899f3948" d="M49.69,101.29A19.73,19.73,0,0,1,44,99.08l3.91-7.47A20,20,0,0,0,58.06,94.4a7.47,7.47,0,0,0,3-.47c.68-.32,1-.75,1-1.29s-.35-.93-1.05-1.25a22,22,0,0,0-3.33-1,40,40,0,0,1-5-1.57,9.19,9.19,0,0,1-3.45-2.45A6.26,6.26,0,0,1,47.75,82,9.93,9.93,0,0,1,49.58,76a11.61,11.61,0,0,1,5.26-4A21.33,21.33,0,0,1,63,70.69a28.13,28.13,0,0,1,6.25.66,17.61,17.61,0,0,1,5,1.92l-3.65,7.38A13.7,13.7,0,0,0,66.67,79a17.15,17.15,0,0,0-4.36-.56,7.21,7.21,0,0,0-3.26.6c-.77.4-1.16.87-1.16,1.42s.35,1,1,1.29a21.43,21.43,0,0,0,3.46,1,37.31,37.31,0,0,1,4.92,1.46,9,9,0,0,1,3.46,2.4,6.22,6.22,0,0,1,1.46,4.3,9.73,9.73,0,0,1-1.85,5.88,11.83,11.83,0,0,1-5.28,3.93,21.38,21.38,0,0,1-8.08,1.4A30.84,30.84,0,0,1,49.69,101.29Z"/><path class="ed1517e6-29d6-4d43-bf72-9a37899f3948" d="M82.18,100.43a12.57,12.57,0,0,1-5.33-4.74,13.21,13.21,0,0,1-1.86-7,18,18,0,0,1,2.42-9.34A16.75,16.75,0,0,1,84.15,73a20.63,20.63,0,0,1,9.78-2.28,18.1,18.1,0,0,1,8,1.7,12.54,12.54,0,0,1,5.32,4.74,13.11,13.11,0,0,1,1.87,7,18,18,0,0,1-2.42,9.34A16.74,16.74,0,0,1,100,99.85a20.56,20.56,0,0,1-9.77,2.28A18.07,18.07,0,0,1,82.18,100.43Zm13.1-7.75A8,8,0,0,0,98,89.33a11.1,11.1,0,0,0,.94-4.6,5.45,5.45,0,0,0-5.88-5.84,7.13,7.13,0,0,0-4.19,1.25,8,8,0,0,0-2.73,3.35,11.05,11.05,0,0,0-.94,4.59,5.44,5.44,0,0,0,5.88,5.85A7.15,7.15,0,0,0,95.28,92.68Z"/><path class="ed1517e6-29d6-4d43-bf72-9a37899f3948" d="M139.6,88.23a12.56,12.56,0,0,1-6,4.45l5,8.76H128.11l-4.25-7.56h-2.49l-1.5,7.56H109.73l6-30.06h13.48c4,0,7,.86,9.21,2.6a8.74,8.74,0,0,1,3.29,7.27A11.69,11.69,0,0,1,139.6,88.23Zm-11.92-9h-3.39l-1.42,7H127a4.68,4.68,0,0,0,3.26-1,3.78,3.78,0,0,0,1.16-3Q131.46,79.19,127.68,79.19Z"/><path class="ed1517e6-29d6-4d43-bf72-9a37899f3948" d="M152.25,79.24h-8.8L145,71.38h27.75l-1.59,7.86h-8.8L158,101.44H147.83Z"/><path class="ed1517e6-29d6-4d43-bf72-9a37899f3948" d="M183.82,79l-.69,3.52h12.71l-1.46,7.31H181.63l-.77,4h15.07l-1.55,7.64h-25l6-30.06h24.44L198.29,79Z"/><path class="ed1517e6-29d6-4d43-bf72-9a37899f3948" d="M207.16,100.43a12.57,12.57,0,0,1-5.33-4.74,13.21,13.21,0,0,1-1.86-7,18.08,18.08,0,0,1,2.42-9.34A16.72,16.72,0,0,1,209.14,73a20.56,20.56,0,0,1,9.77-2.28,18.1,18.1,0,0,1,8.05,1.7,12.54,12.54,0,0,1,5.32,4.74,13.11,13.11,0,0,1,1.87,7,17.94,17.94,0,0,1-2.42,9.34A16.74,16.74,0,0,1,225,99.85a20.56,20.56,0,0,1-9.77,2.28A18.1,18.1,0,0,1,207.16,100.43Zm13.1-7.75A8,8,0,0,0,223,89.33a11.1,11.1,0,0,0,.94-4.6,5.44,5.44,0,0,0-5.88-5.84,7.13,7.13,0,0,0-4.19,1.25,8,8,0,0,0-2.73,3.35,11.05,11.05,0,0,0-.94,4.59,5.45,5.45,0,0,0,5.88,5.85A7.15,7.15,0,0,0,220.26,92.68Z"/><path class="ed1517e6-29d6-4d43-bf72-9a37899f3948" d="M301.64,130a4.45,4.45,0,0,1,2.15.56,4,4,0,0,1,1.62,1.61,4.44,4.44,0,0,1,.59,2.19,4.33,4.33,0,0,1-.58,2.17,4.09,4.09,0,0,1-1.61,1.61,4.35,4.35,0,0,1-4.34,0,4.15,4.15,0,0,1-1.61-1.61,4.35,4.35,0,0,1,0-4.36,4.11,4.11,0,0,1,1.62-1.61A4.48,4.48,0,0,1,301.64,130Zm0,.85a3.57,3.57,0,0,0-1.73.45,3.25,3.25,0,0,0-1.3,1.3,3.54,3.54,0,0,0,0,3.51,3.29,3.29,0,0,0,1.3,1.29,3.46,3.46,0,0,0,3.48,0,3.43,3.43,0,0,0,1.3-1.29,3.54,3.54,0,0,0,0-3.51,3.22,3.22,0,0,0-1.31-1.3A3.53,3.53,0,0,0,301.65,130.86Zm-2,5.84v-4.62h2.42a1.9,1.9,0,0,1,.73.18,1.24,1.24,0,0,1,.43.45,1.35,1.35,0,0,1,.17.66,1.27,1.27,0,0,1-.32.86,1.57,1.57,0,0,1-.92.44,1,1,0,0,1,.32.17,1.8,1.8,0,0,1,.31.36s.15.23.35.56l.54.93h-1.16l-.39-.75a3.16,3.16,0,0,0-.64-.95,1.07,1.07,0,0,0-.65-.2h-.25v1.9Zm.94-2.63H301a4.78,4.78,0,0,0,1-.06.54.54,0,0,0,.31-.22.55.55,0,0,0,.12-.35.56.56,0,0,0-.43-.56,4,4,0,0,0-1-.07h-.38Z"/></svg>