<svg xmlns="http://www.w3.org/2000/svg" id="a12ea1ce-e13a-41db-a452-3d03422f4c4e" data-name="Capa 1" viewBox="0 0 310 170"><defs><style>.b76c5c53-7dd9-4d52-8f11-c16d9f27d51b{fill:#ed40a9;}</style></defs><path class="b76c5c53-7dd9-4d52-8f11-c16d9f27d51b" d="M50.44,125.46A48.28,48.28,0,1,1,104.76,65a11.65,11.65,0,0,0,4.73.53C104.08,42.7,82.7,25.94,58.2,25.94A51.87,51.87,0,0,0,47.26,128.51Z"/><path class="b76c5c53-7dd9-4d52-8f11-c16d9f27d51b" d="M49,110.15a27.39,27.39,0,1,1,31.36-44.8l.14.09A32.09,32.09,0,1,0,34.55,110l.11.15A37.15,37.15,0,1,1,90.82,66.64a27.4,27.4,0,0,1,9-1.84A43.56,43.56,0,1,0,47,119.91Z"/><path class="b76c5c53-7dd9-4d52-8f11-c16d9f27d51b" d="M83,114.46,64.51,132.23H80.27L78.5,141H47.8L49.18,134l18.53-17.76H53.19L55,107.54H84.42Z"/><path class="b76c5c53-7dd9-4d52-8f11-c16d9f27d51b" d="M91.42,139.84a13.89,13.89,0,0,1-5.92-5.27,14.57,14.57,0,0,1-2.08-7.79,20,20,0,0,1,2.7-10.38,18.66,18.66,0,0,1,7.5-7.1,23,23,0,0,1,10.86-2.53,20,20,0,0,1,9,1.89,14,14,0,0,1,5.93,5.28,14.62,14.62,0,0,1,2.07,7.78,20,20,0,0,1-2.7,10.39,18.55,18.55,0,0,1-7.49,7.09,22.91,22.91,0,0,1-10.87,2.53A20.06,20.06,0,0,1,91.42,139.84ZM106,131.22a8.83,8.83,0,0,0,3-3.72,12.36,12.36,0,0,0,1-5.11,6.07,6.07,0,0,0-6.55-6.5,7.93,7.93,0,0,0-4.65,1.39,8.83,8.83,0,0,0-3,3.72,12.36,12.36,0,0,0-1,5.11,6.06,6.06,0,0,0,6.54,6.5A7.92,7.92,0,0,0,106,131.22Z"/><path class="b76c5c53-7dd9-4d52-8f11-c16d9f27d51b" d="M128.74,107.54h15.09a22.09,22.09,0,0,1,9.1,1.72,13.13,13.13,0,0,1,5.9,4.92,13.71,13.71,0,0,1,2,7.54,19.08,19.08,0,0,1-2.67,10.15,17.81,17.81,0,0,1-7.43,6.73A23.94,23.94,0,0,1,140,141h-17.9Zm11.61,24.64a8.52,8.52,0,0,0,6.75-2.75,10.27,10.27,0,0,0,2.41-7,5.65,5.65,0,0,0-1.79-4.49,7.6,7.6,0,0,0-5.18-1.58h-4.3l-3.15,15.86Z"/><path class="b76c5c53-7dd9-4d52-8f11-c16d9f27d51b" d="M168.19,107.54h11.27L172.77,141H161.5Z"/><path class="b76c5c53-7dd9-4d52-8f11-c16d9f27d51b" d="M204.87,135.14H192.12L188.78,141h-11.9l21.3-33.43h11.08L217.19,141H206ZM203.29,127l-1.62-8.55L196.75,127Z"/><path class="b76c5c53-7dd9-4d52-8f11-c16d9f27d51b" d="M226.23,139.84a14.22,14.22,0,0,1-6-5.27,14.42,14.42,0,0,1-2.12-7.79,19.86,19.86,0,0,1,2.7-10.36,18.77,18.77,0,0,1,7.5-7.09,22.85,22.85,0,0,1,10.91-2.56,19.88,19.88,0,0,1,8.55,1.75,12,12,0,0,1,5.54,4.94l-8.12,6.35a7.26,7.26,0,0,0-6.69-3.92,8.62,8.62,0,0,0-4.68,1.29,8.79,8.79,0,0,0-3.2,3.61,11.78,11.78,0,0,0-1.15,5.28,6.25,6.25,0,0,0,1.89,4.75,7,7,0,0,0,5,1.79,9.45,9.45,0,0,0,7.45-3.87l6.64,6.35a16.84,16.84,0,0,1-6.61,5.11,22.35,22.35,0,0,1-8.58,1.53A20.4,20.4,0,0,1,226.23,139.84Z"/><path class="b76c5c53-7dd9-4d52-8f11-c16d9f27d51b" d="M260.9,139.84a14,14,0,0,1-5.92-5.27,14.66,14.66,0,0,1-2.08-7.79,20,20,0,0,1,2.7-10.38,18.66,18.66,0,0,1,7.5-7.1A23,23,0,0,1,274,106.77a20.07,20.07,0,0,1,9,1.89,14,14,0,0,1,5.92,5.28,14.54,14.54,0,0,1,2.08,7.78,20,20,0,0,1-2.7,10.39,18.64,18.64,0,0,1-7.5,7.09,22.89,22.89,0,0,1-10.86,2.53A20.07,20.07,0,0,1,260.9,139.84Zm14.57-8.62a8.83,8.83,0,0,0,3-3.72,12.36,12.36,0,0,0,1.05-5.11,6.06,6.06,0,0,0-6.54-6.5,8,8,0,0,0-4.66,1.39,8.83,8.83,0,0,0-3,3.72,12.36,12.36,0,0,0-1.05,5.11,6.06,6.06,0,0,0,6.54,6.5A7.89,7.89,0,0,0,275.47,131.22Z"/><path class="b76c5c53-7dd9-4d52-8f11-c16d9f27d51b" d="M54.8,102.09a20.78,20.78,0,0,1-5.93-2.32L53,92a20.9,20.9,0,0,0,10.6,2.92,7.6,7.6,0,0,0,3.09-.5c.72-.32,1.08-.77,1.08-1.34s-.36-1-1.1-1.3a21.77,21.77,0,0,0-3.48-1.08A44.31,44.31,0,0,1,57.94,89a9.76,9.76,0,0,1-3.61-2.56,6.53,6.53,0,0,1-1.55-4.56,10.38,10.38,0,0,1,1.91-6.22,12.12,12.12,0,0,1,5.5-4.13,22.51,22.51,0,0,1,8.49-1.46,28.8,28.8,0,0,1,6.53.7,18.1,18.1,0,0,1,5.23,2l-3.82,7.72a14.21,14.21,0,0,0-4.06-1.75A17.82,17.82,0,0,0,68,78.17a7.51,7.51,0,0,0-3.41.63c-.81.42-1.21.92-1.21,1.48s.36,1,1.1,1.35a21.63,21.63,0,0,0,3.61,1.08,39.22,39.22,0,0,1,5.14,1.53,9.22,9.22,0,0,1,3.62,2.51,6.48,6.48,0,0,1,1.52,4.49,10.12,10.12,0,0,1-1.93,6.15,12.32,12.32,0,0,1-5.52,4.11A22.38,22.38,0,0,1,62.48,103,32.55,32.55,0,0,1,54.8,102.09Z"/><path class="b76c5c53-7dd9-4d52-8f11-c16d9f27d51b" d="M88.77,101.19a13.14,13.14,0,0,1-5.57-5,13.77,13.77,0,0,1-2-7.32,18.82,18.82,0,0,1,2.54-9.77,17.5,17.5,0,0,1,7-6.67,21.48,21.48,0,0,1,10.21-2.38,18.94,18.94,0,0,1,8.42,1.77,13.16,13.16,0,0,1,5.57,5A13.72,13.72,0,0,1,117,84.15a18.81,18.81,0,0,1-2.53,9.76,17.44,17.44,0,0,1-7,6.67A21.55,21.55,0,0,1,97.19,103,18.94,18.94,0,0,1,88.77,101.19Zm13.7-8.11a8.35,8.35,0,0,0,2.85-3.5,11.6,11.6,0,0,0,1-4.81,5.7,5.7,0,0,0-6.16-6.1A7.42,7.42,0,0,0,95.78,80a8.36,8.36,0,0,0-2.86,3.5,11.75,11.75,0,0,0-1,4.81,5.69,5.69,0,0,0,6.15,6.1A7.47,7.47,0,0,0,102.47,93.08Z"/><path class="b76c5c53-7dd9-4d52-8f11-c16d9f27d51b" d="M148.81,88.43a13,13,0,0,1-6.26,4.65l5.25,9.16h-11l-4.45-7.9h-2.6l-1.57,7.9h-10.6l6.28-31.43H138q6.19,0,9.63,2.72A9.15,9.15,0,0,1,151,81.14,12.25,12.25,0,0,1,148.81,88.43ZM136.35,79H132.8l-1.48,7.37h4.36a4.92,4.92,0,0,0,3.41-1.1,4,4,0,0,0,1.21-3.08C140.3,80.05,139,79,136.35,79Z"/><path class="b76c5c53-7dd9-4d52-8f11-c16d9f27d51b" d="M162,79h-9.2l1.66-8.22h29L181.84,79h-9.21L168,102.24h-10.6Z"/><path class="b76c5c53-7dd9-4d52-8f11-c16d9f27d51b" d="M195,78.8l-.72,3.69h13.29l-1.52,7.63H192.75l-.81,4.13H207.7l-1.61,8H180l6.29-31.43h25.55l-1.62,8Z"/><path class="b76c5c53-7dd9-4d52-8f11-c16d9f27d51b" d="M219.44,101.19a13.17,13.17,0,0,1-5.56-5,13.68,13.68,0,0,1-2-7.32,18.82,18.82,0,0,1,2.54-9.77,17.5,17.5,0,0,1,7-6.67,21.52,21.52,0,0,1,10.22-2.38,18.94,18.94,0,0,1,8.42,1.77,13.22,13.22,0,0,1,5.57,5,13.72,13.72,0,0,1,1.95,7.32,18.81,18.81,0,0,1-2.54,9.76,17.44,17.44,0,0,1-7,6.67A21.52,21.52,0,0,1,227.86,103,18.94,18.94,0,0,1,219.44,101.19Zm13.7-8.11a8.35,8.35,0,0,0,2.85-3.5,11.6,11.6,0,0,0,1-4.81,5.69,5.69,0,0,0-6.15-6.1,7.43,7.43,0,0,0-4.38,1.3,8.41,8.41,0,0,0-2.85,3.5,11.6,11.6,0,0,0-1,4.81,5.69,5.69,0,0,0,6.15,6.1A7.43,7.43,0,0,0,233.14,93.08Z"/><path class="b76c5c53-7dd9-4d52-8f11-c16d9f27d51b" d="M298.66,132.32a4.41,4.41,0,0,1,2.14.56,4,4,0,0,1,1.61,1.6,4.35,4.35,0,0,1,0,4.34,4.13,4.13,0,0,1-1.61,1.6,4.37,4.37,0,0,1-2.16.58,4.43,4.43,0,0,1-2.16-.58,4.17,4.17,0,0,1-1.6-1.6,4.42,4.42,0,0,1-.57-2.16,4.37,4.37,0,0,1,.58-2.18,4.06,4.06,0,0,1,1.61-1.6A4.47,4.47,0,0,1,298.66,132.32Zm0,.85a3.53,3.53,0,0,0-1.72.45,3.37,3.37,0,0,0-1.29,1.28,3.6,3.6,0,0,0-.47,1.76,3.49,3.49,0,0,0,.46,1.74,3.33,3.33,0,0,0,1.29,1.29,3.48,3.48,0,0,0,1.73.46,3.42,3.42,0,0,0,1.73-.46,3.33,3.33,0,0,0,1.29-1.29,3.46,3.46,0,0,0,0-3.5,3.24,3.24,0,0,0-1.29-1.28A3.53,3.53,0,0,0,298.67,133.17Zm-2,5.81v-4.6h2.4a2,2,0,0,1,.72.18,1.21,1.21,0,0,1,.43.44,1.26,1.26,0,0,1,.18.66,1.22,1.22,0,0,1-.33.86,1.47,1.47,0,0,1-.91.43,1.52,1.52,0,0,1,.32.18,2.51,2.51,0,0,1,.31.35s.15.23.34.56l.54.93h-1.15l-.39-.75a3.16,3.16,0,0,0-.64-.95,1,1,0,0,0-.65-.19h-.24V139Zm.93-2.62H298a4.72,4.72,0,0,0,1-.06.59.59,0,0,0,.42-.57.51.51,0,0,0-.11-.34.61.61,0,0,0-.31-.22,4.86,4.86,0,0,0-1-.06h-.38Z"/></svg>