<svg xmlns="http://www.w3.org/2000/svg" id="affe90e7-8145-4297-a3bf-98fd933ed4dc" data-name="Capa 1" viewBox="0 0 310 170"><defs><style>.ab85a63e-1430-4527-b176-fd8012989d1b{fill:#00a0df;}</style></defs><path class="ab85a63e-1430-4527-b176-fd8012989d1b" d="M44.22,124.19a47.43,47.43,0,1,1,57.6-59.14,22.88,22.88,0,0,1,3.9.91,51,51,0,1,0-62.2,61.7Z"/><path class="ab85a63e-1430-4527-b176-fd8012989d1b" d="M47.06,110a26.92,26.92,0,1,1,31-43.9l.14.09A31.52,31.52,0,1,0,33.05,110l.11.15A36.5,36.5,0,1,1,88,66.38a27.27,27.27,0,0,1,8.91-1.66,42.79,42.79,0,1,0-51.73,54.91Z"/><path class="ab85a63e-1430-4527-b176-fd8012989d1b" d="M62.24,115.06l-.75,3.85H75.37l-1.59,8H59.85L59,131.2H75.47l-1.69,8.35H46.48L53,106.71h26.7l-1.69,8.35Z"/><path class="ab85a63e-1430-4527-b176-fd8012989d1b" d="M83.07,139.39A21.54,21.54,0,0,1,76.88,137l4.26-8.16a22,22,0,0,0,11.08,3.05,7.86,7.86,0,0,0,3.23-.52c.75-.34,1.13-.81,1.13-1.4s-.38-1-1.15-1.36a23,23,0,0,0-3.63-1.13,43.75,43.75,0,0,1-5.45-1.71,10.09,10.09,0,0,1-3.77-2.68A6.85,6.85,0,0,1,81,118.3a10.89,10.89,0,0,1,2-6.5,12.69,12.69,0,0,1,5.75-4.31A23.4,23.4,0,0,1,97.56,106a30.7,30.7,0,0,1,6.83.73,19.14,19.14,0,0,1,5.47,2.09l-4,8.07a14.58,14.58,0,0,0-4.25-1.83,18.49,18.49,0,0,0-4.76-.61,8,8,0,0,0-3.56.65c-.85.44-1.27,1-1.27,1.55s.38,1.07,1.15,1.41A23,23,0,0,0,97,119.15a42.15,42.15,0,0,1,5.38,1.59,9.66,9.66,0,0,1,3.77,2.63,6.74,6.74,0,0,1,1.6,4.69,10.61,10.61,0,0,1-2,6.43,13,13,0,0,1-5.77,4.29,23.26,23.26,0,0,1-8.82,1.52A33.74,33.74,0,0,1,83.07,139.39Z"/><path class="ab85a63e-1430-4527-b176-fd8012989d1b" d="M140.21,109.57a9.66,9.66,0,0,1,3.61,8,13.07,13.07,0,0,1-2,7.27,13.41,13.41,0,0,1-5.81,4.88,20.75,20.75,0,0,1-8.76,1.73h-5.67l-1.6,8.07H108.87l6.57-32.84H130Q136.6,106.71,140.21,109.57Zm-8.87,12.23a4.12,4.12,0,0,0,1.27-3.22q0-3.33-4.13-3.33h-3.7l-1.55,7.7h4.55A5.13,5.13,0,0,0,131.34,121.8Z"/><path class="ab85a63e-1430-4527-b176-fd8012989d1b" d="M159,115.06l-.75,3.85h13.89l-1.6,8H156.63l-.84,4.31h16.46l-1.69,8.35h-27.3l6.57-32.84h26.69l-1.69,8.35Z"/><path class="ab85a63e-1430-4527-b176-fd8012989d1b" d="M184.66,138.45a13.92,13.92,0,0,1-5.91-5.18,14.11,14.11,0,0,1-2.09-7.65,19.58,19.58,0,0,1,2.65-10.18,18.54,18.54,0,0,1,7.37-7A22.47,22.47,0,0,1,197.4,106a19.49,19.49,0,0,1,8.4,1.72,11.77,11.77,0,0,1,5.44,4.85l-8,6.24a7.13,7.13,0,0,0-6.56-3.85,8.48,8.48,0,0,0-4.6,1.27,8.61,8.61,0,0,0-3.15,3.54,11.58,11.58,0,0,0-1.12,5.19,6.13,6.13,0,0,0,1.85,4.66,6.8,6.8,0,0,0,4.9,1.76,9.26,9.26,0,0,0,7.32-3.8l6.52,6.24a16.43,16.43,0,0,1-6.49,5,22,22,0,0,1-8.43,1.5A20,20,0,0,1,184.66,138.45Z"/><path class="ab85a63e-1430-4527-b176-fd8012989d1b" d="M216.3,106.71h11.08l-6.57,32.84H209.74Z"/><path class="ab85a63e-1430-4527-b176-fd8012989d1b" d="M250.08,133.83H237.56l-3.29,5.72H222.59l20.92-32.84H254.4l7.79,32.84h-11Zm-1.55-8-1.59-8.39-4.83,8.39Z"/><path class="ab85a63e-1430-4527-b176-fd8012989d1b" d="M270.54,106.71h11.07L276.78,131H291.6l-1.73,8.58H264Z"/><path class="ab85a63e-1430-4527-b176-fd8012989d1b" d="M52.18,101.36a20.25,20.25,0,0,1-5.82-2.27l4-7.68a20.59,20.59,0,0,0,10.41,2.87,7.39,7.39,0,0,0,3-.49c.71-.32,1.06-.76,1.06-1.32s-.36-1-1.08-1.28a21.71,21.71,0,0,0-3.42-1.06,41.61,41.61,0,0,1-5.12-1.61A9.5,9.5,0,0,1,51.72,86a6.48,6.48,0,0,1-1.52-4.48,10.24,10.24,0,0,1,1.87-6.11,12.08,12.08,0,0,1,5.41-4.06,22.19,22.19,0,0,1,8.34-1.43,28.91,28.91,0,0,1,6.41.68,18.06,18.06,0,0,1,5.14,2l-3.75,7.59a14,14,0,0,0-4-1.72,17.62,17.62,0,0,0-4.47-.57,7.29,7.29,0,0,0-3.36.62c-.79.41-1.19.89-1.19,1.45s.36,1,1.08,1.33a21.75,21.75,0,0,0,3.55,1,38.35,38.35,0,0,1,5.05,1.5,9.31,9.31,0,0,1,3.56,2.47,6.42,6.42,0,0,1,1.49,4.42,10,10,0,0,1-1.89,6,12.31,12.31,0,0,1-5.43,4,22.06,22.06,0,0,1-8.29,1.43A32,32,0,0,1,52.18,101.36Z"/><path class="ab85a63e-1430-4527-b176-fd8012989d1b" d="M85.56,100.48a12.88,12.88,0,0,1-5.47-4.88,13.47,13.47,0,0,1-1.92-7.19,18.48,18.48,0,0,1,2.49-9.59,17.1,17.1,0,0,1,6.93-6.55,21.14,21.14,0,0,1,10-2.34,18.62,18.62,0,0,1,8.28,1.74,12.91,12.91,0,0,1,5.46,4.88,13.36,13.36,0,0,1,1.92,7.19,18.5,18.5,0,0,1-2.49,9.59,17.2,17.2,0,0,1-6.92,6.55,21.21,21.21,0,0,1-10,2.34A18.58,18.58,0,0,1,85.56,100.48Zm13.45-8a8.13,8.13,0,0,0,2.8-3.44,11.33,11.33,0,0,0,1-4.72,5.62,5.62,0,0,0-6.05-6,7.33,7.33,0,0,0-4.3,1.28,8.19,8.19,0,0,0-2.8,3.44,11.39,11.39,0,0,0-1,4.72,5.59,5.59,0,0,0,6,6A7.26,7.26,0,0,0,99,92.51Z"/><path class="ab85a63e-1430-4527-b176-fd8012989d1b" d="M144.54,88a13,13,0,0,1-6.15,4.56l5.16,9H132.74l-4.37-7.76h-2.56l-1.54,7.76H113.86L120,70.63h13.86q6.08,0,9.46,2.67a9,9,0,0,1,3.37,7.48A12.1,12.1,0,0,1,144.54,88ZM132.3,78.66h-3.49l-1.45,7.24h4.28A4.82,4.82,0,0,0,135,84.82a3.89,3.89,0,0,0,1.19-3C136.18,79.71,134.88,78.66,132.3,78.66Z"/><path class="ab85a63e-1430-4527-b176-fd8012989d1b" d="M157.53,78.71h-9l1.63-8.08h28.5L177,78.71h-9l-4.54,22.8H153Z"/><path class="ab85a63e-1430-4527-b176-fd8012989d1b" d="M190,78.49l-.71,3.61h13.06l-1.5,7.5h-13.1l-.8,4.06H202.4l-1.59,7.85H175.13l6.18-30.88h25.1l-1.59,7.86Z"/><path class="ab85a63e-1430-4527-b176-fd8012989d1b" d="M213.93,100.48a12.88,12.88,0,0,1-5.47-4.88,13.47,13.47,0,0,1-1.92-7.19A18.48,18.48,0,0,1,209,78.82,17.16,17.16,0,0,1,216,72.27a21.18,21.18,0,0,1,10-2.34,18.61,18.61,0,0,1,8.27,1.74,12.94,12.94,0,0,1,5.47,4.88,13.45,13.45,0,0,1,1.92,7.19,18.41,18.41,0,0,1-2.5,9.59,17.2,17.2,0,0,1-6.92,6.55,21.18,21.18,0,0,1-10,2.34A18.58,18.58,0,0,1,213.93,100.48Zm13.46-8a8.28,8.28,0,0,0,2.8-3.44,11.48,11.48,0,0,0,1-4.72,5.61,5.61,0,0,0-6-6,7.35,7.35,0,0,0-4.3,1.28,8.26,8.26,0,0,0-2.8,3.44,11.39,11.39,0,0,0-1,4.72,5.59,5.59,0,0,0,6,6A7.31,7.31,0,0,0,227.39,92.51Z"/><path class="ab85a63e-1430-4527-b176-fd8012989d1b" d="M299.61,130.78a4.55,4.55,0,0,1,2.17.56,4.16,4.16,0,0,1,1.63,1.62,4.49,4.49,0,0,1,.59,2.21,4.37,4.37,0,0,1-.58,2.18A4.2,4.2,0,0,1,301.8,139a4.41,4.41,0,0,1-4.37,0,4.07,4.07,0,0,1-1.62-1.62,4.35,4.35,0,0,1,0-4.39,4.1,4.1,0,0,1,1.63-1.62A4.52,4.52,0,0,1,299.61,130.78Zm0,.86a3.61,3.61,0,0,0-1.74.45,3.34,3.34,0,0,0-1.31,1.3,3.57,3.57,0,0,0-.47,1.78,3.52,3.52,0,0,0,.46,1.75,3.3,3.3,0,0,0,1.31,1.31,3.49,3.49,0,0,0,3.5,0,3.37,3.37,0,0,0,1.31-1.31,3.53,3.53,0,0,0,.47-1.75,3.58,3.58,0,0,0-.48-1.78,3.34,3.34,0,0,0-1.31-1.3A3.64,3.64,0,0,0,299.62,131.64Zm-2,5.87v-4.65h2.43a1.89,1.89,0,0,1,.74.19,1.14,1.14,0,0,1,.43.44,1.29,1.29,0,0,1,.18.67,1.22,1.22,0,0,1-.33.86,1.52,1.52,0,0,1-.93.45,1.26,1.26,0,0,1,.33.17,2.2,2.2,0,0,1,.31.36,6.19,6.19,0,0,1,.35.57l.55.93h-1.17l-.39-.75a3.06,3.06,0,0,0-.66-1,1,1,0,0,0-.65-.2h-.24v1.91Zm.95-2.64H299a5,5,0,0,0,1-.06.65.65,0,0,0,.31-.23.61.61,0,0,0,.11-.35.54.54,0,0,0-.11-.35.63.63,0,0,0-.32-.22,4.84,4.84,0,0,0-1-.06h-.38Z"/></svg>