<svg xmlns="http://www.w3.org/2000/svg" id="faf4803e-ee6c-41d0-8eac-99d3e557c5e2" data-name="Capa 1" viewBox="0 0 310 170"><defs><style>.b060da6f-2d52-4bfb-ac7a-2b1c01f232d8{fill:#e16e0d;}</style></defs><path class="b060da6f-2d52-4bfb-ac7a-2b1c01f232d8" d="M64.82,114.82l-.74,3.76H77.67l-1.56,7.8H62.48l-.83,4.22H77.76l-1.65,8.17H49.4l6.43-32.12h26.1l-1.65,8.17Z"/><path class="b060da6f-2d52-4bfb-ac7a-2b1c01f232d8" d="M79.14,136.24l4.17-8a21.42,21.42,0,0,0,10.83,3c2.8,0,4.27-.73,4.27-1.88,0-3.39-15.28-1.42-15.28-11.38,0-7.29,6.1-12.07,16.24-12.07,4.77,0,9,1,12,2.76l-3.9,7.89a16.68,16.68,0,0,0-8.81-2.39c-3.16,0-4.72,1.06-4.72,2.16,0,3.53,15.32,1.28,15.32,11.2,0,7.15-6.24,12-16.24,12C87.3,139.5,82.21,138.13,79.14,136.24Z"/><path class="b060da6f-2d52-4bfb-ac7a-2b1c01f232d8" d="M144.62,117.29c0,8.13-6.38,13.59-16.25,13.59h-5.55l-1.56,7.89H110.43l6.42-32.12h14.28C139.75,106.65,144.62,110.59,144.62,117.29Zm-11,1c0-2.3-1.56-3.26-4-3.26H126l-1.52,7.52h4.45C131.91,122.52,133.65,121,133.65,118.26Z"/><path class="b060da6f-2d52-4bfb-ac7a-2b1c01f232d8" d="M159.53,114.82l-.74,3.76h13.59l-1.56,7.8H157.19l-.83,4.22h16.11l-1.65,8.17H144.11l6.43-32.12h26.1L175,114.82Z"/><path class="b060da6f-2d52-4bfb-ac7a-2b1c01f232d8" d="M176.78,125.14c0-11.29,8.4-19.23,20.28-19.23,6.15,0,11.2,2.3,13.54,6.43l-7.8,6.1a7,7,0,0,0-6.42-3.76c-5.1,0-8.68,4-8.68,9.77,0,3.76,2.62,6.29,6.61,6.29a9.06,9.06,0,0,0,7.16-3.72l6.38,6.1c-3.9,4.78-8.68,6.38-14.6,6.38C183.3,139.5,176.78,133.67,176.78,125.14Z"/><path class="b060da6f-2d52-4bfb-ac7a-2b1c01f232d8" d="M215.56,106.65h10.82L220,138.77H209.13Z"/><path class="b060da6f-2d52-4bfb-ac7a-2b1c01f232d8" d="M248.59,133.17H236.34l-3.21,5.6H221.7l20.47-32.12h10.64l7.62,32.12H249.65Zm-1.51-7.8-1.56-8.21-4.73,8.21Z"/><path class="b060da6f-2d52-4bfb-ac7a-2b1c01f232d8" d="M268.6,106.65h10.83l-4.73,23.72h14.5l-1.69,8.4H262.18Z"/><path class="b060da6f-2d52-4bfb-ac7a-2b1c01f232d8" d="M83,76.86,65.23,93.93H80.37l-1.69,8.4H49.17l1.33-6.65L68.31,78.61h-14l1.7-8.4H84.37Z"/><path class="b060da6f-2d52-4bfb-ac7a-2b1c01f232d8" d="M81.61,88.7c0-11.33,8.45-19.22,20.24-19.22,10,0,16.29,5.92,16.29,14.36,0,11.33-8.44,19.23-20.24,19.23C87.9,103.07,81.61,97.15,81.61,88.7Zm25.61-4.22c0-3.71-2.34-6.24-6.29-6.24-5.32,0-8.39,4.54-8.39,9.82,0,3.72,2.34,6.24,6.28,6.24C104.14,94.3,107.22,89.76,107.22,84.48Z"/><path class="b060da6f-2d52-4bfb-ac7a-2b1c01f232d8" d="M123.37,70.21h14.5c10.14,0,16.38,5.19,16.38,13.63,0,11.33-8.4,18.49-20.1,18.49H117Zm11.15,23.68c5.74,0,8.81-4.13,8.81-9.41,0-3.71-2.34-5.83-6.7-5.83H132.5l-3,15.24Z"/><path class="b060da6f-2d52-4bfb-ac7a-2b1c01f232d8" d="M159.48,70.21h10.83l-6.42,32.12H153.06Z"/><path class="b060da6f-2d52-4bfb-ac7a-2b1c01f232d8" d="M190.73,96.73H178.48l-3.21,5.6H163.84l20.47-32.12H195l7.62,32.12H191.79Zm-1.51-7.8-1.56-8.21-4.73,8.21Z"/><path class="b060da6f-2d52-4bfb-ac7a-2b1c01f232d8" d="M203.85,88.7c0-11.28,8.4-19.22,20.29-19.22,6.14,0,11.19,2.29,13.53,6.42l-7.8,6.1a7,7,0,0,0-6.42-3.76c-5.1,0-8.67,4-8.67,9.78,0,3.76,2.61,6.28,6.6,6.28a9,9,0,0,0,7.16-3.71l6.38,6.1c-3.9,4.77-8.67,6.38-14.59,6.38C210.37,103.07,203.85,97.24,203.85,88.7Z"/><path class="b060da6f-2d52-4bfb-ac7a-2b1c01f232d8" d="M235.47,88.7c0-11.33,8.44-19.22,20.24-19.22,10,0,16.29,5.92,16.29,14.36,0,11.33-8.45,19.23-20.24,19.23C241.76,103.07,235.47,97.15,235.47,88.7Zm25.61-4.22c0-3.71-2.35-6.24-6.29-6.24-5.32,0-8.4,4.54-8.4,9.82,0,3.72,2.34,6.24,6.29,6.24C258,94.3,261.08,89.76,261.08,84.48Z"/><path class="b060da6f-2d52-4bfb-ac7a-2b1c01f232d8" d="M50.8,124a46.49,46.49,0,1,1,52.31-58.19,11.12,11.12,0,0,0,4.55.52c-5.2-22-25.79-38.17-49.38-38.17a49.95,49.95,0,0,0-10.54,98.77Z"/><path class="b060da6f-2d52-4bfb-ac7a-2b1c01f232d8" d="M49.42,109.25a26.38,26.38,0,1,1,30.2-43.14l.13.09A30.9,30.9,0,1,0,35.5,109.14l.11.14A35.77,35.77,0,1,1,89.69,67.36a26.16,26.16,0,0,1,8.62-1.77,41.94,41.94,0,1,0-50.79,53.06Z"/><path class="b060da6f-2d52-4bfb-ac7a-2b1c01f232d8" d="M296.82,130.42a4.26,4.26,0,0,1,2.07.54,3.93,3.93,0,0,1,1.55,1.53,4.29,4.29,0,0,1,.56,2.1,4.18,4.18,0,0,1-.55,2.08,4,4,0,0,1-1.55,1.55,4.19,4.19,0,0,1-4.15,0,4,4,0,0,1-1.55-1.55,4.18,4.18,0,0,1-.55-2.08,4.29,4.29,0,0,1,.56-2.1,3.93,3.93,0,0,1,1.55-1.53A4.26,4.26,0,0,1,296.82,130.42Zm0,.82a3.39,3.39,0,0,0-1.65.43,3.15,3.15,0,0,0-1.25,1.23,3.41,3.41,0,0,0,0,3.37,3.21,3.21,0,0,0,1.24,1.24,3.32,3.32,0,0,0,3.34,0,3.21,3.21,0,0,0,1.24-1.24,3.35,3.35,0,0,0,0-3.37,3.08,3.08,0,0,0-1.25-1.23A3.36,3.36,0,0,0,296.83,131.24Zm-1.89,5.59V132.4h2.32a1.7,1.7,0,0,1,.69.17,1.13,1.13,0,0,1,.41.43,1.15,1.15,0,0,1,.17.63,1.19,1.19,0,0,1-.31.83,1.49,1.49,0,0,1-.88.42,1.11,1.11,0,0,1,.31.16,3.12,3.12,0,0,1,.3.34l.32.54.53.9h-1.11l-.37-.72a3,3,0,0,0-.63-.91,1,1,0,0,0-.62-.19h-.23v1.82Zm.9-2.52h.36a4.43,4.43,0,0,0,1-.06.55.55,0,0,0,.3-.21.58.58,0,0,0,.11-.34.57.57,0,0,0-.11-.33.55.55,0,0,0-.3-.21,4.5,4.5,0,0,0-1-.06h-.36Z"/></svg>