<svg xmlns="http://www.w3.org/2000/svg" id="e5096500-1e3e-4280-8566-b3e73cc9ba54" data-name="Capa 1" viewBox="0 0 310 170"><defs><style>.b538f877-26b3-462c-92c6-f0435086b3de{fill:#ffb600}</style></defs><path d="M54.85 131.66a56.75 56.75 0 1 1 68.92-70.75 27.55 27.55 0 0 1 4.66 1.09A61 61 0 1 0 54 135.8Z" class="b538f877-26b3-462c-92c6-f0435086b3de"/><path d="M58.25 114.65a32.19 32.19 0 1 1 37.08-52.51l.17.1a37.72 37.72 0 1 0-54 52.41l.13.18a43.66 43.66 0 1 1 65.54-52.33 32.54 32.54 0 0 1 10.65-2 51.18 51.18 0 1 0-61.88 65.7Z" class="b538f877-26b3-462c-92c6-f0435086b3de"/><path d="m114.88 109.88-8.09 41h-12.6l3.63-18.7-11.54 15h-6.1l-6.33-14.78-3.69 18.47H57.55l8.21-41H77l8.9 21.8 17.18-21.8ZM143.37 143.76h-15.65l-4.1 7.15H109l26.14-41h13.6l9.73 41h-13.75Zm-1.93-10-2-10.49-6 10.49ZM180.91 136 178 150.91h-13.86l3-15.06-10.26-26h13.89l5.57 14.18 11.43-14.18h13.89ZM207.22 149.53a17.1 17.1 0 0 1-7.26-6.48 17.88 17.88 0 0 1-2.56-9.55 24.54 24.54 0 0 1 3.32-12.75 22.76 22.76 0 0 1 9.2-8.7 28 28 0 0 1 13.33-3.11 24.74 24.74 0 0 1 11 2.31 17.26 17.26 0 0 1 7.27 6.48 17.93 17.93 0 0 1 2.54 9.56 24.58 24.58 0 0 1-3.31 12.71 22.76 22.76 0 0 1-9.2 8.7 28.17 28.17 0 0 1-13.34 3.11 24.59 24.59 0 0 1-10.99-2.28ZM225.1 139a10.76 10.76 0 0 0 3.72-4.57 15.13 15.13 0 0 0 1.29-6.27 7.41 7.41 0 0 0-8-8 9.68 9.68 0 0 0-5.71 1.7 10.76 10.76 0 0 0-3.72 4.57 15.09 15.09 0 0 0-1.29 6.27 7.44 7.44 0 0 0 8 8 9.75 9.75 0 0 0 5.71-1.7ZM288.42 132.89a17.17 17.17 0 0 1-8.18 6.06l6.86 12h-14.36l-5.8-10.32h-3.4l-2.05 10.32h-13.84l8.21-41h18.4q8.1 0 12.58 3.54a12 12 0 0 1 4.48 9.94 16.05 16.05 0 0 1-2.9 9.46Zm-16.27-12.34h-4.63l-1.93 9.61h5.68a6.38 6.38 0 0 0 4.46-1.44 5.14 5.14 0 0 0 1.58-4c0-2.79-1.72-4.17-5.16-4.17ZM64.38 104.34a24.29 24.29 0 0 1-7-2.71l4.8-9.19a24.56 24.56 0 0 0 12.45 3.43 9 9 0 0 0 3.65-.58c.84-.38 1.26-.91 1.26-1.58s-.43-1.14-1.29-1.53a25.88 25.88 0 0 0-4.09-1.27A49.2 49.2 0 0 1 68.08 89a11.34 11.34 0 0 1-4.25-3A7.71 7.71 0 0 1 62 80.62a12.3 12.3 0 0 1 2.24-7.31 14.33 14.33 0 0 1 6.46-4.85 26.35 26.35 0 0 1 10-1.72 34.07 34.07 0 0 1 7.68.82 21.72 21.72 0 0 1 6.15 2.35L90 79a16.66 16.66 0 0 0-4.78-2.06 20.82 20.82 0 0 0-5.35-.69 8.9 8.9 0 0 0-4 .74c-1 .49-1.43 1.07-1.43 1.74s.43 1.2 1.3 1.58A25.15 25.15 0 0 0 80 81.57a45 45 0 0 1 6 1.8 10.92 10.92 0 0 1 4.24 2.95 7.62 7.62 0 0 1 1.8 5.28 12 12 0 0 1-2.27 7.23 14.59 14.59 0 0 1-6.49 4.83 26.34 26.34 0 0 1-9.92 1.71 37.84 37.84 0 0 1-8.98-1.03ZM104.31 103.29a15.51 15.51 0 0 1-6.55-5.83 16.16 16.16 0 0 1-2.29-8.61 22.07 22.07 0 0 1 3-11.47 20.58 20.58 0 0 1 8.28-7.84 25.3 25.3 0 0 1 12-2.8 22.23 22.23 0 0 1 9.9 2.09 15.42 15.42 0 0 1 6.54 5.83 16.13 16.13 0 0 1 2.3 8.6 22.11 22.11 0 0 1-3 11.48 20.58 20.58 0 0 1-8.28 7.84 25.42 25.42 0 0 1-12 2.79 22.19 22.19 0 0 1-9.9-2.08Zm16.09-9.53a9.77 9.77 0 0 0 3.35-4.11 13.57 13.57 0 0 0 1.17-5.65 6.7 6.7 0 0 0-7.23-7.18 8.75 8.75 0 0 0-5.15 1.53 9.74 9.74 0 0 0-3.35 4.12 13.54 13.54 0 0 0-1.19 5.65 6.68 6.68 0 0 0 7.23 7.17 8.74 8.74 0 0 0 5.17-1.53ZM174.87 88.3a15.45 15.45 0 0 1-7.36 5.46l6.17 10.77h-12.93l-5.23-9.29h-3.06l-1.84 9.29h-12.46l7.39-36.94h16.57q7.29 0 11.32 3.19a10.76 10.76 0 0 1 4 8.94 14.39 14.39 0 0 1-2.57 8.58Zm-14.65-11.11h-4.17l-1.74 8.66h5.12a5.73 5.73 0 0 0 4-1.3 4.62 4.62 0 0 0 1.43-3.61q.01-3.75-4.64-3.75ZM190.41 77.24h-10.82l1.95-9.65h34.1l-2 9.65h-10.78l-5.43 27.29H185ZM229.2 77l-.84 4.33H244l-1.8 9h-15.69l-.95 4.86h18.52l-1.9 9.39h-30.71l7.39-36.94h30L247 77ZM257.88 103.29a15.48 15.48 0 0 1-6.54-5.83 16.16 16.16 0 0 1-2.3-8.61 22.16 22.16 0 0 1 3-11.47 20.54 20.54 0 0 1 8.29-7.84 25.28 25.28 0 0 1 12-2.8 22.19 22.19 0 0 1 9.89 2.09 15.42 15.42 0 0 1 6.54 5.83 16 16 0 0 1 2.3 8.6 22.1 22.1 0 0 1-3 11.48 20.61 20.61 0 0 1-8.29 7.84 25.35 25.35 0 0 1-12 2.79 22.2 22.2 0 0 1-9.89-2.08ZM274 93.76a9.77 9.77 0 0 0 3.35-4.11 13.73 13.73 0 0 0 1.14-5.65 6.7 6.7 0 0 0-7.23-7.18 8.77 8.77 0 0 0-5.15 1.53 9.81 9.81 0 0 0-3.35 4.12 13.69 13.69 0 0 0-1.16 5.65 6.69 6.69 0 0 0 7.23 7.17 8.77 8.77 0 0 0 5.17-1.53ZM296.08 141.16a5.06 5.06 0 0 1 2.43.63 4.71 4.71 0 0 1 1.83 1.82 4.95 4.95 0 0 1 0 4.92 4.62 4.62 0 0 1-1.82 1.82 4.94 4.94 0 0 1-4.9 0 4.62 4.62 0 0 1-1.82-1.82 4.95 4.95 0 0 1 0-4.92 4.71 4.71 0 0 1 1.83-1.82 5.06 5.06 0 0 1 2.45-.63Zm0 1a4 4 0 0 0-1.95.51 3.75 3.75 0 0 0-1.47 1.46 3.93 3.93 0 0 0 0 4 3.69 3.69 0 0 0 1.46 1.47 4 4 0 0 0 2 .53 3.93 3.93 0 0 0 2-.53 3.78 3.78 0 0 0 1.47-1.47 4 4 0 0 0 .52-2 4.06 4.06 0 0 0-.53-2 3.75 3.75 0 0 0-1.47-1.46 4.06 4.06 0 0 0-2.02-.55Zm-2.23 6.6v-5.23h2.73a2.28 2.28 0 0 1 .82.2 1.32 1.32 0 0 1 .48.51 1.44 1.44 0 0 1 .2.74 1.37 1.37 0 0 1-.37 1 1.71 1.71 0 0 1-1 .5 1.4 1.4 0 0 1 .37.19 3.79 3.79 0 0 1 .35.41q.06.08.39.63l.61 1.06h-1.31l-.43-.85a3.74 3.74 0 0 0-.73-1.08 1.18 1.18 0 0 0-.74-.22h-.27v2.15Zm1.06-3h.43a5.82 5.82 0 0 0 1.14-.07.73.73 0 0 0 .35-.25.71.71 0 0 0 .13-.4.65.65 0 0 0-.13-.39.63.63 0 0 0-.36-.24 4.8 4.8 0 0 0-1.13-.08h-.43Z" class="b538f877-26b3-462c-92c6-f0435086b3de"/></svg>